<svg width="261" height="170" fill="none" xmlns="http://www.w3.org/2000/svg"><path d="M213.785 83.261s12.723 1.236 19.168 8.974c0 0 6.816-8.963 19.051-8.778a24.033 24.033 0 0 0 5.49-12.396 23.849 23.849 0 0 0-2.124-13.354 24.406 24.406 0 0 0-9.077-10.167 25.079 25.079 0 0 0-13.214-3.825 25.083 25.083 0 0 0-13.249 3.704 24.419 24.419 0 0 0-9.173 10.084 23.845 23.845 0 0 0-2.25 13.334 24.028 24.028 0 0 0 5.372 12.446l.006-.022z" fill="#8BAA36"/><path opacity=".5" d="M213.785 83.261s12.723 1.236 19.168 8.974c0 0 6.816-8.963 19.051-8.778a24.033 24.033 0 0 0 5.49-12.396 23.849 23.849 0 0 0-2.124-13.354 24.406 24.406 0 0 0-9.077-10.167 25.079 25.079 0 0 0-13.214-3.825 25.083 25.083 0 0 0-13.249 3.704 24.419 24.419 0 0 0-9.173 10.084 23.845 23.845 0 0 0-2.25 13.334 24.028 24.028 0 0 0 5.372 12.446l.006-.022z" fill="#FAFAFA"/><path d="m232.527 45.425-.427 80.888h2.148l-1.721-80.888z" fill="#B8B8B8"/><path d="M233.173 89.877s4.291-7.585 12.024-9.905c0 0-8.16 1.9-12.213 8.43l.189 1.475zM233.173 68.389s4.291-7.586 12.024-9.906c0 0-8.16 1.896-12.213 8.43l.189 1.476zM233.173 79.122s4.291-7.586 12.024-9.906c0 0-8.16 1.9-12.213 8.43l.189 1.476zM232.535 73.862s-4.147-7.58-11.607-9.9c0 0 7.877 1.895 11.812 8.43l-.205 1.47zM232.535 84.399s-4.147-7.586-11.607-9.9c0 0 7.877 1.895 11.812 8.424l-.205 1.476z" fill="#B8B8B8"/><path d="M5.55 83.261s12.723 1.237 19.168 8.975c0 0 6.817-8.964 19.052-8.779a24.033 24.033 0 0 0 5.49-12.395 23.85 23.85 0 0 0-2.124-13.354 24.41 24.41 0 0 0-9.077-10.167 25.079 25.079 0 0 0-13.214-3.825 25.086 25.086 0 0 0-13.25 3.704 24.423 24.423 0 0 0-9.173 10.084 23.853 23.853 0 0 0-2.25 13.334 24.024 24.024 0 0 0 5.373 12.445l.005-.022z" fill="#8BAA36"/><path opacity=".5" d="M5.55 83.261s12.723 1.237 19.168 8.975c0 0 6.817-8.964 19.052-8.779a24.033 24.033 0 0 0 5.49-12.395 23.85 23.85 0 0 0-2.124-13.354 24.41 24.41 0 0 0-9.077-10.167 25.079 25.079 0 0 0-13.214-3.825 25.086 25.086 0 0 0-13.25 3.704 24.423 24.423 0 0 0-9.173 10.084 23.853 23.853 0 0 0-2.25 13.334 24.024 24.024 0 0 0 5.373 12.445l.005-.022z" fill="#FAFAFA"/><path d="m24.3 45.425-.433 80.889h2.148L24.3 45.425z" fill="#B8B8B8"/><path d="M24.95 89.878s4.291-7.586 12.024-9.906c0 0-8.16 1.9-12.212 8.43l.189 1.476zM24.95 68.389s4.291-7.586 12.024-9.906c0 0-8.16 1.896-12.212 8.43l.189 1.476zM24.95 79.122s4.291-7.585 12.024-9.905c0 0-8.16 1.9-12.212 8.43l.189 1.475zM24.303 73.862s-4.147-7.58-11.608-9.9c0 0 7.877 1.895 11.813 8.43l-.205 1.47zM24.303 84.4s-4.147-7.587-11.608-9.901c0 0 7.877 1.895 11.813 8.424l-.205 1.476z" fill="#B8B8B8"/><path d="M162.092 91.102s10.414 1.008 15.687 7.341c0 0 5.579-7.335 15.593-7.188a19.672 19.672 0 0 0 4.49-10.146c.486-3.73-.117-7.52-1.741-10.928a19.981 19.981 0 0 0-7.431-8.319 20.523 20.523 0 0 0-10.814-3.127 20.534 20.534 0 0 0-10.843 3.033 19.986 19.986 0 0 0-7.505 8.254 19.524 19.524 0 0 0-1.839 10.912 19.667 19.667 0 0 0 4.397 10.185l.006-.017z" fill="#8BAA36"/><path opacity=".5" d="M162.092 91.102s10.414 1.008 15.687 7.341c0 0 5.579-7.335 15.593-7.188a19.672 19.672 0 0 0 4.49-10.146c.486-3.73-.117-7.52-1.741-10.928a19.981 19.981 0 0 0-7.431-8.319 20.523 20.523 0 0 0-10.814-3.127 20.534 20.534 0 0 0-10.843 3.033 19.986 19.986 0 0 0-7.505 8.254 19.524 19.524 0 0 0-1.839 10.912 19.667 19.667 0 0 0 4.397 10.185l.006-.017z" fill="#FAFAFA"/><path d="m177.432 60.106-.35 66.208h1.76l-1.41-66.208z" fill="#B8B8B8"/><path d="M177.962 96.493s3.52-6.208 9.842-8.108c0 0-6.661 1.552-9.992 6.9l.15 1.208zM177.962 78.904s3.52-6.208 9.842-8.103c0 0-6.661 1.552-9.992 6.894l.15 1.21zM177.962 87.699s3.52-6.208 9.842-8.109c0 0-6.661 1.552-9.992 6.9l.15 1.209zM177.439 83.386s-3.391-6.208-9.498-8.103c0 0 6.445 1.552 9.67 6.894l-.172 1.21zM177.439 92.006s-3.391-6.208-9.498-8.103c0 0 6.445 1.552 9.67 6.9l-.172 1.203z" fill="#B8B8B8"/><path d="M61.334 91.103s10.414 1.007 15.687 7.34c0 0 5.551-7.335 15.593-7.188a19.669 19.669 0 0 0 4.49-10.145 19.52 19.52 0 0 0-1.74-10.928 19.978 19.978 0 0 0-7.431-8.32 20.525 20.525 0 0 0-10.815-3.127 20.53 20.53 0 0 0-10.842 3.034 19.988 19.988 0 0 0-7.506 8.253 19.522 19.522 0 0 0-1.84 10.913 19.661 19.661 0 0 0 4.398 10.184l.006-.016z" fill="#8BAA36"/><path opacity=".5" d="M61.334 91.103s10.414 1.007 15.687 7.34c0 0 5.551-7.335 15.593-7.188a19.669 19.669 0 0 0 4.49-10.145 19.52 19.52 0 0 0-1.74-10.928 19.978 19.978 0 0 0-7.431-8.32 20.525 20.525 0 0 0-10.815-3.127 20.53 20.53 0 0 0-10.842 3.034 19.988 19.988 0 0 0-7.506 8.253 19.522 19.522 0 0 0-1.84 10.913 19.661 19.661 0 0 0 4.398 10.184l.006-.016z" fill="#FAFAFA"/><path d="m76.68 60.106-.35 66.208h1.76l-1.41-66.208z" fill="#B8B8B8"/><path d="M77.234 96.494s3.52-6.208 9.842-8.109c0 0-6.661 1.552-9.992 6.9l.15 1.209zM77.234 78.905s3.52-6.208 9.842-8.103c0 0-6.661 1.552-9.992 6.894l.15 1.209zM77.234 87.699s3.52-6.208 9.842-8.109c0 0-6.661 1.552-9.992 6.9l.15 1.209zM76.68 83.386s-3.386-6.208-9.493-8.075c0 0 6.445 1.551 9.67 6.894l-.177 1.181zM76.68 92.006s-3.392-6.208-9.498-8.103c0 0 6.444 1.552 9.67 6.9l-.172 1.203z" fill="#B8B8B8"/><path d="M9.379 126.602H248.93" stroke="#22252A" stroke-width="1.047" stroke-miterlimit="10"/><path opacity=".3" d="M74.787 152.881c0 1.634-10.23 2.936-22.86 2.936-12.628 0-22.859-1.313-22.859-2.936 0-1.622 10.236-2.935 22.86-2.935 12.623 0 22.859 1.318 22.859 2.935zM122.642 152.881c0 1.634-10.236 2.936-22.859 2.936-12.623 0-22.86-1.313-22.86-2.936 0-1.622 10.237-2.935 22.86-2.935s22.859 1.318 22.859 2.935zM186.037 152.881c0 1.634-10.23 2.936-22.853 2.936-12.624 0-22.86-1.313-22.86-2.936 0-1.622 10.231-2.935 22.86-2.935 12.628 0 22.853 1.318 22.853 2.935zM238.995 152.881c0 1.634-10.236 2.936-22.86 2.936-12.623 0-22.881-1.313-22.881-2.936 0-1.622 10.236-2.935 22.859-2.935 12.623 0 22.882 1.318 22.882 2.935z" fill="#EAEAEA"/><path d="M165.656 67.017s-.939 3.812-.939 4.454c0 .397-.045.794-.133 1.182 0 0-2.004 2.358-1.737 3.011.324.508.787.916 1.337 1.176 0 0 1.066 3.812 2.138 4.063 1.1.201 2.213.332 3.33.392l.4 3.142 5.34-.784-1.332-4.716.555-4.062s.933-1.7 0-4.45-2.937-2.88-4.274-2.88a46.912 46.912 0 0 1-4.685-.528z" fill="#FAFAFA" stroke="#22252A" stroke-width="1.047" stroke-linecap="round" stroke-linejoin="round"/><path d="M168.053 65.056s-4.674-.136-4.54 1.046c.133 1.181 4.94 2.722 4.94 2.722s-1.604 1.046-.805 2.097c.799 1.05 2.67 1.966 2.67 1.966s-.555 2.227.272 2.358c.827.13 1.332-1.051 1.466-1.443.133-.393 1.604-.262 2.004.784.226.543.361 1.119.399 1.704 0 0 1.605-4.716 1.871-6.812.266-2.097-5.74-4.422-8.277-4.422z" fill="#22252A" stroke="#22252A" stroke-width="1.047" stroke-linecap="round" stroke-linejoin="round"/><path d="M171.016 75.31s1.615-3.485 2.581-1.77c.966 1.715.555 3.502-.394 3.692-.949.19-1.743.376-1.743.376" fill="#FAFAFA"/><path d="M171.016 75.31s1.615-3.485 2.581-1.77c.966 1.715.555 3.502-.394 3.692-.949.19-1.743.376-1.743.376" stroke="#22252A" stroke-width="1.047" stroke-linecap="round" stroke-linejoin="round"/><path d="M164.45 111.681c-.261.3-4.541 9.301-5.074 12.313-.533 3.011-4.002 20.96-4.141 21.744-.139.784-7.472 2.358-8.01 2.488-.539.131.555 1.574 2.137 1.966 1.582.392 6.145 2.227 7.216 1.176 1.072-1.051 2.537-6.943 2.937-7.596.4-.654 7.916-18.025 7.916-18.025s3.852-8.337 4.652-9.127c.799-.789-.95-4.28-1.621-5.331-.672-1.051-4.142-1.704-6.012.392z" fill="#22252A" stroke="#22252A" stroke-width="1.047" stroke-linecap="round" stroke-linejoin="round"/><path d="M163.652 111.795s1.87 8.779 2.803 11.921a24.927 24.927 0 0 0 3.886 7.335c1.071 1.443 6.278 14.158 6.278 14.158l.799 1.966s-.266.784-1.732 1.83c-1.465 1.045-5.612 2.75-4.541 3.147 1.072.398 5.341.393 7.345.262a6.996 6.996 0 0 0 4.535-2.097c.805-.92-1.332-3.539-1.332-4.062 0-.523-4.674-16.5-4.941-17.29-.266-.789-1.604-6.415-1.604-6.415v-6.398s.671-1.176.671-3.812-2.003-3.148-2.003-3.148l-10.953 1.051.789 1.552z" fill="#22252A" stroke="#22252A" stroke-width="1.047" stroke-linecap="round" stroke-linejoin="round"/><path d="M162.719 111.027s.272 2.228 1.071 2.358c.799.131 9.076 2.358 12.684-.261 0 0 .666-1.966.267-2.489-.4-.522-1.338-.261-6.14-.261-4.801 0-7.882 0-7.882.653z" fill="#8BAA36" stroke="#22252A" stroke-width="1.047" stroke-linecap="round" stroke-linejoin="round"/><path d="M174.992 81.687s-4.941.654-7.078 2.723c-2.137 2.07-4.002 5.897-4.935 9.431-.932 3.535-1.604 16.506-.272 17.16 1.333.653 12.551 1.312 14.433.544 1.882-.768-.133-6.943-.133-9.301 0-2.358 2.137-10.347 1.737-14.796-.399-4.449-3.752-5.761-3.752-5.761z" fill="#8BAA36" stroke="#22252A" stroke-width="1.047" stroke-linecap="round" stroke-linejoin="round"/><path d="M157.168 95.3c-.061-5.39-2.304-9.992-5.285-11.98v-1.089l-8.215.082c-4.624.05-8.327 5.99-8.233 13.233.095 7.242 3.886 13.107 8.516 13.069l8.215-.081v-1.09c2.887-2.107 5.03-6.752 5.002-12.143z" fill="#22252A" stroke="#22252A" stroke-width="1.047" stroke-linecap="round" stroke-linejoin="round"/><path d="M160.855 95.263c-.061-5.663-2.287-10.5-5.418-12.601v-1.16l-3.52.038c-4.862.05-8.731 6.273-8.648 13.903.083 7.629 4.085 13.771 8.948 13.722l3.52-.038v-1.154c3.058-2.167 5.179-7.068 5.118-12.71z" fill="#FAFAFA" stroke="#22252A" stroke-width="1.047" stroke-linecap="round" stroke-linejoin="round"/><path d="M164.383 95.225c.083 7.623-3.791 13.853-8.649 13.902-4.857.049-8.881-6.093-8.948-13.717-.067-7.624 3.791-13.854 8.649-13.908 4.857-.055 8.854 6.093 8.948 13.723z" fill="#737373" stroke="#22252A" stroke-width="1.047" stroke-linecap="round" stroke-linejoin="round"/><path d="M162.367 94.99c.039 3.61-1.798 6.562-4.102 6.59-2.304.027-4.202-2.892-4.241-6.535-.039-3.643 1.799-6.535 4.102-6.59 2.304-.054 4.202 2.92 4.241 6.535zM227.782 122.142c.459-3.357.654-6.743.583-10.129-1.804.817-12.329 1.117-13.295 1.138-.965.022-11.49-.321-13.294-1.138-.08 3.385.106 6.772.555 10.129.727 4.416 7.122 22.098 7.266 22.953.187.825.43 1.636.727 2.429 0 0-3.636 2.565-5.234 3.561-1.599.997-.433 1.427 1.165 1.427 1.599 0 4.941-.43 5.957-.43.899 0 2.464-.768 2.831-.953.366.185 1.932.953 2.825.953 1.022 0 4.363.43 5.962.43 1.599 0 2.776-.43 1.166-1.427-1.61-.996-5.235-3.561-5.235-3.561.297-.793.54-1.604.727-2.429.172-.871 6.567-18.553 7.294-22.953z" fill="#22252A" stroke="#22252A" stroke-width="1.047" stroke-linecap="round" stroke-linejoin="round"/><path d="M212.87 84.29s-5.623 1.802-8.527 3.61c-2.903 1.808-5.817 11.599-5.817 11.98a12.126 12.126 0 0 1-.677 1.993s-2.909-.664-3.486 1.71c-.578 2.374 2.903 5.419 4.746 5.517 1.843.098 2.42-.474 2.42-.474s-1.16 2.281-.677 3.229c.483.948 4.557 4.471 12.601 4.356 8.043-.114 13.877-1.426 14.727-2.564.849-1.139.971-3.518.971-3.518s3.003-.763 4.069-2.663c1.066-1.901.872-3.899.289-5.892-.583-1.993-3.586-7.782-5.618-11.017-2.032-3.234-6.3-5.037-8.326-5.609-2.027-.571-5.341-.658-6.695-.658z" fill="#8BAA36" stroke="#22252A" stroke-width="1.047" stroke-linecap="round" stroke-linejoin="round"/><path d="M214.575 92.294c.805-.26 3.331-2.46 4.302-4.66.385-.843.655-1.731.805-2.642l-.127-.038c-2.032-.572-5.329-.664-6.662-.664 0 0-1.177.375-2.731.958a9.645 9.645 0 0 0 .666 3.442c.877 2.2 2.965 3.871 3.747 3.605z" fill="#FAFAFA" stroke="#22252A" stroke-width="1.047" stroke-linecap="round" stroke-linejoin="round"/><path d="M223.814 96.738s2.326 12.171 4.963 13.424M201.529 108.626s2.909-10.744 3.103-11.79" stroke="#22252A" stroke-width="1.047" stroke-linecap="round" stroke-linejoin="round"/><path d="M227.573 102.238s-1.61.354-1.61 1.498M200.225 102.413s1.793 1.143 1.615 2.902" stroke="#22252A" stroke-width="1.047" stroke-linecap="round" stroke-linejoin="round"/><path d="M212.237 152.092c.9 0 2.465-.768 2.831-.953.367.185 1.932.953 2.826.953 1.021 0 4.363.43 5.962.43 1.598 0 2.775-.43 1.165-1.426-1.393-.866-4.313-2.914-5.057-3.437-1.715 1.536-5.107 1.155-5.107 1.155a17.877 17.877 0 0 1-2.037-.425c-1.016-.288-2.47-.855-2.47-.855s-3.636 2.565-5.235 3.562c-1.598.996-.433 1.426 1.166 1.426s4.94-.43 5.956-.43z" fill="#8BAA36" stroke="#22252A" stroke-width="1.047" stroke-linecap="round" stroke-linejoin="round"/><path d="M214.852 147.556v-24.865" stroke="#FAFAFA" stroke-width="1.047" stroke-linecap="round" stroke-linejoin="round"/><path d="m215.062 151.111-.21-2.325v-1.231" stroke="#22252A" stroke-width="1.047" stroke-linecap="round" stroke-linejoin="round"/><path d="M212.816 121.836h4.214" stroke="#FAFAFA" stroke-width="1.047" stroke-linecap="round" stroke-linejoin="round"/><path d="M207.309 70.022s-3.02 1.775-2.57 3.333c.45 1.557 1.815 1.857 1.515 2.723-.299.865-1.348 1.41-.155 1.955.68.298 1.391.523 2.121.67 0 0 1.11 3.779 3.019 4.443 1.91.664 5.218.223 7.561-.07a3.954 3.954 0 0 0 2.147-.891 3.83 3.83 0 0 0 1.25-1.93c.228-.812-.982.152-1.587-.741-.606-.893.305-3.186.982-5.19.677-2.004-1.36-5.783-4.002-7.041-2.643-1.258-7.689-.599-10.281 2.74z" fill="#22252A" stroke="#22252A" stroke-width="1.047" stroke-linecap="round" stroke-linejoin="round"/><path d="M212.388 82.934a19.695 19.695 0 0 0-.777 3.812c-.1 1.633 1.26 3.425 2.714 3.327 1.454-.098 2.709-2.946 2.903-4.356.195-1.41-.483-5.228-.483-5.228s-2.22.098-3.103.855a5.284 5.284 0 0 0-1.254 1.59z" fill="#FAFAFA" stroke="#22252A" stroke-width="1.047" stroke-linecap="round" stroke-linejoin="round"/><path d="M210.418 72.097s.072 2.222 2.342 4.357a14.077 14.077 0 0 0 4.757 2.968 4.027 4.027 0 0 1-.377 1.404 1.044 1.044 0 0 1-.441.434 1.066 1.066 0 0 1-.614.111h-.76s-1.111 2.554-2.454 2.924c-1.343.37-4.646.115-5.101-3.147-.456-3.262-.528-5.93-.15-6.6.377-.67 2.798-2.45 2.798-2.45zM234.166 100.795a5.92 5.92 0 0 0 .616-2.178c0-.992-1.877-2.413-2.221-2.767-.344-.354-.688-.316-.76.18a2.025 2.025 0 0 0 .649 1.487c.282.217.486.516.583.854.033.246-.622 1.449-.294 2.228.327.778 1.249 1.013 1.427.196z" fill="#FAFAFA" stroke="#22252A" stroke-width="1.047" stroke-linecap="round" stroke-linejoin="round"/><path d="M158.992 95.235s8.171 2.565 13.084 8.555 8.138 5.13 14.244 3.137c6.106-1.993 8.432-9.127 16.864-3.137s10.175 8.267 17.153 4.847c6.978-3.42 10.753-11.692 17.153-8.844 6.4 2.848 3.486 17.426 4.069 24.505.583 7.08-.294 24.816 1.16 27.097 1.454 2.282 16.281.545 16.281.545" stroke="#22252A" stroke-width="3.142" stroke-linecap="round" stroke-linejoin="round"/><path d="M174.296 85.716s-1.627-2.602-4.025-1.922c-2.537.719-3.847 4.275-4.441 6.491-.594 2.217-.993 4.613-2.081 6.677 0 0-4.808-.082-7.489-.844a64.109 64.109 0 0 1-6.028-2.179s-.95-1.301-1.621-1.557c-.672-.256-2.415-.757-2.543-.365-.127.392 2.021 1.683 2.021 1.683s-3.997.544-4.396.963c-.4.42 2.825 1.672 2.825 1.672s1.205.382 4.136-.305c0 0 10.752 6.698 12.895 7.466 2.142.768 3.33 1.013 4.79-1.753 1.46-2.767 6.306-9.628 7.078-12.389" fill="#8BAA36"/><path d="M174.296 85.716s-1.627-2.602-4.025-1.922c-2.537.719-3.847 4.275-4.441 6.491-.594 2.217-.993 4.613-2.081 6.677 0 0-4.808-.082-7.489-.844a64.109 64.109 0 0 1-6.028-2.179s-.95-1.301-1.621-1.557c-.672-.256-2.415-.757-2.543-.365-.127.392 2.021 1.683 2.021 1.683s-3.997.544-4.396.963c-.4.42 2.825 1.672 2.825 1.672s1.205.382 4.136-.305c0 0 10.752 6.698 12.895 7.466 2.142.768 3.33 1.013 4.79-1.753 1.46-2.767 6.306-9.628 7.078-12.389" stroke="#22252A" stroke-width="1.047" stroke-linecap="round" stroke-linejoin="round"/><path d="M153.025 95.05c-1.571-.577-2.776-1.089-2.776-1.089s-.949-1.301-1.621-1.557c-.671-.256-2.414-.757-2.542-.365-.128.392 2.021 1.683 2.021 1.683s-3.997.544-4.397.963c-.4.42 2.826 1.672 2.826 1.672s1.204.381 4.135-.305l1.504.931.85-1.933zM194.466 101.797a5.878 5.878 0 0 1-.616-2.178c0-.991 1.881-2.407 2.22-2.761.339-.354.683-.316.755.18.001.278-.056.553-.168.809a2.038 2.038 0 0 1-.481.677 1.658 1.658 0 0 0-.583.855c-.034.24.621 1.449.294 2.228-.328.778-1.244 1.002-1.421.19z" fill="#FAFAFA" stroke="#22252A" stroke-width="1.047" stroke-linecap="round" stroke-linejoin="round"/><path d="M195.76 98.808s-1.548 2.804-.649 3.812c.899 1.007 1.771-2.266 1.937-3.17.167-.904-.716-1.813-1.288-.642z" fill="#FAFAFA" stroke="#22252A" stroke-width="1.047" stroke-linecap="round" stroke-linejoin="round"/><path d="M197.036 99.815s-1.549 2.804-.65 3.812c.899 1.007 1.771-2.266 1.938-3.17.166-.903-.717-1.846-1.288-.642z" fill="#FAFAFA" stroke="#22252A" stroke-width="1.047" stroke-linecap="round" stroke-linejoin="round"/><path d="M198.442 100.049s-1.549 2.805-.65 3.812c.9 1.008 1.771-2.265 1.938-3.169.166-.904-.716-1.819-1.288-.643z" fill="#FAFAFA" stroke="#22252A" stroke-width="1.047" stroke-linecap="round" stroke-linejoin="round"/><path d="M200.24 100.071s-1.443 2.178-.655 3c.788.822 1.638-1.764 1.804-2.51.167-.746-.616-1.47-1.149-.49zM233.138 98.917s1.549 2.805.65 3.812c-.899 1.007-1.771-2.271-1.937-3.175-.167-.904.716-1.813 1.287-.637z" fill="#FAFAFA" stroke="#22252A" stroke-width="1.047" stroke-linecap="round" stroke-linejoin="round"/><path d="M231.861 99.897s1.549 2.804.65 3.811c-.9 1.008-1.771-2.27-1.938-3.174-.166-.904.716-1.808 1.288-.637z" fill="#FAFAFA" stroke="#22252A" stroke-width="1.047" stroke-linecap="round" stroke-linejoin="round"/><path d="M230.446 100.158s1.549 2.805.65 3.812c-.9 1.007-1.771-2.265-1.932-3.175-.161-.91.727-1.813 1.282-.637z" fill="#FAFAFA" stroke="#22252A" stroke-width="1.047" stroke-linecap="round" stroke-linejoin="round"/><path d="M228.653 100.18s1.444 2.205.655 3c-.788.795-1.637-1.764-1.798-2.51-.161-.746.611-1.47 1.143-.49zM37.672 131.208v3.094a9.744 9.744 0 0 0-2.293 4.127c-.672 2.527-2.776 13.402-2.22 13.685.555.283 5.778 1.454 7.444 1.209 1.91-.283 3.536-.185 2.575-1.22-.96-1.035-6.006-3.926-6.006-3.926s5.551-7.874 6.784-10.782c1.232-2.908 1.432-7.406 1.432-7.406l-7.45-.278-.266 1.497z" fill="#FAFAFA" stroke="#22252A" stroke-width="1.047" stroke-linecap="round" stroke-linejoin="round"/><path d="M40.603 153.323c1.91-.283 3.536-.185 2.576-1.22s-6.006-3.926-6.006-3.926l-.19 1.122-3.635-.436c-.267 1.819-.383 3.153-.189 3.267.594.262 5.779 1.438 7.444 1.193z" fill="#22252A" stroke="#22252A" stroke-width="1.047" stroke-linecap="round" stroke-linejoin="round"/><path d="m55.919 132.809.86 1.503a5.389 5.389 0 0 0-.289 4.406c.861 2.624 2.87 12.279 2.87 12.84 0 .561 1.239.937 2.221.937.983 0 3.703.185 4.086.185.383 0 3.153.468 4.108-.093.954-.56-1.216-1.688-2.648-2.341-1.433-.654-4.586-2.342-4.586-2.342s.76-7.689.76-11.065c0-3.376.767-4.498-.282-6.562-1.05-2.064-7.644.942-7.644.942l.544 1.59z" fill="#FAFAFA" stroke="#22252A" stroke-width="1.047" stroke-linecap="round" stroke-linejoin="round"/><path d="M67.099 150.246c-1.433-.659-4.586-2.342-4.586-2.342l-.383 1.405-3.07.545c.184.936.3 1.579.3 1.71 0 .544 1.238.936 2.22.936.983 0 3.703.185 4.086.185.383 0 3.153.469 4.108-.092.955-.561-1.243-1.694-2.675-2.347z" fill="#22252A" stroke="#22252A" stroke-width="1.047" stroke-linecap="round" stroke-linejoin="round"/><path d="M50.773 70.409a25.798 25.798 0 0 0-2.56-3.562c-1.315-1.453-5.44-1.372-7.249.545-1.81 1.917-1.238 5.337-.555 6.306.683.97 2.06 5.5 2.06 5.5l.327 3.235 7.666 2.668-1.565-5.255s2.97-.545 3.214-1.454c.244-.91-.494-3.964-.494-3.964s.988-.648.905-1.215c-.084-.566-1.75-2.804-1.75-2.804z" fill="#FAFAFA" stroke="#22252A" stroke-width="1.047" stroke-linecap="round" stroke-linejoin="round"/><path d="M41.952 73.895s1.31 1.09 2.026-.157c.716-1.247 1.26-2.467 1.26-3.524 0-1.056-2.692-1.933-.899-2.64 1.793-.709 3.087.865 3.886-.714.8-1.58.072-1.748-4.236-1.748-4.307 0-6.461 2.113-5.55 4.754a35.264 35.264 0 0 0 2.692 5.63l.821-1.6z" fill="#22252A" stroke="#22252A" stroke-width="1.047" stroke-linecap="round" stroke-linejoin="round"/><path d="M51.013 72.277c0 .4-.12.79-.347 1.123a2.052 2.052 0 0 1-.924.744 2.096 2.096 0 0 1-2.244-.438 2.009 2.009 0 0 1-.564-1.035 1.984 1.984 0 0 1 .117-1.167c.156-.37.42-.685.759-.907a2.088 2.088 0 0 1 2.6.252c.386.379.603.892.603 1.428zM50.72 70.486c.24-.096.497-.146.756-.147.428 0 .845.14 1.184.399.339.258.58.619.688 1.026.107.407.074.838-.095 1.225a1.914 1.914 0 0 1-.84.911M46.9 72.277l-4.947 1.618" stroke="#22252A" stroke-width="1.047" stroke-linecap="round" stroke-linejoin="round"/><path d="M43.378 74.945s-.988-2.02-1.976-1.633c-.988.386-.494 3.561.494 3.883a2.171 2.171 0 0 0 1.893-.485s.827 1.699 1.815 2.178" fill="#FAFAFA"/><path d="M43.378 74.945s-.988-2.02-1.976-1.633c-.988.386-.494 3.561.494 3.883a2.171 2.171 0 0 0 1.893-.485s.827 1.699 1.815 2.178" stroke="#22252A" stroke-width="1.047" stroke-linecap="round" stroke-linejoin="round"/><path d="m36.889 111.251-.616 7.744-1.843 11.463s4.307 3.316 8.326 3.316c4.02 0 5.124-.501 5.124-.501l2.254-11.762 2.253 12.367s4.441-.703 7.383-1.411a19.623 19.623 0 0 0 5.74-2.614l-5.945-15.182-1.288-7.831s-6.661.605-10.663.806c-4.003.202-9.326-.806-9.326-.806l-1.4 4.411z" fill="#8BAA36" stroke="#22252A" stroke-width="1.047" stroke-linecap="round" stroke-linejoin="round"/><path d="M41.116 80.31s9.437 3.229 12.352 6.365c1.61 1.743 3.413 13.669 4.063 16.582.65 2.914 1.782 8.713 1.782 8.713s-5.757 2.549-10.209 2.641c-4.451.093-12.995-1.911-12.995-1.911s1.016-12.922 1.016-18.929c0-6.006.095-9.927 1.11-11.839.006.017 1.677-1.808 2.881-1.622z" fill="#22252A" stroke="#22252A" stroke-width="1.047" stroke-linecap="round" stroke-linejoin="round"/><path d="M38.628 113.636s.51 8.446 0 11.566a23.66 23.66 0 0 1-1.843 5.832" stroke="#22252A" stroke-width="1.047" stroke-linecap="round" stroke-linejoin="round"/><path d="M38.842 117.66c.77-.26 1.46-.711 1.998-1.311.54-.599.91-1.326 1.077-2.109M34.94 128.824s5.129 4.324 13.122 2.723M52.164 131.333s8.404-.904 12.096-3.316" stroke="#22252A" stroke-width="1.047" stroke-linecap="round" stroke-linejoin="round"/><path d="M89.758 76.4s-.81.588-3.636 2.614c-2.826 2.025-.6 5.086-.6 5.086s-2.02.31-4.718 3.093 1.204 7.558 4.851 8.304c3.647.746 7.91-3.68 9.188-7.787 1.276-4.106-.411-10.297-1.26-11.577-.85-1.28-3.825.267-3.825.267z" fill="#22252A" stroke="#22252A" stroke-width="1.047" stroke-linecap="round" stroke-linejoin="round"/><path d="M100.456 75.855s1.405-2.13.134-5.217c-1.272-3.087-5.069-4.498-8.766-2.26a6.423 6.423 0 0 0-2.718 3.124 6.274 6.274 0 0 0-.218 4.103c.36 1.426 2.181 3.62 2.564 3.654.383.032 3.709 1.22 5.979.18s3.025-3.584 3.025-3.584z" fill="#22252A" stroke="#22252A" stroke-width="1.047" stroke-linecap="round" stroke-linejoin="round"/><path d="M84.125 147.736s2.637 4.024 7.216 4.71c4.58.686.461-3.343-.31-3.953-.772-.61-6.284-1.928-6.906-.757zM108.521 148.77s5.034 1.215 4.646 2.282c-.389 1.067-4.491.986-6.889.376-2.398-.61-4.652-1.52-4.341-2.505.311-.986 6.584-.153 6.584-.153z" fill="#737373" stroke="#22252A" stroke-width="1.047" stroke-linecap="round" stroke-linejoin="round"/><path d="M94.207 83.86s-6.74.97-7.972 3.305c-1.232 2.336.506 15.063.506 15.063s-2.876 6.224-2.915 10.232c-.039 4.008 1.782 11.06 1.638 12.819-.144 1.759-1.987 21.782-1.987 22.327 0 .544 3.885 1.764 9.486 2.418 5.601.653 16.315-1.302 16.315-1.302s-.211-11.817.35-18.863c.56-7.047-.239-13.38-1.666-16.01-1.426-2.631-8.07-12.1-8.07-12.1s3.219-5.73 3.419-8.234c.199-2.505-.839-3.812-3.27-6.693a8.448 8.448 0 0 0-2.613-2.058 8.6 8.6 0 0 0-3.221-.904z" fill="#8BAA36" stroke="#22252A" stroke-width="1.047" stroke-linecap="round" stroke-linejoin="round"/><path d="M99.902 101.754s3.219-5.73 3.419-8.234c.2-2.505-.838-3.812-3.269-6.693-.117-.141-.24-.267-.361-.397l-.089.081c-2.498 4.003-10.758 10.843-13.217 12.836.189 1.704.35 2.88.35 2.88s-2.876 6.225-2.915 10.232c.046 1.827.232 3.647.555 5.446 5.835-3.267 13.64-9.383 17.864-12.792-1.321-1.916-2.337-3.359-2.337-3.359z" fill="#737373" stroke="#22252A" stroke-width="1.047" stroke-linecap="round" stroke-linejoin="round"/><path d="M92.963 79.188c.186 1.494.288 2.998.305 4.503-.089 1.116.278 3.665 2.22 4.465 1.944.8 3.165-.316 3.16-1.437-.071-.927-.258-1.841-.556-2.723l.056-3.077s-3.353-2.058-5.185-1.731z" fill="#FAFAFA" stroke="#22252A" stroke-width="1.047" stroke-linecap="round" stroke-linejoin="round"/><path d="M91.22 77.189s-1.427-1.23-1.471.544c-.044 1.776 1.62 2.364 1.987 2.484.31.04.623-.035.877-.213 0 0 2.587 2.178 4.663 2.32 2.076.142 2.92-.8 3.409-4.498.488-3.697-3.403-7.45-3.403-7.45s-3.33 6.023-6.062 6.813zM59.473 111.893a4.816 4.816 0 0 1 .31-1.851c.345-.741 2.221-1.166 2.637-1.307.417-.142.628 0 .505.386a1.685 1.685 0 0 1-.408.548 1.732 1.732 0 0 1-.596.346 1.406 1.406 0 0 0-.739.441c-.105.174-.038 1.29-.555 1.764-.516.474-1.326.343-1.154-.327z" fill="#FAFAFA" stroke="#22252A" stroke-width="1.047" stroke-linecap="round" stroke-linejoin="round"/><path d="M102.013 95.519s-6.662-.855-9.598 3.708c-2.937 4.563-8.427 20.53-18.602 23.1-10.175 2.57-13.084-17.97-19.19-17.398-5.817.544-9.88 0-13.372 6.273-1.866 3.36-11.191 40.047-15.599 40.422-14.039 1.204-23.076.42-23.076.42" stroke="#22252A" stroke-width="3.142" stroke-linecap="round" stroke-linejoin="round"/><path d="M41.553 80.57s-1.538-.604-3.592.6c-2.054 1.203-7.582 14.382-7.172 15.792.411 1.41 6.25 4.024 9.532 4.928 3.28.904 9.225 2.015 9.225 2.015s1.843 2.815 2.46 2.913a13.634 13.634 0 0 0 2.664-.299s1.11.904 1.538-.104c.427-1.007-.411-2.309-1.333-3.316-.921-1.007-4.818-1.508-4.818-1.508l-10.564-7.145 4.441-8.043" fill="#22252A"/><path d="M41.553 80.57s-1.538-.604-3.592.6c-2.054 1.203-7.582 14.382-7.172 15.792.411 1.41 6.25 4.024 9.532 4.928 3.28.904 9.225 2.015 9.225 2.015s1.843 2.815 2.46 2.913a13.634 13.634 0 0 0 2.664-.299s1.11.904 1.538-.104c.427-1.007-.411-2.309-1.333-3.316-.921-1.007-4.818-1.508-4.818-1.508l-10.564-7.145 4.441-8.043" stroke="#22252A" stroke-width="1.047" stroke-linecap="round" stroke-linejoin="round"/><path d="M52.005 106.813a13.56 13.56 0 0 0 2.664-.3s1.11.904 1.538-.103c.428-1.007-.41-2.309-1.332-3.316-.922-1.008-4.819-1.509-4.819-1.509l-10.563-7.139 1.576-2.88c-3.946-2.413-6.567-2.233-7.982-1.749-1.416 3.333-2.493 6.492-2.304 7.14.411 1.41 6.25 4.024 9.531 4.928 3.281.904 9.226 2.015 9.226 2.015s1.849 2.815 2.465 2.913z" fill="#FAFAFA" stroke="#22252A" stroke-width="1.047" stroke-linecap="round" stroke-linejoin="round"/><path d="M118.026 95.742c-.449-4.754-2.775-8.659-5.551-10.21l-.088-.97-7.25.659c-4.08.37-6.895 5.865-6.29 12.269.606 6.404 4.402 11.288 8.483 10.891l7.249-.659-.094-.969c2.442-2.004 3.991-6.257 3.541-11.011z" fill="#22252A" stroke="#22252A" stroke-width="1.047" stroke-linecap="round" stroke-linejoin="round"/><path d="M121.313 95.46c-.472-4.994-2.776-9.106-5.712-10.74l-.1-1.018-3.103.283c-4.286.392-7.244 6.16-6.612 12.89.633 6.731 4.63 11.866 8.915 11.474l3.103-.283-.094-1.019c2.565-2.145 4.075-6.611 3.603-11.588z" fill="#FAFAFA" stroke="#22252A" stroke-width="1.047" stroke-linecap="round" stroke-linejoin="round"/><path d="M124.419 95.16c.639 6.73-2.32 12.497-6.611 12.889-4.291.392-8.282-4.749-8.932-11.474-.649-6.725 2.321-12.525 6.606-12.89 4.285-.365 8.293 4.749 8.937 11.474z" fill="#FAFAFA" stroke="#22252A" stroke-width="1.047" stroke-linecap="round" stroke-linejoin="round"/><path d="m127.751 91.228-12.04 1.089a1.31 1.31 0 0 1-.944-.286 1.238 1.238 0 0 1-.46-.858 1.24 1.24 0 0 1 .291-.926 1.28 1.28 0 0 1 .874-.451l12.041-1.09a1.31 1.31 0 0 1 .944.286c.13.106.238.237.317.384a1.24 1.24 0 0 1-.148 1.4 1.305 1.305 0 0 1-.875.451zM128.642 100.589l-12.04 1.089a1.304 1.304 0 0 1-.945-.286 1.254 1.254 0 0 1 .223-2.096c.15-.077.314-.125.483-.14l12.04-1.089c.341-.029.679.075.942.29a1.241 1.241 0 0 1 .171 1.78 1.295 1.295 0 0 1-.874.452z" fill="#737373" stroke="#22252A" stroke-width="1.047" stroke-linecap="round" stroke-linejoin="round"/><path d="M90.043 84.748s-2.897.544-4.269 2.178c-1.37 1.633-4.185 14.24-3.536 15.688.65 1.449 11.058 3.268 14.272 3.529a47.08 47.08 0 0 0 7.738-.337s2.776-.071 3.536-.196c.761-.126 2.16-.861 2.182-1.139.022-.277-.117-.942-1.155-1.023-1.038-.082-3.264-.812-3.547-.834a18.61 18.61 0 0 1 2.026-.403s.145-.544-.999-.544c-1.143 0-2.181-.076-2.614.544-.31.484-.574.995-.789 1.525 0 0-6.411.441-9.892-1.225-3.48-1.666-4.58-2.222-4.58-2.222l2.499-9.802" fill="#8BAA36"/><path d="M90.043 84.748s-2.897.544-4.269 2.178c-1.37 1.633-4.185 14.24-3.536 15.688.65 1.449 11.058 3.268 14.272 3.529a47.08 47.08 0 0 0 7.738-.337s2.776-.071 3.536-.196c.761-.126 2.16-.861 2.182-1.139.022-.277-.117-.942-1.155-1.023-1.038-.082-3.264-.812-3.547-.834a18.61 18.61 0 0 1 2.026-.403s.145-.544-.999-.544c-1.143 0-2.181-.076-2.614.544-.31.484-.574.995-.789 1.525 0 0-6.411.441-9.892-1.225-3.48-1.666-4.58-2.222-4.58-2.222l2.499-9.802" stroke="#22252A" stroke-width="1.047" stroke-linecap="round" stroke-linejoin="round"/><path d="M107.769 105.626c.772-.126 2.159-.861 2.182-1.139.022-.277-.117-.942-1.155-1.023-1.038-.082-3.264-.812-3.547-.834a18.564 18.564 0 0 1 2.026-.403s.144-.544-.999-.544c-1.144 0-2.182-.076-2.615.544a9.366 9.366 0 0 0-.788 1.525s-6.412.441-9.892-1.225c-3.48-1.666-4.58-2.222-4.58-2.222l1.521-5.99c-1.98-.8-4.069-1.308-6.2-1.508-1.038 4.106-1.888 8.941-1.499 9.802.644 1.448 11.058 3.267 14.272 3.528a46.975 46.975 0 0 0 7.738-.337s2.781-.049 3.536-.174zM60.879 110.837s-2.143 1.573-1.816 2.614c.328 1.04 2.115-1.09 2.56-1.716.444-.626.094-1.574-.744-.898z" fill="#FAFAFA" stroke="#22252A" stroke-width="1.047" stroke-linecap="round" stroke-linejoin="round"/><path d="M61.303 112.247s-2.137 1.574-1.815 2.614c.322 1.04 2.12-1.089 2.56-1.715.438-.627.093-1.585-.745-.899z" fill="#FAFAFA" stroke="#22252A" stroke-width="1.047" stroke-linecap="round" stroke-linejoin="round"/><path d="M62.318 113.162s-2.137 1.574-1.81 2.614c.328 1.04 2.116-1.089 2.56-1.715.444-.627.094-1.585-.75-.899z" fill="#FAFAFA" stroke="#22252A" stroke-width="1.047" stroke-linecap="round" stroke-linejoin="round"/><path d="M63.155 113.902s-1.849 1.166-1.538 2.026c.311.861 1.838-.768 2.22-1.269.384-.501.073-1.307-.682-.757z" fill="#FAFAFA" stroke="#22252A" stroke-width="1.047" stroke-linecap="round" stroke-linejoin="round"/></svg>