<svg width="64" height="64" fill="none" xmlns="http://www.w3.org/2000/svg"><path d="M56.381 22.857v-9.161A6.095 6.095 0 0 0 50.304 7.6l-9.161-.028m15.238 33.57v9.143a6.095 6.095 0 0 1-6.095 6.095h-9.143M22.857 7.573l-9.16.03A6.095 6.095 0 0 0 7.618 13.7v9.158m15.238 33.524h-9.143a6.095 6.095 0 0 1-6.095-6.095v-9.143" stroke="#FAFAFA" stroke-linecap="round" stroke-linejoin="round"/><path d="M32 37.5c1.25 0 2.313-.437 3.188-1.312S36.5 34.25 36.5 33c0-1.25-.437-2.313-1.312-3.188S33.25 28.5 32 28.5c-1.25 0-2.313.437-3.188 1.312S27.5 31.75 27.5 33c0 1.25.437 2.313 1.312 3.188S30.75 37.5 32 37.5zM24 41c-.55 0-1.02-.196-1.412-.587A1.927 1.927 0 0 1 22 39V27c0-.55.196-1.02.588-1.412A1.923 1.923 0 0 1 24 25h3.15L29 23h6l1.85 2H40c.55 0 1.021.196 1.413.588.391.391.587.862.587 1.412v12c0 .55-.196 1.021-.587 1.413A1.928 1.928 0 0 1 40 41H24z" fill="#FAFAFA"/></svg>