<svg width="266" height="316" fill="none" xmlns="http://www.w3.org/2000/svg"><path d="m43.779 272.882-7.406 42.364h8.459l14.29-42.364H43.778zM227.616 272.882l7.406 42.364h-8.47l-14.279-42.364h15.343z" fill="#FAFAFA"/><path d="M5.294 160.515C4.698 179.629-.941 263.943 18.71 279.996h24.408c6.384 0 6.022-2.649 5.777-8.237l-4.639-109.4c-.075-2.104-.922-4.13-2.415-5.775-3.192-3.482-9.65-8.864-18.492-8.34-4.772.203-9.39 1.549-13.354 3.894-1.479.971-2.676 2.237-3.493 3.693a9.281 9.281 0 0 0-1.21 4.684z" fill="#535455"/><path d="m226.51 281.222-183.39-1.226v-49.842h183.39v51.068z" fill="#535455"/><path d="m225.786 230.154-183.72 1.329v-29.896l184.444-3.042-.724 31.609z" fill="#535455"/><path d="M8.763 154.909s1.362-41.502 53.285-43.646c51.923-2.143 128.967 0 128.967 0s65.223-2.153 66.734 33.986l-12.959 69.264H43.407L8.762 154.909z" fill="#535455"/><path d="M265.463 164.924c-1.373 28.604-4.373 112.507-26.994 116.298h-16.822l5.203-122.56s7.8-11.962 20.791-11.232h.394c4.917.357 9.485 2.381 12.737 5.646 3.252 3.264 4.934 7.513 4.691 11.848z" fill="#535455"/><path d="m256.195 149.209-.617-.131-1.756-.422-1.276-.308-1.596-.216c-.575-.065-1.192-.168-1.852-.234h-2.128c-3.633.026-7.207.812-10.427 2.293l-.713.309-.691.375-1.405.777a31.258 31.258 0 0 0-2.703 1.872 26.182 26.182 0 0 0-4.894 4.988v-.084c-.681 12.664-1.532 28.661-2.458 46.014-1.064 21.125-1.84 40.248-2.277 54.11-.202 6.917-.351 12.514-.468 16.408 0 1.919-.096 3.426-.117 4.465 0 .496 0 .88-.053 1.161-.053.28 0 .393 0 .393v-6.019c0-3.875.138-9.481.298-16.408.351-13.862 1.064-33.003 2.128-54.129.883-17.363 1.809-33.368 2.553-46.014a.105.105 0 0 1 0-.074 26.117 26.117 0 0 1 4.991-5.036 29.912 29.912 0 0 1 2.755-1.919l1.426-.786.702-.374.724-.309c3.271-1.482 6.897-2.252 10.576-2.247l2.128.066c.66.065 1.277.178 1.862.252l1.596.234 1.277.337 1.745.478.67.178z" fill="#202324"/><path d="M43.406 231.352H57.334l37.995.084c32.08.103 76.396.412 125.329-.206h2.032l-.266.216c.181-5.111.351-10.165.522-15.136l.255-7.413.128-3.659c0-.6.064-1.227 0-1.798a3.462 3.462 0 0 0-.532-1.647 4.395 4.395 0 0 0-1.309-1.299 5.04 5.04 0 0 0-1.798-.713 9.8 9.8 0 0 0-2.054-.103h-10.448l-16.109.093-55.701.506c-15.843.14-28.653.196-37.506.206H84.136 87.69l10.182-.066 37.506-.346 55.69-.609 16.12-.103h10.448c.712-.037 1.427 0 2.128.113.72.138 1.399.409 1.991.794a4.83 4.83 0 0 1 1.446 1.443c.354.557.558 1.178.596 1.816v1.872c0 1.207-.075 2.433-.117 3.659l-.256 7.404c-.17 4.992-.34 10.04-.51 15.145a.252.252 0 0 1-.09.149.311.311 0 0 1-.176.066h-2.022c-48.944.618-93.26.262-125.34.075l-37.995-.215-10.331-.066h-2.681l-.873-.262z" fill="#202324"/><path d="M42.065 231.483c42.092 8.031 62.138 7.422 101.272 8.012 35.112.534 73.767-5.036 79.353-8.349l-180.625.337z" fill="#000" opacity=".2"/><path d="M43.118 279.996a3.079 3.079 0 0 1 0-.412v-5.897c0-4.081.096-9.931.17-17.157.203-14.508.469-34.51.767-56.6.18-11.054.34-21.584.49-31.159a18.56 18.56 0 0 0-1.065-6.842 19.812 19.812 0 0 0-3.383-5.775 22.717 22.717 0 0 0-4.98-4.212 23.85 23.85 0 0 0-5.682-2.462 24.08 24.08 0 0 0-10.884-.384c-2.727.512-5.31 1.498-7.597 2.902a16.502 16.502 0 0 0-3.756 3.229c-.724.852-1.011 1.357-1.064 1.339.056-.128.127-.251.213-.365.226-.356.474-.699.744-1.03a15.545 15.545 0 0 1 3.714-3.332c2.294-1.45 4.901-2.473 7.66-3.005a24.29 24.29 0 0 1 11.066.318 24.43 24.43 0 0 1 5.852 2.49 23.444 23.444 0 0 1 5.107 4.278c3.175 3.688 4.779 8.239 4.533 12.86-.138 9.585-.287 20.115-.447 31.169-.362 22.09-.691 42.12-.926 56.591-.148 7.226-.266 13.104-.35 17.157 0 2.012-.086 3.575-.118 4.68v1.216c-.01.136-.031.27-.064.403z" fill="#202324"/><path d="M146.295 192.265a325.925 325.925 0 0 1 6.491-58.547c.595-2.949 1.383-6.122 3.979-8.05 2.234-1.666 5.32-2.031 8.235-2.237 20.908-1.497 42.22 6.711 61.202 15.603 2.082.971 3.762 2.495 4.799 4.356 1.038 1.861 1.38 3.963.978 6.006-3.192 16.005-9.576 28.08-18.971 43.365-21.337 7.609-44.773 9.434-67.298 5.241" fill="#8BAA36"/><path d="M108.832 47.634c-1.32-8.246-1.234-7.975-2.405-15.865C104.172 16.456 98.681-.907 73.837.347c0 0-18.716.936-24.472 12.692-3.064 6.346-3.873 28.305-4.905 48.055-.02.319-.091.634-.213.936l-1.16 2.985a39.627 39.627 0 0 0-2.67 12.168L38.842 104.6c-.052.903.305 1.788.993 2.46.688.672 1.651 1.076 2.678 1.125 8.373.355 27.504-.581 31.186-1.751 7.552-2.434 14.42-6.268 20.14-11.242 5.721-4.974 10.159-10.972 13.014-17.586.383-.936 5.799-1.339 6.82-1.685 1.681-.571-4.586-26.714-4.841-28.286z" fill="#202324"/><path d="m69.049 7.414 1.574-1.282L87.36 12.29c1.171.07 2.27.524 3.077 1.273.808.75 1.267 1.738 1.285 2.77l-.914 48.101c0 3.267 1.063 7.039-1.256 9.613l-2.724 3.36c-5.469 6.178-18.088 3.94-22.227-2.986a4.661 4.661 0 0 1-.574-1.254 8.365 8.365 0 0 1-.235-1.077c-.436-3.874-.414-7.235-.414-7.235-.234-4.25-.298-6-.309-5.953-.01.047-10.257-1.151-12.853-12.842-1.288-5.784-.904-13.73-.394-21.528.713-10.773 9.342-17.25 19.227-17.12z" fill="#FFBF9D"/><path d="M71.677 32.368c.01.392.197.765.517 1.038s.75.425 1.196.422c.217.009.434-.02.638-.087a1.68 1.68 0 0 0 .55-.299 1.45 1.45 0 0 0 .374-.463c.089-.175.136-.364.14-.555a1.429 1.429 0 0 0-.516-1.042 1.842 1.842 0 0 0-1.197-.428 1.84 1.84 0 0 0-.64.091c-.203.067-.39.17-.549.301-.158.132-.285.29-.373.465a1.296 1.296 0 0 0-.14.557zM54.524 32.48c.012.392.197.765.518 1.038.32.273.75.425 1.195.422.218.009.435-.02.639-.087a1.68 1.68 0 0 0 .55-.299c.158-.13.286-.288.374-.463a1.29 1.29 0 0 0 .14-.555 1.429 1.429 0 0 0-.517-1.041 1.841 1.841 0 0 0-1.196-.428 1.84 1.84 0 0 0-.64.09c-.204.068-.39.17-.549.302-.158.131-.286.29-.374.465a1.298 1.298 0 0 0-.14.556zM51.535 27.631c.213.197 1.479-.692 3.309-.739 1.83-.047 3.192.711 3.405.506.213-.206-.128-.44-.734-.796a5.14 5.14 0 0 0-2.735-.646 4.848 4.848 0 0 0-2.628.833c-.553.403-.734.758-.617.842zM70.156 28.034c.244.169 1.393-.824 3.191-1.048 1.799-.225 3.278.42 3.448.196.17-.224-.181-.421-.83-.72a5.272 5.272 0 0 0-2.798-.403 4.836 4.836 0 0 0-2.511 1.076c-.48.45-.618.824-.5.899zM63.558 39.706a13.967 13.967 0 0 0-3-.375c-.479 0-.926-.093-1.064-.374a1.834 1.834 0 0 1 .266-1.235c.394-1.011.808-2.078 1.255-3.183 1.745-4.54 2.98-8.265 2.777-8.32-.202-.057-1.787 3.565-3.532 8.105l-1.202 3.201a2.117 2.117 0 0 0-.17 1.629c.072.141.181.266.318.365.136.1.297.17.469.206.264.058.536.084.808.075 1.026.086 2.06.055 3.075-.094z" fill="#202324"/><path d="M63.068 58.875c6.274-.12 12.387-1.766 17.663-4.755 0 0-4.15 8.247-17.524 7.582l-.139-2.827zM64.495 43.581c.332-.4.775-.72 1.287-.926a3.686 3.686 0 0 1 1.639-.253 3.36 3.36 0 0 1 1.172.276c.366.161.691.386.956.66.254.264.411.59.451.933.04.344-.04.691-.228.995a2.294 2.294 0 0 1-1.092.623 2.54 2.54 0 0 1-1.302-.015 7.266 7.266 0 0 1-2.362-1.18 1.86 1.86 0 0 1-.543-.458.497.497 0 0 1-.102-.3c0-.106.036-.21.103-.299" fill="#FF9A6C"/><path d="M69.006 40.651c-.298 0-.223 1.75-1.883 3.052-1.66 1.3-3.788 1.17-3.788 1.422 0 .103.479.319 1.383.319 1.176-.023 2.305-.407 3.192-1.086.83-.644 1.34-1.548 1.426-2.518.053-.777-.192-1.198-.33-1.189zM68.485 20.181c.245.412 2.032 0 4.203-.047 2.17-.047 3.979.262 4.256-.159.095-.206-.266-.58-1.064-.936a7.841 7.841 0 0 0-3.192-.57 7.98 7.98 0 0 0-3.192.73c-.777.392-1.118.785-1.011.982zM51.908 20.705c.34.356 1.585-.065 3.107-.13 1.521-.066 2.82.149 3.096-.244.128-.188-.096-.552-.67-.88a5.03 5.03 0 0 0-2.552-.516 4.904 4.904 0 0 0-2.45.815c-.52.393-.68.777-.531.955z" fill="#202324"/><path d="M91.01 36.86s-9.438 2.453-14.439-18.027c-1.702-7.001-8.97-12.739-8.97-12.739l2.99-.758s18.471 4.83 18.78 5.036c.309.206 4.543 8.49 4.543 8.49L91.01 36.86z" fill="#202324"/><path d="M88.71 36.065c0-.87 1.065-2.958 2.001-3.126 2.596-.44 7.32-.403 7.608 5.428.383 7.985-8.81 6.684-8.831 6.45-.022-.234-.66-5.738-.777-8.752z" fill="#FFBF9D"/><path d="M92.106 41.69s.17.094.436.187c.379.136.802.136 1.181 0 .947-.346 1.692-1.712 1.66-3.154a4.14 4.14 0 0 0-.532-1.975 1.607 1.607 0 0 0-.48-.645 1.911 1.911 0 0 0-.765-.375.909.909 0 0 0-.541.061.758.758 0 0 0-.374.35c-.106.235 0 .384-.096.403-.096.019-.191-.13-.138-.458a.915.915 0 0 1 .33-.515c.243-.171.551-.255.861-.234a2.41 2.41 0 0 1 1.028.39c.3.205.536.473.686.78a4.25 4.25 0 0 1 .66 2.209c0 1.61-.841 3.154-2.129 3.529a1.897 1.897 0 0 1-1.457-.15c-.298-.206-.352-.384-.33-.403z" fill="#FF9A6C"/><path d="M84.7 32.873a13.247 13.247 0 0 1-1.351-.253 8.512 8.512 0 0 1-3.192-1.694 9.934 9.934 0 0 1-1.66-1.75 13.176 13.176 0 0 1-1.33-2.35 44.387 44.387 0 0 1-1.862-5.821c-.607-2.088-1.266-4.063-2-5.822a30.618 30.618 0 0 0-2.288-4.53 22.146 22.146 0 0 0-2.032-2.809c-.266-.327-.49-.552-.639-.72a1.971 1.971 0 0 0-.234-.234c.059.092.127.18.203.262.127.168.35.412.595.74.717.9 1.371 1.837 1.958 2.807a32.397 32.397 0 0 1 2.235 4.53c.712 1.75 1.361 3.745 1.968 5.804a44.094 44.094 0 0 0 1.883 5.85c.367.827.827 1.62 1.373 2.368.49.647 1.065 1.24 1.713 1.769a8.283 8.283 0 0 0 3.287 1.657c.445.124.907.19 1.373.196z" fill="#202324"/><path d="m111.991 75.835-20.216-6.71-28.728-5.504-23.142 2.695c-4.883.094-13.342 9.117-19.78 18.795-5.766 8.668-10.31 17.382-10.31 17.382l26.93 8.854c1.532 10.081 3.788 23.4 5.735 28.651 3.32 8.977 4.33 21.294 4.33 21.294l63.958-7.338.904-38.647 21.035-2.415c.011-1.357-8.107-33.612-20.716-37.056z" fill="#8BAA36"/><path d="M110.374 91.326a3.9 3.9 0 0 0 .117.936c.106.618.255 1.517.415 2.621.408 2.894.614 5.808.617 8.724a63.926 63.926 0 0 1-.639 8.714 89.29 89.29 0 0 1-.415 2.63 4.366 4.366 0 0 0-.127.936c.14-.301.24-.615.298-.936.17-.618.361-1.507.564-2.621a49.773 49.773 0 0 0 0-17.512 38.271 38.271 0 0 0-.554-2.612 3.793 3.793 0 0 0-.276-.88z" fill="#202324"/><path d="m131.899 113.444-20.78 1.975.33 5.017-4.617-5.822-6.97 12.72s2.809 7.432 4.331 11.532c4.054 10.998 10.533 23.269 18.088 22.464 9.097-.936 15.534-10.54 15.236-16.689-.244-5.56-5.618-31.197-5.618-31.197zM141.635 186.349l36.038 12.43-13.705 14.574-30.654-4.69 8.321-22.314z" fill="#FFBF9D"/><path d="M46.928 160.637s-.947 36.158 2.82 42.448c3.766 6.29 40.198 6.552 40.198 6.552l57.456 2.564 6.703-23.643s-41.805-17.073-45.752-19.048c-3.947-1.974-13.29-5.428-13.29-5.428L80.999 148.17l-34.07 12.467z" fill="#202324"/><path d="M113.3 210.03a2.997 2.997 0 0 0-.458-.141l-1.319-.337-4.916-1.188-16.524-3.866h-.064a28.38 28.38 0 0 1-2.766-.159 24.006 24.006 0 0 1-5.213-1.076 26.52 26.52 0 0 1-4.512-1.872c-4.085-2.148-7.403-5.261-9.576-8.986-.308-.524-.5-.936-.66-1.236a1.863 1.863 0 0 0-.255-.43c.039.158.096.311.17.459.128.29.298.739.586 1.282a21.052 21.052 0 0 0 3.075 4.296c1.83 1.949 4.016 3.616 6.469 4.933 1.45.777 2.986 1.42 4.585 1.919a26.73 26.73 0 0 0 2.575.692 29.704 29.704 0 0 0 5.554.571l16.567 3.744 4.947 1.067 1.341.272c.128.033.26.051.394.056z" fill="#535455"/><path d="m111.587 171.635 9.789-52.641s-1.298-37.889 22.886-35.174c24.185 2.714 21.28 36.054 21.28 36.054s-3.128 45.705-4.841 52.304c-1.713 6.599-2.575 13.937-7.512 16.577l-21.95-3.005-19.652-14.115z" fill="#202324"/><path d="m130.452 93.404-5.852 12.44 3.628 47.511s31.175 2.349 30.856 1.601c-.319-.749 5.586-23.662 5.586-23.662s1.936-30.411-7.299-36.214c-9.236-5.803-26.919-1.676-26.919-1.676z" fill="#202324"/><path d="m129.483 153.439.405 22.689 21.78 10.511 5.916-31.543-28.101-1.657z" fill="#FFBF9D"/><path d="m80.955 148.16 23.78-8.62 14.226 11.213-7.895 22.361-20.865-6.852-9.246-18.102z" fill="#202324"/><path d="m152.732 188.539-.287-.149-.873-.384-3.362-1.442-12.395-5.26-18.418-7.713-10.885-4.511-5.756-2.396-2.948-1.226-1.49-.618a11.554 11.554 0 0 0-1.531-.571 24.408 24.408 0 0 0-6.47-1.151 29.51 29.51 0 0 0-6.383.346c-3.982.664-7.787 1.982-11.215 3.884-3.096 1.719-5.877 3.844-8.246 6.3a44.033 44.033 0 0 0-5.416 6.879A59.7 59.7 0 0 0 51.6 191.6c-.51 1.357-.862 2.424-1.064 3.154l-.255.824a.99.99 0 0 0-.064.281s0-.084.117-.272l.298-.814a93.38 93.38 0 0 1 1.17-3.117 62.488 62.488 0 0 1 5.554-11.026 45.207 45.207 0 0 1 5.427-6.795c2.354-2.422 5.113-4.514 8.182-6.206 3.385-1.868 7.138-3.16 11.065-3.809a28.634 28.634 0 0 1 6.289-.337c2.18.091 4.333.473 6.384 1.132.52.152 1.025.34 1.51.562l1.49.618 2.947 1.226 5.757 2.386 10.884 4.521 18.461 7.629 12.459 5.12 3.394 1.366.894.347c.074.055.152.105.234.149z" fill="#535455"/><path d="M107.427 170.072a18.867 18.867 0 0 1 .266-3.445 25.101 25.101 0 0 1 3.416-7.731 45.878 45.878 0 0 0 4.085-7.591c.304-.812.531-1.645.681-2.49.07-.308.095-.622.075-.936-.085 0-.234 1.32-1.064 3.333a56.88 56.88 0 0 1-4.192 7.488 23.13 23.13 0 0 0-3.32 7.871 10.164 10.164 0 0 0-.117 2.565c.013.317.07.631.17.936zM164.734 131.294l-.085.243c0 .187-.117.43-.213.73-.181.674-.426 1.61-.756 2.808-.638 2.443-1.564 5.981-2.649 10.362a251.427 251.427 0 0 0-1.692 7.179c-.138.655-.287 1.301-.383 1.993-.006.1-.006.2 0 .3v.093-.14h-.053a5.112 5.112 0 0 1-.553.047h-1.181c-1.586 0-3.192-.103-4.905-.187-6.725-.356-14.098-.871-21.844-1.432l-2.128-.16.202.188c-1.064-13.207-1.958-25.066-2.639-33.696-.351-4.268-.638-7.722-.84-10.137-.107-1.17-.192-2.087-.256-2.743 0-.299-.053-.533-.074-.711a.825.825 0 0 0 0-.243.825.825 0 0 0 0 .243v.711c0 .656.106 1.582.17 2.752.17 2.415.404 5.869.702 10.146.639 8.593 1.522 20.461 2.501 33.696v.178h.202l2.128.159c7.746.571 15.13 1.067 21.865 1.404 1.681.075 3.32.15 4.926.169h1.192c.207-.005.413-.024.617-.056a.968.968 0 0 0 .224-.075.217.217 0 0 0 .085-.103.18.18 0 0 0 0-.103c-.139 0 0-.047 0 0a1.543 1.543 0 0 1 0-.215c.085-.656.234-1.32.361-1.966a326.429 326.429 0 0 1 1.639-7.188c1.064-4.362 1.915-7.9 2.511-10.381l.67-2.808c.064-.309.128-.552.16-.739a.663.663 0 0 0 .096-.318z" fill="#535455"/><path d="M136.027 89.82a3.603 3.603 0 0 0-.691.524c-.436.355-1.064.936-1.724 1.6-3.604 3.686-6.19 8.055-7.554 12.767-.256.936-.426 1.638-.511 2.153a2.67 2.67 0 0 0-.085.805c.074 0 .33-1.114.904-2.883 1.522-4.617 4.072-8.922 7.501-12.664 1.309-1.432 2.224-2.256 2.16-2.303zM100.426 164.035a2.784 2.784 0 0 0-.149-.758c-.128-.478-.34-1.17-.639-2.013a39.308 39.308 0 0 0-2.979-6.393 42.147 42.147 0 0 0-4.139-5.868c-.596-.702-1.064-1.264-1.479-1.629a2.829 2.829 0 0 0-.606-.552s.691.936 1.819 2.349a54.142 54.142 0 0 1 3.99 5.888 50.665 50.665 0 0 1 3.075 6.299c.68 1.647 1.032 2.696 1.107 2.677zM61.313 161.292c-.075 0-.383.796-1.064 2.05a24.316 24.316 0 0 1-3.192 4.605 25.688 25.688 0 0 1-4.256 3.857c-1.213.87-2.032 1.347-1.99 1.404.043.056.234-.075.628-.262a16.85 16.85 0 0 0 1.564-.936 21.965 21.965 0 0 0 4.49-3.81 20.067 20.067 0 0 0 3.086-4.745 13.12 13.12 0 0 0 .606-1.564 1.67 1.67 0 0 0 .128-.599z" fill="#535455"/><path d="M177.14 213.699c13.428-.599 16.811-.225 30.239-.824 3.277-.149 15.204.216 17.939-1.376 2.5-1.441 5.703-2.808 6.384-5.363 1.064-4.324-.266-9.22-4.788-11.925-1.584-.932-3.419-1.48-5.32-1.591-7.927-.552-15.173 4.54-23.1 3.024-2.128-.403-4.064-1.451-6.192-1.872-3.175-.55-6.468-.085-9.289 1.31-2.841 1.292-3.5 1.507-3.5 1.507l-14.109-4.203-4.394 21.678 16.13-.365z" fill="#FAFAFA"/><path d="m165.181 187.238 7.448 2.134c.546.16 1.006.49 1.292.929.287.438.38.954.262 1.449L168.405 215c-.118.497-.444.937-.912 1.233a2.554 2.554 0 0 1-1.62.368l-7.533-.74a2.541 2.541 0 0 1-.916-.263 2.249 2.249 0 0 1-.715-.568 1.944 1.944 0 0 1-.391-.774 1.81 1.81 0 0 1 0-.847l5.863-24.617c.063-.284.195-.553.385-.789.19-.235.435-.433.719-.58.283-.147.599-.239.925-.271.327-.032.658-.002.971.086z" fill="#FAFAFA"/><path d="M168.224 215.936a21.597 21.597 0 0 0 1.372-3.491 103.787 103.787 0 0 0 2.554-8.621 86.39 86.39 0 0 0 1.723-8.779c.149-1.133.256-2.06.298-2.696a2.669 2.669 0 0 0 0-.992 27.8 27.8 0 0 0-.744 3.631 172.38 172.38 0 0 1-1.894 8.715c-.83 3.378-1.735 6.439-2.373 8.639a24.445 24.445 0 0 0-.936 3.594zM172.894 194.717c-1.613-1.156-3.546-1.916-5.601-2.204a13.327 13.327 0 0 0-6.103.566c0 .178 2.724-.506 6.012 0 3.288.505 5.597 1.788 5.692 1.638z" fill="#202324"/><path d="M172.012 203.497a28.914 28.914 0 0 0-6.235-1.723 29.207 29.207 0 0 0-6.469-.87 54.289 54.289 0 0 0 6.32 1.413c3.5.712 6.331 1.339 6.384 1.18zM168.628 212.604c0-.178-2.884.131-6.065-1.067-3.181-1.198-4.99-3.154-5.128-3.033-.139.122.298.599 1.064 1.339a12.163 12.163 0 0 0 3.777 2.218 13 13 0 0 0 4.458.786 4.463 4.463 0 0 0 1.894-.243z" fill="#202324"/><path d="m128.92 168.874.564 9.809 22.259 9.398 3.702-16.38-26.525-2.827z" fill="#FAFAFA"/><path d="m159.127 165.944-1.671 6.833c-.123.505-.454.952-.929 1.254a2.615 2.615 0 0 1-1.646.384l-27.408-2.649a2.499 2.499 0 0 1-1.522-.682 1.954 1.954 0 0 1-.606-1.405v-6.805a1.88 1.88 0 0 1 .214-.841c.136-.264.334-.501.58-.694.246-.194.535-.34.849-.431.314-.09.646-.122.974-.093l29.026 2.611c.338.023.665.109.962.253.297.143.555.341.757.579.203.239.345.512.417.803.073.291.074.592.003.883z" fill="#FAFAFA"/><path d="M126.409 171.71c1.356.393 2.748.681 4.16.861 2.597.431 6.193.936 10.204 1.367 4.011.43 7.65.561 10.3.599h3.128a4.52 4.52 0 0 0 1.138-.103 37.562 37.562 0 0 0-4.256-.281c-2.628-.14-6.256-.374-10.246-.768-3.99-.393-7.586-.861-10.193-1.198a36.578 36.578 0 0 0-4.235-.477zM151.338 173.61c1.26-1.52 1.941-3.351 1.947-5.232.213-3.145-1.181-5.476-1.309-5.391-.127.084.873 2.368.66 5.354-.213 2.985-1.436 5.194-1.298 5.269z" fill="#202324"/><path d="M141.123 173.76a21.002 21.002 0 0 0 1.33-5.747c.469-3.22.501-5.85.32-5.86-.181-.009-.5 2.593-.958 5.785-.457 3.192-.872 5.784-.692 5.822zM130.281 171.71c.202 0-.447-2.565.585-5.522 1.033-2.958 3.107-4.783 2.948-4.896-.16-.112-.649.328-1.415 1.133-1.966 2.154-2.897 4.898-2.597 7.647.012.571.176 1.133.479 1.638z" fill="#202324"/><path d="M79.37 96.858s11.373 1.413 12.097 2.031c.724.618 15.364 15.725 15.364 15.725l-6.97 12.72-12.905-5.85a22.367 22.367 0 0 0-4.086-1.076s-12.917-1.545-13.832-2.892c-.915-1.348-.404-1.676.543-1.872.946-.197 8.671.402 10.395.645 1.709.116 3.426.085 5.128-.093 0 0-5.373-1.002-6.597-1.348-1.223-.346-13.246-2.48-13.097-4.381.148-1.9 1.617-2.602 9.16-.936a60.329 60.329 0 0 0 12.79 1.507l-16.694-4.783s-6.725-1.759-4.618-3.481c2.107-1.723 16.492 1.478 16.492 1.478l6.384 1.985-1.873-3.323s-9.044-2.181-10.214-2.948c-1.447-.936-1.67-1.872-.617-2.687 1.053-.814 3.15-.421 3.15-.421z" fill="#FFBF9D"/><path d="M40.543 80.937a5.11 5.11 0 0 1-.148 1.123c-.15.814-.341 1.825-.575 3.023-.479 2.555-1.064 6.094-1.692 10.006-.628 3.913-.99 7.488-1.266 10.062-.128 1.208-.245 2.228-.33 3.051-.02.379-.08.755-.18 1.124a3.96 3.96 0 0 1 0-1.133c0-.73.063-1.778.148-3.07.181-2.593.532-6.168 1.064-10.09.532-3.922 1.277-7.488 1.862-10.006a92.06 92.06 0 0 1 .745-3.005c.071-.374.196-.739.372-1.085zM115.737 81.92c0-.263-2.83-15.632-4.15-21.07l-20.811 2.808c-.288 2.275-.383 10.203-.32 12.87-.035 2.692.974 5.314 2.863 7.432.961 1.04 2.234 1.821 3.674 2.258 1.44.437 2.99.51 4.476.213 1.602 2.062 4.044 3.503 6.82 4.025 2.766.374 5.927-.89 6.81-3.23.626-1.71.843-3.518.638-5.306zM85.424 84.026l-3.32 28.014a1.705 1.705 0 0 1-.703 1.164c-.397.294-.908.44-1.425.408l-19.705-1.385a2.094 2.094 0 0 1-1.354-.604 1.617 1.617 0 0 1-.476-1.268l2.32-29.456c.018-.244.094-.483.224-.7.13-.217.31-.408.528-.56a2.12 2.12 0 0 1 .74-.326c.27-.061.552-.073.827-.033l20.663 2.808c.511.067.973.307 1.287.67a1.6 1.6 0 0 1 .394 1.268z" fill="#202324"/><path d="M68.783 93.32s-11.47-.253-12.31.253c-.841.505-18.057 13.319-18.057 13.319l4.49 13.572s12.396-3.501 13.832-3.912a23.514 23.514 0 0 1 4.256-.478s13.034.347 14.14-.861c1.107-1.207.703-1.591-.19-1.956-.895-.365-8.63-.852-10.375-.852a29.664 29.664 0 0 1-5.043-.833s5.49-.215 6.756-.384c1.266-.168 13.534-.543 13.747-2.424.213-1.881-1.064-2.808-8.863-2.265-4.254.347-8.54.246-12.768-.3l17.258-2.33s6.959-.768 5.203-2.808c-1.756-2.04-16.556-.936-16.556-.936l-6.65 1.039 2.458-3.014s9.331-.843 10.64-1.432c1.607-.73 2-1.592 1.064-2.556-.936-.964-3.032-.842-3.032-.842z" fill="#FFBF9D"/><path d="m14.22 103.944 19.238 6.318-.362 2.349 5.788-6.065 5.32 12.168s-8.948 15.472-10.885 19.44c-5.543 11.494-15.396 17.494-22.46 14.948-8.513-3.051-13.386-10.951-9.502-19.712 2.309-5.213 12.864-29.446 12.864-29.446z" fill="#FFBF9D"/><path d="M38.416 106.892s.16-.14.468-.384l1.415-1.076 5.448-4.09 8.629-6.412 1.298-.936.681-.487c.285-.115.592-.185.905-.206 1.18-.112 2.394-.13 3.638-.15h7.895c.704-.019 1.406.07 2.075.263.358.1.688.266.968.486.283.23.496.52.617.843a1.125 1.125 0 0 1-.095 1.039 2.58 2.58 0 0 1-.798.74 4.253 4.253 0 0 1-1.064.486c-.373.094-.734.168-1.064.234-2.948.496-6.055.805-9.268 1.114l.15-.066-2.459 3.005-.202-.29 6.65-1.04c2.788-.187 5.66-.308 8.587-.299 1.468 0 2.957.056 4.447.206.759.066 1.51.188 2.245.365.378.093.738.239 1.064.431.185.103.342.24.461.402.12.161.198.343.23.534 0 .199-.055.395-.16.571a1.29 1.29 0 0 1-.446.439 4.651 4.651 0 0 1-1.064.515c-.727.259-1.478.463-2.245.609-1.532.29-3.075.43-4.617.655l-9.406 1.254-5.108.674v-.393c3.923.483 7.893.599 11.843.346a57.738 57.738 0 0 1 5.81-.178 9.12 9.12 0 0 1 2.861.468c.5.175.908.509 1.139.936.2.42.256.882.16 1.33-.075.242-.25.453-.49.589a4.13 4.13 0 0 1-.649.318c-.438.162-.89.294-1.351.394-.891.197-1.793.353-2.703.468a89.41 89.41 0 0 1-5.32.505l-2.607.168c-.84.057-1.713.169-2.564.206-1.692.094-3.351.169-4.99.234v-.355c1.787.494 3.64.781 5.512.851 1.85.066 3.65.188 5.405.319.872.075 1.745.15 2.596.243.425.047.851.094 1.266.159.224.035.445.085.66.15.204.08.396.181.574.299a.875.875 0 0 1 .252.248.754.754 0 0 1 .12.314.962.962 0 0 1-.148.599c-.097.171-.211.334-.34.487l-.192.215a.965.965 0 0 1-.277.206 8.388 8.388 0 0 1-2.373.496 89.998 89.998 0 0 1-8.799.262h-1.99a16.352 16.352 0 0 0-1.904 0 15.426 15.426 0 0 0-3.469.506l-9.98 2.808-2.639.711-.67.178-.234.056.223-.075.67-.206 2.618-.767 9.938-2.864a25.848 25.848 0 0 1 7.448-.562 89.447 89.447 0 0 0 8.756-.3 7.965 7.965 0 0 0 2.245-.468.595.595 0 0 0 .181-.131l.181-.206c.117-.136.217-.284.298-.439.181-.309.181-.599-.128-.787a2.443 2.443 0 0 0-.5-.262c-.17-.047-.372-.084-.574-.121-.405-.066-.83-.113-1.245-.16a135.797 135.797 0 0 0-7.97-.533 24.573 24.573 0 0 1-5.607-.843.21.21 0 0 1-.122-.082.169.169 0 0 1-.027-.133.194.194 0 0 1 .073-.092.234.234 0 0 1 .119-.039c1.638-.065 3.298-.14 4.99-.243.851 0 1.67-.15 2.554-.215l2.606-.169c1.745-.131 3.522-.271 5.32-.515.896-.11 1.784-.263 2.66-.458a9.393 9.393 0 0 0 1.277-.375c.383-.15.83-.374.883-.636a1.667 1.667 0 0 0-.127-1.077 1.66 1.66 0 0 0-.915-.711 8.765 8.765 0 0 0-2.703-.431 56.688 56.688 0 0 0-5.756.188 62.762 62.762 0 0 1-11.885-.328.23.23 0 0 1-.154-.074.185.185 0 0 1-.037-.072.166.166 0 0 1 0-.079.187.187 0 0 1 .063-.112.234.234 0 0 1 .128-.056l5.107-.683 9.406-1.255c1.543-.224 3.096-.365 4.586-.645.727-.14 1.439-.334 2.128-.581a4.73 4.73 0 0 0 .947-.468.864.864 0 0 0 .312-.284.744.744 0 0 0 .124-.38c-.064-.553-.766-.88-1.458-1.039a13.952 13.952 0 0 0-2.128-.356 49.798 49.798 0 0 0-4.405-.206c-2.915 0-5.777.103-8.512.281l-6.66 1.029a.216.216 0 0 1-.08-.002.207.207 0 0 1-.128-.081.165.165 0 0 1-.027-.066.168.168 0 0 1 0-.141c.862-1.039 1.703-2.078 2.469-3.004a.243.243 0 0 1 .149-.075c3.192-.3 6.31-.609 9.225-1.086.359-.058.714-.133 1.064-.225.328-.102.636-.247.915-.43.575-.346 1.01-.88.777-1.413a1.874 1.874 0 0 0-.532-.706 2.21 2.21 0 0 0-.83-.427 5.995 5.995 0 0 0-1.947-.243c-2.756-.066-5.395-.094-7.874-.066-1.245 0-2.458 0-3.618.131a2.514 2.514 0 0 0-.766.16l-.67.467-1.298.936-8.693 6.309-5.522 4.006-1.447 1.039c-.32.253-.479.365-.479.365z" fill="#FF9A6C"/><path d="M38.416 106.892c.117.084-5.32 6.112-12.087 13.45-6.767 7.339-12.385 13.226-12.544 13.151-.16-.075 5.32-6.103 12.087-13.45 6.767-7.348 12.406-13.235 12.544-13.151z" fill="#FF9A6C"/></svg>