<svg width="21" height="21" viewBox="0 0 21 21" fill="none" xmlns="http://www.w3.org/2000/svg">
<path d="M15.5 9.5V6.5C15.5 3.73858 13.2614 1.5 10.5 1.5C7.73858 1.5 5.5 3.73858 5.5 6.5V9.5M6.3 19.5H14.7C16.3802 19.5 17.2202 19.5 17.862 19.173C18.4265 18.8854 18.8854 18.4265 19.173 17.862C19.5 17.2202 19.5 16.3802 19.5 14.7V14.3C19.5 12.6198 19.5 11.7798 19.173 11.138C18.8854 10.5735 18.4265 10.1146 17.862 9.82698C17.2202 9.5 16.3802 9.5 14.7 9.5H6.3C4.61984 9.5 3.77976 9.5 3.13803 9.82698C2.57354 10.1146 2.1146 10.5735 1.82698 11.138C1.5 11.7798 1.5 12.6198 1.5 14.3V14.7C1.5 16.3802 1.5 17.2202 1.82698 17.862C2.1146 18.4265 2.57354 18.8854 3.13803 19.173C3.77976 19.5 4.61984 19.5 6.3 19.5Z" stroke="#3CBC81" stroke-width="2" stroke-linecap="round" stroke-linejoin="round"/>
</svg>
