<svg width="17" height="17" fill="none" xmlns="http://www.w3.org/2000/svg"><path d="M12.041 1.417a3.553 3.553 0 0 1 3.543 3.541v7.083a3.553 3.553 0 0 1-3.543 3.543H4.958a3.553 3.553 0 0 1-3.541-3.543V4.958a3.553 3.553 0 0 1 3.541-3.541h7.083zm0-1.417H4.958A4.973 4.973 0 0 0 0 4.958v7.083A4.973 4.973 0 0 0 4.958 17h7.083A4.973 4.973 0 0 0 17 12.041V4.958A4.973 4.973 0 0 0 12.041 0z"/><path d="M13.104 4.96a1.063 1.063 0 1 1 0-2.126 1.063 1.063 0 0 1 0 2.126zM8.5 5.668a2.833 2.833 0 1 1 0 5.667 2.833 2.833 0 0 1 0-5.667zm0-1.417a4.25 4.25 0 1 0 0 8.5 4.25 4.25 0 0 0 0-8.5z"/></svg>