<svg width="17" height="17" viewBox="0 0 17 17" fill="none" xmlns="http://www.w3.org/2000/svg">
<path d="M12.0415 1.41654C12.9801 1.41934 13.8793 1.79341 14.543 2.45704C15.2066 3.12067 15.5807 4.01995 15.5835 4.95846V12.0415C15.5807 12.9801 15.2066 13.8793 14.543 14.543C13.8793 15.2066 12.9801 15.5807 12.0415 15.5835H4.95846C4.01995 15.5807 3.12067 15.2066 2.45704 14.543C1.79341 13.8793 1.41934 12.9801 1.41654 12.0415V4.95846C1.41934 4.01995 1.79341 3.12067 2.45704 2.45704C3.12067 1.79341 4.01995 1.41934 4.95846 1.41654H12.0415ZM12.0415 0H4.95846C2.23125 0 0 2.23125 0 4.95846V12.0415C0 14.7688 2.23125 17 4.95846 17H12.0415C14.7688 17 17 14.7688 17 12.0415V4.95846C17 2.23125 14.7688 0 12.0415 0Z" />
<path d="M13.104 4.95996C12.8939 4.95996 12.6885 4.89765 12.5137 4.7809C12.339 4.66415 12.2028 4.49821 12.1224 4.30406C12.042 4.10992 12.021 3.89628 12.062 3.69018C12.103 3.48407 12.2041 3.29475 12.3527 3.14616C12.5013 2.99757 12.6907 2.89637 12.8968 2.85538C13.1029 2.81438 13.3165 2.83542 13.5106 2.91584C13.7048 2.99626 13.8707 3.13244 13.9875 3.30717C14.1042 3.4819 14.1665 3.68732 14.1665 3.89746C14.1668 4.03707 14.1396 4.17537 14.0863 4.30442C14.033 4.43346 13.9547 4.55071 13.856 4.64943C13.7573 4.74815 13.64 4.8264 13.511 4.87969C13.382 4.93298 13.2437 4.96026 13.104 4.95996ZM8.5 5.66804C9.06041 5.66804 9.60823 5.83422 10.0742 6.14557C10.5401 6.45691 10.9033 6.89944 11.1178 7.41718C11.3322 7.93493 11.3883 8.50464 11.279 9.05428C11.1697 9.60392 10.8998 10.1088 10.5036 10.5051C10.1073 10.9013 9.60242 11.1712 9.05278 11.2805C8.50314 11.3898 7.93343 11.3337 7.41568 11.1193C6.89794 10.9048 6.45541 10.5416 6.14407 10.0757C5.83272 9.60973 5.66654 9.0619 5.66654 8.5015C5.66735 7.75027 5.96613 7.03003 6.49733 6.49883C7.02853 5.96763 7.74877 5.66884 8.5 5.66804ZM8.5 4.2515C7.65943 4.2515 6.83774 4.50076 6.13883 4.96775C5.43992 5.43475 4.89519 6.09851 4.57351 6.8751C4.25184 7.65168 4.16768 8.50621 4.33166 9.33063C4.49565 10.1551 4.90043 10.9123 5.4948 11.5067C6.08917 12.1011 6.84645 12.5058 7.67087 12.6698C8.49529 12.8338 9.34982 12.7497 10.1264 12.428C10.903 12.1063 11.5668 11.5616 12.0337 10.8627C12.5007 10.1638 12.75 9.34207 12.75 8.5015C12.75 7.37433 12.3022 6.29333 11.5052 5.4963C10.7082 4.69927 9.62717 4.2515 8.5 4.2515Z" />
</svg>
