<svg width="212" height="364" fill="none" xmlns="http://www.w3.org/2000/svg"><path d="M183.126.547H28.973c-14.89 0-26.961 10.618-26.961 23.718v315.039c0 13.099 12.07 23.718 26.962 23.718h154.152c14.89 0 26.962-10.619 26.962-23.718V24.264c0-13.098-12.072-23.717-26.962-23.717z" fill="#455A64"/><path d="M206.811 339.341V24.246c0-11.491-10.59-20.807-23.653-20.807H28.942c-13.063 0-23.653 9.316-23.653 20.807v315.095c0 11.492 10.59 20.807 23.653 20.807h154.216c13.063 0 23.653-9.315 23.653-20.807z" fill="#263238"/><path d="M91.111 14.858a2.616 2.616 0 0 1-.934-.114c-.3-.093-.574-.24-.806-.431a2.065 2.065 0 0 1-.544-.678 1.833 1.833 0 0 1-.192-.813c0-.28.065-.556.192-.813.126-.256.311-.487.544-.678.232-.19.506-.338.806-.431.299-.094.617-.133.934-.114h29.792a2.458 2.458 0 0 1 1.538.643c.401.378.625.876.625 1.393s-.224 1.015-.625 1.393a2.458 2.458 0 0 1-1.538.643H91.111zM75.15 14.858a2.55 2.55 0 0 1-1.288-.344 2.122 2.122 0 0 1-.854-.916 1.814 1.814 0 0 1-.132-1.179c.09-.395.31-.759.634-1.044.325-.286.738-.48 1.188-.559.45-.079.916-.038 1.34.116.424.155.786.416 1.041.752.255.335.391.73.391 1.134 0 .54-.244 1.06-.68 1.442a2.49 2.49 0 0 1-1.64.598zM83.674 14.858a2.552 2.552 0 0 1-1.292-.34 2.124 2.124 0 0 1-.859-.913 1.814 1.814 0 0 1-.136-1.18c.088-.396.308-.76.632-1.047a2.43 2.43 0 0 1 1.188-.561c.45-.08.917-.04 1.341.114.425.155.788.416 1.043.752.256.336.392.73.392 1.134-.003.54-.247 1.055-.679 1.437a2.498 2.498 0 0 1-1.63.604zM136.959 14.858a2.548 2.548 0 0 1-1.291-.34 2.123 2.123 0 0 1-.859-.913 1.811 1.811 0 0 1-.137-1.18 1.98 1.98 0 0 1 .632-1.047 2.434 2.434 0 0 1 1.188-.561c.45-.08.917-.04 1.342.114.424.155.787.416 1.042.752.256.336.392.73.392 1.134-.003.54-.247 1.055-.679 1.437a2.496 2.496 0 0 1-1.63.604zM128.436 14.858c-.459 0-.907-.12-1.289-.344a2.12 2.12 0 0 1-.854-.916 1.807 1.807 0 0 1-.132-1.179c.089-.395.31-.759.635-1.044.324-.286.737-.48 1.187-.559.45-.079.917-.038 1.34.116.424.155.786.416 1.041.752.255.335.391.73.391 1.134 0 .54-.244 1.06-.679 1.442a2.49 2.49 0 0 1-1.64.598z" fill="#455A64"/><path d="M184.242 5.489h-29.217c-2.244-.001-4.429.636-6.227 1.817-1.799 1.181-3.115 2.842-3.753 4.734l-.5 1.498c-.669 2.03-2.067 3.816-3.985 5.09-1.917 1.274-4.252 1.967-6.655 1.977H78.247c-2.412-.001-4.758-.69-6.687-1.965-1.928-1.274-3.334-3.064-4.007-5.102l-.489-1.498c-.638-1.894-1.956-3.556-3.757-4.737-1.801-1.18-3.988-1.817-6.234-1.814H30.57c-5.46 0-10.697 1.908-14.558 5.304C12.15 14.19 9.98 18.797 9.98 23.6V337.91c0 4.518 2.04 8.851 5.671 12.046 3.632 3.194 8.557 4.989 13.693 4.989h155.248a19.609 19.609 0 0 0 6.71-1.171c2.127-.774 4.06-1.909 5.689-3.341 1.628-1.431 2.92-3.131 3.801-5.002a13.816 13.816 0 0 0 1.335-5.902V21.223c-.003-4.172-1.888-8.173-5.242-11.123-3.353-2.95-7.901-4.609-12.644-4.611z" fill="#FAFAFA"/><path d="M210.311 120.991h-.234V79.33h.234c.302 0 .591.105.805.293a.946.946 0 0 1 .333.708v39.658c0 .266-.12.521-.333.709a1.227 1.227 0 0 1-.805.293zM1.735 104.976h.277v26.377h-.277c-.302 0-.592-.106-.805-.294a.944.944 0 0 1-.334-.708v-24.336a.894.894 0 0 1 .075-.395.991.991 0 0 1 .244-.337c.106-.097.233-.175.374-.227.141-.053.293-.08.446-.08zM1.735 70.54h.277v26.377h-.277c-.302 0-.592-.105-.805-.293a.945.945 0 0 1-.334-.708V71.58a.894.894 0 0 1 .075-.395.996.996 0 0 1 .244-.338c.106-.097.233-.174.374-.227.141-.052.293-.08.446-.08zM1.81 44.679h.212v12.262H1.81c-.268 0-.526-.094-.715-.26a.838.838 0 0 1-.296-.63V45.568c0-.236.106-.462.296-.629.19-.166.447-.26.715-.26z" fill="#455A64"/><path d="M156.909 17.666h-1.426v1.76h1.426v-1.76zM159.228 16.88h-1.425v2.546h1.425V16.88zM161.559 16.3h-1.426v3.135h1.426v-3.136zM163.889 15.158h-1.426v4.277h1.426v-4.277zM184.988 19.52h-7.172a.563.563 0 0 1-.365-.132.436.436 0 0 1-.156-.318v-3.136a.43.43 0 0 1 .149-.32.555.555 0 0 1 .362-.138h7.182a.215.215 0 0 1 .095 0 .096.096 0 0 1 0 .084v1.03h.766c.035 0 .069.011.095.032a.12.12 0 0 1 .044.08v1.516a.112.112 0 0 1-.041.083.139.139 0 0 1-.098.03h-.766v1.038a.099.099 0 0 1-.008.095.12.12 0 0 1-.037.036.135.135 0 0 1-.05.02zm-.128-3.81h-7.054a.25.25 0 0 0-.177.066.193.193 0 0 0-.068.158v3.136c0 .029.007.058.02.084.012.027.031.051.055.072.024.02.052.035.083.046.031.01.064.015.097.013h7.044v-1.03c0-.03.013-.058.037-.079a.139.139 0 0 1 .091-.033h.766v-1.282h-.766a.145.145 0 0 1-.052-.01.13.13 0 0 1-.043-.026.113.113 0 0 1-.027-.04.119.119 0 0 1-.006-.046v-1.03z" fill="#263238"/><path d="M178.146 18.77v-2.546h6.129v2.546h-6.129zM170.73 19.276a.435.435 0 0 0-.09-.261.525.525 0 0 0-.241-.172.601.601 0 0 0-.309-.025.558.558 0 0 0-.272.13.45.45 0 0 0-.143.242.418.418 0 0 0 .035.272.488.488 0 0 0 .2.208c.089.05.193.076.299.074a.586.586 0 0 0 .202-.036.522.522 0 0 0 .17-.102.444.444 0 0 0 .149-.33zM168.432 18.171l.67.58c.303-.256.707-.4 1.128-.402.417.003.818.147 1.117.403l.67-.58a2.57 2.57 0 0 0-.822-.485 2.836 2.836 0 0 0-1.941 0 2.57 2.57 0 0 0-.822.484z" fill="#263238"/><path d="M170.209 16.206c-.528 0-1.051.091-1.538.27a4.07 4.07 0 0 0-1.303.769l.67.58c.58-.503 1.362-.786 2.176-.786.815 0 1.597.282 2.176.786l.671-.58a4.076 4.076 0 0 0-1.308-.771 4.477 4.477 0 0 0-1.544-.268z" fill="#263238"/><path d="m166.304 16.28.67.59a4.688 4.688 0 0 1 1.496-.88 5.154 5.154 0 0 1 1.765-.31c.606 0 1.206.105 1.766.31a4.694 4.694 0 0 1 1.495.88l.671-.59c-1.044-.916-2.458-1.43-3.932-1.43-1.474 0-2.888.514-3.931 1.43zM192.085 58.326c0 .13-39.496.243-88.206.243s-88.205-.112-88.205-.243 39.485-.253 88.205-.253c48.721 0 88.206.103 88.206.253z" fill="#263238"/><path d="M82.823 319.198a4.308 4.308 0 0 1-1.745-1.456 3.61 3.61 0 0 1-.643-2.04c0-.718.222-1.423.642-2.039a4.318 4.318 0 0 1 1.746-1.457 5.764 5.764 0 0 1 2.479-.514 5.685 5.685 0 0 1 2.468.514 4.327 4.327 0 0 1 1.734 1.442c.32.46.529.973.614 1.507a3.492 3.492 0 0 1-.116 1.598 3.804 3.804 0 0 1-.828 1.426c-.384.42-.862.767-1.404 1.019a5.556 5.556 0 0 1-2.468.525 5.618 5.618 0 0 1-2.48-.525zm3.894-1.319c.415-.213.757-.52.99-.89.247-.391.372-.834.361-1.282a2.326 2.326 0 0 0-.362-1.292 2.556 2.556 0 0 0-.99-.879 3.27 3.27 0 0 0-1.414-.319c-.495 0-.982.11-1.415.319a2.555 2.555 0 0 0-.99.879 2.417 2.417 0 0 0-.362 1.292c-.005.448.12.889.362 1.282.233.37.575.677.99.89.433.209.92.318 1.415.318.494 0 .981-.109 1.415-.318zM97.303 319.591l-1.702-2.162h-1.883v2.162h-2.043v-7.759h3.82a5.6 5.6 0 0 1 2.042.337 2.88 2.88 0 0 1 1.338.994c.321.443.482.961.46 1.486a2.315 2.315 0 0 1-.466 1.481 2.845 2.845 0 0 1-1.353.972l1.98 2.499-2.193-.01zm-.521-5.953a2.343 2.343 0 0 0-1.394-.355h-1.67v2.714h1.67c.498.029.991-.097 1.394-.356.16-.124.287-.278.37-.452.083-.173.12-.361.109-.549a1.098 1.098 0 0 0-.107-.55 1.25 1.25 0 0 0-.372-.452zM100.953 311.832h4.011a6.356 6.356 0 0 1 2.543.477 3.979 3.979 0 0 1 1.713 1.367c.404.621.617 1.325.617 2.04 0 .716-.213 1.42-.617 2.041a3.886 3.886 0 0 1-1.713 1.357 6.203 6.203 0 0 1-2.543.487h-4.011v-7.769zm3.905 6.29a3.24 3.24 0 0 0 2.128-.646c.506-.478.787-1.107.787-1.76s-.281-1.281-.787-1.759a3.25 3.25 0 0 0-2.128-.656h-1.862v4.821h1.862z" fill="#FAFAFA"/><path d="M77.95 64.84H18.312v51.396H77.95V64.84z" fill="#EBEBEB"/><path d="M18.312 64.84h12.992l36.282-.075 124.701-.103h.266V116.526h-.277l-174.017-.084h-.18v-.234c0-16.137.074-29.016.105-37.833V64.813v13.693c0 8.817.064 21.64.107 37.739l-.192-.168 174.018-.075-.277.243V64.84l.277.234-124.488-.103-36.357-.075H18.993l-.68-.056z" fill="#263238"/><path d="m61.224 89.644-1.937 8.359 6.31-.122-4.373-8.237z" fill="#8BAA36"/><path d="m61.224 89.644-1.937 8.359 6.31-.122-4.373-8.237z" fill="#000" opacity=".3"/><path d="m34.177 89.916 1.936 8.358-6.31-.13 4.374-8.228z" fill="#8BAA36"/><path d="m34.177 89.916 1.936 8.358-6.31-.13 4.374-8.228z" fill="#000" opacity=".3"/><path d="M50.328 91.46a.86.86 0 0 1-.55-.192.67.67 0 0 1-.248-.472l-.916-19.582a.618.618 0 0 1 .049-.278.687.687 0 0 1 .17-.24.8.8 0 0 1 .265-.158.882.882 0 0 1 .314-.053h1.064c.212 0 .415.073.565.205.15.132.233.31.233.496l-.191 19.582a.66.66 0 0 1-.222.477.849.849 0 0 1-.533.215z" fill="#AFE814"/><path d="M51.339 72.984h-2.628v1.703h2.628v-1.703z" fill="#8BAA36"/><path d="M52.136 91.535a.76.76 0 0 1-.44-.35.617.617 0 0 1-.038-.52L58.435 72a.673.673 0 0 1 .155-.258.784.784 0 0 1 .262-.178.88.88 0 0 1 .647-.014l1.064.337a.824.824 0 0 1 .277.148.71.71 0 0 1 .187.231.63.63 0 0 1 .005.557l-7.82 18.327a.687.687 0 0 1-.174.24.799.799 0 0 1-.268.16.883.883 0 0 1-.634-.016z" fill="#AFE814"/><path d="m57.803 73.674-.664 1.6 2.468.794.665-1.6-2.468-.794z" fill="#8BAA36"/><path d="M59.712 86.565a4.992 4.992 0 0 0-1.579-1.368 5.712 5.712 0 0 0-2.08-.673 8.339 8.339 0 0 0-4.257.665c-1.064.43-2.128 1.02-3.192.824a6.466 6.466 0 0 1-2.128-1.049 8.022 8.022 0 0 0-2.719-1.01 8.449 8.449 0 0 0-2.952 0c-2.009.412-3.766 1.479-4.915 2.985a4.538 4.538 0 0 0-.974 1.878c-.165.68-.16 1.384.016 2.063l25.132-.084a4.243 4.243 0 0 0 .39-2.152 4.36 4.36 0 0 0-.742-2.08z" fill="#FAFAFA"/><path d="M59.042 90.3a4.12 4.12 0 0 0 0-1.086c-.087-.995-.591-1.925-1.415-2.612a3.84 3.84 0 0 0-2.075-.795 6.544 6.544 0 0 0-2.606.318c-.883.262-1.713.767-2.692 1.114a4.26 4.26 0 0 1-1.596.253 4.718 4.718 0 0 1-1.596-.384c-1.011-.421-1.862-1.011-2.777-1.423-.864-.41-1.84-.6-2.82-.552a6.303 6.303 0 0 0-2.387.603 5.551 5.551 0 0 0-1.869 1.437 6.18 6.18 0 0 0-1.33 2.705c-.074.347-.096.618-.117.805a.957.957 0 0 1 0 .281 4.066 4.066 0 0 1 .064-1.095 5.989 5.989 0 0 1 1.287-2.808 5.662 5.662 0 0 1 1.9-1.494 6.441 6.441 0 0 1 2.442-.64 6.24 6.24 0 0 1 2.936.561c.937.422 1.788 1.002 2.767 1.414a3.915 3.915 0 0 0 3.011.131c.947-.337 1.787-.833 2.713-1.105a6.763 6.763 0 0 1 2.692-.318 4.127 4.127 0 0 1 2.128.861c.842.711 1.341 1.68 1.394 2.705a2.62 2.62 0 0 1-.054 1.124z" fill="#263238"/><path d="M57.85 90.562a5.562 5.562 0 0 0 0-.936 2.713 2.713 0 0 0-.418-1.225 3.13 3.13 0 0 0-.965-.956 2.994 2.994 0 0 0-1.894-.403 6.208 6.208 0 0 0-2.128.796c-.722.447-1.514.8-2.351 1.048a5.035 5.035 0 0 1-2.82-.243c-1.809-.627-3.266-1.694-4.894-1.975a4.818 4.818 0 0 0-2.143.099 4.372 4.372 0 0 0-1.815 1.005 4.684 4.684 0 0 0-1.352 2.275c-.149.599-.127.936-.16.936a3.476 3.476 0 0 1 .075-.936c.18-.879.641-1.694 1.33-2.35a4.47 4.47 0 0 1 1.875-1.072 4.946 4.946 0 0 1 2.232-.116c1.692.29 3.192 1.366 4.937 1.975a4.892 4.892 0 0 0 2.681.234c.817-.24 1.59-.58 2.299-1.011a6.358 6.358 0 0 1 2.202-.805 3.057 3.057 0 0 1 2.011.45c.41.267.747.612.986 1.008.24.397.375.836.397 1.284.037.308.008.62-.085.918z" fill="#263238"/><path d="M56.297 90.57a1.42 1.42 0 0 0-.139-.738 1.642 1.642 0 0 0-.638-.646 2.063 2.063 0 0 0-1.266-.169c-1 .131-1.884.936-3.192 1.32a6.682 6.682 0 0 1-4.256-.505 24.926 24.926 0 0 0-3.958-1.489 4.6 4.6 0 0 0-1.707-.123 4.435 4.435 0 0 0-1.613.507c-.644.396-1.113.974-1.33 1.638a4.069 4.069 0 0 0-.128.749 1.703 1.703 0 0 1 0-.768c.193-.699.665-1.313 1.33-1.731a4.497 4.497 0 0 1 1.674-.557 4.684 4.684 0 0 1 1.784.117c1.384.373 2.72.868 3.99 1.479a6.535 6.535 0 0 0 4.107.514c1.224-.365 2.128-1.17 3.192-1.282a2.129 2.129 0 0 1 1.352.206c.293.176.523.423.66.711.086.18.119.377.095.571.025.064.04.13.043.197z" fill="#263238"/><path d="M34.134 89.841c0 .57 4.617 21.434 4.617 21.434l18.089-.262 4.362-21.369-27.068.197z" fill="#8BAA36"/><path d="M34.134 89.841h2.032l5.682-.066 19.375-.187h.17l-.074.14-2.798 4.896a824.208 824.208 0 0 0-2.352 4.109v.047H39.22l-4.98-8.845 5.129 8.78-.075-.047H56.17l-.095.046 2.35-4.1c.959-1.675 1.895-3.322 2.8-4.895l.106.14-27.196-.018z" fill="#263238"/><path d="m39.677 98.649.457.87h16.418l4.234-9.126-4.724 8.256H39.677z" fill="#000" opacity=".3"/><path d="M51.392 107.429a50.366 50.366 0 0 1-6.384 0 54.825 54.825 0 0 1 6.384 0zM50.232 104.106s0-.16-.106-.44a1.723 1.723 0 0 0-.49-.796 2.081 2.081 0 0 0-.872-.481 2.287 2.287 0 0 0-1.027-.041c-.341.064-.657.205-.918.409a1.78 1.78 0 0 0-.57.754c-.113.29-.138.601-.074.902.064.302.215.584.44.818.224.235.514.415.84.522.314.106.654.14.987.099.333-.041.649-.156.918-.333.365-.23.634-.559.766-.936.085-.272.085-.44.106-.44a1.09 1.09 0 0 1 0 .459 1.86 1.86 0 0 1-.755 1.067c-.287.2-.627.332-.989.383a2.4 2.4 0 0 1-1.075-.093 2.183 2.183 0 0 1-1.07-.7 1.765 1.765 0 0 1-.407-1.116c0-.4.143-.791.408-1.116.264-.326.638-.57 1.069-.7a2.405 2.405 0 0 1 1.077-.089c.361.053.701.187.987.389.388.261.656.637.755 1.057.028.14.028.282 0 .422z" fill="#FAFAFA"/><path d="M39.687 82.456a.756.756 0 0 0 .29-.157.638.638 0 0 0 .179-.255.832.832 0 0 0 0-.683 3.19 3.19 0 0 0-.596-.787c-.494-.55-.727-1.247-.65-1.945.078-.698.46-1.342 1.065-1.799.425-.346.947-.692 1.01-1.207a1.63 1.63 0 0 0-.198-.737 1.856 1.856 0 0 0-.525-.601c-.42-.35-.78-.755-1.064-1.198a2.818 2.818 0 0 1-.117-2.527 3.157 3.157 0 0 1 1.202-1.349c.192-.13.408-.232.639-.299 0 0-.224.103-.585.356a3.14 3.14 0 0 0-1.065 1.338 2.71 2.71 0 0 0 .15 2.396c.291.429.65.82 1.063 1.16.246.182.444.408.58.664.136.255.207.534.208.816-.165.54-.542 1.01-1.064 1.329-.575.423-.942 1.025-1.025 1.68a2.347 2.347 0 0 0 .578 1.84c.247.248.448.529.596.832a.907.907 0 0 1 0 .75c-.287.44-.67.44-.67.383zM42.528 82.456a.756.756 0 0 0 .29-.157.638.638 0 0 0 .178-.255.832.832 0 0 0 0-.683 3.187 3.187 0 0 0-.596-.787c-.493-.55-.726-1.247-.649-1.945.078-.698.459-1.342 1.065-1.799.425-.346.947-.692 1.01-1.207a1.63 1.63 0 0 0-.198-.737 1.856 1.856 0 0 0-.525-.601c-.42-.35-.78-.755-1.064-1.198a2.817 2.817 0 0 1-.117-2.527 3.156 3.156 0 0 1 1.202-1.349c.192-.13.408-.232.639-.299 0 0-.235.103-.586.356a3.14 3.14 0 0 0-1.064 1.338 2.677 2.677 0 0 0 .15 2.396c.291.429.65.82 1.063 1.16.246.182.444.408.58.664.136.255.207.534.208.816-.165.54-.542 1.01-1.064 1.329a2.61 2.61 0 0 0-.905 1.189 2.261 2.261 0 0 0-.096 1.214c.08.406.27.789.554 1.116.247.249.448.53.596.833a.906.906 0 0 1 0 .75c-.32.44-.703.44-.67.383z" fill="#263238"/><path d="M124.041 74.06H89.515v4.137h34.526V74.06z" fill="#8BAA36"/><path d="M180.582 84.262H89.515v2.65h91.067v-2.65zM180.582 89.57H89.515v2.648h91.067V89.57z" fill="#E0E0E0"/><path d="M156.377 105.21h-1.724v1.488h-1.277v-1.488h-1.724v-1.058h1.724v-1.479h1.277v1.479h1.724v1.058zM168.145 106.586v1.142h-5.235v-.936l2.671-2.228c.229-.172.423-.378.574-.608.093-.16.144-.336.149-.515a.603.603 0 0 0-.066-.311.697.697 0 0 0-.221-.251 1.413 1.413 0 0 0-.819-.196 2.022 2.022 0 0 0-.82.159 1.48 1.48 0 0 0-.617.449l-1.17-.655a2.596 2.596 0 0 1 1.117-.833 4.103 4.103 0 0 1 1.639-.3c.462-.006.921.067 1.351.216.357.133.666.35.894.627.219.273.335.601.329.936.002.324-.082.644-.244.936a3.559 3.559 0 0 1-.915.992l-1.596 1.329 2.979.047zM174.539 104.733h2.809v1.095h-2.809v-1.095z" fill="#8BAA36"/><path d="M180.583 111.734v-1.03c0-.702 0-1.656-.054-2.873 0-2.509-.063-6.056-.106-10.427l.202.178-34.399.065.277-.243V111.725l-.266-.234 24.631.112 7.161.056h2.607a4.885 4.885 0 0 1-.617 0h-1.873l-7.097.056-24.812.113h-.266V97.282l.276-.243 34.399.065h.203v.178c0 4.418-.075 8.003-.107 10.53 0 1.198 0 2.153-.053 2.808v.73a.573.573 0 0 1-.106.384z" fill="#263238"/><path d="M96.463 107.157a3.921 3.921 0 0 1-2.181.805v1.245h-1.266v-1.208a7.751 7.751 0 0 1-1.777-.29 4.638 4.638 0 0 1-1.362-.599l.692-1.357c.343.219.719.395 1.117.524.428.138.875.226 1.33.262v-1.872a9.442 9.442 0 0 1-1.511-.421 2.632 2.632 0 0 1-1.064-.683 1.721 1.721 0 0 1-.415-1.189c-.004-.296.062-.59.194-.862s.327-.517.572-.72a3.889 3.889 0 0 1 2.203-.805v-1.235h1.266v1.207a6.134 6.134 0 0 1 2.553.683l-.627 1.367a5.458 5.458 0 0 0-1.926-.58v1.872c.509.094 1.008.228 1.49.402.413.142.779.374 1.063.674.289.343.435.762.415 1.189a1.89 1.89 0 0 1-.189.868c-.132.274-.329.52-.577.723zm-4.139-4.399c.205.14.44.242.692.299v-1.572a1.523 1.523 0 0 0-.713.309.7.7 0 0 0-.224.505.52.52 0 0 0 .063.254c.042.08.105.149.182.205zm2.628 3.454a.638.638 0 0 0 .176-.217.56.56 0 0 0 .058-.261.51.51 0 0 0-.056-.253.573.573 0 0 0-.178-.205 2.228 2.228 0 0 0-.67-.309v1.535c.249-.042.48-.143.67-.29zM106.007 107.157a3.923 3.923 0 0 1-2.192.805v1.245h-1.255v-1.208a7.636 7.636 0 0 1-1.777-.29 4.84 4.84 0 0 1-1.373-.599l.702-1.357c.327.215.685.391 1.064.524.429.138.876.226 1.33.262v-1.872a9.833 9.833 0 0 1-1.521-.421 2.647 2.647 0 0 1-1.064-.683 1.721 1.721 0 0 1-.415-1.189c-.004-.296.062-.59.194-.862s.327-.517.572-.72a3.89 3.89 0 0 1 2.202-.805v-1.235h1.256v1.207c.905.04 1.786.275 2.564.683l-.628 1.367a5.446 5.446 0 0 0-1.936-.58v1.872a9.212 9.212 0 0 1 1.5.402c.412.144.778.376 1.064.674.288.343.435.762.415 1.189.016.293-.039.587-.159.861a2.107 2.107 0 0 1-.543.73zm-4.139-4.399c.205.14.44.242.692.299v-1.572a1.521 1.521 0 0 0-.713.309.7.7 0 0 0-.224.505.496.496 0 0 0 .059.255c.043.08.107.15.186.204zm2.628 3.454a.63.63 0 0 0 .176-.217.566.566 0 0 0 .058-.261.532.532 0 0 0-.06-.252.59.59 0 0 0-.174-.206 2.216 2.216 0 0 0-.681-.309v1.535c.253-.04.489-.141.681-.29z" fill="#E0E0E0"/><path d="M77.992 116.713c-.16 0-.277-11.54-.277-25.777 0-14.237.117-25.787.276-25.787.16 0 .277 11.541.277 25.787 0 14.246-.106 25.777-.276 25.777z" fill="#263238"/><path d="M77.95 121.543H18.312v51.396H77.95v-51.396z" fill="#EBEBEB"/><path d="M18.312 121.543h13.034l36.282-.065 124.701-.113h.266V173.229h-.277l-174.017-.084h-.18v-.159c0-16.137.074-29.016.106-37.833V121.59 135.274c0 8.817.063 21.65.106 37.74l-.192-.159 174.018-.085-.277.244v-51.471l.277.234-124.488-.103-36.357-.065H19.035l-.723-.066z" fill="#263238"/><path d="M124.041 130.763H89.515v4.137h34.526v-4.137z" fill="#8BAA36"/><path d="M180.582 140.975H89.515v2.648h91.067v-2.648zM180.582 146.272H89.515v2.649h91.067v-2.649z" fill="#E0E0E0"/><path d="M156.377 161.922h-1.724v1.479h-1.277v-1.479h-1.724v-1.067h1.724v-1.479h1.277v1.479h1.724v1.067zM165.644 158.328v6.103h-1.607v-4.97h-1.383v-1.133h2.99zM172.581 161.436h2.809v1.095h-2.809v-1.095z" fill="#8BAA36"/><path d="M180.583 168.437v-1.03c0-.702 0-1.656-.054-2.873 0-2.509-.063-6.056-.106-10.427l.202.178-34.399.065.277-.243v14.32l-.266-.234 24.631.113 7.161.065h2.607a4.885 4.885 0 0 1-.617 0h-1.873l-7.097.066-24.812.103h-.266v-14.424l.276-.243 34.399.065h.203v.178c0 4.418-.075 8.003-.107 10.539 0 1.198 0 2.144-.053 2.808v.73a.597.597 0 0 1-.106.244z" fill="#263238"/><path d="M96.463 163.86a3.921 3.921 0 0 1-2.181.805v1.245h-1.266v-1.208a7.277 7.277 0 0 1-1.777-.29 4.638 4.638 0 0 1-1.362-.599l.692-1.357c.34.223.717.399 1.117.524.428.141.875.232 1.33.271v-1.872a11.732 11.732 0 0 1-1.511-.421 2.72 2.72 0 0 1-1.064-.683 1.72 1.72 0 0 1-.415-1.198c-.004-.296.062-.59.194-.862s.327-.518.572-.72a3.89 3.89 0 0 1 2.203-.805v-1.17h1.266v1.217c.9.039 1.777.27 2.553.674l-.627 1.366a5.48 5.48 0 0 0-1.926-.58v1.872c.508.099 1.006.233 1.49.402.414.146.78.381 1.063.684.29.338.438.755.415 1.179-.002.287-.071.57-.203.833a2.133 2.133 0 0 1-.563.693zm-4.139-4.399c.202.144.439.246.692.299v-1.572a1.443 1.443 0 0 0-.713.318.666.666 0 0 0-.224.505.506.506 0 0 0 .063.25.59.59 0 0 0 .182.2zm2.628 3.453a.634.634 0 0 0 .176-.216.56.56 0 0 0 .058-.261.51.51 0 0 0-.056-.253.585.585 0 0 0-.178-.206 2.546 2.546 0 0 0-.67-.308v1.535c.25-.038.483-.139.67-.291z" fill="#E0E0E0"/><path d="M77.992 173.416c-.16 0-.277-11.541-.277-25.777 0-14.237.138-25.815.276-25.815.139 0 .277 11.541.277 25.787 0 14.246-.106 25.805-.276 25.805z" fill="#263238"/><path d="m36.411 139.936 2.213 25.88a1.5 1.5 0 0 0 .555 1.018c.323.267.747.418 1.19.424l11.96.084c.444.001.874-.144 1.203-.407.329-.264.534-.626.573-1.016l2.426-25.693-20.12-.29z" fill="#8BAA36"/><path d="M55.488 151.261c-6.083.217-12.174.145-18.248-.215l.575 7.787s10.64 1.601 17.024-.355l.649-7.217zM56.393 141.639a32.038 32.038 0 0 1-13.034 1.713c-5.788-.318-6.81-1.554-6.81-1.554l-.074-1.16h20.013l-.095 1.001z" fill="#000" opacity=".3"/><path d="m57.371 138.831.469 1.788s-2.288 1.666-11.64 1.554c-8.374-.094-10.406-1.46-10.406-1.46l-.65-.487.575-1.685 21.652.29z" fill="#E0E0E0"/><path d="M57.372 138.831h-6.267l-15.396-.187h.063l-.563 1.685v-.066l.68.506c.263.139.541.255.83.346l.437.131.447.122c.585.14 1.18.252 1.776.346a35.4 35.4 0 0 0 3.49.365c2.125.135 4.256.17 6.384.103a37.096 37.096 0 0 0 5.15-.468 17.79 17.79 0 0 0 1.99-.44 6.084 6.084 0 0 0 1.468-.59l-.32-1.319-.084-.347v-.121a.524.524 0 0 1 0 .112l.085.346c.085.3.213.749.362 1.32a6.18 6.18 0 0 1-1.48.608c-.65.191-1.315.344-1.99.459a37.252 37.252 0 0 1-5.16.487c-2.128.073-4.259.045-6.383-.084a36.242 36.242 0 0 1-3.501-.365 20.513 20.513 0 0 1-1.798-.356c-.15 0-.298-.075-.447-.112a3.445 3.445 0 0 1-.436-.141 4.228 4.228 0 0 1-.862-.356l-.692-.505c.202-.58.394-1.151.575-1.685l15.428.234 4.575.075h1.649l-.01-.103z" fill="#263238"/><path d="M35.698 138.672c0 .861 4.81 1.479 10.832 1.619 4.107.094 10.108-.599 10.842-1.507.575-.692-4.841-1.582-10.82-1.619-5.98-.037-10.843.665-10.854 1.507z" fill="#FAFAFA"/><path d="M35.698 138.672a.37.37 0 0 1 0-.103.569.569 0 0 1 .213-.234 4.241 4.241 0 0 1 1.202-.459 29.958 29.958 0 0 1 4.756-.627 70.047 70.047 0 0 1 7.129-.075c1.351.066 2.756.159 4.256.337a27.57 27.57 0 0 1 2.202.337c.36.068.716.156 1.064.262.187.054.368.12.543.197l.128.065.127.075c.041.03.077.065.107.103a.208.208 0 0 1 0 .159.27.27 0 0 1-.075.141l-.117.103a2.128 2.128 0 0 1-.244.15c-.17.082-.349.15-.532.205a9.59 9.59 0 0 1-1.064.291 32.22 32.22 0 0 1-2.203.374 48.31 48.31 0 0 1-4.192.337 43.444 43.444 0 0 1-3.82 0c-1.191 0-2.309-.112-3.32-.197a31.84 31.84 0 0 1-4.745-.645 3.88 3.88 0 0 1-1.202-.459.517.517 0 0 1-.213-.234.352.352 0 0 1 0-.094v.094a.492.492 0 0 0 .213.215c.37.202.777.347 1.202.431 1.56.322 3.147.528 4.745.618a80.17 80.17 0 0 0 3.31.168c1.268.056 2.54.056 3.809 0a48.422 48.422 0 0 0 4.192-.346 32.143 32.143 0 0 0 2.181-.365c.36-.079.716-.176 1.064-.29.178-.06.353-.128.521-.206.079-.042.154-.089.224-.141a.337.337 0 0 0 .149-.159.188.188 0 0 0-.03-.096.218.218 0 0 0-.077-.072l-.234-.131a4.907 4.907 0 0 0-.521-.188 10.905 10.905 0 0 0-1.064-.252 25.775 25.775 0 0 0-2.192-.337 51.501 51.501 0 0 0-4.181-.337 70.629 70.629 0 0 0-7.13.047 29.467 29.467 0 0 0-4.745.589 4.26 4.26 0 0 0-1.191.431.689.689 0 0 0-.224.215c-.01.103-.01.103-.021.103z" fill="#263238"/><path d="m52.711 137.165.256 1.002s-1.288 1.029-6.544.879c-5.256-.149-5.841-.823-5.841-.823l-.15-.159.107-1.067 12.172.168z" fill="#E0E0E0"/><path d="M52.711 137.165H49.18l-8.65-.103.074-.047c0 .337-.074.693-.106 1.058l.117.112c.024.04.06.073.106.094.3.145.622.25.958.309.33.075.67.131 1 .178.66.084 1.32.14 1.958.187 1.178.085 2.36.116 3.543.093.967-.009 1.932-.09 2.883-.243a7.98 7.98 0 0 0 1.064-.262c.29-.075.563-.192.809-.346l-.181-.749v-.187a.376.376 0 0 1 0-.075.244.244 0 0 1 0 .065l.053.187c.053.178.117.422.213.749a3.459 3.459 0 0 1-.82.375 9.57 9.57 0 0 1-1.063.271c-.955.163-1.923.254-2.894.272-1.064 0-2.288 0-3.565-.085a37.434 37.434 0 0 1-1.968-.187c-.33 0-.67-.103-1.011-.178a3.685 3.685 0 0 1-1-.327.502.502 0 0 1-.139-.113l-.106-.112.106-1.058v-.056h.064l8.683.141 2.564.056H52.797l-.086-.019z" fill="#263238"/><path d="M40.528 137.081c0 .486 2.724.936 6.086.936 3.363 0 6.097-.365 6.097-.852s-2.724-.936-6.086-.936-6.097.365-6.097.852z" fill="#FAFAFA"/><path d="M40.528 137.081s0-.094.128-.187a2.03 2.03 0 0 1 .67-.262 16.507 16.507 0 0 1 2.681-.366 39.673 39.673 0 0 1 4.022-.046c.756 0 1.543.075 2.362.168.405.056.82.112 1.245.197.21.043.416.099.617.168.105.034.205.078.298.131.06.024.11.061.15.107a.323.323 0 0 1 .074.155.34.34 0 0 1-.073.161.404.404 0 0 1-.15.111 1.288 1.288 0 0 1-.299.121 4.169 4.169 0 0 1-.627.16c-.415.084-.83.14-1.245.187-.82.084-1.617.121-2.373.14a35.789 35.789 0 0 1-4.011-.093 15.943 15.943 0 0 1-2.67-.384 2.44 2.44 0 0 1-.682-.272c-.138-.093-.128-.196-.117-.196a.226.226 0 0 0 .046.103.273.273 0 0 0 .093.075c.207.111.433.194.67.243.877.186 1.77.305 2.67.356 1.332.086 2.667.108 4.001.065.755 0 1.543-.065 2.362-.15.411-.044.82-.106 1.224-.187.206-.035.409-.085.606-.15l.287-.121c.086 0 .16-.103.16-.169 0-.065-.074-.121-.16-.168a2.413 2.413 0 0 0-.276-.122 7.516 7.516 0 0 0-.607-.159c-.415-.084-.819-.14-1.234-.197a35.754 35.754 0 0 0-2.351-.177 42.364 42.364 0 0 0-4 0c-.9.036-1.794.143-2.672.318-.24.05-.47.132-.68.243a.278.278 0 0 0-.097.084.231.231 0 0 0-.042.113z" fill="#263238"/><path d="m45.625 136.866-.287-11.569 1.66-.066.276 11.644c-.649-.019-1.053.178-1.649-.009z" fill="#FAFAFA"/><path d="M45.625 136.866c.135.036.274.058.415.065.173.013.348.013.521 0 .239-.037.481-.052.724-.047-.075-2.106-.202-6.552-.32-11.597l.064.056-1.66.057.064-.057c.075 3.248.139 6.141.181 8.218v3.389a.228.228 0 0 0 0-.056V136.07c0-.58 0-1.413-.074-2.443-.064-2.087-.15-4.98-.234-8.246v-.056h.064l1.649-.066h.074v.094c.128 5.092.213 9.5.245 11.606a5.653 5.653 0 0 0-.713 0 3.489 3.489 0 0 1-.521 0 1.395 1.395 0 0 1-.309-.056l-.17-.037z" fill="#263238"/><path d="m46.487 125.306.277 11.597-.617-.019-.373-11.569.713-.009z" fill="#455A64"/><path d="M45.008 136.744s.734.084 1.628.094c.893.009 1.638-.103 1.638-.066-.15.053-.307.088-.468.103a7.89 7.89 0 0 1-1.17.075c-.39 0-.777-.032-1.16-.094a1.333 1.333 0 0 1-.468-.112zM56.818 141.078a2.581 2.581 0 0 1-.319-.862 4.014 4.014 0 0 1-.191-.879c.158.27.266.56.319.861.097.287.161.581.191.88zM55.084 141.546a3.627 3.627 0 0 1-.33-.88 3.35 3.35 0 0 1-.202-.936c.149.281.26.576.33.88.119.301.187.617.202.936zM53.212 141.911a4.332 4.332 0 0 1-.288-.936 4.104 4.104 0 0 1-.16-.936c.144.299.24.614.288.936.102.304.156.619.16.936zM51.009 142.117a7.147 7.147 0 0 1-.32-1.872c.11.304.185.618.224.936.069.308.101.621.096.936zM48.69 142.21a3.918 3.918 0 0 1 0-.936c-.006-.314.03-.628.106-.936.037.311.037.625 0 .936.004.315-.032.629-.107.936zM46.796 142.163a2.77 2.77 0 0 1 0-.936c-.003-.315.04-.63.127-.936.054.31.054.626 0 .936.002.316-.041.63-.127.936zM44.795 142.098a2.48 2.48 0 0 1 .064-.936c.03-.306.113-.605.244-.889a3.64 3.64 0 0 1-.117.936 4.18 4.18 0 0 1-.191.889zM42.422 141.957c.032-.318.107-.633.223-.936.074-.323.192-.637.351-.936-.025.32-.1.635-.223.936a3.748 3.748 0 0 1-.351.936zM40.263 141.817c.032-.318.104-.632.212-.936.064-.324.178-.64.341-.936a3.885 3.885 0 0 1-.213.936 3.238 3.238 0 0 1-.34.936zM37.72 141.386c.048-.301.137-.597.266-.879.096-.294.232-.577.404-.843a6.979 6.979 0 0 1-.67 1.722zM35.815 140.759c.04-.27.123-.535.244-.786.074-.265.196-.518.362-.749a2.67 2.67 0 0 1-.245.786 2.362 2.362 0 0 1-.361.749z" fill="#263238"/><path d="M64.596 201.44a1.734 1.734 0 0 0-.078-1.024 1.97 1.97 0 0 0-.656-.848 3.538 3.538 0 0 0-2.128-.664 3.93 3.93 0 0 0-1.969.458c-.336.175-.62.418-.828.709-.208.29-.335.62-.369.962-.034.342.025.687.172 1.005.147.318.378.601.674.825.653.508 1.501.779 2.373.758a3.094 3.094 0 0 0 1.99-.636c.257-.195.467-.434.615-.703.148-.269.232-.562.246-.861" fill="#8BAA36"/><path d="M77.95 178.115H18.312v51.396H77.95v-51.396z" fill="#EBEBEB"/><path d="M18.313 178.115h13.034l36.282-.065 124.701-.113h.266V229.801h-.277l-174.017-.084h-.18v-.253c0-16.127.073-29.016.105-37.833V178.078 191.771c0 8.817.064 21.641.107 37.731l-.192-.16 174.018-.084-.277.244v-51.387l.277.234-124.489-.112-36.356-.066H19.036l-.723-.056z" fill="#263238"/><path d="M124.042 187.335H89.516v4.137h34.526v-4.137z" fill="#8BAA36"/><path d="M180.583 197.537H89.516v2.649h91.067v-2.649zM180.583 202.835H89.516v2.649h91.067v-2.649z" fill="#E0E0E0"/><path d="M156.377 218.485h-1.723v1.479h-1.277v-1.479h-1.724v-1.058h1.724v-1.488h1.277v1.488h1.723v1.058zM165.644 214.9v6.14h-1.607v-4.97h-1.383v-1.133l2.99-.037zM172.582 218.007h2.809v1.086h-2.809v-1.086z" fill="#8BAA36"/><path d="M180.584 224.999v-1.029c0-.693 0-1.657-.054-2.874 0-2.499-.063-6.056-.106-10.417l.202.177-34.399.066.277-.243v14.302l-.266-.225 24.631.103 7.161.065h2.607a4.537 4.537 0 0 1-.617 0h-1.873l-7.097.066-24.812.112h-.266v-14.358c-.064 0 .521-.468.276-.253l34.399.066h.203v.187c0 4.409-.075 8.003-.107 10.53 0 1.198 0 2.143-.053 2.808v.721c-.085.121-.096.206-.106.196z" fill="#263238"/><path d="M96.463 220.432a3.993 3.993 0 0 1-2.181.805v1.244h-1.266v-1.216a7.325 7.325 0 0 1-1.777-.29 4.42 4.42 0 0 1-1.362-.6l.692-1.347c.343.215.72.389 1.117.514.426.146.874.237 1.33.272v-1.872a11.732 11.732 0 0 1-1.511-.421 2.722 2.722 0 0 1-1.064-.684 1.717 1.717 0 0 1-.415-1.198 1.92 1.92 0 0 1 .195-.861 2.17 2.17 0 0 1 .571-.721 3.958 3.958 0 0 1 2.203-.804v-1.227h1.266v1.208c.9.039 1.777.27 2.553.674l-.627 1.366a5.474 5.474 0 0 0-1.926-.571v1.872c.508.099 1.006.234 1.49.403.411.149.777.383 1.063.683.29.339.438.756.415 1.179.007.298-.058.594-.19.868a2.142 2.142 0 0 1-.576.724zm-4.139-4.409c.204.144.44.249.692.309v-1.582a1.547 1.547 0 0 0-.713.318.668.668 0 0 0-.224.506.497.497 0 0 0 .062.25.575.575 0 0 0 .183.199zm2.628 3.454a.634.634 0 0 0 .176-.216.565.565 0 0 0 .058-.261.496.496 0 0 0-.056-.249.574.574 0 0 0-.178-.201 2.08 2.08 0 0 0-.67-.309v1.526c.252-.034.486-.135.67-.29zM105.135 220.432a3.957 3.957 0 0 1-2.181.805v1.244h-1.266v-1.216a7.427 7.427 0 0 1-1.777-.29 4.42 4.42 0 0 1-1.362-.6l.691-1.347c.347.217.727.391 1.128.514.423.146.867.237 1.32.272v-1.872a12.23 12.23 0 0 1-1.511-.421 2.7 2.7 0 0 1-1.064-.684 1.721 1.721 0 0 1-.426-1.198 1.918 1.918 0 0 1 .195-.861 2.17 2.17 0 0 1 .571-.721 3.958 3.958 0 0 1 2.203-.804v-1.227h1.266v1.208a6.23 6.23 0 0 1 2.564.674l-.638 1.366a5.476 5.476 0 0 0-1.926-.571v1.872c.508.099 1.006.234 1.489.403.414.146.78.381 1.064.683.291.339.438.756.415 1.179.009.297-.054.593-.185.867-.13.274-.324.521-.57.725zm-4.139-4.409c.205.142.44.247.692.309v-1.582a1.448 1.448 0 0 0-.703.318.682.682 0 0 0-.234.506.493.493 0 0 0 .062.25.57.57 0 0 0 .183.199zm2.639 3.454a.652.652 0 0 0 .168-.218.586.586 0 0 0 .055-.259.485.485 0 0 0-.057-.249.566.566 0 0 0-.177-.201 1.974 1.974 0 0 0-.67-.309v1.526c.255-.034.492-.135.681-.29z" fill="#E0E0E0"/><path d="M77.993 229.988c-.16 0-.277-11.55-.277-25.787 0-14.236.117-25.777.277-25.777.16 0 .276 11.541.276 25.777 0 14.237-.106 25.787-.276 25.787z" fill="#263238"/><path d="M51.03 201.085c1.026-1.211 1.66-2.644 1.83-4.147a6.056 6.056 0 0 0-.723-3.931c-.053-.084-.106-.178-.213-.206a.485.485 0 0 0-.319 0 5.257 5.257 0 0 0-2.107 1.631 4.384 4.384 0 0 0-.894 2.341c-.058.836.135 1.67.561 2.419a5.019 5.019 0 0 0 1.866 1.846M54.34 197.64c1.214-.406 2.281-1.095 3.085-1.994.77-.79 1.241-1.771 1.351-2.808a.242.242 0 0 0 0-.206.353.353 0 0 0-.223-.084 4.589 4.589 0 0 0-2.097.286 4.04 4.04 0 0 0-1.651 1.173 3.351 3.351 0 0 0-.76 1.743 3.21 3.21 0 0 0 .337 1.843" fill="#455A64"/><path d="M53.776 200.982c.079-.342.052-.695-.077-1.025a1.954 1.954 0 0 0-.657-.847 3.593 3.593 0 0 0-2.129-.665 3.88 3.88 0 0 0-1.957.459c-.294.16-.549.37-.75.617-.2.248-.344.528-.42.824-.072.376-.035.762.109 1.122.143.36.387.682.71.937.654.507 1.5.781 2.372.768a3.123 3.123 0 0 0 1.99-.646 2.25 2.25 0 0 0 .606-.7c.146-.267.23-.558.245-.854" fill="#8BAA36"/><path d="M61.277 202.863c2.948.459 5.874-2.415 6.576-4.278a.582.582 0 0 0 0-.599.785.785 0 0 0-.702-.14c-1.457.173-2.81.754-3.863 1.657-1.047.908-1.743 2.084-1.99 3.36" fill="#455A64"/><path d="M43.05 197.397c.08-.342.053-.695-.076-1.025a1.954 1.954 0 0 0-.657-.847 3.671 3.671 0 0 0-2.129-.665 4.006 4.006 0 0 0-1.957.468 2.333 2.333 0 0 0-.836.702c-.211.289-.34.619-.375.961a1.91 1.91 0 0 0 .17 1.005c.149.319.381.601.679.823.656.511 1.507.785 2.383.768a3.123 3.123 0 0 0 1.99-.646 2.25 2.25 0 0 0 .606-.7c.146-.267.23-.558.245-.854" fill="#8BAA36"/><path d="M49.392 202.002c-.23-1.497-.918-2.91-1.99-4.09-.911-1.097-2.18-1.923-3.639-2.369a.508.508 0 0 0-.308 0 .378.378 0 0 0-.126.099.311.311 0 0 0-.066.135 4.215 4.215 0 0 0-.21 2.461 4.545 4.545 0 0 0 1.22 2.222 5.485 5.485 0 0 0 2.32 1.386 6.127 6.127 0 0 0 2.799.175M38.625 199.69c-.581-.582-1.101-1.208-1.554-1.872a3.953 3.953 0 0 1-.66-2.247.395.395 0 0 1 .033-.171.432.432 0 0 1 .106-.147.54.54 0 0 1 .383 0c1.663.33 3.166 1.109 4.3 2.229 1.133 1.12 1.84 2.523 2.02 4.014l.085.393c-1.405.726-3.076.944-4.66.609a10.77 10.77 0 0 1-3.596-1.245c-1.097-.634-1.877-1.611-2.182-2.733a7.892 7.892 0 0 1 3.01.028 7.411 7.411 0 0 1 2.715 1.142zM57 197.406c1.453-1.194 3.26-2.002 5.213-2.331.117.858.04 1.728-.226 2.559a6.302 6.302 0 0 1-1.326 2.287 7.299 7.299 0 0 1-2.223 1.662 8.191 8.191 0 0 1-2.779.784l-.117-.187a4.223 4.223 0 0 1-.028-2.566A4.693 4.693 0 0 1 57 197.406z" fill="#455A64"/><path d="M67.182 201.01c-1.119 3.823-3.13 7.399-5.905 10.502-6.522 7.066-21.28 5.101-25.249-.431-1.543-2.115-5.607-9.996-5.607-9.996l36.761-.075z" fill="#FAFAFA"/><path d="M67.182 201.01H56.574l-26.196.103.096-.141a224.218 224.218 0 0 0 3.809 7.067c.351.618.713 1.226 1.064 1.872.34.602.755 1.17 1.234 1.694a10.751 10.751 0 0 0 3.49 2.443 20.974 20.974 0 0 0 8.172 1.872 20.634 20.634 0 0 0 7.554-1.095c2.086-.734 3.934-1.907 5.384-3.416a27.431 27.431 0 0 0 4.809-7.432c.415-.936.692-1.704.873-2.209l.255-.787a18.502 18.502 0 0 1-1.064 3.024c-1.144 2.696-2.751 5.221-4.767 7.488-1.462 1.537-3.333 2.734-5.447 3.482a20.61 20.61 0 0 1-7.63 1.123 21.001 21.001 0 0 1-8.267-1.872 10.985 10.985 0 0 1-3.553-2.49 10.385 10.385 0 0 1-1.267-1.722 42 42 0 0 1-1.064-1.872c-1.361-2.396-2.617-4.774-3.82-7.067l-.063-.14h36.931l.075.075z" fill="#263238"/><path d="M64.767 206.289c0 .056-7.055.094-15.758.094-8.704 0-15.769 0-15.769-.094s7.055-.094 15.769-.094 15.758.038 15.758.094zM65.405 205.493c0 .057-7.31.094-16.322.094s-16.321 0-16.321-.094c0-.093 7.299-.103 16.322-.103 9.022 0 16.321.047 16.321.103z" fill="#8BAA36"/><path d="M78.829 235.178H19.19v51.395H78.83v-51.395z" fill="#EBEBEB"/><path d="M19.192 235.178h13.033l36.283-.066L193.209 235h.266V286.864h-.277l-174.017-.084H19v-.253c0-16.127.075-29.016.106-37.833V235.14v13.694c0 8.817.064 21.64.107 37.73l-.192-.159 174.017-.084-.276.243v-51.386l.276.234L68.55 235.3l-36.356-.066H19.915l-.723-.056z" fill="#263238"/><path d="M124.921 244.397H90.394v4.137h34.527v-4.137z" fill="#8BAA36"/><path d="M181.462 254.6H90.395v2.649h91.067V254.6zM181.462 259.898H90.395v2.648h91.067v-2.648z" fill="#E0E0E0"/><path d="M157.256 275.548h-1.723v1.478h-1.277v-1.478h-1.724v-1.058h1.724v-1.488h1.277v1.488h1.723v1.058zM166.523 271.963v6.14h-1.607v-4.97h-1.383V272l2.99-.037zM173.461 275.07h2.809v1.086h-2.809v-1.086z" fill="#8BAA36"/><path d="M181.463 282.062v-1.03c0-.692 0-1.656-.054-2.873 0-2.499-.064-6.056-.106-10.418l.202.178-34.399.066.277-.244v14.302l-.266-.224 24.631.103 7.161.065h2.607a4.885 4.885 0 0 1-.617 0h-1.873l-7.097.066-24.812.112h-.266v-14.358c-.064 0 .521-.468.276-.253l34.399.066h.203v.187c0 4.408-.075 8.003-.107 10.53 0 1.198 0 2.143-.053 2.808v.72c-.085.122-.096.206-.106.197z" fill="#263238"/><path d="M97.342 277.494a3.985 3.985 0 0 1-2.181.805v1.245h-1.266v-1.217a7.277 7.277 0 0 1-1.777-.29 4.394 4.394 0 0 1-1.362-.599l.692-1.348c.343.216.72.389 1.117.515.426.146.874.237 1.33.272v-1.872a11.735 11.735 0 0 1-1.511-.422 2.72 2.72 0 0 1-1.064-.683 1.718 1.718 0 0 1-.415-1.198 1.92 1.92 0 0 1 .195-.861 2.16 2.16 0 0 1 .57-.721 3.959 3.959 0 0 1 2.203-.805v-1.226h1.266v1.208c.901.039 1.778.27 2.554.673l-.628 1.367a5.453 5.453 0 0 0-1.925-.571v1.872c.508.099 1.006.233 1.49.403.411.148.776.383 1.063.683.29.338.438.755.415 1.179.007.298-.058.594-.19.868a2.129 2.129 0 0 1-.576.723zm-4.139-4.408c.204.143.44.249.692.309v-1.582a1.536 1.536 0 0 0-.713.318.668.668 0 0 0-.224.506.497.497 0 0 0 .062.25.575.575 0 0 0 .183.199zm2.628 3.454a.64.64 0 0 0 .176-.217.56.56 0 0 0 .058-.261.498.498 0 0 0-.056-.249.57.57 0 0 0-.178-.2 2.08 2.08 0 0 0-.67-.309v1.526c.252-.034.486-.136.67-.29zM106.014 277.494a3.957 3.957 0 0 1-2.181.805v1.245h-1.266v-1.217a7.324 7.324 0 0 1-1.777-.29 4.396 4.396 0 0 1-1.362-.599l.691-1.348a4.75 4.75 0 0 0 1.128.515c.423.145.867.237 1.32.272v-1.872c-.515-.109-1.02-.25-1.511-.422a2.685 2.685 0 0 1-1.064-.683 1.72 1.72 0 0 1-.426-1.198 1.918 1.918 0 0 1 .195-.861c.132-.273.326-.518.571-.721a3.958 3.958 0 0 1 2.203-.805v-1.226h1.266v1.208c.904.04 1.783.271 2.564.673l-.638 1.367a5.462 5.462 0 0 0-1.926-.571v1.872a10.58 10.58 0 0 1 1.489.403c.414.146.78.381 1.064.683.291.338.438.755.415 1.179.008.297-.055.592-.185.867a2.12 2.12 0 0 1-.57.724zm-4.139-4.408c.205.142.44.247.692.309v-1.582a1.448 1.448 0 0 0-.703.318.682.682 0 0 0-.234.506.493.493 0 0 0 .062.25.57.57 0 0 0 .183.199zm2.639 3.454a.646.646 0 0 0 .168-.219.583.583 0 0 0 .055-.259.498.498 0 0 0-.057-.249.563.563 0 0 0-.177-.2 1.974 1.974 0 0 0-.67-.309v1.526c.255-.034.492-.135.681-.29z" fill="#E0E0E0"/><path d="M78.871 287.051c-.16 0-.276-11.55-.276-25.787 0-14.236.117-25.777.276-25.777.16 0 .277 11.541.277 25.777 0 14.237-.106 25.787-.277 25.787z" fill="#263238"/><path d="M51.91 258.147c1.025-1.21 1.658-2.644 1.83-4.146a6.055 6.055 0 0 0-.724-3.931c-.053-.085-.106-.178-.213-.206a.473.473 0 0 0-.319 0 5.248 5.248 0 0 0-2.108 1.631 4.384 4.384 0 0 0-.893 2.341c-.058.836.135 1.67.561 2.419a5.019 5.019 0 0 0 1.865 1.846M55.218 254.703c1.215-.406 2.282-1.095 3.086-1.994.77-.791 1.241-1.772 1.351-2.808a.242.242 0 0 0 0-.206.353.353 0 0 0-.223-.084 4.589 4.589 0 0 0-2.097.286 4.03 4.03 0 0 0-1.651 1.173 3.351 3.351 0 0 0-.76 1.743c-.074.63.042 1.265.337 1.843" fill="#455A64"/><path d="M54.654 258.044c.08-.341.053-.695-.076-1.024a1.963 1.963 0 0 0-.658-.848 3.599 3.599 0 0 0-2.128-.664 3.89 3.89 0 0 0-1.957.458 2.531 2.531 0 0 0-.75.618c-.2.248-.343.527-.42.824-.072.376-.035.762.108 1.122.144.36.388.682.71.937.655.507 1.501.781 2.373.768a3.13 3.13 0 0 0 1.99-.646c.254-.195.46-.434.606-.701.146-.267.23-.557.245-.853" fill="#8BAA36"/><path d="M62.156 259.926c2.947.458 5.873-2.415 6.576-4.278a.582.582 0 0 0 0-.599.785.785 0 0 0-.702-.14c-1.457.173-2.811.754-3.863 1.656-1.047.909-1.743 2.085-1.99 3.361" fill="#455A64"/><path d="M43.93 254.459c.079-.341.052-.695-.077-1.024a1.963 1.963 0 0 0-.658-.848 3.67 3.67 0 0 0-2.128-.664 3.995 3.995 0 0 0-1.957.468 2.331 2.331 0 0 0-.837.701c-.21.29-.339.62-.374.962a1.91 1.91 0 0 0 .17 1.005c.148.318.381.601.679.823.656.511 1.507.785 2.383.768a3.123 3.123 0 0 0 1.99-.646c.253-.195.46-.434.606-.701.146-.267.23-.557.245-.853" fill="#8BAA36"/><path d="M50.27 259.065c-.23-1.497-.917-2.911-1.989-4.091-.911-1.096-2.18-1.922-3.639-2.368a.508.508 0 0 0-.308 0 .376.376 0 0 0-.126.098.32.32 0 0 0-.066.136 4.215 4.215 0 0 0-.21 2.461 4.545 4.545 0 0 0 1.22 2.222 5.483 5.483 0 0 0 2.32 1.385 6.1 6.1 0 0 0 2.799.175M39.504 256.753c-.581-.582-1.101-1.209-1.554-1.872a3.953 3.953 0 0 1-.66-2.247.392.392 0 0 1 .033-.171.432.432 0 0 1 .106-.147.54.54 0 0 1 .383 0c1.663.33 3.166 1.109 4.3 2.229 1.133 1.119 1.84 2.523 2.02 4.014l.085.393c-1.405.726-3.076.944-4.66.609a10.77 10.77 0 0 1-3.596-1.245c-1.097-.634-1.877-1.611-2.182-2.733a7.892 7.892 0 0 1 3.01.028 7.411 7.411 0 0 1 2.715 1.142zM57.879 254.469c1.453-1.194 3.26-2.003 5.213-2.331.117.858.04 1.728-.226 2.559a6.29 6.29 0 0 1-1.326 2.286 7.285 7.285 0 0 1-2.224 1.663 8.191 8.191 0 0 1-2.778.784l-.117-.188a4.22 4.22 0 0 1-.028-2.565 4.693 4.693 0 0 1 1.486-2.208z" fill="#455A64"/><path d="M68.061 258.072c-1.119 3.823-3.13 7.4-5.905 10.502-6.523 7.067-21.28 5.102-25.249-.43-1.543-2.116-5.607-9.997-5.607-9.997l36.761-.075z" fill="#FAFAFA"/><path d="M68.06 258.072H57.454l-26.196.103.096-.14a224.218 224.218 0 0 0 3.809 7.067c.35.617.713 1.226 1.064 1.872a9.31 9.31 0 0 0 1.234 1.694 10.765 10.765 0 0 0 3.49 2.443 20.974 20.974 0 0 0 8.171 1.872 20.634 20.634 0 0 0 7.555-1.095c2.085-.734 3.934-1.907 5.384-3.417a27.4 27.4 0 0 0 4.809-7.432c.415-.936.692-1.703.872-2.209l.256-.786a18.502 18.502 0 0 1-1.064 3.024c-1.144 2.696-2.751 5.221-4.767 7.488-1.462 1.537-3.333 2.733-5.448 3.481a20.59 20.59 0 0 1-7.629 1.124 21.001 21.001 0 0 1-8.267-1.872 11 11 0 0 1-3.554-2.49 10.385 10.385 0 0 1-1.266-1.722 42.572 42.572 0 0 1-1.064-1.872c-1.362-2.397-2.617-4.774-3.82-7.067l-.063-.141h36.931l.075.075z" fill="#263238"/><path d="M65.645 263.352c0 .056-7.054.093-15.757.093-8.704 0-15.769 0-15.769-.093 0-.094 7.054-.094 15.769-.094 8.714 0 15.758.037 15.758.094zM66.284 262.556c0 .056-7.31.094-16.322.094s-16.321 0-16.321-.094 7.299-.103 16.321-.103c9.023 0 16.322.047 16.322.103z" fill="#8BAA36"/><path d="M79.829 291.178H20.19v51.395H79.83v-51.395z" fill="#EBEBEB"/><path d="M20.192 291.178h13.033l36.283-.066L194.209 291h.266V342.864h-.277l-174.017-.084H20v-.253c0-16.127.075-29.016.106-37.833V291.14v13.694c0 8.817.064 21.64.107 37.73l-.192-.159 174.017-.084-.276.243v-51.386l.276.234L69.55 291.3l-36.356-.066H20.915l-.723-.056z" fill="#263238"/><path d="M125.921 300.397H91.394v4.137h34.527v-4.137z" fill="#8BAA36"/><path d="M182.462 310.6H91.395v2.649h91.067V310.6zM182.462 315.898H91.395v2.648h91.067v-2.648z" fill="#E0E0E0"/><path d="M158.256 331.548h-1.723v1.478h-1.277v-1.478h-1.724v-1.058h1.724v-1.488h1.277v1.488h1.723v1.058zM167.523 327.963v6.14h-1.607v-4.97h-1.383V328l2.99-.037zM174.461 331.07h2.809v1.086h-2.809v-1.086z" fill="#8BAA36"/><path d="M182.463 338.062v-1.03c0-.692 0-1.656-.054-2.873 0-2.499-.064-6.056-.106-10.418l.202.178-34.399.066.277-.244v14.302l-.266-.224 24.631.103 7.161.065h2.607a4.885 4.885 0 0 1-.617 0h-1.873l-7.097.066-24.812.112h-.266v-14.358c-.064 0 .521-.468.276-.253l34.399.066h.203v.187c0 4.408-.075 8.003-.107 10.53 0 1.198 0 2.143-.053 2.808v.72c-.085.122-.096.206-.106.197z" fill="#263238"/><path d="M98.342 333.494a3.985 3.985 0 0 1-2.181.805v1.245h-1.266v-1.217a7.277 7.277 0 0 1-1.777-.29 4.394 4.394 0 0 1-1.362-.599l.692-1.348c.343.216.72.389 1.117.515.426.146.874.237 1.33.272v-1.872a11.735 11.735 0 0 1-1.511-.422 2.72 2.72 0 0 1-1.064-.683 1.718 1.718 0 0 1-.415-1.198 1.92 1.92 0 0 1 .195-.861 2.16 2.16 0 0 1 .57-.721 3.959 3.959 0 0 1 2.203-.805v-1.226h1.266v1.208c.901.039 1.778.27 2.554.673l-.628 1.367a5.453 5.453 0 0 0-1.925-.571v1.872c.508.099 1.006.233 1.49.403.411.148.776.383 1.063.683.29.338.438.755.415 1.179.007.298-.058.594-.19.868a2.129 2.129 0 0 1-.576.723zm-4.139-4.408c.204.143.44.249.692.309v-1.582a1.536 1.536 0 0 0-.713.318.668.668 0 0 0-.224.506.497.497 0 0 0 .062.25.575.575 0 0 0 .183.199zm2.628 3.454a.64.64 0 0 0 .176-.217.56.56 0 0 0 .058-.261.498.498 0 0 0-.056-.249.57.57 0 0 0-.178-.2 2.08 2.08 0 0 0-.67-.309v1.526c.252-.034.486-.136.67-.29zM107.014 333.494a3.957 3.957 0 0 1-2.181.805v1.245h-1.266v-1.217a7.324 7.324 0 0 1-1.777-.29 4.39 4.39 0 0 1-1.362-.599l.691-1.348a4.75 4.75 0 0 0 1.128.515c.423.145.867.237 1.32.272v-1.872c-.515-.109-1.02-.25-1.511-.422a2.682 2.682 0 0 1-1.064-.683 1.719 1.719 0 0 1-.426-1.198 1.922 1.922 0 0 1 .195-.861 2.16 2.16 0 0 1 .571-.721 3.958 3.958 0 0 1 2.203-.805v-1.226h1.266v1.208c.904.04 1.783.271 2.564.673l-.638 1.367a5.462 5.462 0 0 0-1.926-.571v1.872a10.58 10.58 0 0 1 1.489.403c.414.146.78.381 1.064.683.291.338.438.755.415 1.179.008.297-.055.592-.185.867a2.12 2.12 0 0 1-.57.724zm-4.139-4.408c.205.142.44.247.692.309v-1.582a1.448 1.448 0 0 0-.703.318.682.682 0 0 0-.234.506.493.493 0 0 0 .062.25.57.57 0 0 0 .183.199zm2.639 3.454a.646.646 0 0 0 .168-.219.583.583 0 0 0 .055-.259.498.498 0 0 0-.057-.249.563.563 0 0 0-.177-.2 1.974 1.974 0 0 0-.67-.309v1.526c.255-.034.492-.135.681-.29z" fill="#E0E0E0"/><path d="M79.871 343.051c-.16 0-.276-11.55-.276-25.787 0-14.236.117-25.777.276-25.777.16 0 .277 11.541.277 25.777 0 14.237-.106 25.787-.277 25.787z" fill="#263238"/><path d="M52.91 314.147c1.025-1.21 1.658-2.644 1.83-4.146a6.055 6.055 0 0 0-.724-3.931c-.053-.085-.106-.178-.213-.206a.473.473 0 0 0-.319 0 5.248 5.248 0 0 0-2.108 1.631 4.384 4.384 0 0 0-.893 2.341c-.058.836.135 1.67.561 2.419a5.019 5.019 0 0 0 1.865 1.846M56.218 310.703c1.215-.406 2.282-1.095 3.086-1.994.77-.791 1.241-1.772 1.351-2.808a.242.242 0 0 0 0-.206.353.353 0 0 0-.223-.084 4.589 4.589 0 0 0-2.097.286 4.03 4.03 0 0 0-1.651 1.173 3.351 3.351 0 0 0-.76 1.743c-.074.63.042 1.265.337 1.843" fill="#455A64"/><path d="M55.654 314.044c.08-.341.053-.695-.076-1.024a1.963 1.963 0 0 0-.658-.848 3.599 3.599 0 0 0-2.128-.664 3.89 3.89 0 0 0-1.957.458 2.531 2.531 0 0 0-.75.618c-.2.248-.343.527-.42.824-.072.376-.035.762.108 1.122.144.36.388.682.71.937.655.507 1.501.781 2.373.768a3.13 3.13 0 0 0 1.99-.646c.254-.195.46-.434.606-.701.146-.267.23-.557.245-.853" fill="#8BAA36"/><path d="M63.156 315.926c2.947.458 5.873-2.415 6.576-4.278a.582.582 0 0 0 0-.599.785.785 0 0 0-.702-.14c-1.457.173-2.811.754-3.863 1.656-1.047.909-1.743 2.085-1.99 3.361" fill="#455A64"/><path d="M44.93 310.459c.079-.341.052-.695-.077-1.024a1.963 1.963 0 0 0-.658-.848 3.67 3.67 0 0 0-2.128-.664 3.995 3.995 0 0 0-1.957.468 2.331 2.331 0 0 0-.837.701c-.21.29-.339.62-.374.962a1.91 1.91 0 0 0 .17 1.005c.148.318.381.601.679.823.656.511 1.507.785 2.383.768a3.123 3.123 0 0 0 1.99-.646c.253-.195.46-.434.606-.701.146-.267.23-.557.245-.853" fill="#8BAA36"/><path d="M51.27 315.065c-.23-1.497-.917-2.911-1.989-4.091-.911-1.096-2.18-1.922-3.639-2.368a.508.508 0 0 0-.308 0 .376.376 0 0 0-.126.098.32.32 0 0 0-.066.136 4.215 4.215 0 0 0-.21 2.461 4.545 4.545 0 0 0 1.22 2.222 5.483 5.483 0 0 0 2.32 1.385 6.1 6.1 0 0 0 2.799.175M40.504 312.753c-.581-.582-1.101-1.209-1.554-1.872a3.953 3.953 0 0 1-.66-2.247.392.392 0 0 1 .033-.171.432.432 0 0 1 .106-.147.54.54 0 0 1 .383 0c1.663.33 3.166 1.109 4.3 2.229 1.133 1.119 1.84 2.523 2.02 4.014l.085.393c-1.405.726-3.076.944-4.66.609a10.77 10.77 0 0 1-3.596-1.245c-1.097-.634-1.877-1.611-2.182-2.733a7.892 7.892 0 0 1 3.01.028 7.411 7.411 0 0 1 2.715 1.142zM58.879 310.469c1.453-1.194 3.26-2.003 5.213-2.331.117.858.04 1.728-.226 2.559a6.29 6.29 0 0 1-1.326 2.286 7.285 7.285 0 0 1-2.224 1.663 8.191 8.191 0 0 1-2.778.784l-.117-.188a4.22 4.22 0 0 1-.028-2.565 4.693 4.693 0 0 1 1.486-2.208z" fill="#455A64"/><path d="M69.061 314.072c-1.119 3.823-3.13 7.4-5.905 10.502-6.523 7.067-21.28 5.102-25.249-.43-1.543-2.116-5.607-9.997-5.607-9.997l36.761-.075z" fill="#FAFAFA"/><path d="M69.06 314.072H58.454l-26.196.103.096-.14a224.218 224.218 0 0 0 3.809 7.067c.35.617.713 1.226 1.064 1.872a9.31 9.31 0 0 0 1.234 1.694 10.765 10.765 0 0 0 3.49 2.443 20.974 20.974 0 0 0 8.171 1.872 20.634 20.634 0 0 0 7.555-1.095c2.085-.734 3.934-1.907 5.384-3.417a27.4 27.4 0 0 0 4.809-7.432c.415-.936.692-1.703.872-2.209l.256-.786a18.502 18.502 0 0 1-1.064 3.024c-1.144 2.696-2.751 5.221-4.767 7.488-1.462 1.537-3.333 2.733-5.448 3.481a20.59 20.59 0 0 1-7.629 1.124 21.001 21.001 0 0 1-8.267-1.872 11 11 0 0 1-3.554-2.49 10.385 10.385 0 0 1-1.266-1.722 42.572 42.572 0 0 1-1.064-1.872c-1.362-2.397-2.617-4.774-3.82-7.067l-.063-.141h36.931l.075.075z" fill="#263238"/><path d="M66.645 319.352c0 .056-7.054.093-15.757.093-8.704 0-15.769 0-15.769-.093 0-.094 7.054-.094 15.769-.094 8.714 0 15.758.037 15.758.094zM67.284 318.556c0 .056-7.31.094-16.322.094s-16.321 0-16.321-.094 7.299-.103 16.321-.103c9.023 0 16.322.047 16.322.103z" fill="#8BAA36"/></svg>