<svg width="212" height="364" viewBox="0 0 212 364" fill="none" xmlns="http://www.w3.org/2000/svg">
<path d="M183.126 0.546509H28.9735C14.0829 0.546509 2.01172 11.1655 2.01172 24.2647V339.304C2.01172 352.403 14.0829 363.022 28.9735 363.022H183.126C198.016 363.022 210.088 352.403 210.088 339.304V24.2647C210.088 11.1655 198.016 0.546509 183.126 0.546509Z" fill="#455A64"/>
<path d="M206.811 339.341L206.811 24.246C206.811 12.7545 196.221 3.43872 183.158 3.43872L28.9417 3.43872C15.8786 3.43872 5.28891 12.7545 5.28891 24.246L5.28891 339.341C5.28891 350.833 15.8786 360.148 28.9417 360.148H183.158C196.221 360.148 206.811 350.833 206.811 339.341Z" fill="#263238"/>
<path d="M91.1113 14.8579C90.7942 14.8768 90.476 14.8382 90.1766 14.7445C89.8772 14.6507 89.6028 14.5039 89.3706 14.313C89.1384 14.1221 88.9533 13.8912 88.8267 13.6348C88.7001 13.3783 88.6348 13.1017 88.6348 12.8221C88.6348 12.5425 88.7001 12.2659 88.8267 12.0094C88.9533 11.753 89.1384 11.5221 89.3706 11.3312C89.6028 11.1403 89.8772 10.9935 90.1766 10.8997C90.476 10.806 90.7942 10.7674 91.1113 10.7863H120.903C121.49 10.8213 122.04 11.051 122.441 11.4289C122.842 11.8069 123.066 12.3048 123.066 12.8221C123.066 13.3394 122.842 13.8373 122.441 14.2152C122.04 14.5932 121.49 14.8229 120.903 14.8579H91.1113Z" fill="#455A64"/>
<path d="M75.1506 14.8579C74.6918 14.8579 74.2434 14.7383 73.8619 14.5141C73.4805 14.2898 73.1832 13.9712 73.0076 13.5983C72.8321 13.2255 72.7861 12.8152 72.8756 12.4194C72.9651 12.0236 73.186 11.66 73.5104 11.3746C73.8348 11.0893 74.2481 10.8949 74.698 10.8162C75.148 10.7375 75.6144 10.7779 76.0382 10.9323C76.462 11.0867 76.8243 11.3483 77.0792 11.6838C77.3341 12.0194 77.4701 12.4139 77.4701 12.8175C77.4701 13.3586 77.2257 13.8776 76.7907 14.2603C76.3557 14.643 75.7657 14.8579 75.1506 14.8579Z" fill="#455A64"/>
<path d="M83.6739 14.8579C83.2147 14.8598 82.7652 14.7417 82.3824 14.5186C81.9995 14.2955 81.7006 13.9775 81.5234 13.6048C81.3462 13.2321 81.2987 12.8216 81.387 12.4251C81.4753 12.0287 81.6954 11.6642 82.0194 11.3779C82.3433 11.0916 82.7566 10.8964 83.2068 10.8169C83.6571 10.7374 84.124 10.7772 84.5484 10.9314C84.9729 11.0856 85.3358 11.3471 85.5911 11.6828C85.8465 12.0186 85.9828 12.4135 85.9828 12.8174C85.98 13.3562 85.7362 13.8724 85.3041 14.2543C84.872 14.6362 84.2864 14.853 83.6739 14.8579Z" fill="#455A64"/>
<path d="M136.959 14.8579C136.5 14.8598 136.05 14.7417 135.668 14.5186C135.285 14.2955 134.986 13.9775 134.809 13.6048C134.631 13.2321 134.584 12.8216 134.672 12.4251C134.76 12.0287 134.981 11.6642 135.304 11.3779C135.628 11.0916 136.042 10.8964 136.492 10.8169C136.942 10.7374 137.409 10.7772 137.834 10.9314C138.258 11.0856 138.621 11.3471 138.876 11.6828C139.132 12.0186 139.268 12.4135 139.268 12.8174C139.265 13.3562 139.021 13.8724 138.589 14.2543C138.157 14.6362 137.572 14.853 136.959 14.8579Z" fill="#455A64"/>
<path d="M128.436 14.8579C127.977 14.8579 127.529 14.7383 127.147 14.5141C126.766 14.2898 126.468 13.9712 126.293 13.5983C126.117 13.2255 126.071 12.8152 126.161 12.4194C126.25 12.0236 126.471 11.66 126.796 11.3746C127.12 11.0893 127.533 10.8949 127.983 10.8162C128.433 10.7375 128.9 10.7779 129.323 10.9323C129.747 11.0867 130.109 11.3483 130.364 11.6838C130.619 12.0194 130.755 12.4139 130.755 12.8175C130.755 13.3586 130.511 13.8776 130.076 14.2603C129.641 14.643 129.051 14.8579 128.436 14.8579Z" fill="#455A64"/>
<path d="M184.242 5.48853H155.025C152.781 5.48784 150.596 6.12545 148.798 7.30623C146.999 8.48702 145.683 10.1477 145.045 12.0405L144.545 13.5381C143.876 15.5687 142.478 17.3543 140.56 18.6281C138.643 19.9019 136.308 20.5954 133.905 20.6049H78.2467C75.835 20.604 73.4887 19.9146 71.5604 18.6403C69.6322 17.366 68.2261 15.5756 67.5535 13.5381L67.0641 12.0405C66.4256 10.1462 65.1075 8.48436 63.3068 7.30343C61.506 6.1225 59.3192 5.48582 57.0731 5.48853H30.5689C25.1085 5.48853 19.8718 7.39672 16.0107 10.7933C12.1496 14.1899 9.98047 18.7966 9.98047 23.6001V337.909C9.98047 342.427 12.0207 346.76 15.6523 349.955C19.2839 353.149 24.2094 354.944 29.3453 354.944H184.593C186.896 354.945 189.176 354.548 191.303 353.773C193.43 352.999 195.363 351.864 196.992 350.432C198.62 349.001 199.912 347.301 200.793 345.43C201.675 343.559 202.128 341.553 202.128 339.528V21.2227C202.125 17.0505 200.24 13.0499 196.886 10.0997C193.533 7.14951 188.985 5.49101 184.242 5.48853Z" fill="#FAFAFA"/>
<path d="M210.311 120.991H210.077V79.3296H210.311C210.613 79.3296 210.902 79.4351 211.116 79.623C211.329 79.8108 211.449 80.0655 211.449 80.3311V119.989C211.449 120.255 211.329 120.51 211.116 120.698C210.902 120.885 210.613 120.991 210.311 120.991Z" fill="#455A64"/>
<path d="M1.73497 104.976H2.01162V131.353H1.73497C1.43303 131.353 1.14346 131.247 0.929957 131.059C0.71645 130.871 0.596499 130.617 0.596499 130.351V106.015C0.590773 105.88 0.616001 105.746 0.670646 105.62C0.72529 105.494 0.80824 105.38 0.914533 105.283C1.02083 105.186 1.14827 105.108 1.28924 105.056C1.43022 105.003 1.58181 104.976 1.73497 104.976Z" fill="#455A64"/>
<path d="M1.73497 70.5406H2.01162V96.9171H1.73497C1.43303 96.9171 1.14346 96.8116 0.929957 96.6238C0.71645 96.436 0.596499 96.1812 0.596499 95.9156V71.5796C0.590773 71.445 0.616001 71.3107 0.670646 71.1848C0.72529 71.059 0.80824 70.9441 0.914533 70.8471C1.02083 70.7501 1.14827 70.673 1.28924 70.6203C1.43022 70.5676 1.58181 70.5406 1.73497 70.5406Z" fill="#455A64"/>
<path d="M1.80962 44.679H2.02244V56.9406H1.80962C1.54154 56.9406 1.28444 56.8469 1.09488 56.6801C0.905318 56.5134 0.798828 56.2872 0.798828 56.0514V45.5682C0.798828 45.3323 0.905318 45.1061 1.09488 44.9394C1.28444 44.7726 1.54154 44.679 1.80962 44.679Z" fill="#455A64"/>
<path d="M156.909 17.6659H155.483V19.4256H156.909V17.6659Z" fill="#263238"/>
<path d="M159.228 16.8798H157.803V19.4257H159.228V16.8798Z" fill="#263238"/>
<path d="M161.559 16.2994H160.133V19.435H161.559V16.2994Z" fill="#263238"/>
<path d="M163.889 15.1575H162.463V19.435H163.889V15.1575Z" fill="#263238"/>
<path d="M184.988 19.5192H177.816C177.68 19.5192 177.549 19.4722 177.451 19.3882C177.354 19.3042 177.298 19.1899 177.295 19.0699V15.9343C177.295 15.8143 177.348 15.699 177.444 15.6133C177.539 15.5275 177.669 15.4781 177.806 15.4757H184.988C185.019 15.4686 185.052 15.4686 185.083 15.4757C185.096 15.5027 185.096 15.5329 185.083 15.5599V16.5895H185.849C185.884 16.5894 185.918 16.601 185.944 16.6218C185.969 16.6426 185.985 16.6712 185.988 16.7018V18.2182C185.988 18.2337 185.984 18.2492 185.977 18.2634C185.97 18.2777 185.96 18.2905 185.947 18.3011C185.934 18.3117 185.918 18.3197 185.902 18.3248C185.885 18.3298 185.867 18.3318 185.849 18.3305H185.083V19.3694C185.09 19.3848 185.093 19.4012 185.091 19.4175C185.09 19.4338 185.084 19.4497 185.075 19.4639C185.066 19.4782 185.053 19.4905 185.038 19.5001C185.023 19.5096 185.006 19.5162 184.988 19.5192ZM184.86 15.7097H177.806C177.773 15.7097 177.74 15.7155 177.709 15.7269C177.679 15.7383 177.652 15.755 177.629 15.776C177.606 15.797 177.588 15.8219 177.576 15.8491C177.565 15.8763 177.559 15.9053 177.561 15.9343V19.0699C177.561 19.099 177.568 19.1278 177.581 19.1545C177.593 19.1813 177.612 19.2054 177.636 19.2256C177.66 19.2457 177.688 19.2613 177.719 19.2716C177.75 19.2818 177.783 19.2865 177.816 19.2852H184.86V18.2556C184.86 18.2258 184.873 18.1972 184.897 18.1762C184.921 18.1551 184.954 18.1433 184.988 18.1433H185.754V16.861H184.988C184.97 16.861 184.952 16.8578 184.936 16.8516C184.92 16.8454 184.905 16.8363 184.893 16.8248C184.881 16.8134 184.872 16.7999 184.866 16.7851C184.861 16.7704 184.859 16.7548 184.86 16.7393V15.7097Z" fill="#263238"/>
<path d="M178.146 18.7704V16.2245H184.275V17.3758V17.6285V18.7704H178.146Z" fill="#263238"/>
<path d="M170.73 19.2759C170.73 19.1829 170.698 19.0921 170.64 19.0149C170.581 18.9378 170.497 18.8778 170.399 18.8427C170.301 18.8076 170.194 18.7989 170.09 18.8177C169.987 18.8365 169.892 18.882 169.818 18.9484C169.744 19.0148 169.694 19.0991 169.675 19.1905C169.656 19.2819 169.668 19.3762 169.71 19.4616C169.752 19.5469 169.821 19.6193 169.91 19.6696C169.999 19.7199 170.103 19.7457 170.209 19.7439C170.278 19.7439 170.347 19.7317 170.411 19.7081C170.475 19.6845 170.533 19.6498 170.581 19.6063C170.63 19.5627 170.668 19.511 170.693 19.4543C170.719 19.3976 170.731 19.3369 170.73 19.2759Z" fill="#263238"/>
<path d="M168.432 18.1714L169.102 18.7517C169.405 18.4951 169.809 18.351 170.23 18.3492C170.647 18.3515 171.048 18.4957 171.347 18.7517L172.017 18.1714C171.782 17.9639 171.503 17.7994 171.195 17.6871C170.887 17.5748 170.558 17.517 170.224 17.517C169.891 17.517 169.562 17.5748 169.254 17.6871C168.946 17.7994 168.667 17.9639 168.432 18.1714Z" fill="#263238"/>
<path d="M170.209 16.2058C169.681 16.2055 169.158 16.2972 168.671 16.4755C168.183 16.6538 167.74 16.9153 167.368 17.2448L168.038 17.8251C168.618 17.3215 169.4 17.0391 170.214 17.0391C171.029 17.0391 171.811 17.3215 172.39 17.8251L173.061 17.2448C172.687 16.9141 172.243 16.652 171.753 16.4737C171.264 16.2953 170.739 16.2043 170.209 16.2058Z" fill="#263238"/>
<path d="M166.304 16.2807L166.974 16.8704C167.402 16.4931 167.91 16.1938 168.47 15.9896C169.029 15.7854 169.629 15.6803 170.235 15.6803C170.841 15.6803 171.441 15.7854 172.001 15.9896C172.56 16.1938 173.068 16.4931 173.496 16.8704L174.167 16.2807C173.123 15.3645 171.709 14.8499 170.235 14.8499C168.761 14.8499 167.347 15.3645 166.304 16.2807Z" fill="#263238"/>
<path d="M192.085 58.3258C192.085 58.4569 152.589 58.5692 103.879 58.5692C55.1695 58.5692 15.6738 58.4569 15.6738 58.3258C15.6738 58.1948 55.1588 58.0731 103.879 58.0731C152.6 58.0731 192.085 58.1761 192.085 58.3258Z" fill="#263238"/>
<path d="M82.8226 319.198C82.1014 318.861 81.4982 318.358 81.0775 317.742C80.6568 317.126 80.4346 316.421 80.4346 315.702C80.4346 314.984 80.6568 314.279 81.0775 313.663C81.4982 313.047 82.1014 312.544 82.8226 312.206C83.5872 311.856 84.4395 311.679 85.3017 311.692C86.1607 311.678 87.0098 311.855 87.7702 312.206C88.4849 312.541 89.0839 313.039 89.5045 313.648C89.824 314.108 90.0329 314.621 90.1184 315.155C90.2039 315.689 90.1642 316.233 90.0017 316.753C89.8392 317.273 89.5574 317.758 89.1736 318.179C88.7898 318.599 88.3122 318.946 87.7702 319.198C87.0125 319.557 86.1621 319.738 85.3017 319.723C84.438 319.737 83.5845 319.557 82.8226 319.198ZM86.7168 317.879C87.1319 317.666 87.4738 317.359 87.7064 316.989C87.9541 316.598 88.0789 316.155 88.0681 315.707C88.0788 315.256 87.954 314.811 87.7064 314.415C87.4706 314.05 87.1292 313.747 86.7168 313.536C86.283 313.327 85.7963 313.217 85.3017 313.217C84.8071 313.217 84.3205 313.327 83.8866 313.536C83.4742 313.747 83.1328 314.05 82.8971 314.415C82.6544 314.812 82.5299 315.257 82.5353 315.707C82.5299 316.155 82.6544 316.596 82.8971 316.989C83.1296 317.359 83.4716 317.666 83.8866 317.879C84.3205 318.088 84.8071 318.197 85.3017 318.197C85.7963 318.197 86.283 318.088 86.7168 317.879Z" fill="#FAFAFA"/>
<path d="M97.3034 319.591L95.601 317.429H93.7177V319.591H91.6748V311.832H95.4946C96.1949 311.817 96.8908 311.932 97.5375 312.169C98.0875 312.373 98.554 312.72 98.8751 313.163C99.1963 313.606 99.3568 314.124 99.3356 314.649C99.3577 315.173 99.1947 315.691 98.8688 316.13C98.543 316.569 98.0704 316.908 97.5162 317.102L99.4952 319.601L97.3034 319.591ZM96.782 313.638C96.3791 313.38 95.8858 313.254 95.3882 313.283H93.7177V315.997H95.3882C95.8858 316.026 96.3791 315.9 96.782 315.641C96.9427 315.517 97.0693 315.363 97.1522 315.189C97.2351 315.016 97.2722 314.828 97.2608 314.64C97.2738 314.452 97.2374 314.264 97.1544 314.09C97.0714 313.916 96.9439 313.762 96.782 313.638Z" fill="#FAFAFA"/>
<path d="M100.953 311.832H104.964C105.843 311.816 106.713 311.98 107.507 312.309C108.215 312.612 108.81 313.086 109.22 313.676C109.624 314.297 109.837 315.001 109.837 315.716C109.837 316.432 109.624 317.136 109.22 317.757C108.812 318.347 108.217 318.818 107.507 319.114C106.715 319.451 105.844 319.618 104.964 319.601H100.953V311.832ZM104.858 318.122C105.636 318.16 106.4 317.928 106.986 317.476C107.492 316.998 107.773 316.369 107.773 315.716C107.773 315.063 107.492 314.435 106.986 313.957C106.401 313.502 105.637 313.267 104.858 313.301H102.996V318.122H104.858Z" fill="#FAFAFA"/>
<path d="M77.9497 64.8403H18.3125V116.236H77.9497V64.8403Z" fill="#EBEBEB"/>
<path d="M18.3122 64.8403H19.1528H21.6H31.3036L67.586 64.7654L192.287 64.6625H192.553V64.8965C192.553 81.0986 192.553 98.424 192.553 116.283V116.526H192.276L18.259 116.442H18.0781V116.208C18.0781 100.071 18.1526 87.192 18.1845 78.3749C18.1845 73.9757 18.1845 70.5874 18.1845 68.2754C18.1845 67.1429 18.1845 66.2724 18.1845 65.6827C18.1845 65.093 18.1845 64.8122 18.1845 64.8122C18.1845 64.8122 18.1845 65.1211 18.1845 65.7482C18.1845 66.3754 18.1845 67.2271 18.1845 68.3784C18.1845 70.6903 18.1845 74.0974 18.1845 78.5059C18.1845 87.323 18.2484 100.146 18.2909 116.245L18.0994 116.077L192.117 116.002L191.84 116.245V64.8403L192.117 65.0743L67.6286 64.9714L31.2717 64.8965H21.5255H18.9931L18.3122 64.8403Z" fill="#263238"/>
<path d="M61.2236 89.6444L59.2871 98.0029L65.5966 97.8812L61.2236 89.6444Z" fill="#8BAA36"/>
<g opacity="0.3">
<path d="M61.2236 89.6444L59.2871 98.0029L65.5966 97.8812L61.2236 89.6444Z" fill="black"/>
</g>
<path d="M34.1768 89.9158L36.1133 98.2742L29.8037 98.1432L34.1768 89.9158Z" fill="#8BAA36"/>
<g opacity="0.3">
<path d="M34.1768 89.9158L36.1133 98.2742L29.8037 98.1432L34.1768 89.9158Z" fill="black"/>
</g>
<path d="M50.3275 91.4602C50.123 91.4605 49.9262 91.3917 49.7777 91.268C49.6292 91.1443 49.5404 90.9753 49.5295 90.7956L48.6144 71.2145C48.6086 71.1197 48.625 71.0248 48.6626 70.9357C48.7002 70.8467 48.7582 70.7654 48.8331 70.6969C48.9079 70.6285 48.998 70.5743 49.0976 70.5377C49.1973 70.5012 49.3045 70.483 49.4124 70.4845H50.4764C50.6881 70.4845 50.891 70.5584 51.0407 70.6901C51.1903 70.8217 51.2744 71.0003 51.2744 71.1865L51.0829 90.7676C51.0805 90.9458 51.0011 91.1166 50.8608 91.2452C50.7205 91.3739 50.5298 91.4507 50.3275 91.4602Z" fill="#AFE814"/>
<path d="M51.339 72.9835H48.7109V74.687H51.339V72.9835Z" fill="#8BAA36"/>
<path d="M52.1365 91.535C51.9434 91.4735 51.7852 91.3481 51.6958 91.1855C51.6063 91.0229 51.5927 90.8359 51.6577 90.6646L58.4353 72.0007C58.4658 71.9063 58.5187 71.8186 58.5905 71.7434C58.6624 71.6683 58.7516 71.6075 58.8522 71.565C58.9528 71.5226 59.0625 71.4994 59.1741 71.497C59.2857 71.4947 59.3965 71.5132 59.4993 71.5514L60.5633 71.8884C60.666 71.9204 60.7601 71.9705 60.8399 72.0357C60.9197 72.1009 60.9835 72.1797 61.0273 72.2674C61.0712 72.3551 61.0942 72.4497 61.0949 72.5455C61.0956 72.6413 61.0741 72.7362 61.0315 72.8244L53.2111 91.1513C53.173 91.2411 53.1141 91.3231 53.0381 91.3918C52.9621 91.4606 52.8707 91.5148 52.7696 91.5508C52.6686 91.5869 52.5601 91.6041 52.4512 91.6014C52.3422 91.5987 52.235 91.5761 52.1365 91.535Z" fill="#AFE814"/>
<path d="M57.8035 73.6745L57.1387 75.2744L59.607 76.0682L60.2718 74.4682L57.8035 73.6745Z" fill="#8BAA36"/>
<path d="M59.7125 86.5649C59.3029 86.015 58.7644 85.5485 58.1332 85.1966C57.5019 84.8447 56.7925 84.6155 56.0524 84.5244C54.5902 84.3709 53.1092 84.6022 51.7964 85.189C50.7324 85.6195 49.6684 86.2092 48.6044 86.0126C47.8231 85.7908 47.0997 85.4344 46.4764 84.9643C45.6556 84.4715 44.7309 84.1282 43.757 83.9546C42.783 83.781 41.7794 83.7806 40.8053 83.9534C38.7962 84.3656 37.0395 85.4326 35.8896 86.9393C35.4137 87.4953 35.0814 88.1359 34.916 88.8165C34.7506 89.4971 34.7561 90.2013 34.932 90.8798L60.0637 90.7956C60.3814 90.1146 60.5151 89.378 60.4541 88.6439C60.3932 87.9097 60.1393 87.198 59.7125 86.5649Z" fill="#FAFAFA"/>
<path d="M59.0424 90.2996C59.0903 89.9389 59.0903 89.5745 59.0424 89.2138C58.9549 88.2191 58.4506 87.2885 57.6273 86.6024C57.0514 86.1471 56.3236 85.8679 55.5525 85.8067C54.6673 85.736 53.7755 85.8449 52.9457 86.125C52.0625 86.3871 51.2326 86.8925 50.2537 87.2388C49.7486 87.4232 49.2042 87.5094 48.6577 87.4916C48.1023 87.4567 47.5601 87.3263 47.0617 87.1078C46.0509 86.6866 45.1998 86.0969 44.2847 85.6851C43.4207 85.2758 42.4449 85.0846 41.4651 85.1328C40.6289 85.1771 39.814 85.3829 39.0784 85.7355C38.3429 86.0882 37.7046 86.5791 37.2091 87.1733C36.538 87.9744 36.0832 88.8995 35.8791 89.8784C35.8047 90.2247 35.7834 90.4961 35.7621 90.6833C35.7759 90.7765 35.7759 90.8709 35.7621 90.9641C35.7338 90.5981 35.7552 90.2305 35.8259 89.869C35.9933 88.8558 36.4348 87.8928 37.1133 87.061C37.6139 86.4462 38.2625 85.9362 39.0129 85.5673C39.7633 85.1984 40.597 84.9797 41.4545 84.9269C42.4733 84.8751 43.4888 85.0693 44.3911 85.4885C45.3275 85.9097 46.1786 86.49 47.1575 86.9019C47.6164 87.1203 48.1251 87.2455 48.6462 87.2682C49.1673 87.2909 49.6875 87.2105 50.1686 87.0329C51.1156 86.696 51.9562 86.1999 52.8818 85.9284C53.7397 85.6428 54.6606 85.5339 55.5737 85.6102C56.3671 85.6971 57.1105 85.9979 57.7017 86.4713C58.5441 87.182 59.0432 88.1506 59.0956 89.1764C59.1594 89.5503 59.1413 89.9316 59.0424 90.2996Z" fill="#263238"/>
<path d="M57.8503 90.5616C57.8766 90.25 57.8766 89.9372 57.8503 89.6256C57.8137 89.1955 57.6711 88.7775 57.4322 88.4009C57.1933 88.0243 56.8639 87.6979 56.467 87.4447C55.9146 87.1081 55.2394 86.9646 54.5731 87.0422C53.81 87.1783 53.0861 87.449 52.4451 87.8378C51.7226 88.2847 50.9306 88.6378 50.0937 88.8862C49.1487 89.0762 48.1591 88.9908 47.2741 88.6428C45.4653 88.0157 44.0076 86.9486 42.3797 86.6678C41.6676 86.5393 40.93 86.5733 40.2371 86.7666C39.5443 86.96 38.9192 87.3062 38.4216 87.7723C37.7471 88.4099 37.2804 89.1956 37.0703 90.0468C36.9214 90.6458 36.9427 90.9828 36.9108 90.9828C36.8931 90.6693 36.9181 90.3551 36.9852 90.0468C37.1647 89.1681 37.6262 88.3529 38.3152 87.6974C38.824 87.2032 39.4701 86.8337 40.1901 86.6253C40.9101 86.4169 41.6793 86.3767 42.4223 86.5087C44.114 86.7989 45.6142 87.8753 47.3592 88.4837C48.2021 88.8099 49.1412 88.8918 50.0405 88.7177C50.857 88.4778 51.6308 88.1375 52.3388 87.7068C53.0029 87.3093 53.7524 87.0353 54.5412 86.9018C55.2524 86.8164 55.9735 86.9775 56.5522 87.3511C56.9619 87.619 57.2986 87.9638 57.5378 88.3605C57.7771 88.7571 57.9129 89.1957 57.9354 89.6443C57.9718 89.9521 57.9429 90.2631 57.8503 90.5616Z" fill="#263238"/>
<path d="M56.2965 90.5709C56.318 90.3183 56.2706 90.0648 56.1582 89.8315C56.0179 89.5681 55.7968 89.3445 55.5198 89.1856C55.1343 88.998 54.685 88.9382 54.2536 89.0172C53.2535 89.1482 52.3704 89.9532 51.0616 90.3369C49.6209 90.6397 48.1036 90.4595 46.8056 89.8315C45.5417 89.2283 44.2166 88.73 42.8476 88.3432C42.295 88.1961 41.7131 88.1543 41.1407 88.2204C40.5683 88.2866 40.0185 88.4593 39.5279 88.727C38.8843 89.1228 38.4147 89.7011 38.1979 90.365C38.1319 90.6111 38.0892 90.8615 38.0702 91.1138C38.0118 90.8605 38.0118 90.5995 38.0702 90.3463C38.2629 89.6473 38.7349 89.0327 39.4002 88.6147C39.9053 88.324 40.4765 88.134 41.0739 88.058C41.6712 87.982 42.2802 88.0219 42.8582 88.1748C44.2417 88.5475 45.5786 89.043 46.8482 89.6536C48.0992 90.2624 49.5608 90.4456 50.9552 90.1684C52.1788 89.8034 53.0832 88.9984 54.1472 88.8861C54.6111 88.8048 55.0928 88.8782 55.4985 89.092C55.7922 89.2678 56.0215 89.515 56.1582 89.8034C56.2447 89.9835 56.2777 90.18 56.254 90.3744C56.2794 90.4376 56.2937 90.5039 56.2965 90.5709Z" fill="#263238"/>
<path d="M34.1338 89.841C34.1338 90.4119 38.7515 111.275 38.7515 111.275L56.8395 111.013L61.202 89.6444L34.1338 89.841Z" fill="#8BAA36"/>
<path d="M34.1338 89.841H34.6445H36.166L41.8478 89.7755L61.2232 89.5883H61.3935L61.319 89.7287L58.5207 94.6239C57.712 96.0279 56.9282 97.3976 56.1692 98.733V98.7798H56.0948H39.2197L34.2402 89.9346L39.3687 98.7143L39.2942 98.6675H56.1692L56.0735 98.7143L58.4249 94.6146C59.3825 92.9391 60.3188 91.2918 61.2232 89.7193L61.3296 89.8597L34.1338 89.841Z" fill="#263238"/>
<g opacity="0.3">
<path d="M39.6768 98.6486L40.1343 99.5191H56.5518L60.7865 90.3931L56.0624 98.6486H39.6768Z" fill="black"/>
</g>
<path d="M51.3918 107.429C49.2666 107.564 47.133 107.564 45.0078 107.429C47.1335 107.305 49.2661 107.305 51.3918 107.429Z" fill="#FAFAFA"/>
<path d="M50.2324 104.106C50.2324 104.106 50.2324 103.946 50.126 103.666C50.0435 103.368 49.8747 103.093 49.6362 102.87C49.3976 102.646 49.0973 102.481 48.7645 102.389C48.4317 102.298 48.0777 102.283 47.7368 102.348C47.396 102.412 47.0798 102.553 46.8192 102.757C46.5585 102.961 46.3622 103.22 46.2493 103.511C46.1363 103.801 46.1106 104.112 46.1747 104.413C46.2387 104.715 46.3903 104.997 46.6147 105.231C46.8391 105.466 47.1287 105.646 47.4554 105.753C47.7694 105.859 48.1089 105.893 48.4419 105.852C48.775 105.811 49.0908 105.696 49.3599 105.519C49.7247 105.289 49.9938 104.96 50.126 104.583C50.2111 104.311 50.2112 104.143 50.2324 104.143C50.265 104.295 50.265 104.45 50.2324 104.602C50.128 105.023 49.8611 105.4 49.477 105.669C49.1904 105.869 48.8498 106.001 48.4882 106.052C48.1266 106.103 47.7562 106.071 47.4128 105.959C46.9822 105.829 46.6083 105.585 46.3436 105.259C46.0788 104.934 45.9365 104.543 45.9365 104.143C45.9365 103.743 46.0788 103.352 46.3436 103.027C46.6083 102.701 46.9822 102.457 47.4128 102.327C47.7571 102.216 48.128 102.186 48.4896 102.238C48.8513 102.291 49.1914 102.425 49.477 102.627C49.8645 102.888 50.1325 103.264 50.2324 103.684C50.26 103.824 50.26 103.966 50.2324 104.106Z" fill="#FAFAFA"/>
<path d="M39.6874 82.4559C39.7967 82.4243 39.896 82.3706 39.9773 82.299C40.0586 82.2275 40.1197 82.1402 40.1556 82.0441C40.2535 81.8244 40.2535 81.5804 40.1556 81.3608C40.0026 81.0741 39.8017 80.8091 39.5598 80.5745C39.0658 80.0242 38.8331 79.327 38.9104 78.6291C38.9878 77.9311 39.3692 77.2866 39.9747 76.8305C40.4003 76.4842 40.9217 76.1379 40.9855 75.6231C40.9794 75.3677 40.9117 75.1163 40.787 74.8856C40.6623 74.6549 40.4833 74.45 40.262 74.2846C39.8413 73.9343 39.4826 73.5304 39.198 73.0865C38.9813 72.6952 38.8591 72.2686 38.8389 71.8337C38.8188 71.3988 38.9012 70.9649 39.0809 70.5593C39.3277 70.0185 39.7448 69.5509 40.2833 69.2115C40.4751 69.0803 40.691 68.979 40.9217 68.912C40.9217 68.912 40.6982 69.0149 40.3365 69.2677C39.8525 69.6224 39.4851 70.0845 39.2725 70.6061C39.1113 70.9936 39.0414 71.4058 39.067 71.8177C39.0926 72.2296 39.2132 72.6327 39.4214 73.0023C39.7132 73.4307 40.0713 73.8214 40.4854 74.1629C40.7311 74.3442 40.9289 74.5704 41.0649 74.8259C41.2009 75.0813 41.2718 75.3598 41.2728 75.6418C41.1084 76.1818 40.7313 76.6528 40.2088 76.9709C39.6342 77.3945 39.2673 77.9965 39.184 78.6519C39.1008 79.3073 39.3078 79.9656 39.7619 80.4903C40.009 80.7388 40.2101 81.0199 40.3578 81.3234C40.4656 81.5639 40.4656 81.8316 40.3578 82.0721C40.0705 82.5121 39.6874 82.5121 39.6874 82.4559Z" fill="#263238"/>
<path d="M42.5283 82.4559C42.6375 82.4243 42.7368 82.3706 42.8181 82.299C42.8994 82.2275 42.9605 82.1402 42.9964 82.0441C43.0943 81.8244 43.0943 81.5804 42.9964 81.3608C42.8434 81.0741 42.6425 80.8091 42.4005 80.5745C41.9066 80.0242 41.6739 79.327 41.7513 78.6291C41.8286 77.9311 42.21 77.2866 42.8155 76.8305C43.2411 76.4842 43.7625 76.1379 43.8263 75.6231C43.8202 75.3677 43.7525 75.1163 43.6278 74.8856C43.5031 74.6549 43.3241 74.45 43.1028 74.2846C42.6821 73.9343 42.3234 73.5304 42.0388 73.0865C41.8221 72.6952 41.6999 72.2686 41.6797 71.8337C41.6596 71.3988 41.742 70.9649 41.9218 70.5593C42.1685 70.0185 42.5856 69.5509 43.1241 69.2115C43.3159 69.0803 43.5318 68.979 43.7625 68.912C43.7625 68.912 43.5284 69.0149 43.1773 69.2677C42.6933 69.6224 42.3259 70.0845 42.1133 70.6061C41.9496 70.9931 41.8784 71.4056 41.904 71.8179C41.9296 72.2301 42.0516 72.6333 42.2623 73.0023C42.554 73.4307 42.9121 73.8214 43.3263 74.1629C43.572 74.3442 43.7697 74.5704 43.9057 74.8259C44.0417 75.0813 44.1126 75.3598 44.1136 75.6418C43.9492 76.1818 43.5721 76.6528 43.0496 76.9709C42.6278 77.2851 42.3145 77.6969 42.1452 78.1597C42.0023 78.5518 41.9693 78.9686 42.049 79.3744C42.1286 79.7802 42.3186 80.163 42.6027 80.4903C42.8498 80.7388 43.0509 81.0199 43.1985 81.3234C43.3064 81.5639 43.3064 81.8316 43.1985 82.0721C42.8793 82.5121 42.4963 82.5121 42.5283 82.4559Z" fill="#263238"/>
<path d="M124.041 74.0599H89.5146V78.1971H124.041V74.0599Z" fill="#8BAA36"/>
<path d="M180.582 84.2623H89.5146V86.9112H180.582V84.2623Z" fill="#E0E0E0"/>
<path d="M180.582 89.5695H89.5146V92.2183H180.582V89.5695Z" fill="#E0E0E0"/>
<path d="M156.377 105.21H154.653V106.698H153.376V105.21H151.652V104.152H153.376V102.673H154.653V104.152H156.377V105.21Z" fill="#8BAA36"/>
<path d="M168.145 106.586V107.728H162.91V106.792L165.581 104.564C165.81 104.392 166.004 104.186 166.155 103.956C166.248 103.796 166.299 103.62 166.304 103.441C166.31 103.334 166.288 103.227 166.238 103.13C166.188 103.032 166.112 102.946 166.017 102.879C165.777 102.734 165.488 102.664 165.198 102.683C164.914 102.679 164.634 102.733 164.378 102.842C164.13 102.94 163.917 103.095 163.761 103.291L162.591 102.636C162.867 102.272 163.254 101.983 163.708 101.803C164.221 101.593 164.781 101.491 165.347 101.503C165.809 101.497 166.268 101.57 166.698 101.719C167.055 101.852 167.364 102.069 167.592 102.346C167.811 102.619 167.927 102.947 167.921 103.282C167.923 103.606 167.839 103.926 167.677 104.218C167.445 104.596 167.135 104.933 166.762 105.21L165.166 106.539L168.145 106.586Z" fill="#8BAA36"/>
<path d="M174.539 104.733H177.348V105.828H174.539V104.733Z" fill="#8BAA36"/>
<path d="M180.583 111.734C180.583 111.734 180.583 111.631 180.583 111.463C180.583 111.294 180.583 111.004 180.583 110.704C180.583 110.002 180.583 109.048 180.529 107.831C180.529 105.322 180.466 101.775 180.423 97.4039L180.625 97.5817L146.226 97.6472L146.503 97.4039V104.78C146.503 107.176 146.503 109.46 146.503 111.725L146.237 111.491L170.868 111.603L178.029 111.659H179.955H180.636C180.43 111.672 180.224 111.672 180.019 111.659H178.146L171.049 111.715L146.237 111.828H145.971V111.603C145.971 109.375 145.971 107.054 145.971 104.658V97.2822L146.247 97.0388L180.646 97.1043H180.849V97.2822C180.849 101.7 180.774 105.285 180.742 107.812C180.742 109.01 180.742 109.965 180.689 110.62V111.35C180.701 111.485 180.664 111.62 180.583 111.734Z" fill="#263238"/>
<path d="M96.4631 107.157C95.8578 107.631 95.0904 107.914 94.2819 107.962V109.207H93.0157V107.999C92.4116 107.971 91.8142 107.874 91.2389 107.709C90.7487 107.581 90.2878 107.378 89.877 107.11L90.5685 105.753C90.9119 105.972 91.2878 106.148 91.6857 106.277C92.1142 106.415 92.5613 106.503 93.0157 106.539V104.667C92.4983 104.568 91.9925 104.427 91.5049 104.246C91.0898 104.102 90.7235 103.866 90.4409 103.563C90.1526 103.22 90.0062 102.8 90.0259 102.374C90.0219 102.078 90.088 101.784 90.2198 101.512C90.3517 101.24 90.5466 100.995 90.792 100.792C91.4016 100.312 92.178 100.029 92.9945 99.9871V98.7516H94.2606V99.959C95.1622 100.001 96.0386 100.236 96.8142 100.642L96.1865 102.009C95.5965 101.701 94.941 101.504 94.2606 101.429V103.301C94.77 103.395 95.2686 103.529 95.7502 103.703C96.1639 103.845 96.53 104.077 96.8142 104.377C97.1025 104.72 97.2489 105.139 97.2292 105.566C97.2367 105.863 97.1723 106.159 97.0402 106.434C96.9082 106.708 96.7114 106.954 96.4631 107.157ZM92.3241 102.758C92.5291 102.898 92.7644 103 93.0157 103.057V101.485C92.75 101.527 92.5031 101.634 92.3029 101.794C92.1592 101.932 92.0795 102.112 92.0794 102.299C92.0781 102.387 92.0995 102.474 92.1419 102.553C92.1843 102.633 92.2466 102.702 92.3241 102.758ZM94.9522 106.212C95.0278 106.151 95.0878 106.078 95.1281 105.995C95.1685 105.913 95.1884 105.824 95.1863 105.734C95.1897 105.647 95.1703 105.56 95.1297 105.481C95.0892 105.401 95.0284 105.331 94.9522 105.276C94.7516 105.138 94.5245 105.034 94.2819 104.967V106.502C94.5308 106.46 94.7624 106.359 94.9522 106.212Z" fill="#E0E0E0"/>
<path d="M106.007 107.157C105.399 107.633 104.627 107.916 103.815 107.962V109.207H102.56V107.999C101.955 107.972 101.358 107.875 100.783 107.709C100.29 107.579 99.8263 107.376 99.4102 107.11L100.112 105.753C100.439 105.968 100.797 106.144 101.176 106.277C101.605 106.415 102.052 106.503 102.506 106.539V104.667C101.986 104.567 101.477 104.426 100.985 104.246C100.57 104.101 100.204 103.866 99.9209 103.563C99.6326 103.22 99.4862 102.8 99.5059 102.374C99.5019 102.078 99.5679 101.784 99.6998 101.512C99.8317 101.24 100.027 100.995 100.272 100.792C100.882 100.312 101.658 100.029 102.474 99.9871V98.7516H103.73V99.959C104.635 99.9997 105.516 100.234 106.294 100.642L105.666 102.009C105.073 101.7 104.414 101.502 103.73 101.429V103.301C104.243 103.393 104.745 103.528 105.23 103.703C105.642 103.847 106.008 104.079 106.294 104.377C106.582 104.72 106.729 105.139 106.709 105.566C106.725 105.859 106.67 106.153 106.55 106.427C106.429 106.701 106.244 106.949 106.007 107.157ZM101.868 102.758C102.073 102.898 102.308 103 102.56 103.057V101.485C102.294 101.527 102.047 101.634 101.847 101.794C101.703 101.932 101.623 102.112 101.623 102.299C101.619 102.387 101.64 102.475 101.682 102.554C101.725 102.634 101.789 102.704 101.868 102.758ZM104.496 106.212C104.572 106.151 104.632 106.078 104.672 105.995C104.712 105.913 104.732 105.824 104.73 105.734C104.731 105.647 104.711 105.561 104.67 105.482C104.63 105.403 104.571 105.332 104.496 105.276C104.292 105.137 104.061 105.032 103.815 104.967V106.502C104.068 106.462 104.304 106.361 104.496 106.212Z" fill="#E0E0E0"/>
<path d="M77.9915 116.713C77.8319 116.713 77.7148 105.173 77.7148 90.936C77.7148 76.6994 77.8319 65.1492 77.9915 65.1492C78.1511 65.1492 78.2681 76.6901 78.2681 90.936C78.2681 105.182 78.1617 116.713 77.9915 116.713Z" fill="#263238"/>
<path d="M77.9497 121.543H18.3125V172.939H77.9497V121.543Z" fill="#EBEBEB"/>
<path d="M18.3116 121.543H19.1522H21.642H31.3456L67.628 121.478L192.329 121.365H192.595V121.599C192.595 137.802 192.595 155.127 192.595 172.986V173.229H192.318L18.301 173.145H18.1201V172.986C18.1201 156.849 18.1946 143.97 18.2265 135.153C18.2265 130.753 18.2265 127.365 18.2265 125.063C18.2265 123.921 18.2265 123.06 18.2265 122.46C18.2265 121.861 18.2265 121.59 18.2265 121.59C18.2265 121.59 18.2265 121.899 18.2265 122.526C18.2265 123.153 18.2265 123.996 18.2265 125.147C18.2265 127.459 18.2265 130.866 18.2265 135.274C18.2265 144.091 18.2903 156.924 18.3329 173.014L18.1414 172.855L192.159 172.77L191.882 173.014V121.543L192.159 121.777L67.6706 121.674L31.3137 121.609H21.5675H19.0351L18.3116 121.543Z" fill="#263238"/>
<path d="M124.041 130.763H89.5146V134.9H124.041V130.763Z" fill="#8BAA36"/>
<path d="M180.582 140.975H89.5146V143.623H180.582V140.975Z" fill="#E0E0E0"/>
<path d="M180.582 146.272H89.5146V148.921H180.582V146.272Z" fill="#E0E0E0"/>
<path d="M156.377 161.922H154.653V163.401H153.376V161.922H151.652V160.855H153.376V159.376H154.653V160.855H156.377V161.922Z" fill="#8BAA36"/>
<path d="M165.644 158.328V164.431H164.037V159.461H162.654V158.328H165.644Z" fill="#8BAA36"/>
<path d="M172.581 161.436H175.39V162.531H172.581V161.436Z" fill="#8BAA36"/>
<path d="M180.583 168.437C180.583 168.437 180.583 168.334 180.583 168.165C180.583 167.997 180.583 167.716 180.583 167.407C180.583 166.705 180.583 165.751 180.529 164.534C180.529 162.025 180.466 158.478 180.423 154.107L180.625 154.285L146.226 154.35L146.503 154.107V161.492C146.503 163.888 146.503 166.172 146.503 168.427L146.237 168.193L170.868 168.306L178.029 168.371H179.955H180.636C180.43 168.384 180.224 168.384 180.019 168.371H178.146L171.049 168.437L146.237 168.54H145.971V168.306C145.971 166.087 145.971 163.766 145.971 161.37V154.116L146.247 153.873L180.646 153.938H180.849V154.116C180.849 158.534 180.774 162.119 180.742 164.655C180.742 165.853 180.742 166.799 180.689 167.463V168.193C180.673 168.28 180.637 168.363 180.583 168.437Z" fill="#263238"/>
<path d="M96.4631 163.86C95.8578 164.334 95.0904 164.617 94.2819 164.665V165.91H93.0157V164.702C92.411 164.679 91.8129 164.581 91.2389 164.412C90.7487 164.284 90.2878 164.081 89.877 163.813L90.5685 162.456C90.9092 162.679 91.2857 162.855 91.6857 162.98C92.1138 163.121 92.5609 163.212 93.0157 163.251V161.379C92.5009 161.272 91.9959 161.131 91.5049 160.958C91.0918 160.811 90.7263 160.576 90.4409 160.275C90.1503 159.929 90.0037 159.506 90.0259 159.077C90.0219 158.781 90.088 158.487 90.2198 158.215C90.3517 157.943 90.5466 157.697 90.792 157.495C91.4016 157.015 92.178 156.732 92.9945 156.69V155.52H94.2606V156.737C95.1613 156.776 96.0377 157.007 96.8142 157.411L96.1865 158.777C95.5965 158.47 94.941 158.272 94.2606 158.197V160.069C94.7687 160.168 95.2668 160.302 95.7502 160.471C96.1646 160.617 96.5306 160.852 96.8142 161.155C97.1049 161.493 97.2517 161.91 97.2292 162.334C97.2269 162.621 97.1578 162.904 97.026 163.167C96.8943 163.429 96.7026 163.665 96.4631 163.86ZM92.3241 159.461C92.5264 159.605 92.7627 159.707 93.0157 159.76V158.188C92.7475 158.229 92.4993 158.34 92.3029 158.506C92.1554 158.642 92.0751 158.823 92.0794 159.011C92.0782 159.098 92.0996 159.183 92.142 159.261C92.1845 159.339 92.2468 159.407 92.3241 159.461ZM94.9522 162.914C95.0278 162.854 95.0878 162.78 95.1281 162.698C95.1685 162.616 95.1884 162.527 95.1863 162.437C95.1897 162.35 95.1703 162.263 95.1297 162.184C95.0892 162.104 95.0284 162.034 94.9522 161.978C94.7484 161.845 94.5223 161.741 94.2819 161.67V163.205C94.5324 163.167 94.7652 163.066 94.9522 162.914Z" fill="#E0E0E0"/>
<path d="M77.9915 173.416C77.8319 173.416 77.7148 161.875 77.7148 147.639C77.7148 133.402 77.8532 121.824 77.9915 121.824C78.1298 121.824 78.2681 133.365 78.2681 147.611C78.2681 161.857 78.1617 173.416 77.9915 173.416Z" fill="#263238"/>
<path d="M36.4111 139.936L38.6242 165.816C38.6587 166.204 38.8567 166.567 39.1794 166.834C39.5022 167.101 39.9265 167.252 40.3692 167.258L52.3286 167.342C52.7734 167.343 53.2028 167.198 53.5318 166.935C53.8608 166.671 54.0655 166.309 54.1054 165.919L56.5313 140.226L36.4111 139.936Z" fill="#8BAA36"/>
<g opacity="0.3">
<path d="M55.4878 151.261C49.4053 151.478 43.314 151.406 37.2402 151.046L37.8148 158.833C37.8148 158.833 48.4548 160.434 54.8388 158.478L55.4878 151.261Z" fill="black"/>
</g>
<g opacity="0.3">
<path d="M56.3927 141.639C52.26 143.099 47.7958 143.685 43.3587 143.352C37.5705 143.034 36.5491 141.798 36.5491 141.798L36.4746 140.638H56.4884L56.3927 141.639Z" fill="black"/>
</g>
<path d="M57.3715 138.831L57.8396 140.619C57.8396 140.619 55.552 142.285 46.1995 142.173C37.8258 142.079 35.7936 140.713 35.7936 140.713L35.1445 140.226L35.7191 138.541L57.3715 138.831Z" fill="#E0E0E0"/>
<path d="M57.3716 138.831H55.7011H51.1047L35.7086 138.644H35.7724L35.2085 140.329V140.263L35.8894 140.769C36.1521 140.908 36.4302 141.024 36.7194 141.115L37.1556 141.246L37.6025 141.368C38.1877 141.508 38.7835 141.62 39.3794 141.714C40.5339 141.893 41.6991 142.015 42.8693 142.079C44.9936 142.214 47.1247 142.249 49.2533 142.182C50.9812 142.146 52.7031 141.989 54.403 141.714C55.0763 141.605 55.7409 141.458 56.3927 141.274C56.9114 141.14 57.4057 140.941 57.861 140.684L57.5418 139.365L57.4567 139.018V138.897C57.4607 138.934 57.4607 138.972 57.4567 139.009L57.5418 139.355C57.627 139.655 57.7546 140.104 57.9036 140.675C57.4456 140.938 56.9477 141.143 56.4247 141.283C55.7735 141.474 55.1088 141.627 54.4349 141.742C52.7321 142.024 51.0066 142.186 49.2746 142.229C47.1464 142.302 45.0153 142.274 42.8906 142.145C41.7169 142.08 40.5482 141.958 39.39 141.78C38.7842 141.688 38.184 141.569 37.5918 141.424C37.4429 141.424 37.2939 141.349 37.1449 141.312C36.996 141.274 36.8471 141.227 36.7087 141.171C36.4063 141.083 36.1169 140.964 35.8469 140.815L35.1553 140.31C35.3574 139.73 35.549 139.159 35.7298 138.625L51.1578 138.859L55.733 138.934H56.9673H57.3822L57.3716 138.831Z" fill="#263238"/>
<path d="M35.6982 138.672C35.6982 139.533 40.5075 140.151 46.5298 140.291C50.6368 140.385 56.6378 139.692 57.3719 138.784C57.9465 138.092 52.5307 137.202 46.5511 137.165C40.5714 137.128 35.7089 137.83 35.6982 138.672Z" fill="#FAFAFA"/>
<path d="M35.6979 138.672C35.6931 138.638 35.6931 138.603 35.6979 138.569C35.743 138.475 35.8166 138.394 35.9107 138.335C36.2797 138.124 36.686 137.969 37.113 137.876C38.6735 137.541 40.2654 137.331 41.8691 137.249C44.2417 137.103 46.622 137.078 48.9979 137.174C50.3492 137.24 51.7537 137.333 53.2539 137.511C53.9774 137.596 54.7116 137.699 55.4564 137.848C55.8168 137.916 56.1722 138.004 56.5204 138.11C56.7067 138.164 56.888 138.23 57.063 138.307L57.1907 138.372L57.3184 138.447C57.3593 138.477 57.3951 138.512 57.4248 138.55C57.4459 138.602 57.4459 138.658 57.4248 138.709C57.4154 138.761 57.3896 138.81 57.3503 138.85L57.2333 138.953C57.156 139.008 57.0743 139.058 56.9886 139.103C56.8183 139.185 56.6403 139.253 56.4566 139.308C56.1094 139.425 55.754 139.522 55.3926 139.599C54.6478 139.758 53.9136 139.87 53.1901 139.973C51.743 140.151 50.3386 140.263 48.9979 140.31C47.7255 140.366 46.4506 140.366 45.1782 140.31C43.9865 140.31 42.8693 140.198 41.8585 140.113C40.2587 140.017 38.6711 139.801 37.113 139.468C36.6837 139.381 36.2762 139.225 35.9107 139.009C35.8141 138.952 35.7397 138.87 35.6979 138.775C35.6937 138.744 35.6937 138.712 35.6979 138.681C35.6979 138.681 35.6979 138.681 35.6979 138.775C35.7417 138.864 35.8161 138.94 35.9107 138.99C36.2813 139.192 36.6877 139.337 37.113 139.421C38.6725 139.743 40.2599 139.949 41.8585 140.039C42.8693 140.113 43.9865 140.17 45.1675 140.207C46.4364 140.263 47.7078 140.263 48.9767 140.207C50.3173 140.151 51.7218 140.048 53.1688 139.861C53.8817 139.767 54.6158 139.645 55.35 139.496C55.7108 139.417 56.066 139.32 56.414 139.206C56.5925 139.146 56.7666 139.078 56.9354 139C57.014 138.958 57.0888 138.911 57.1588 138.859C57.2266 138.822 57.2789 138.766 57.3078 138.7C57.307 138.666 57.2969 138.634 57.2783 138.604C57.2598 138.575 57.2334 138.55 57.2014 138.532C57.0844 138.466 57.0844 138.466 56.9674 138.401C56.7982 138.329 56.624 138.266 56.4459 138.213C56.097 138.112 55.7417 138.027 55.3819 137.961C54.6478 137.811 53.9136 137.708 53.1901 137.624C51.7537 137.446 50.3492 137.343 49.0086 137.287C46.6332 137.183 44.2531 137.198 41.8798 137.334C40.2808 137.402 38.6923 137.599 37.1343 137.923C36.713 138.008 36.3105 138.154 35.9427 138.354C35.8507 138.41 35.7744 138.483 35.7192 138.569C35.7086 138.672 35.7086 138.672 35.6979 138.672Z" fill="#263238"/>
<path d="M52.7112 137.165L52.9665 138.167C52.9665 138.167 51.6791 139.196 46.4229 139.046C41.1667 138.897 40.5816 138.223 40.5816 138.223L40.4326 138.064L40.539 136.997L52.7112 137.165Z" fill="#E0E0E0"/>
<path d="M52.7114 137.165H51.7644H49.1789L40.5286 137.062L40.603 137.015C40.603 137.352 40.5286 137.708 40.4967 138.073L40.6137 138.185C40.6377 138.225 40.6748 138.258 40.7201 138.279C41.0194 138.424 41.3424 138.529 41.6777 138.588C42.0075 138.663 42.348 138.719 42.6779 138.766C43.3375 138.85 43.9972 138.906 44.6356 138.953C45.814 139.038 46.9967 139.069 48.1788 139.046C49.146 139.037 50.1106 138.956 51.0622 138.803C51.4239 138.74 51.7796 138.652 52.1262 138.541C52.4157 138.466 52.689 138.349 52.9348 138.195L52.7539 137.446V137.259C52.7514 137.234 52.7514 137.209 52.7539 137.184C52.7568 137.206 52.7568 137.227 52.7539 137.249L52.8071 137.436C52.8603 137.614 52.9242 137.858 53.0199 138.185C52.7683 138.343 52.4925 138.47 52.2007 138.56C51.853 138.67 51.4976 138.761 51.1367 138.831C50.1825 138.994 49.2143 139.085 48.2426 139.103C47.1786 139.103 45.955 139.103 44.6782 139.018C44.0398 138.972 43.3801 138.915 42.7098 138.831C42.3799 138.831 42.0395 138.728 41.699 138.653C41.348 138.591 41.0103 138.481 40.6988 138.326C40.6454 138.296 40.5985 138.258 40.5605 138.213L40.4541 138.101L40.5605 137.043V136.987H40.6243L49.3066 137.128L51.8708 137.184H52.5624H52.7965L52.7114 137.165Z" fill="#263238"/>
<path d="M40.5283 137.081C40.5283 137.567 43.2522 138.017 46.6144 138.017C49.9766 138.017 52.7111 137.652 52.7111 137.165C52.7111 136.678 49.9873 136.229 46.625 136.229C43.2628 136.229 40.5283 136.594 40.5283 137.081Z" fill="#FAFAFA"/>
<path d="M40.5282 137.081C40.5282 137.081 40.5281 136.987 40.6558 136.894C40.8579 136.769 41.0855 136.68 41.3262 136.632C42.2052 136.437 43.1028 136.315 44.0074 136.266C45.3459 136.183 46.6888 136.167 48.0293 136.22C48.7848 136.22 49.5721 136.295 50.3914 136.388C50.7957 136.444 51.2107 136.5 51.6363 136.585C51.8463 136.628 52.0525 136.684 52.2534 136.753C52.3577 136.787 52.4576 136.831 52.5513 136.884C52.6103 136.908 52.6615 136.945 52.7005 136.991C52.7395 137.036 52.765 137.09 52.7748 137.146C52.7657 137.204 52.7406 137.259 52.7017 137.307C52.6627 137.354 52.6111 137.392 52.5513 137.418C52.4586 137.47 52.3584 137.511 52.2534 137.539C52.0498 137.608 51.8398 137.662 51.6257 137.699C51.2107 137.783 50.7957 137.839 50.3808 137.886C49.5615 137.97 48.7635 138.007 48.0081 138.026C46.6701 138.07 45.3303 138.039 43.9968 137.933C43.0946 137.88 42.2003 137.752 41.3262 137.549C41.0838 137.492 40.8537 137.4 40.6452 137.277C40.5069 137.184 40.5175 137.081 40.5282 137.081C40.5341 137.118 40.5497 137.153 40.5737 137.184C40.5977 137.215 40.6294 137.24 40.6665 137.259C40.8739 137.37 41.1001 137.453 41.3368 137.502C42.2138 137.688 43.1073 137.807 44.0074 137.858C45.3386 137.944 46.6742 137.966 48.0081 137.923C48.7635 137.923 49.5509 137.858 50.3702 137.773C50.7813 137.729 51.1897 137.667 51.5937 137.586C51.8001 137.551 52.0029 137.501 52.2002 137.436L52.4875 137.315C52.5726 137.315 52.6471 137.212 52.6471 137.146C52.6471 137.081 52.5726 137.025 52.4875 136.978C52.3986 136.932 52.3061 136.891 52.2108 136.856C52.0087 136.791 51.8066 136.744 51.6044 136.697C51.1894 136.613 50.7851 136.557 50.3702 136.5C49.5615 136.407 48.7741 136.36 48.0187 136.323C46.6861 136.26 45.3507 136.26 44.0181 136.323C43.1189 136.359 42.2252 136.466 41.3474 136.641C41.1075 136.691 40.8779 136.773 40.6665 136.884C40.6273 136.905 40.5943 136.934 40.5703 136.968C40.5462 137.002 40.5318 137.041 40.5282 137.081Z" fill="#263238"/>
<path d="M45.6252 136.866L45.3379 125.297L46.9977 125.231L47.2744 136.875C46.6253 136.856 46.221 137.053 45.6252 136.866Z" fill="#FAFAFA"/>
<path d="M45.6249 136.866C45.7597 136.902 45.899 136.924 46.0398 136.931C46.2133 136.944 46.3877 136.944 46.5612 136.931C46.8 136.894 47.0424 136.879 47.2847 136.884C47.2102 134.778 47.0825 130.332 46.9655 125.287L47.0293 125.343L45.3695 125.4L45.4333 125.343C45.5078 128.591 45.5717 131.484 45.6142 133.561C45.6142 134.591 45.6142 135.433 45.6142 136.014V136.95C45.6165 136.931 45.6165 136.912 45.6142 136.894V136.725C45.6142 136.575 45.6142 136.351 45.6142 136.07C45.6142 135.49 45.6142 134.657 45.5397 133.627C45.4759 131.54 45.3908 128.647 45.3057 125.381V125.325H45.3695L47.0187 125.259H47.0932V125.353C47.2209 130.445 47.306 134.853 47.3379 136.959C47.1006 136.944 46.8623 136.944 46.625 136.959C46.4515 136.972 46.2771 136.972 46.1037 136.959C45.9986 136.952 45.8949 136.933 45.7951 136.903L45.6249 136.866Z" fill="#263238"/>
<path d="M46.4873 125.306L46.7639 136.903L46.1468 136.884L45.7744 125.315L46.4873 125.306Z" fill="#455A64"/>
<path d="M45.0078 136.744C45.0078 136.744 45.742 136.828 46.6357 136.838C47.5295 136.847 48.2743 136.735 48.2743 136.772C48.1243 136.825 47.9668 136.86 47.8061 136.875C47.4191 136.929 47.0276 136.954 46.6357 136.95C46.2467 136.95 45.8586 136.918 45.476 136.856C45.313 136.847 45.1538 136.809 45.0078 136.744Z" fill="#263238"/>
<path d="M56.8183 141.078C56.6597 140.808 56.5519 140.517 56.4991 140.216C56.4021 139.929 56.338 139.635 56.3076 139.337C56.4663 139.607 56.5741 139.897 56.6268 140.198C56.7238 140.485 56.788 140.779 56.8183 141.078Z" fill="#263238"/>
<path d="M55.0838 141.546C54.9348 141.265 54.8241 140.969 54.7539 140.666C54.6415 140.363 54.5736 140.048 54.5518 139.73C54.7007 140.011 54.8115 140.306 54.8816 140.61C55.0008 140.911 55.0689 141.227 55.0838 141.546Z" fill="#263238"/>
<path d="M53.2115 141.911C53.0797 141.608 52.9835 141.294 52.9242 140.975C52.8346 140.668 52.7812 140.355 52.7646 140.039C52.908 140.338 53.0046 140.653 53.0519 140.975C53.1538 141.279 53.2075 141.594 53.2115 141.911Z" fill="#263238"/>
<path d="M51.0087 142.117C50.8188 141.506 50.7116 140.877 50.6895 140.245C50.7991 140.549 50.8739 140.863 50.9129 141.181C50.9818 141.489 51.014 141.802 51.0087 142.117Z" fill="#263238"/>
<path d="M48.6892 142.21C48.6518 141.899 48.6518 141.585 48.6892 141.274C48.6843 140.96 48.72 140.646 48.7956 140.338C48.8331 140.649 48.8331 140.963 48.7956 141.274C48.7996 141.589 48.7639 141.903 48.6892 142.21Z" fill="#263238"/>
<path d="M46.7957 142.163C46.7426 141.853 46.7426 141.538 46.7957 141.227C46.7932 140.912 46.8361 140.597 46.9233 140.291C46.9767 140.601 46.9767 140.917 46.9233 141.227C46.9246 141.543 46.8817 141.857 46.7957 142.163Z" fill="#263238"/>
<path d="M44.7949 142.098C44.7564 141.785 44.778 141.468 44.8587 141.162C44.8892 140.856 44.9717 140.557 45.1035 140.273C45.1054 140.587 45.0661 140.902 44.9864 141.209C44.9554 141.51 44.8912 141.808 44.7949 142.098Z" fill="#263238"/>
<path d="M42.4219 141.957C42.4539 141.639 42.5289 141.324 42.6453 141.021C42.7191 140.698 42.837 140.384 42.9964 140.085C42.9708 140.405 42.8957 140.72 42.773 141.021C42.6992 141.345 42.5813 141.659 42.4219 141.957Z" fill="#263238"/>
<path d="M40.2627 141.817C40.2954 141.499 40.3667 141.185 40.4755 140.881C40.5388 140.557 40.6534 140.241 40.816 139.945C40.7844 140.263 40.713 140.577 40.6032 140.881C40.54 141.205 40.4254 141.52 40.2627 141.817Z" fill="#263238"/>
<path d="M37.7197 141.386C37.768 141.085 37.8573 140.789 37.9857 140.507C38.0822 140.213 38.218 139.93 38.3901 139.664C38.246 140.26 38.0209 140.838 37.7197 141.386Z" fill="#263238"/>
<path d="M35.8145 140.759C35.8557 140.489 35.938 140.224 36.0592 139.973C36.133 139.708 36.2552 139.455 36.4209 139.224C36.381 139.495 36.2987 139.76 36.1762 140.01C36.1024 140.276 35.9802 140.529 35.8145 140.759Z" fill="#263238"/>
<path d="M64.5959 201.44C64.6739 201.099 64.647 200.746 64.5179 200.416C64.3889 200.087 64.1623 199.795 63.8617 199.568C63.2652 199.13 62.5104 198.895 61.7337 198.904C61.0408 198.884 60.3565 199.044 59.7653 199.362C59.4292 199.537 59.1453 199.78 58.9371 200.071C58.7289 200.361 58.6024 200.691 58.5681 201.033C58.5338 201.375 58.5926 201.72 58.7398 202.038C58.8869 202.356 59.1181 202.639 59.4142 202.863C60.0671 203.371 60.9153 203.642 61.7869 203.621C62.5184 203.641 63.2308 203.414 63.7766 202.985C64.0343 202.79 64.2438 202.551 64.3921 202.282C64.5403 202.013 64.6242 201.72 64.6384 201.421" fill="#8BAA36"/>
<path d="M77.9497 178.115H18.3125V229.511H77.9497V178.115Z" fill="#EBEBEB"/>
<path d="M18.3126 178.115H19.1532H21.6429H31.3466L67.629 178.05L192.33 177.937H192.596V178.181C192.596 194.383 192.596 211.699 192.596 229.558V229.801H192.319L18.302 229.717H18.1211V229.464C18.1211 213.337 18.1955 200.448 18.2275 191.631C18.2275 187.241 18.2275 183.843 18.2275 181.541C18.2275 180.408 18.2275 179.538 18.2275 178.948C18.2275 178.358 18.2275 178.078 18.2275 178.078C18.2275 178.078 18.2275 178.387 18.2275 179.014C18.2275 179.641 18.2275 180.493 18.2275 181.634C18.2275 183.956 18.2275 187.353 18.2275 191.771C18.2275 200.588 18.2913 213.412 18.3339 229.502L18.1424 229.342L192.16 229.258L191.883 229.502V178.115L192.16 178.349L67.6715 178.237L31.3147 178.171H21.5684H19.0361L18.3126 178.115Z" fill="#263238"/>
<path d="M124.042 187.335H89.5156V191.472H124.042V187.335Z" fill="#8BAA36"/>
<path d="M180.583 197.537H89.5156V200.186H180.583V197.537Z" fill="#E0E0E0"/>
<path d="M180.583 202.835H89.5156V205.484H180.583V202.835Z" fill="#E0E0E0"/>
<path d="M156.377 218.485H154.654V219.964H153.377V218.485H151.653V217.427H153.377V215.939H154.654V217.427H156.377V218.485Z" fill="#8BAA36"/>
<path d="M165.644 214.9V221.04H164.037V216.07H162.654V214.937L165.644 214.9Z" fill="#8BAA36"/>
<path d="M172.582 218.007H175.391V219.093H172.582V218.007Z" fill="#8BAA36"/>
<path d="M180.584 224.999C180.584 224.999 180.584 224.906 180.584 224.728C180.584 224.55 180.584 224.279 180.584 223.97C180.584 223.277 180.584 222.313 180.53 221.096C180.53 218.597 180.467 215.04 180.424 210.679L180.626 210.856L146.227 210.922L146.504 210.679V218.045C146.504 220.441 146.504 222.725 146.504 224.981L146.238 224.756L170.869 224.859L178.03 224.924H179.956H180.637C180.431 224.938 180.225 224.938 180.02 224.924H178.147L171.05 224.99L146.238 225.102H145.972V224.868C145.972 222.65 145.972 220.329 145.972 217.933V210.744C145.908 210.744 146.493 210.276 146.248 210.491L180.647 210.557H180.85V210.744C180.85 215.153 180.775 218.747 180.743 221.274C180.743 222.472 180.743 223.417 180.69 224.082V224.803C180.605 224.924 180.594 225.009 180.584 224.999Z" fill="#263238"/>
<path d="M96.4631 220.432C95.8552 220.902 95.0893 221.185 94.2819 221.237V222.481H93.0157V221.265C92.411 221.241 91.8129 221.144 91.2389 220.975C90.747 220.85 90.2853 220.647 89.877 220.375L90.5685 219.028C90.9124 219.243 91.2883 219.417 91.6857 219.542C92.1122 219.688 92.56 219.779 93.0157 219.814V217.942C92.5009 217.835 91.9959 217.694 91.5049 217.521C91.0918 217.373 90.7263 217.139 90.4409 216.837C90.1503 216.492 90.0037 216.069 90.0259 215.639C90.0225 215.343 90.0889 215.05 90.2207 214.778C90.3526 214.506 90.5471 214.26 90.792 214.057C91.4043 213.582 92.1791 213.298 92.9945 213.253V212.026H94.2606V213.234C95.1613 213.273 96.0377 213.504 96.8142 213.908L96.1865 215.274C95.596 214.97 94.9404 214.775 94.2606 214.703V216.575C94.7687 216.674 95.2668 216.809 95.7502 216.978C96.1625 217.127 96.5276 217.361 96.8142 217.661C97.1049 218 97.2517 218.417 97.2292 218.84C97.236 219.138 97.1713 219.434 97.0393 219.708C96.9073 219.982 96.7109 220.229 96.4631 220.432ZM92.3241 216.023C92.5281 216.167 92.7636 216.272 93.0157 216.332V214.75C92.749 214.796 92.5021 214.906 92.3029 215.068C92.1554 215.204 92.0751 215.386 92.0794 215.574C92.0773 215.66 92.0984 215.746 92.1409 215.824C92.1834 215.902 92.2462 215.97 92.3241 216.023ZM94.9522 219.477C95.0278 219.417 95.0878 219.343 95.1281 219.261C95.1685 219.178 95.1884 219.089 95.1863 219C95.1896 218.914 95.1702 218.829 95.1296 218.751C95.0889 218.673 95.0282 218.604 94.9522 218.55C94.7536 218.41 94.5259 218.305 94.2819 218.241V219.767C94.5338 219.733 94.7678 219.632 94.9522 219.477Z" fill="#E0E0E0"/>
<path d="M105.135 220.432C104.528 220.904 103.762 221.187 102.954 221.237V222.481H101.688V221.265C101.083 221.24 100.485 221.143 99.9107 220.975C99.4188 220.85 98.9572 220.647 98.5488 220.375L99.2404 219.028C99.5868 219.245 99.9665 219.419 100.368 219.542C100.791 219.688 101.235 219.779 101.688 219.814V217.942C101.173 217.833 100.668 217.693 100.177 217.521C99.763 217.374 99.3973 217.139 99.1127 216.837C98.8184 216.493 98.6681 216.07 98.6872 215.639C98.6838 215.343 98.7501 215.05 98.882 214.778C99.0138 214.506 99.2083 214.26 99.4532 214.057C100.066 213.582 100.84 213.298 101.656 213.253V212.026H102.922V213.234C103.826 213.275 104.705 213.506 105.486 213.908L104.848 215.274C104.257 214.97 103.602 214.775 102.922 214.703V216.575C103.43 216.674 103.928 216.809 104.411 216.978C104.825 217.124 105.191 217.359 105.475 217.661C105.766 218 105.913 218.417 105.89 218.84C105.899 219.137 105.836 219.433 105.705 219.707C105.575 219.981 105.381 220.228 105.135 220.432ZM100.996 216.023C101.201 216.165 101.436 216.27 101.688 216.332V214.75C101.423 214.793 101.179 214.904 100.985 215.068C100.835 215.203 100.751 215.385 100.751 215.574C100.749 215.66 100.77 215.746 100.813 215.824C100.855 215.902 100.918 215.97 100.996 216.023ZM103.635 219.477C103.707 219.415 103.765 219.341 103.803 219.259C103.841 219.177 103.86 219.088 103.858 219C103.862 218.914 103.842 218.829 103.801 218.751C103.761 218.673 103.7 218.604 103.624 218.55C103.427 218.408 103.199 218.303 102.954 218.241V219.767C103.209 219.733 103.446 219.632 103.635 219.477Z" fill="#E0E0E0"/>
<path d="M77.9925 229.988C77.8329 229.988 77.7158 218.438 77.7158 204.201C77.7158 189.965 77.8329 178.424 77.9925 178.424C78.1521 178.424 78.2691 189.965 78.2691 204.201C78.2691 218.438 78.1627 229.988 77.9925 229.988Z" fill="#263238"/>
<path d="M51.0305 201.085C52.0565 199.874 52.6891 198.441 52.8606 196.938C53.0731 195.594 52.821 194.224 52.1371 193.007C52.0839 192.923 52.0307 192.829 51.9243 192.801C51.8219 192.765 51.7074 192.765 51.6051 192.801C50.7515 193.172 50.0245 193.735 49.4975 194.432C48.9705 195.129 48.6622 195.937 48.6039 196.773C48.5456 197.609 48.7393 198.443 49.1654 199.192C49.5915 199.941 50.2349 200.578 51.0305 201.038" fill="#455A64"/>
<path d="M54.3393 197.64C55.5544 197.234 56.6211 196.545 57.4249 195.646C58.1944 194.856 58.6664 193.875 58.7762 192.838C58.8069 192.772 58.8069 192.698 58.7762 192.632C58.7166 192.58 58.6367 192.55 58.5527 192.548C57.8373 192.479 57.1139 192.578 56.4558 192.834C55.7977 193.091 55.2282 193.495 54.8049 194.007C54.3816 194.519 54.1196 195.12 54.0453 195.75C53.971 196.38 54.0871 197.016 54.3818 197.593" fill="#455A64"/>
<path d="M53.7756 200.982C53.8548 200.64 53.8285 200.287 53.6993 199.957C53.5702 199.628 53.343 199.335 53.0415 199.11C52.4427 198.675 51.6894 198.44 50.9135 198.445C50.2238 198.425 49.5429 198.585 48.9557 198.904C48.6621 199.064 48.4075 199.274 48.2066 199.521C48.0058 199.769 47.8625 200.049 47.7853 200.345C47.7138 200.721 47.7513 201.107 47.8946 201.467C48.0378 201.827 48.282 202.149 48.6046 202.404C49.2592 202.911 50.1053 203.185 50.9773 203.172C51.7097 203.187 52.4211 202.956 52.967 202.526C53.2206 202.331 53.4267 202.093 53.5729 201.826C53.7192 201.559 53.8026 201.268 53.8182 200.972" fill="#8BAA36"/>
<path d="M61.2773 202.863C64.2246 203.322 67.1506 200.448 67.8529 198.585C67.9079 198.493 67.9366 198.39 67.9366 198.286C67.9366 198.182 67.9079 198.079 67.8529 197.986C67.7611 197.909 67.6474 197.856 67.5238 197.831C67.4001 197.806 67.2712 197.811 67.1506 197.846C65.6943 198.019 64.3401 198.6 63.2883 199.503C62.2408 200.411 61.5447 201.587 61.2986 202.863" fill="#455A64"/>
<path d="M43.0506 197.397C43.1298 197.055 43.1035 196.702 42.9743 196.372C42.8452 196.043 42.618 195.75 42.3165 195.525C41.715 195.095 40.9635 194.86 40.1885 194.86C39.4985 194.849 38.8192 195.011 38.2307 195.328C37.8921 195.5 37.6053 195.74 37.3946 196.03C37.1838 196.319 37.0553 196.649 37.0198 196.991C36.9844 197.333 37.043 197.678 37.1908 197.996C37.3386 198.315 37.5712 198.597 37.869 198.819C38.5252 199.33 39.3763 199.604 40.2523 199.587C40.9847 199.602 41.6961 199.371 42.242 198.941C42.4956 198.746 42.7017 198.508 42.8479 198.241C42.9942 197.974 43.0776 197.683 43.0932 197.387" fill="#8BAA36"/>
<path d="M49.3918 202.002C49.1614 200.505 48.4737 199.092 47.4022 197.912C46.4909 196.815 45.2216 195.989 43.7633 195.543C43.6637 195.511 43.5543 195.511 43.4547 195.543C43.4051 195.568 43.3622 195.601 43.3291 195.642C43.296 195.682 43.2734 195.728 43.2632 195.777C42.948 196.567 42.8754 197.416 43.0526 198.238C43.2298 199.06 43.6505 199.827 44.2723 200.46C44.8941 201.094 45.6949 201.572 46.5938 201.846C47.4927 202.119 48.4579 202.18 49.3918 202.021" fill="#455A64"/>
<path d="M38.6247 199.69C38.0438 199.108 37.5239 198.482 37.0713 197.818C36.6244 197.135 36.3964 196.359 36.4116 195.571C36.4095 195.513 36.4206 195.455 36.4443 195.4C36.4681 195.345 36.504 195.295 36.5499 195.253C36.6103 195.23 36.6755 195.218 36.7414 195.218C36.8074 195.218 36.8726 195.23 36.933 195.253C38.5956 195.583 40.0991 196.362 41.2326 197.482C42.3661 198.602 43.0726 200.005 43.2531 201.496L43.3382 201.889C41.9327 202.615 40.2623 202.833 38.6779 202.498C37.3981 202.294 36.1762 201.871 35.0816 201.253C33.9854 200.619 33.2053 199.642 32.9004 198.52C33.8938 198.336 34.9209 198.346 35.9096 198.548C36.8984 198.75 37.825 199.14 38.6247 199.69Z" fill="#455A64"/>
<path d="M56.9998 197.406C58.4527 196.212 60.2603 195.404 62.2134 195.075C62.3305 195.933 62.2536 196.803 61.9871 197.634C61.7207 198.466 61.2699 199.243 60.6607 199.921C60.0515 200.598 59.296 201.163 58.4376 201.583C57.5793 202.003 56.635 202.269 55.6592 202.367L55.5421 202.18C55.2667 201.343 55.257 200.455 55.5139 199.614C55.7709 198.772 56.2847 198.009 56.9998 197.406Z" fill="#455A64"/>
<path d="M67.1821 201.01C66.0631 204.833 64.0521 208.409 61.2769 211.512C54.7546 218.578 39.9969 216.613 36.0282 211.081C34.4854 208.966 30.4209 201.085 30.4209 201.085L67.1821 201.01Z" fill="#FAFAFA"/>
<path d="M67.1817 201.01H66.4475H64.3195H56.5736L30.3779 201.113L30.4737 200.972C31.6654 203.265 32.9316 205.652 34.2828 208.039C34.634 208.657 34.9957 209.265 35.3468 209.911C35.6879 210.513 36.1016 211.081 36.581 211.605C37.54 212.623 38.7283 213.455 40.071 214.048C42.5996 215.206 45.3931 215.846 48.2425 215.92C50.8202 216.026 53.3943 215.653 55.7969 214.825C57.8825 214.091 59.7312 212.918 61.1808 211.409C63.2058 209.162 64.8277 206.655 65.99 203.977C66.405 203.041 66.6816 202.273 66.8625 201.768L67.1179 200.981C66.8535 202.012 66.4977 203.023 66.0539 204.005C64.9105 206.701 63.3028 209.226 61.2871 211.493C59.825 213.03 57.9537 214.227 55.8395 214.975C53.4162 215.822 50.8154 216.205 48.2106 216.098C45.3287 216.036 42.5009 215.396 39.9433 214.226C38.5762 213.62 37.3663 212.773 36.3895 211.736C35.9041 211.2 35.48 210.623 35.1234 210.014C34.7616 209.405 34.3999 208.788 34.0594 208.142C32.6975 205.746 31.4419 203.368 30.2396 201.075L30.1758 200.935H67.1072L67.1817 201.01Z" fill="#263238"/>
<path d="M64.7666 206.289C64.7666 206.345 57.7122 206.383 49.0087 206.383C40.3052 206.383 33.2402 206.383 33.2402 206.289C33.2402 206.195 40.2946 206.195 49.0087 206.195C57.7229 206.195 64.7666 206.233 64.7666 206.289Z" fill="#8BAA36"/>
<path d="M65.4053 205.493C65.4053 205.55 58.0956 205.587 49.0835 205.587C40.0714 205.587 32.7617 205.587 32.7617 205.493C32.7617 205.4 40.0608 205.39 49.0835 205.39C58.1062 205.39 65.4053 205.437 65.4053 205.493Z" fill="#8BAA36"/>
<path d="M78.8286 235.178H19.1914V286.573H78.8286V235.178Z" fill="#EBEBEB"/>
<path d="M19.1915 235.178H20.0321H22.5218H32.2255L68.5079 235.112L193.209 235H193.475V235.243C193.475 251.446 193.475 268.762 193.475 286.62V286.864H193.198L19.1809 286.78H19V286.527C19 270.4 19.0745 257.511 19.1064 248.694C19.1064 244.304 19.1064 240.906 19.1064 238.604C19.1064 237.471 19.1064 236.601 19.1064 236.011C19.1064 235.421 19.1064 235.14 19.1064 235.14C19.1064 235.14 19.1064 235.449 19.1064 236.076C19.1064 236.704 19.1064 237.555 19.1064 238.697C19.1064 241.018 19.1064 244.416 19.1064 248.834C19.1064 257.651 19.1702 270.474 19.2128 286.564L19.0213 286.405L193.038 286.321L192.762 286.564V235.178L193.038 235.412L68.5504 235.3L32.1936 235.234H22.4473H19.915L19.1915 235.178Z" fill="#263238"/>
<path d="M124.921 244.397H90.3945V248.534H124.921V244.397Z" fill="#8BAA36"/>
<path d="M181.462 254.6H90.3945V257.249H181.462V254.6Z" fill="#E0E0E0"/>
<path d="M181.462 259.898H90.3945V262.546H181.462V259.898Z" fill="#E0E0E0"/>
<path d="M157.256 275.548H155.533V277.026H154.256V275.548H152.532V274.49H154.256V273.002H155.533V274.49H157.256V275.548Z" fill="#8BAA36"/>
<path d="M166.523 271.963V278.103H164.916V273.133H163.533V272L166.523 271.963Z" fill="#8BAA36"/>
<path d="M173.461 275.07H176.27V276.156H173.461V275.07Z" fill="#8BAA36"/>
<path d="M181.463 282.062C181.463 282.062 181.463 281.968 181.463 281.791C181.463 281.613 181.463 281.341 181.463 281.032C181.463 280.34 181.463 279.376 181.409 278.159C181.409 275.66 181.345 272.103 181.303 267.741L181.505 267.919L147.106 267.985L147.383 267.741V275.108C147.383 277.504 147.383 279.788 147.383 282.043L147.117 281.819L171.748 281.922L178.909 281.987H180.835H181.516C181.31 282 181.104 282 180.899 281.987H179.026L171.929 282.053L147.117 282.165H146.851V281.931C146.851 279.713 146.851 277.391 146.851 274.995V267.807C146.787 267.807 147.372 267.339 147.127 267.554L181.526 267.62H181.729V267.807C181.729 272.215 181.654 275.81 181.622 278.337C181.622 279.535 181.622 280.48 181.569 281.145V281.865C181.484 281.987 181.473 282.071 181.463 282.062Z" fill="#263238"/>
<path d="M97.342 277.494C96.7341 277.965 95.9682 278.247 95.1608 278.299V279.544H93.8946V278.327C93.2899 278.304 92.6918 278.206 92.1178 278.037C91.6259 277.913 91.1642 277.71 90.7559 277.438L91.4475 276.09C91.7913 276.306 92.1672 276.479 92.5646 276.605C92.9911 276.751 93.4389 276.842 93.8946 276.877V275.005C93.3798 274.897 92.8748 274.757 92.3838 274.583C91.9707 274.436 91.6053 274.201 91.3198 273.9C91.0292 273.555 90.8827 273.132 90.9048 272.702C90.9015 272.406 90.9678 272.113 91.0996 271.841C91.2315 271.568 91.426 271.323 91.6709 271.12C92.2832 270.644 93.058 270.361 93.8734 270.315V269.089H95.1395V270.297C96.0402 270.336 96.9166 270.567 97.6931 270.97L97.0654 272.337C96.4749 272.032 95.8193 271.838 95.1395 271.766V273.638C95.6476 273.737 96.1458 273.871 96.6291 274.041C97.0414 274.189 97.4065 274.424 97.6931 274.724C97.9838 275.062 98.1306 275.479 98.1081 275.903C98.1149 276.201 98.0502 276.497 97.9182 276.771C97.7862 277.045 97.5898 277.292 97.342 277.494ZM93.203 273.086C93.4071 273.229 93.6425 273.335 93.8946 273.395V271.813C93.6279 271.858 93.381 271.969 93.1818 272.131C93.0344 272.267 92.954 272.449 92.9583 272.637C92.9562 272.723 92.9773 272.809 93.0198 272.887C93.0623 272.965 93.1251 273.033 93.203 273.086ZM95.8311 276.54C95.9067 276.479 95.9667 276.406 96.0071 276.323C96.0474 276.241 96.0673 276.152 96.0652 276.062C96.0685 275.977 96.0491 275.891 96.0085 275.813C95.9679 275.735 95.9071 275.667 95.8311 275.613C95.6325 275.473 95.4048 275.368 95.1608 275.304V276.83C95.4127 276.796 95.6467 276.694 95.8311 276.54Z" fill="#E0E0E0"/>
<path d="M106.014 277.494C105.407 277.966 104.641 278.249 103.833 278.299V279.544H102.567V278.327C101.962 278.303 101.364 278.206 100.79 278.037C100.298 277.913 99.8361 277.71 99.4277 277.438L100.119 276.09C100.466 276.308 100.845 276.481 101.247 276.605C101.67 276.75 102.114 276.842 102.567 276.877V275.005C102.052 274.896 101.547 274.755 101.056 274.583C100.642 274.437 100.276 274.202 99.9917 273.9C99.6973 273.556 99.547 273.133 99.5661 272.702C99.5627 272.406 99.629 272.113 99.7609 271.841C99.8927 271.568 100.087 271.323 100.332 271.12C100.944 270.644 101.719 270.361 102.535 270.315V269.089H103.801V270.297C104.705 270.337 105.584 270.568 106.365 270.97L105.727 272.337C105.136 272.032 104.48 271.838 103.801 271.766V273.638C104.309 273.737 104.807 273.871 105.29 274.041C105.704 274.187 106.07 274.422 106.354 274.724C106.645 275.062 106.792 275.479 106.769 275.903C106.777 276.2 106.714 276.495 106.584 276.77C106.454 277.044 106.26 277.291 106.014 277.494ZM101.875 273.086C102.08 273.228 102.315 273.333 102.567 273.395V271.813C102.302 271.856 102.058 271.967 101.864 272.131C101.714 272.266 101.63 272.448 101.63 272.637C101.628 272.723 101.649 272.809 101.692 272.887C101.734 272.965 101.797 273.033 101.875 273.086ZM104.514 276.54C104.586 276.478 104.644 276.404 104.682 276.321C104.72 276.239 104.739 276.151 104.737 276.062C104.74 275.977 104.721 275.891 104.68 275.813C104.64 275.735 104.579 275.667 104.503 275.613C104.306 275.471 104.078 275.366 103.833 275.304V276.83C104.088 276.796 104.325 276.695 104.514 276.54Z" fill="#E0E0E0"/>
<path d="M78.8714 287.051C78.7118 287.051 78.5947 275.501 78.5947 261.264C78.5947 247.028 78.7118 235.487 78.8714 235.487C79.031 235.487 79.148 247.028 79.148 261.264C79.148 275.501 79.0416 287.051 78.8714 287.051Z" fill="#263238"/>
<path d="M51.9094 258.147C52.9354 256.937 53.568 255.503 53.7395 254.001C53.952 252.656 53.6999 251.287 53.016 250.07C52.9628 249.985 52.9096 249.892 52.8032 249.864C52.7008 249.827 52.5863 249.827 52.484 249.864C51.6304 250.235 50.9034 250.797 50.3764 251.495C49.8494 252.192 49.5411 253 49.4828 253.836C49.4245 254.672 49.6182 255.506 50.0443 256.255C50.4704 257.004 51.1138 257.641 51.9094 258.101" fill="#455A64"/>
<path d="M55.2182 254.703C56.4333 254.297 57.5 253.608 58.3038 252.709C59.0733 251.918 59.5453 250.937 59.6551 249.901C59.6858 249.835 59.6858 249.761 59.6551 249.695C59.5955 249.643 59.5156 249.613 59.4316 249.611C58.7162 249.542 57.9928 249.641 57.3347 249.897C56.6766 250.153 56.1071 250.558 55.6838 251.07C55.2605 251.582 54.9985 252.183 54.9242 252.813C54.8499 253.443 54.966 254.078 55.2607 254.656" fill="#455A64"/>
<path d="M54.6545 258.044C54.7337 257.703 54.7074 257.349 54.5782 257.02C54.4491 256.691 54.2219 256.398 53.9204 256.172C53.3216 255.738 52.5683 255.503 51.7924 255.508C51.1027 255.488 50.4218 255.648 49.8346 255.966C49.541 256.127 49.2864 256.337 49.0855 256.584C48.8847 256.832 48.7415 257.111 48.6642 257.408C48.5927 257.784 48.6303 258.17 48.7735 258.53C48.9167 258.89 49.1609 259.212 49.4835 259.467C50.1381 259.974 50.9842 260.248 51.8562 260.235C52.5886 260.249 53.3 260.019 53.8459 259.589C54.0995 259.394 54.3056 259.155 54.4519 258.888C54.5981 258.621 54.6815 258.331 54.6971 258.035" fill="#8BAA36"/>
<path d="M62.1562 259.926C65.1035 260.384 68.0295 257.511 68.7318 255.648C68.7868 255.556 68.8155 255.453 68.8155 255.349C68.8155 255.244 68.7868 255.141 68.7318 255.049C68.64 254.972 68.5263 254.918 68.4027 254.894C68.279 254.869 68.1501 254.874 68.0295 254.909C66.5732 255.082 65.219 255.663 64.1672 256.565C63.1197 257.474 62.4236 258.65 62.1775 259.926" fill="#455A64"/>
<path d="M43.9295 254.459C44.0087 254.118 43.9824 253.764 43.8532 253.435C43.7241 253.106 43.4969 252.813 43.1954 252.587C42.5939 252.157 41.8424 251.923 41.0674 251.923C40.3774 251.911 39.6981 252.074 39.1096 252.391C38.771 252.562 38.4842 252.803 38.2735 253.092C38.0627 253.382 37.9342 253.712 37.8987 254.054C37.8633 254.396 37.9219 254.741 38.0697 255.059C38.2175 255.377 38.4501 255.66 38.7479 255.882C39.4041 256.393 40.2553 256.667 41.1312 256.65C41.8636 256.665 42.575 256.434 43.1209 256.004C43.3745 255.809 43.5806 255.57 43.7268 255.303C43.8731 255.036 43.9566 254.746 43.9721 254.45" fill="#8BAA36"/>
<path d="M50.2707 259.065C50.0403 257.568 49.3526 256.154 48.2811 254.974C47.3698 253.878 46.1005 253.052 44.6422 252.606C44.5426 252.574 44.4332 252.574 44.3336 252.606C44.284 252.63 44.2411 252.664 44.208 252.704C44.1749 252.745 44.1523 252.791 44.1421 252.84C43.8269 253.63 43.7543 254.479 43.9315 255.301C44.1087 256.123 44.5294 256.89 45.1512 257.523C45.773 258.157 46.5738 258.634 47.4727 258.908C48.3716 259.182 49.3368 259.243 50.2707 259.083" fill="#455A64"/>
<path d="M39.5036 256.753C38.9227 256.171 38.4028 255.544 37.9502 254.881C37.5033 254.198 37.2753 253.422 37.2905 252.634C37.2884 252.576 37.2995 252.517 37.3232 252.463C37.347 252.408 37.3829 252.358 37.4288 252.316C37.4892 252.293 37.5544 252.281 37.6204 252.281C37.6863 252.281 37.7515 252.293 37.8119 252.316C39.4745 252.646 40.978 253.425 42.1115 254.545C43.245 255.664 43.9515 257.068 44.132 258.559L44.2171 258.952C42.8116 259.678 41.1412 259.896 39.5568 259.561C38.277 259.357 37.0551 258.934 35.9605 258.316C34.8643 257.682 34.0842 256.705 33.7793 255.583C34.7727 255.399 35.7998 255.409 36.7885 255.611C37.7773 255.813 38.7039 256.203 39.5036 256.753Z" fill="#455A64"/>
<path d="M57.8787 254.469C59.3316 253.275 61.1392 252.466 63.0923 252.138C63.2094 252.996 63.1325 253.866 62.866 254.697C62.5996 255.529 62.1488 256.306 61.5396 256.983C60.9304 257.661 60.1749 258.226 59.3165 258.646C58.4582 259.066 57.5139 259.332 56.5381 259.43L56.421 259.242C56.1456 258.405 56.1359 257.518 56.3928 256.677C56.6498 255.835 57.1636 255.072 57.8787 254.469Z" fill="#455A64"/>
<path d="M68.061 258.072C66.9421 261.895 64.931 265.472 62.1558 268.574C55.6335 275.641 40.8758 273.676 36.9071 268.144C35.3643 266.028 31.2998 258.147 31.2998 258.147L68.061 258.072Z" fill="#FAFAFA"/>
<path d="M68.0606 258.072H67.3264H65.1984H57.4525L31.2569 258.175L31.3526 258.035C32.5443 260.328 33.8105 262.715 35.1617 265.102C35.5129 265.719 35.8746 266.328 36.2257 266.974C36.5668 267.576 36.9805 268.144 37.46 268.668C38.4189 269.686 39.6072 270.517 40.9499 271.111C43.4785 272.269 46.272 272.909 49.1214 272.983C51.6991 273.089 54.2732 272.716 56.6758 271.888C58.7614 271.154 60.6101 269.981 62.0597 268.471C64.0847 266.225 65.7066 263.718 66.8689 261.039C67.2839 260.103 67.5605 259.336 67.7414 258.83L67.9968 258.044C67.7324 259.075 67.3766 260.086 66.9328 261.068C65.7894 263.764 64.1817 266.289 62.166 268.556C60.7039 270.093 58.8326 271.289 56.7184 272.037C54.2951 272.885 51.6943 273.268 49.0895 273.161C46.2076 273.099 43.3798 272.459 40.8222 271.289C39.4551 270.683 38.2452 269.835 37.2684 268.799C36.783 268.263 36.3589 267.686 36.0023 267.077C35.6405 266.468 35.2788 265.85 34.9383 265.205C33.5764 262.808 32.3208 260.431 31.1185 258.138L31.0547 257.997H67.9861L68.0606 258.072Z" fill="#263238"/>
<path d="M65.6455 263.352C65.6455 263.408 58.5911 263.445 49.8876 263.445C41.1841 263.445 34.1191 263.445 34.1191 263.352C34.1191 263.258 41.1735 263.258 49.8876 263.258C58.6018 263.258 65.6455 263.295 65.6455 263.352Z" fill="#8BAA36"/>
<path d="M66.2842 262.556C66.2842 262.612 58.9745 262.65 49.9624 262.65C40.9503 262.65 33.6406 262.65 33.6406 262.556C33.6406 262.462 40.9397 262.453 49.9624 262.453C58.9851 262.453 66.2842 262.5 66.2842 262.556Z" fill="#8BAA36"/>
<path d="M79.8286 291.178H20.1914V342.573H79.8286V291.178Z" fill="#EBEBEB"/>
<path d="M20.1915 291.178H21.0321H23.5218H33.2255L69.5079 291.112L194.209 291H194.475V291.243C194.475 307.446 194.475 324.762 194.475 342.62V342.864H194.198L20.1809 342.78H20V342.527C20 326.4 20.0745 313.511 20.1064 304.694C20.1064 300.304 20.1064 296.906 20.1064 294.604C20.1064 293.471 20.1064 292.601 20.1064 292.011C20.1064 291.421 20.1064 291.14 20.1064 291.14C20.1064 291.14 20.1064 291.449 20.1064 292.076C20.1064 292.704 20.1064 293.555 20.1064 294.697C20.1064 297.018 20.1064 300.416 20.1064 304.834C20.1064 313.651 20.1702 326.474 20.2128 342.564L20.0213 342.405L194.038 342.321L193.762 342.564V291.178L194.038 291.412L69.5504 291.3L33.1936 291.234H23.4473H20.915L20.1915 291.178Z" fill="#263238"/>
<path d="M125.921 300.397H91.3945V304.534H125.921V300.397Z" fill="#8BAA36"/>
<path d="M182.462 310.6H91.3945V313.249H182.462V310.6Z" fill="#E0E0E0"/>
<path d="M182.462 315.898H91.3945V318.546H182.462V315.898Z" fill="#E0E0E0"/>
<path d="M158.256 331.548H156.533V333.026H155.256V331.548H153.532V330.49H155.256V329.002H156.533V330.49H158.256V331.548Z" fill="#8BAA36"/>
<path d="M167.523 327.963V334.103H165.916V329.133H164.533V328L167.523 327.963Z" fill="#8BAA36"/>
<path d="M174.461 331.07H177.27V332.156H174.461V331.07Z" fill="#8BAA36"/>
<path d="M182.463 338.062C182.463 338.062 182.463 337.968 182.463 337.791C182.463 337.613 182.463 337.341 182.463 337.032C182.463 336.34 182.463 335.376 182.409 334.159C182.409 331.66 182.345 328.103 182.303 323.741L182.505 323.919L148.106 323.985L148.383 323.741V331.108C148.383 333.504 148.383 335.788 148.383 338.043L148.117 337.819L172.748 337.922L179.909 337.987H181.835H182.516C182.31 338 182.104 338 181.899 337.987H180.026L172.929 338.053L148.117 338.165H147.851V337.931C147.851 335.713 147.851 333.391 147.851 330.995V323.807C147.787 323.807 148.372 323.339 148.127 323.554L182.526 323.62H182.729V323.807C182.729 328.215 182.654 331.81 182.622 334.337C182.622 335.535 182.622 336.48 182.569 337.145V337.865C182.484 337.987 182.473 338.071 182.463 338.062Z" fill="#263238"/>
<path d="M98.342 333.494C97.7341 333.965 96.9682 334.247 96.1608 334.299V335.544H94.8946V334.327C94.2899 334.304 93.6918 334.206 93.1178 334.037C92.6259 333.913 92.1642 333.71 91.7559 333.438L92.4475 332.09C92.7913 332.306 93.1672 332.479 93.5646 332.605C93.9911 332.751 94.4389 332.842 94.8946 332.877V331.005C94.3798 330.897 93.8748 330.757 93.3838 330.583C92.9707 330.436 92.6053 330.201 92.3198 329.9C92.0292 329.555 91.8827 329.132 91.9048 328.702C91.9015 328.406 91.9678 328.113 92.0996 327.841C92.2315 327.568 92.426 327.323 92.6709 327.12C93.2832 326.644 94.058 326.361 94.8734 326.315V325.089H96.1395V326.297C97.0402 326.336 97.9166 326.567 98.6931 326.97L98.0654 328.337C97.4749 328.032 96.8193 327.838 96.1395 327.766V329.638C96.6476 329.737 97.1458 329.871 97.6291 330.041C98.0414 330.189 98.4065 330.424 98.6931 330.724C98.9838 331.062 99.1306 331.479 99.1081 331.903C99.1149 332.201 99.0502 332.497 98.9182 332.771C98.7862 333.045 98.5898 333.292 98.342 333.494ZM94.203 329.086C94.4071 329.229 94.6425 329.335 94.8946 329.395V327.813C94.6279 327.858 94.381 327.969 94.1818 328.131C94.0344 328.267 93.954 328.449 93.9583 328.637C93.9562 328.723 93.9773 328.809 94.0198 328.887C94.0623 328.965 94.1251 329.033 94.203 329.086ZM96.8311 332.54C96.9067 332.479 96.9667 332.406 97.0071 332.323C97.0474 332.241 97.0673 332.152 97.0652 332.062C97.0685 331.977 97.0491 331.891 97.0085 331.813C96.9679 331.735 96.9071 331.667 96.8311 331.613C96.6325 331.473 96.4048 331.368 96.1608 331.304V332.83C96.4127 332.796 96.6467 332.694 96.8311 332.54Z" fill="#E0E0E0"/>
<path d="M107.014 333.494C106.407 333.966 105.641 334.249 104.833 334.299V335.544H103.567V334.327C102.962 334.303 102.364 334.206 101.79 334.037C101.298 333.913 100.836 333.71 100.428 333.438L101.119 332.09C101.466 332.308 101.845 332.481 102.247 332.605C102.67 332.75 103.114 332.842 103.567 332.877V331.005C103.052 330.896 102.547 330.755 102.056 330.583C101.642 330.437 101.276 330.202 100.992 329.9C100.697 329.556 100.547 329.133 100.566 328.702C100.563 328.406 100.629 328.113 100.761 327.841C100.893 327.568 101.087 327.323 101.332 327.12C101.944 326.644 102.719 326.361 103.535 326.315V325.089H104.801V326.297C105.705 326.337 106.584 326.568 107.365 326.97L106.727 328.337C106.136 328.032 105.48 327.838 104.801 327.766V329.638C105.309 329.737 105.807 329.871 106.29 330.041C106.704 330.187 107.07 330.422 107.354 330.724C107.645 331.062 107.792 331.479 107.769 331.903C107.777 332.2 107.714 332.495 107.584 332.77C107.454 333.044 107.26 333.291 107.014 333.494ZM102.875 329.086C103.08 329.228 103.315 329.333 103.567 329.395V327.813C103.302 327.856 103.058 327.967 102.864 328.131C102.714 328.266 102.63 328.448 102.63 328.637C102.628 328.723 102.649 328.809 102.692 328.887C102.734 328.965 102.797 329.033 102.875 329.086ZM105.514 332.54C105.586 332.478 105.644 332.404 105.682 332.321C105.72 332.239 105.739 332.151 105.737 332.062C105.74 331.977 105.721 331.891 105.68 331.813C105.64 331.735 105.579 331.667 105.503 331.613C105.306 331.471 105.078 331.366 104.833 331.304V332.83C105.088 332.796 105.325 332.695 105.514 332.54Z" fill="#E0E0E0"/>
<path d="M79.8714 343.051C79.7118 343.051 79.5947 331.501 79.5947 317.264C79.5947 303.028 79.7118 291.487 79.8714 291.487C80.031 291.487 80.148 303.028 80.148 317.264C80.148 331.501 80.0416 343.051 79.8714 343.051Z" fill="#263238"/>
<path d="M52.9094 314.147C53.9354 312.937 54.568 311.503 54.7395 310.001C54.952 308.656 54.6999 307.287 54.016 306.07C53.9628 305.985 53.9096 305.892 53.8032 305.864C53.7008 305.827 53.5863 305.827 53.484 305.864C52.6304 306.235 51.9034 306.797 51.3764 307.495C50.8494 308.192 50.5411 309 50.4828 309.836C50.4245 310.672 50.6182 311.506 51.0443 312.255C51.4704 313.004 52.1138 313.641 52.9094 314.101" fill="#455A64"/>
<path d="M56.2182 310.703C57.4333 310.297 58.5 309.608 59.3038 308.709C60.0733 307.918 60.5453 306.937 60.6551 305.901C60.6858 305.835 60.6858 305.761 60.6551 305.695C60.5955 305.643 60.5156 305.613 60.4316 305.611C59.7162 305.542 58.9928 305.641 58.3347 305.897C57.6766 306.153 57.1071 306.558 56.6838 307.07C56.2605 307.582 55.9985 308.183 55.9242 308.813C55.8499 309.443 55.966 310.078 56.2607 310.656" fill="#455A64"/>
<path d="M55.6545 314.044C55.7337 313.703 55.7074 313.349 55.5782 313.02C55.4491 312.691 55.2219 312.398 54.9204 312.172C54.3216 311.738 53.5683 311.503 52.7924 311.508C52.1027 311.488 51.4218 311.648 50.8346 311.966C50.541 312.127 50.2864 312.337 50.0855 312.584C49.8847 312.832 49.7415 313.111 49.6642 313.408C49.5927 313.784 49.6303 314.17 49.7735 314.53C49.9167 314.89 50.1609 315.212 50.4835 315.467C51.1381 315.974 51.9842 316.248 52.8562 316.235C53.5886 316.249 54.3 316.019 54.8459 315.589C55.0995 315.394 55.3056 315.155 55.4519 314.888C55.5981 314.621 55.6815 314.331 55.6971 314.035" fill="#8BAA36"/>
<path d="M63.1562 315.926C66.1035 316.384 69.0295 313.511 69.7318 311.648C69.7868 311.556 69.8155 311.453 69.8155 311.349C69.8155 311.244 69.7868 311.141 69.7318 311.049C69.64 310.972 69.5263 310.918 69.4027 310.894C69.279 310.869 69.1501 310.874 69.0295 310.909C67.5732 311.082 66.219 311.663 65.1672 312.565C64.1197 313.474 63.4236 314.65 63.1775 315.926" fill="#455A64"/>
<path d="M44.9295 310.459C45.0087 310.118 44.9824 309.764 44.8532 309.435C44.7241 309.106 44.4969 308.813 44.1954 308.587C43.5939 308.157 42.8424 307.923 42.0674 307.923C41.3774 307.911 40.6981 308.074 40.1096 308.391C39.771 308.562 39.4842 308.803 39.2735 309.092C39.0627 309.382 38.9342 309.712 38.8987 310.054C38.8633 310.396 38.9219 310.741 39.0697 311.059C39.2175 311.377 39.4501 311.66 39.7479 311.882C40.4041 312.393 41.2553 312.667 42.1312 312.65C42.8636 312.665 43.575 312.434 44.1209 312.004C44.3745 311.809 44.5806 311.57 44.7268 311.303C44.8731 311.036 44.9566 310.746 44.9721 310.45" fill="#8BAA36"/>
<path d="M51.2707 315.065C51.0403 313.568 50.3526 312.154 49.2811 310.974C48.3698 309.878 47.1005 309.052 45.6422 308.606C45.5426 308.574 45.4332 308.574 45.3336 308.606C45.284 308.63 45.2411 308.664 45.208 308.704C45.1749 308.745 45.1523 308.791 45.1421 308.84C44.8269 309.63 44.7543 310.479 44.9315 311.301C45.1087 312.123 45.5294 312.89 46.1512 313.523C46.773 314.157 47.5738 314.634 48.4727 314.908C49.3716 315.182 50.3368 315.243 51.2707 315.083" fill="#455A64"/>
<path d="M40.5036 312.753C39.9227 312.171 39.4028 311.544 38.9502 310.881C38.5033 310.198 38.2753 309.422 38.2905 308.634C38.2884 308.576 38.2995 308.517 38.3232 308.463C38.347 308.408 38.3829 308.358 38.4288 308.316C38.4892 308.293 38.5544 308.281 38.6204 308.281C38.6863 308.281 38.7515 308.293 38.8119 308.316C40.4745 308.646 41.978 309.425 43.1115 310.545C44.245 311.664 44.9515 313.068 45.132 314.559L45.2171 314.952C43.8116 315.678 42.1412 315.896 40.5568 315.561C39.277 315.357 38.0551 314.934 36.9605 314.316C35.8643 313.682 35.0842 312.705 34.7793 311.583C35.7727 311.399 36.7998 311.409 37.7885 311.611C38.7773 311.813 39.7039 312.203 40.5036 312.753Z" fill="#455A64"/>
<path d="M58.8787 310.469C60.3316 309.275 62.1392 308.466 64.0923 308.138C64.2094 308.996 64.1325 309.866 63.866 310.697C63.5996 311.529 63.1488 312.306 62.5396 312.983C61.9304 313.661 61.1749 314.226 60.3165 314.646C59.4582 315.066 58.5139 315.332 57.5381 315.43L57.421 315.242C57.1456 314.405 57.1359 313.518 57.3928 312.677C57.6498 311.835 58.1636 311.072 58.8787 310.469Z" fill="#455A64"/>
<path d="M69.061 314.072C67.9421 317.895 65.931 321.472 63.1558 324.574C56.6335 331.641 41.8758 329.676 37.9071 324.144C36.3643 322.028 32.2998 314.147 32.2998 314.147L69.061 314.072Z" fill="#FAFAFA"/>
<path d="M69.0606 314.072H68.3264H66.1984H58.4525L32.2569 314.175L32.3526 314.035C33.5443 316.328 34.8105 318.715 36.1617 321.102C36.5129 321.719 36.8746 322.328 37.2257 322.974C37.5668 323.576 37.9805 324.144 38.46 324.668C39.4189 325.686 40.6072 326.517 41.9499 327.111C44.4785 328.269 47.272 328.909 50.1214 328.983C52.6991 329.089 55.2732 328.716 57.6758 327.888C59.7614 327.154 61.6101 325.981 63.0597 324.471C65.0847 322.225 66.7066 319.718 67.8689 317.039C68.2839 316.103 68.5605 315.336 68.7414 314.83L68.9968 314.044C68.7324 315.075 68.3766 316.086 67.9328 317.068C66.7894 319.764 65.1817 322.289 63.166 324.556C61.7039 326.093 59.8326 327.289 57.7184 328.037C55.2951 328.885 52.6943 329.268 50.0895 329.161C47.2076 329.099 44.3798 328.459 41.8222 327.289C40.4551 326.683 39.2452 325.835 38.2684 324.799C37.783 324.263 37.3589 323.686 37.0023 323.077C36.6405 322.468 36.2788 321.85 35.9383 321.205C34.5764 318.808 33.3208 316.431 32.1185 314.138L32.0547 313.997H68.9861L69.0606 314.072Z" fill="#263238"/>
<path d="M66.6455 319.352C66.6455 319.408 59.5911 319.445 50.8876 319.445C42.1841 319.445 35.1191 319.445 35.1191 319.352C35.1191 319.258 42.1735 319.258 50.8876 319.258C59.6018 319.258 66.6455 319.295 66.6455 319.352Z" fill="#8BAA36"/>
<path d="M67.2842 318.556C67.2842 318.612 59.9745 318.65 50.9624 318.65C41.9503 318.65 34.6406 318.65 34.6406 318.556C34.6406 318.462 41.9397 318.453 50.9624 318.453C59.9851 318.453 67.2842 318.5 67.2842 318.556Z" fill="#8BAA36"/>
</svg>
