<svg width="68" height="68" viewBox="0 0 68 68" fill="none" xmlns="http://www.w3.org/2000/svg">
<rect width="68" height="68" rx="12" fill="#8BAA36"/>
<path d="M16.4014 16.5503V24.5489V24.7103V24.5489C16.4014 26.8327 17.3978 28.8548 18.9428 30.1634C19.6983 30.8034 20.1974 31.6674 20.1974 32.6265V45.9778C20.1974 47.4621 21.4729 48.6668 23.0445 48.6668C24.6161 48.6668 25.8916 47.4621 25.8916 45.9778V32.6265C25.8916 31.6674 26.3907 30.8034 27.1462 30.1634C28.6912 28.8548 29.6876 26.8327 29.6876 24.5489V16.5503V24.5489" stroke="#FAFAFA" fill='#8BAA36' stroke-width="3" stroke-linecap="round" stroke-linejoin="round"/>
<path d="M23.043 25.363V16.3999" stroke="#FAFAFA" fill='#8BAA36' stroke-width="3" stroke-linecap="round" stroke-linejoin="round"/>
<path d="M48.667 18.2858C48.667 17.2963 47.8166 16.4932 46.7689 16.4932H44.8709C41.7258 16.4932 39.1768 18.9006 39.1768 21.871V32.6267C39.1768 34.9643 40.7654 36.9343 42.9728 37.6747V45.9781C42.9728 47.4624 44.2483 48.667 45.8199 48.667C47.3915 48.667 48.667 47.4624 48.667 45.9781V38.0045V18.2858Z" stroke="#FAFAFA" fill='#8BAA36' stroke-width="3" stroke-linecap="round" stroke-linejoin="round"/>
</svg>
