<svg width="40" height="40" viewBox="0 0 40 40" fill="none" xmlns="http://www.w3.org/2000/svg">
<rect width="40" height="40" rx="12" fill="#8BAA36"/>
<path d="M8.79883 8.89551V13.9856V14.0882V13.9856C8.79883 15.4389 9.43295 16.7256 10.4161 17.5584C10.8969 17.9656 11.2145 18.5155 11.2145 19.1258V27.6221C11.2145 28.5667 12.0262 29.3333 13.0263 29.3333C14.0264 29.3333 14.838 28.5667 14.838 27.6221V19.1258C14.838 18.5155 15.1557 17.9656 15.6364 17.5584C16.6196 16.7256 17.2537 15.4389 17.2537 13.9856V8.89551V13.9856" stroke="#FAFAFA" stroke-width="2" stroke-linecap="round" stroke-linejoin="round"/>
<path d="M13.0254 14.5036V8.7998" stroke="#FAFAFA" stroke-width="2" stroke-linecap="round" stroke-linejoin="round"/>
<path d="M29.3322 9.99964C29.3322 9.36994 28.7911 8.85889 28.1243 8.85889H26.9165C24.9151 8.85889 23.293 10.3909 23.293 12.2811V19.1257C23.293 20.6132 24.3039 21.8669 25.7087 22.338V27.622C25.7087 28.5666 26.5203 29.3331 27.5204 29.3331C28.5205 29.3331 29.3322 28.5666 29.3322 27.622V22.5479V9.99964Z" stroke="#FAFAFA" stroke-width="2" stroke-linecap="round" stroke-linejoin="round"/>
</svg>
