<svg width="55" height="54" viewBox="0 0 55 54" fill="none" xmlns="http://www.w3.org/2000/svg">
<rect x="0.5" width="54" height="54" rx="12" fill="#8BAA36"/>
<path d="M13.5 13.1323V20.0735V20.2135V20.0735C13.5 22.0553 14.3647 23.81 15.7055 24.9456C16.361 25.501 16.7942 26.2508 16.7942 27.083V38.6692C16.7942 39.9573 17.901 41.0027 19.2648 41.0027C20.6286 41.0027 21.7355 39.9573 21.7355 38.6692V27.083C21.7355 26.2508 22.1687 25.501 22.8242 24.9456C24.165 23.81 25.0297 22.0553 25.0297 20.0735V13.1323V20.0735" stroke="#FAFAFA" fill='#8BAA36' stroke-width="2" stroke-linecap="round" stroke-linejoin="round"/>
<path d="M19.2607 20.7781V13" stroke="#FAFAFA" stroke-width="2" stroke-linecap="round" stroke-linejoin="round"/>
<path d="M41.5001 14.6362C41.5001 13.7775 40.7622 13.0806 39.853 13.0806H38.2059C35.4767 13.0806 33.2646 15.1698 33.2646 17.7474V27.0811C33.2646 29.1096 34.6433 30.8192 36.5588 31.4617V38.6673C36.5588 39.9553 37.6657 41.0007 39.0295 41.0007C40.3933 41.0007 41.5001 39.9553 41.5001 38.6673V31.7479V14.6362Z" stroke="#FAFAFA" fill='#8BAA36' stroke-width="2" stroke-linecap="round" stroke-linejoin="round"/>
</svg>
