<svg xmlns="http://www.w3.org/2000/svg" viewBox="0 0 750 500"><g id="freepik--background-complete--inject-17"><path d="M151,70.06c-2.45-4.74-6.13-8.85-11.5-10.36s-12.79,2.86-12.79,2.86A29,29,0,0,0,120,59.69c-7-1.57-18.12,3.89-19.7,10.65-5.93-3.6-17.59.53-21.38,6.64a28.62,28.62,0,0,0-2.66,6.83S68,86,65.27,91s-2.31,10.39-.63,15.46c.7,2.14,1.52,4.28,2.41,6.4a121.45,121.45,0,0,0,26.44,38.29A16.54,16.54,0,0,0,95,152.38c6.67,5.07,12.85,1.27,16-2,2.51,2.69,5.86,5,9.49,4.57,6.28-.79,9.88-4.34,13.11-5.51l0-.07,0,.06c3.09-1.48,8.15-1.58,13.1-5.52,2.87-2.27,3.53-6.3,3.36-10,4.55,0,11.59-1.78,12.63-10.09.07-.62.12-1.26.13-2a121.46,121.46,0,0,0-8.91-45.66Q152.59,73.07,151,70.06Z" style="fill:#ebebeb"></path><path d="M95.58,69.41c2.25,6.7,1.31,11.36.51,13.62a25.55,25.55,0,0,1,3.61-.57,19.11,19.11,0,0,0,9.79-3.54,27.2,27.2,0,0,1,3.05-2,71.06,71.06,0,0,1-7.28-8,26,26,0,0,1-2-2.9c-2.72-4.62-3.69-9.91-.71-16.41-7.78-8.37-14.19-.82-14.19-.82s.08,5.37,5.48,16.44A35.67,35.67,0,0,1,95.58,69.41Z" style="fill:#e0e0e0"></path><path d="M85.15,92.06c.26,0,0,3.68,1.15,9.44s4,13.36,8.21,21.32a216.51,216.51,0,0,0,11.66,19.85c3.23,4.93,5.31,7.94,5.15,8.06a9.14,9.14,0,0,1-1.73-1.91c-1-1.29-2.5-3.2-4.22-5.61a158.18,158.18,0,0,1-12.08-19.76c-4.2-8-7.11-15.84-7.94-21.78a38.77,38.77,0,0,1-.48-7A8.51,8.51,0,0,1,85.15,92.06Z" style="fill:#e0e0e0"></path><path d="M132.45,147.86c-.35.14-6.42-13.5-13.57-30.47s-12.66-30.86-12.31-31,6.43,13.5,13.57,30.48S132.8,147.71,132.45,147.86Z" style="fill:#e0e0e0"></path><path d="M119.45,74.8a5.53,5.53,0,0,1,2.88-.25,12,12,0,0,1,7,3.55,30.22,30.22,0,0,1,6.56,9.62c1.92,3.9,3.88,8.28,5.7,13A158.63,158.63,0,0,1,149,125.3c.69,3.22,1.13,5.84,1.39,7.66a11.75,11.75,0,0,1,.25,2.86c-.22,0-1-3.95-2.58-10.3a204.6,204.6,0,0,0-7.74-24.34c-1.81-4.65-3.72-9-5.57-12.92a30.61,30.61,0,0,0-6.1-9.47,12.09,12.09,0,0,0-6.42-3.71C120.49,74.75,119.46,74.92,119.45,74.8Z" style="fill:#e0e0e0"></path><path d="M118,75.19a17.6,17.6,0,0,0-4.59,1.88c-1.34.78-2.82,1.89-4.59,3.05a18.71,18.71,0,0,1-6.48,2.56c-2.38.54-4.74.7-6.68,1.1a20.21,20.21,0,0,0-5,1.8C87.9,87,87,88.79,86.8,88.68s.53-2.18,3.36-3.93a17.84,17.84,0,0,1,5.25-2.19c2.13-.52,4.36-.69,6.67-1.22a19.11,19.11,0,0,0,6.1-2.29c1.75-1.06,3.35-2.12,4.8-2.83C115.88,74.68,118.1,75,118,75.19Z" style="fill:#e0e0e0"></path><path d="M125.9,64.79c.11.38-2.73,1.29-5.14,3.85s-3.26,5.39-3.65,5.29-.11-3.38,2.66-6.24S125.9,64.42,125.9,64.79Z" style="fill:#e0e0e0"></path><path d="M78.58,82.58c-.18-.31,3.24-2.24,8-2.52s8.36,1.17,8.22,1.5-3.69-.44-8.13-.13S78.73,83,78.58,82.58Z" style="fill:#e0e0e0"></path><path d="M677.6,48.91A47.38,47.38,0,0,0,640,68.18c-8.57,11.84-13,27.53-8.52,41.42,14-.82,29.06-9.43,37.52-20.68A49.39,49.39,0,0,0,677.6,48.91Z" style="fill:#ebebeb"></path><path d="M668.67,62.07s-.13.18-.41.47L667,63.81c-1.11,1.09-2.69,2.68-4.62,4.68a205,205,0,0,0-26.61,34.17c-1.46,2.36-2.62,4.28-3.41,5.62-.37.63-.68,1.14-.92,1.54a2.32,2.32,0,0,1-.35.52,3.67,3.67,0,0,1,.26-.57l.84-1.58c.73-1.38,1.84-3.34,3.27-5.72a179.85,179.85,0,0,1,12.3-17.92,182.57,182.57,0,0,1,14.36-16.32c2-2,3.59-3.52,4.74-4.57l1.34-1.19A3.4,3.4,0,0,1,668.67,62.07Z" style="fill:#e0e0e0"></path><path d="M584.51,49.91a37.78,37.78,0,0,0,3.28,33.53c6.27,9.82,16.6,17.73,28.23,18.45,3.5-10.67,1.51-24.32-4.35-33.89A39.42,39.42,0,0,0,584.51,49.91Z" style="fill:#f5f5f5"></path><path d="M591.65,60.39s.1.14.24.44.35.79.58,1.31c.48,1.14,1.21,2.77,2.13,4.79a171.14,171.14,0,0,0,8,15.32,165.69,165.69,0,0,0,9.55,14.41c1.31,1.78,2.4,3.21,3.16,4.19l.86,1.14c.19.26.29.4.27.42a2.07,2.07,0,0,1-.35-.36l-.94-1.07c-.81-.94-1.94-2.34-3.3-4.09a145,145,0,0,1-9.7-14.37,141.61,141.61,0,0,1-7.88-15.44c-.89-2-1.56-3.7-2-4.87-.2-.53-.36-1-.49-1.34A2.06,2.06,0,0,1,591.65,60.39Z" style="fill:#e0e0e0"></path><path d="M396.24,59.08s-13.47-5.25-18.48,4-8.23,26.56,13.24,40.1,36.83-13.82,36.83-13.82S427.77,71.43,396.24,59.08Z" style="fill:#e0e0e0"></path><g style="opacity:0.21"><path d="M397.89,90.64c12.45,6.2,22.42,4,28,1.67,1.24-1.75,1.94-3,1.94-3s-.06-17.91-31.59-30.26c0,0-13.47-5.25-18.48,4-.34.62-.67,1.29-1,2C379.28,72.42,385.11,84.27,397.89,90.64Z" style="fill:#263238"></path></g><path d="M401.53,54,390.45,68.84s3.17,10.68,13,14.38,11.4.08,11.4.08l11.4-15.23s-5.76-10-15-14.33S401.53,54,401.53,54Z" style="fill:#e0e0e0"></path><path d="M460.43,45.46s-8.47,7.19-4.06,14,15,15.26,32,5.69,4.11-30,4.11-30S480.3,28.63,460.43,45.46Z" style="fill:#e0e0e0"></path><g style="opacity:0.21"><path d="M482.38,55.87c8.75-6.16,10.92-13.7,11.36-18.33-.73-1.49-1.29-2.4-1.29-2.4s-12.15-6.51-32,10.32c0,0-8.47,7.19-4.06,14,.3.45.63.92,1,1.38C463.26,61.8,473.4,62.19,482.38,55.87Z" style="fill:#263238"></path></g><path d="M458.89,40l6,12.94s8.38,1.76,14.48-3.55,4.22-7.69,4.22-7.69l-6.14-13.27s-8.84.24-15.16,4.88S458.89,40,458.89,40Z" style="fill:#e0e0e0"></path><path d="M683.15,205.85s-10.56-3.46-14,3.84S664,230.44,681,239.92s27.68-12.19,27.68-12.19S707.89,214,683.15,205.85Z" style="fill:#e0e0e0"></path><g style="opacity:0.21"><path d="M685.77,230c9.83,4.23,17.39,2.13,21.57.08.88-1.4,1.36-2.36,1.36-2.36s-.81-13.75-25.55-21.88c0,0-10.56-3.46-14,3.84-.24.5-.46,1-.67,1.57C670.71,216.81,675.69,225.66,685.77,230Z" style="fill:#263238"></path></g><path d="M687,201.68l-7.87,11.91s2.89,8.07,10.61,10.48,8.75-.42,8.75-.42l8.1-12.18s-4.84-7.41-12.1-10.37S687,201.68,687,201.68Z" style="fill:#e0e0e0"></path><polygon points="39.01 398.53 408.35 476.21 719.02 398.85 39.01 398.53" style="fill:#e0e0e0"></polygon><path d="M23.7,224.89a41.39,41.39,0,0,0,22.87,29c11.6,5.35,25.8,6.53,36.94.31-3.08-11.91-13-23.31-24.06-28.66A43.15,43.15,0,0,0,23.7,224.89Z" style="fill:#f5f5f5"></path><path d="M36.49,230.31a2.25,2.25,0,0,1,.48.28l1.3.86c1.12.77,2.76,1.85,4.8,3.16A182.7,182.7,0,0,0,59.51,244a185.17,185.17,0,0,0,17.34,7.63c2.26.86,4.11,1.53,5.39,2l1.47.53a2.1,2.1,0,0,1,.5.22,1.79,1.79,0,0,1-.53-.12l-1.5-.44c-1.31-.39-3.17-1-5.46-1.83a155.94,155.94,0,0,1-33.85-17.06c-2-1.35-3.63-2.49-4.72-3.3l-1.24-1Q36.47,230.34,36.49,230.31Z" style="fill:#e0e0e0"></path></g><g id="freepik--Floor--inject-17"><path d="M733.29,398.53c0,.14-159.08.26-355.27.26s-355.31-.12-355.31-.26,159-.26,355.31-.26S733.29,398.39,733.29,398.53Z" style="fill:#263238"></path></g><g id="freepik--Pot--inject-17"><path d="M505.66,306.38s22.07-33.11,88.17-33.11,90.08,33.11,90.08,33.11Z" style="fill:#e0e0e0"></path><path d="M505.66,306.38l178.25-.26-.21.41a49,49,0,0,0-6.15-6.39c-9.66-8.56-21.07-14.41-32.48-18.52a140.12,140.12,0,0,0-34.22-7.25l-4.15-.4a20.34,20.34,0,0,0-2.06-.13l-2-.06-8.06-.26c-2.65,0-5.25.13-7.82.19l-3.83.12c-1.26,0-2.51.21-3.74.3l-7.3.69c-2.38.29-4.7.74-7,1.09l-3.38.56c-1.11.22-2.19.5-3.27.74-2.15.52-4.27,1-6.31,1.51a125.1,125.1,0,0,0-21.29,8.13,99.16,99.16,0,0,0-14.53,9.22,71.2,71.2,0,0,0-8,7.39c-.82.94-1.45,1.65-1.83,2.16l-.6.76.13-.2c.09-.15.23-.34.42-.59.38-.53,1-1.25,1.8-2.2a67.59,67.59,0,0,1,8-7.47,97.57,97.57,0,0,1,14.52-9.33,124.58,124.58,0,0,1,21.32-8.23c2.05-.53,4.17-1,6.33-1.52,1.08-.25,2.16-.54,3.27-.76l3.39-.56c2.29-.36,4.61-.82,7-1.11l7.31-.71c1.24-.1,2.49-.31,3.76-.31l3.83-.12c2.57-.07,5.19-.21,7.84-.21l8.08.25,2.06.06a17.94,17.94,0,0,1,2.06.13l4.16.39a139.9,139.9,0,0,1,34.35,7.25c11.46,4.12,22.93,10,32.66,18.62a48.42,48.42,0,0,1,6.22,6.47l.32.41h-.53Z" style="fill:#263238"></path><path d="M520.84,398.65,507.91,309.4H681.66l-12.49,78.33a13,13,0,0,1-12.79,10.92Z" style="fill:#455a64"></path><rect x="500.15" y="303.36" width="189.28" height="6.04" rx="1.94" style="fill:#263238"></rect><rect x="569.32" y="268.57" width="50.92" height="6.86" style="fill:#263238"></rect><polygon points="581.36 271.81 577.41 253.63 612.16 253.63 608.24 270.49 581.36 271.81" style="fill:#263238"></polygon><g style="opacity:0.2"><polyline points="554.41 398.35 552.43 279.09 534.96 284.59 539.71 398.7"></polyline></g><path d="M555.93,296.79c8.26-5,18-7,27.71-6.85,10.6.15,21.12,2.11,31.74,2a4.66,4.66,0,0,0,4.45-3.1c1.12-3.49-2.93-5.56-6.19-6.26-14.38-3.08-29.33-2.21-43.88-.08-6.39.94-13.12,2.3-17.81,6.74a11.37,11.37,0,0,0-1.41,1.6c-2.59,3.5,1.56,8.19,5.3,6Z" style="fill:#fff"></path><path d="M620.82,271c0,.15-11.6.26-25.92.26S569,271.12,569,271s11.6-.26,25.92-.26S620.82,270.83,620.82,271Z" style="fill:#455a64"></path><g style="opacity:0.2"><path d="M648.17,341l-12.63-7.51c1.28,6.95,7.07,15.5,13.88,20.66a44.66,44.66,0,0,0,23.66,8.91l1.44-8.14C665.69,353.31,654.09,347.74,648.17,341Z"></path></g><path d="M674.15,348.79q-2.26,0-4.59-.12c-17.57-.91-33-8.17-34.55-17.46l7.77.4c-.12,2.28,9.26,8.35,27.18,9.28,7.95.42,15.44-.33,21.07-2.1s5.75-4.7,5.77-5.26c.09-1.57-4.42-5.45-18.29-7.56l1.17-7.7c12.91,2,26.54,7.36,26.06,16.61-.18,3.45-2.47,8.21-12.37,11.33A65.6,65.6,0,0,1,674.15,348.79Z" style="fill:#455a64"></path><path d="M678.51,326a4.47,4.47,0,0,1,.81.08c.54.08,1.33.17,2.33.36a50.64,50.64,0,0,1,8.39,2.14,20.5,20.5,0,0,1,5.37,2.7,6.24,6.24,0,0,1,1.21,1.2,2,2,0,0,1,.38.85,2.32,2.32,0,0,1-.06.92,5.35,5.35,0,0,1-2.08,3c-2,1.51-4.57,2.13-7.11,2.74a59.32,59.32,0,0,1-8.08,1.15,71.5,71.5,0,0,1-15.73-.56,46.6,46.6,0,0,1-12.32-3.63,26,26,0,0,1-7.24-4.74,7.29,7.29,0,0,1-1.43-1.88,2,2,0,0,1-.18-.59.72.72,0,0,1,0-.22,2.44,2.44,0,0,0,.26.76,7.9,7.9,0,0,0,1.48,1.79,27.3,27.3,0,0,0,7.26,4.55A47.43,47.43,0,0,0,664,340a72.38,72.38,0,0,0,15.61.51,59.88,59.88,0,0,0,8-1.13c2.52-.59,5-1.21,6.93-2.62a4.89,4.89,0,0,0,1.92-2.68,1.49,1.49,0,0,0-.24-1.42,6.08,6.08,0,0,0-1.1-1.11,20.71,20.71,0,0,0-5.23-2.7,56,56,0,0,0-8.31-2.28c-1-.22-1.78-.34-2.3-.46A4.18,4.18,0,0,1,678.51,326Z" style="fill:#263238"></path><path d="M635,330s0,.41.09,1.19a9.16,9.16,0,0,0,1,3.24,14.26,14.26,0,0,0,3.33,4.19,28.08,28.08,0,0,0,5.94,3.93,58.47,58.47,0,0,0,17.81,5.28c1.73.24,3.52.43,5.36.55s3.71.11,5.62.18a77,77,0,0,0,11.78-.87,44.23,44.23,0,0,0,11.33-3.19,19.94,19.94,0,0,0,4.71-2.92,10.4,10.4,0,0,0,3.07-4.24,8.59,8.59,0,0,0,.29-4.93,10.23,10.23,0,0,0-2.22-4.15,22.45,22.45,0,0,0-6.95-5,55.2,55.2,0,0,0-11.9-4c-1.45-.33-2.59-.54-3.36-.7l-.88-.16a1.09,1.09,0,0,1-.29-.08l.3,0,.89.12c.77.12,1.92.3,3.38.6a52.71,52.71,0,0,1,12,3.87,22.28,22.28,0,0,1,7.11,5.07,10.55,10.55,0,0,1,2.34,4.32,9,9,0,0,1-.28,5.21,10.8,10.8,0,0,1-3.19,4.44,20.11,20.11,0,0,1-4.83,3A44.4,44.4,0,0,1,686,348.17a76.82,76.82,0,0,1-11.86.87c-1.92-.07-3.81-.06-5.66-.19s-3.64-.33-5.39-.58a57.89,57.89,0,0,1-17.9-5.42,28.32,28.32,0,0,1-6-4,14.34,14.34,0,0,1-3.31-4.32,8.88,8.88,0,0,1-.89-3.32A6.85,6.85,0,0,1,635,330Z" style="fill:#263238"></path><path d="M643.47,327.63c-.07.05-.4-.38-1.07-.87a5.53,5.53,0,0,0-6.07-.38c-.73.41-1.11.79-1.17.73s.25-.52,1-1a5.22,5.22,0,0,1,6.49.41C643.29,327.08,643.52,327.6,643.47,327.63Z" style="fill:#263238"></path><path d="M677.62,333.87c-.14,0,.64-5.65,1.75-12.57s2.12-12.5,2.26-12.48-.64,5.65-1.75,12.57S677.76,333.89,677.62,333.87Z" style="fill:#263238"></path></g><g id="freepik--soup-spoon--inject-17"><path d="M721.15,406.91s.57-3.27-9.34-7-29.69-5.47-37.39-29.21-23.92-78.2-28.36-92.85S632.2,232.23,618.73,234c0,0-13.93,2.25-4.8,18.5s37.86,65.9,42.62,92.76-2,55-2,55-6.82,32.4,33.64,34.91C688.18,435.18,720.15,433.34,721.15,406.91Zm-98-160.41a2.36,2.36,0,0,1-.21-4.7h.58a2.36,2.36,0,0,1-.37,4.69Z" style="fill:#ae7461"></path><path d="M654.31,401.77a3.87,3.87,0,0,1,.1-.46c.08-.32.18-.77.32-1.34.27-1.17.68-2.91,1.13-5.16a177.11,177.11,0,0,0,2.86-19.23c.37-4.09.66-8.58.62-13.4,0-2.41-.12-4.9-.22-7.47s-.42-5.2-.87-7.87l-.3-2c-.11-.68-.28-1.35-.42-2-.31-1.35-.56-2.73-.93-4.1-.77-2.73-1.52-5.53-2.5-8.31-1.83-5.62-4.09-11.31-6.51-17.08-4.9-11.54-10.12-22.29-15.05-32s-9.6-18.28-13.58-25.47c-2-3.55-3.83-6.91-4.45-10.16,0-.2-.09-.4-.14-.59s0-.41,0-.6c0-.4-.06-.79-.08-1.17a5.29,5.29,0,0,1,.06-1.13,9.2,9.2,0,0,1,.13-1.07,9,9,0,0,1,.68-1.91c.15-.29.29-.58.45-.84l.55-.71a3.34,3.34,0,0,1,.56-.62l.59-.55c.41-.3.79-.59,1.17-.82a11.59,11.59,0,0,1,2-1,10.66,10.66,0,0,1,1.32-.39,3.86,3.86,0,0,1,.46-.07l-.45.12c-.29.09-.74.22-1.3.44a11.7,11.7,0,0,0-2,1c-.38.23-.75.53-1.15.83l-.56.54a3.3,3.3,0,0,0-.55.62l-.52.7c-.15.26-.28.54-.43.82a9,9,0,0,0-.64,1.86c-.07.33-.07.69-.11,1.05a4.39,4.39,0,0,0,0,1.09l.09,1.15a5.7,5.7,0,0,0,.06.58c0,.19.09.39.13.59.64,3.19,2.44,6.47,4.49,10,4,7.17,8.71,15.76,13.68,25.43s10.2,20.42,15.11,32c2.43,5.78,4.69,11.48,6.51,17.12,1,2.79,1.74,5.6,2.5,8.35.37,1.37.62,2.77.93,4.13.14.68.31,1.35.42,2s.19,1.36.29,2c.46,2.69.62,5.34.86,7.91.09,2.58.25,5.08.19,7.5,0,4.84-.29,9.34-.68,13.43a166.9,166.9,0,0,1-3,19.24c-.49,2.25-.92,4-1.23,5.15-.15.58-.28,1-.37,1.33S654.31,401.77,654.31,401.77Z" style="fill:#263238"></path><path d="M716,403.77a2.26,2.26,0,0,1,.79.12,4.14,4.14,0,0,1,1.88,1.28,5.11,5.11,0,0,1,1.2,3.39,6.53,6.53,0,0,1-2,4.32,11.13,11.13,0,0,1-5,2.81,49.19,49.19,0,0,1-6.52,1.18,85.07,85.07,0,0,1-15.13.59,84,84,0,0,1-26.79-5.81,24.9,24.9,0,0,1-7.16-4.27,11.35,11.35,0,0,1-2-2.27c0-.05.68.86,2.18,2.12a25.85,25.85,0,0,0,7.16,4.08,87.16,87.16,0,0,0,26.68,5.63,88.25,88.25,0,0,0,15-.54,49.18,49.18,0,0,0,6.46-1.13,10.73,10.73,0,0,0,4.91-2.65,6.29,6.29,0,0,0,2-4.08,4.85,4.85,0,0,0-1.07-3.24,4.06,4.06,0,0,0-1.76-1.31C716.26,403.81,716,403.8,716,403.77Z" style="fill:#263238"></path><g style="opacity:0.2"><path d="M715.63,414.13a3.49,3.49,0,0,0,3.18-3.59,5.6,5.6,0,0,0-2.69-4.38,15.45,15.45,0,0,0-5-1.89c-5-1.26-10.16-2.28-15.27-3.3a161,161,0,0,0-17.72-2.85,26.9,26.9,0,0,0-9.72.54A11.73,11.73,0,0,0,661,404.5a4.72,4.72,0,0,0-.45,3.32,5.09,5.09,0,0,0,2.26,2.61c2.53,1.66,5.54,2.38,8.48,3.08,13.85,3.27,25.27,6.92,44.38.62"></path></g></g><g id="freepik--Carrots--inject-17"><path d="M332.89,89.44S316.36,34.15,312.53,36s14.66,50.23,14.11,49.46-14.49-21.56-17.7-17.75S327.72,92,327.72,92Z" style="fill:#455a64"></path><path d="M323,106.55a71.28,71.28,0,0,0,6.92,12.58,137.83,137.83,0,0,0,10.92,14.49c4.22,4.94,8.54,9.57,12.43,13.93,2,2.18,3.8,4.29,5.49,6.31a57.83,57.83,0,0,1,4.53,6.2c1.21,2,2.28,3.77,3.18,5.33.18-7-3-21.5-7.19-36.2-.44-1.52-.88-3-1.34-4.55a271.58,271.58,0,0,0-9.85-27.85c-.91-2.1-1.78-3.92-2.6-5.48-.49-.92-1-1.73-1.4-2.43a15.53,15.53,0,0,0-1.25-1.75c-.88-1-1.63-1.38-2.21-1,0,0-17.21,0-22.85,8.17a11.52,11.52,0,0,1,1.57,2.55C320.52,99.22,321.52,102.85,323,106.55Z" style="fill:#8BAA36"></path><path d="M357.14,165.06c-1.37-1.33-2.81-2.72-4.35-4.09a59.22,59.22,0,0,0,6.89,6.64c.21.17.41.3.62.45C359.28,167.13,358.24,166.15,357.14,165.06Z" style="fill:#8BAA36"></path><g style="opacity:0.30000000000000004"><path d="M360.3,168.06a10.49,10.49,0,0,0,3.21,1.75,10.49,10.49,0,0,1-3.21-1.75Z"></path></g><g style="opacity:0.30000000000000004"><path d="M348.87,156.47q-2-2.44-4.13-5.15Q346.84,154,348.87,156.47Z"></path></g><g style="opacity:0.30000000000000004"><path d="M340.51,145.7c-1.42-1.93-2.83-3.91-4.22-5.92C337.68,141.79,339.09,143.77,340.51,145.7Z"></path></g><g style="opacity:0.30000000000000004"><path d="M366.47,165.39h0a12.68,12.68,0,0,1-.26,2.55A12.68,12.68,0,0,0,366.47,165.39Z"></path></g><g style="opacity:0.30000000000000004"><path d="M332.21,133.71c-1.34-2-2.63-4.06-3.86-6.07C329.58,129.65,330.87,131.68,332.21,133.71Z"></path></g><path d="M360.3,168.06a10.49,10.49,0,0,0,3.21,1.75,2.15,2.15,0,0,0,1.72-.14,2.7,2.7,0,0,0,1-1.73,12.68,12.68,0,0,0,.26-2.55c-.9-1.56-2-3.33-3.18-5.33a57.83,57.83,0,0,0-4.53-6.2c-1.69-2-3.54-4.13-5.49-6.31-3.89-4.36-8.21-9-12.43-13.93a137.83,137.83,0,0,1-10.92-14.49A71.28,71.28,0,0,1,323,106.55c-1.48-3.7-2.48-7.33-3.65-9.69a11.52,11.52,0,0,0-1.57-2.55,10.26,10.26,0,0,0-1.74,6.86c.42,5.19,5.51,15.44,12.31,26.47,1.23,2,2.52,4,3.86,6.07s2.69,4.07,4.08,6.07,2.8,4,4.22,5.92,2.82,3.81,4.23,5.62,2.78,3.52,4.13,5.15,2.66,3.12,3.92,4.5c1.54,1.37,3,2.76,4.35,4.09C358.24,166.15,359.28,167.13,360.3,168.06Z" style="fill:#8BAA36"></path><g style="opacity:0.30000000000000004"><path d="M360.3,168.06a10.49,10.49,0,0,0,3.21,1.75,2.15,2.15,0,0,0,1.72-.14,2.7,2.7,0,0,0,1-1.73,12.68,12.68,0,0,0,.26-2.55c-.9-1.56-2-3.33-3.18-5.33a57.83,57.83,0,0,0-4.53-6.2c-1.69-2-3.54-4.13-5.49-6.31-3.89-4.36-8.21-9-12.43-13.93a137.83,137.83,0,0,1-10.92-14.49A71.28,71.28,0,0,1,323,106.55c-1.48-3.7-2.48-7.33-3.65-9.69a11.52,11.52,0,0,0-1.57-2.55,10.26,10.26,0,0,0-1.74,6.86c.42,5.19,5.51,15.44,12.31,26.47,1.23,2,2.52,4,3.86,6.07s2.69,4.07,4.08,6.07,2.8,4,4.22,5.92,2.82,3.81,4.23,5.62,2.78,3.52,4.13,5.15,2.66,3.12,3.92,4.5c1.54,1.37,3,2.76,4.35,4.09C358.24,166.15,359.28,167.13,360.3,168.06Z"></path></g><g style="opacity:0.24"><path d="M348.62,106.21c.47.45-3.66,4.41-10.06,6.46s-11.5,2.86-11.67,2.35,4.84-2.47,10.93-4.47S348.21,105.75,348.62,106.21Z" style="fill:#fff"></path></g><g style="opacity:0.24"><path d="M336.55,100c.12.57-2.73,2-6.52,3.43s-7.38,1.51-7.42.86,2.94-1.54,6.65-3S336.4,99.31,336.55,100Z" style="fill:#fff"></path></g><g style="opacity:0.24"><path d="M342.7,97.57c.18.59-.36,1.28-1.2,1.54s-1.68,0-1.86-.6.36-1.28,1.2-1.54A1.43,1.43,0,0,1,342.7,97.57Z" style="fill:#fff"></path></g><g style="opacity:0.24"><path d="M343.87,119.47c-.2-.61,2-1.73,4.68-2.5s4.88-1.28,5.19-.75-1.71,2.12-4.55,2.9S344.06,120,343.87,119.47Z" style="fill:#fff"></path></g><g style="opacity:0.24"><path d="M342.36,121.63c.19.59-1.43,1.52-3.61,2.07s-4,.51-4.14-.1,1.51-1.54,3.61-2.07S342.17,121,342.36,121.63Z" style="fill:#fff"></path></g><g style="opacity:0.24"><path d="M339.48,130.65c.06-.47,3.53-.9,7.65-2.67s7.67-3,7.88-2.47-2.9,2.43-7.19,4.21S339.39,131.23,339.48,130.65Z" style="fill:#fff"></path></g><g style="opacity:0.24"><path d="M354.81,135.41c.5.4,0,1.53-1,1.93s-1.74.17-2-.36.35-1.38,1.16-1.7A1.83,1.83,0,0,1,354.81,135.41Z" style="fill:#fff"></path></g><g style="opacity:0.24"><path d="M360.22,143.29c.43.49-1.07,2.43-3.5,2.64s-4.26-.3-4.34-.87,1.75-1.05,3.88-1.31S359.86,142.85,360.22,143.29Z" style="fill:#fff"></path></g><path d="M634,164.63s44.86-36.3,41.73-39.16-40.89,32.64-40.39,31.84,14.45-21.59,9.7-23.11-15.36,26.61-15.36,26.61Z" style="fill:#455a64"></path><path d="M614.42,162a71,71,0,0,0-9,11.18,138.53,138.53,0,0,0-9.25,15.6c-3,5.78-5.61,11.53-8.16,16.8-1.28,2.63-2.53,5.13-3.76,7.47a56.76,56.76,0,0,1-4,6.54q-2.09,2.82-3.72,5c6.59-2.51,18.76-10.91,30.75-20.41,1.24-1,2.48-2,3.7-3a269.38,269.38,0,0,0,22-19.7c1.6-1.63,2.95-3.13,4.08-4.48.67-.8,1.24-1.54,1.72-2.22a14.76,14.76,0,0,0,1.14-1.82c.6-1.2.67-2,.08-2.42,0,0-6.5-15.93-16.24-18a10.79,10.79,0,0,1-1.76,2.42C620.26,156.9,617.28,159.2,614.42,162Z" style="fill:#8BAA36"></path><path d="M573.27,215.78c.71-1.77,1.44-3.63,2.12-5.57a58.49,58.49,0,0,0-3.52,8.89c-.08.26-.12.49-.18.74C572.17,218.55,572.68,217.21,573.27,215.78Z" style="fill:#8BAA36"></path><g style="opacity:0.30000000000000004"><path d="M571.69,219.84a10.63,10.63,0,0,0-.4,3.63,10.63,10.63,0,0,1,.4-3.63Z"></path></g><g style="opacity:0.30000000000000004"><path d="M578.08,204.87c1-1.87,2-3.8,3.19-5.78C580.13,201.07,579.06,203,578.08,204.87Z"></path></g><g style="opacity:0.30000000000000004"><path d="M584.85,193c1.25-2,2.55-4.1,3.88-6.14C587.4,188.94,586.1,191,584.85,193Z"></path></g><g style="opacity:0.30000000000000004"><path d="M576.51,224.54h0a13.49,13.49,0,0,1-2.46.73A13.49,13.49,0,0,0,576.51,224.54Z"></path></g><g style="opacity:0.30000000000000004"><path d="M592.79,180.81c1.38-2,2.77-4,4.15-5.88C595.56,176.84,594.17,178.81,592.79,180.81Z"></path></g><path d="M571.69,219.84a10.63,10.63,0,0,0-.4,3.63,2.17,2.17,0,0,0,.79,1.55,2.71,2.71,0,0,0,2,.25,13.49,13.49,0,0,0,2.46-.73q1.63-2.14,3.72-5a56.76,56.76,0,0,0,4-6.54c1.23-2.34,2.48-4.84,3.76-7.47,2.55-5.27,5.19-11,8.16-16.8a138.53,138.53,0,0,1,9.25-15.6,71,71,0,0,1,9-11.18c2.86-2.78,5.84-5.08,7.58-7.07a10.79,10.79,0,0,0,1.76-2.42,10.31,10.31,0,0,0-7,1c-4.64,2.36-12.19,11-19.82,21.44-1.38,1.91-2.77,3.88-4.15,5.88s-2.73,4-4.06,6.09-2.63,4.1-3.88,6.14-2.44,4.07-3.58,6.05-2.21,3.91-3.19,5.78-1.88,3.64-2.69,5.34c-.68,1.94-1.41,3.8-2.12,5.57C572.68,217.21,572.17,218.55,571.69,219.84Z" style="fill:#8BAA36"></path><g style="opacity:0.30000000000000004"><path d="M571.69,219.84a10.63,10.63,0,0,0-.4,3.63,2.17,2.17,0,0,0,.79,1.55,2.71,2.71,0,0,0,2,.25,13.49,13.49,0,0,0,2.46-.73q1.63-2.14,3.72-5a56.76,56.76,0,0,0,4-6.54c1.23-2.34,2.48-4.84,3.76-7.47,2.55-5.27,5.19-11,8.16-16.8a138.53,138.53,0,0,1,9.25-15.6,71,71,0,0,1,9-11.18c2.86-2.78,5.84-5.08,7.58-7.07a10.79,10.79,0,0,0,1.76-2.42,10.31,10.31,0,0,0-7,1c-4.64,2.36-12.19,11-19.82,21.44-1.38,1.91-2.77,3.88-4.15,5.88s-2.73,4-4.06,6.09-2.63,4.1-3.88,6.14-2.44,4.07-3.58,6.05-2.21,3.91-3.19,5.78-1.88,3.64-2.69,5.34c-.68,1.94-1.41,3.8-2.12,5.57C572.68,217.21,572.17,218.55,571.69,219.84Z"></path></g><g style="opacity:0.24"><path d="M624.47,185.54c-.23.61-5.47-1.7-9.8-6.85s-7-9.54-6.6-9.9,4.12,3.54,8.28,8.41S624.74,185,624.47,185.54Z" style="fill:#fff"></path></g><g style="opacity:0.24"><path d="M625.67,172c-.48.33-2.86-1.77-5.65-4.73s-4.19-6.25-3.61-6.53,2.54,2.13,5.27,5S626.21,171.62,625.67,172Z" style="fill:#fff"></path></g><g style="opacity:0.24"><path d="M630.21,176.78c-.48.4-1.32.16-1.88-.52s-.63-1.55-.15-1.94,1.32-.16,1.88.52S630.69,176.39,630.21,176.78Z" style="fill:#fff"></path></g><g style="opacity:0.24"><path d="M610.4,186.19c.48-.42,2.35,1.16,4.09,3.38s3,4,2.66,4.51-2.6-.77-4.41-3.1S609.94,186.58,610.4,186.19Z" style="fill:#fff"></path></g><g style="opacity:0.24"><path d="M607.83,185.61c-.48.4-2-.74-3.29-2.55s-2-3.55-1.48-3.87,2,.82,3.29,2.55S608.3,185.21,607.83,185.61Z" style="fill:#fff"></path></g><g style="opacity:0.24"><path d="M598.39,186.38c.46-.13,2.17,2.92,5.38,6.05s5.68,6,5.27,6.36-3.35-1.76-6.62-5.06S597.82,186.51,598.39,186.38Z" style="fill:#fff"></path></g><g style="opacity:0.24"><path d="M599.81,202.36c-.18.61-1.42.59-2.18-.21s-.82-1.55-.44-2,1.41-.2,2,.42A1.81,1.81,0,0,1,599.81,202.36Z" style="fill:#fff"></path></g><g style="opacity:0.24"><path d="M594.58,210.36c-.29.59-2.65-.06-3.78-2.23s-1.34-4-.84-4.35,1.64,1.22,2.69,3.09S594.85,209.86,594.58,210.36Z" style="fill:#fff"></path></g></g><g id="freepik--Dots--inject-17"><circle cx="538.22" cy="76.14" r="7.57" transform="translate(12.09 212.77) rotate(-22.61)" style="fill:#455a64"></circle><circle cx="53.3" cy="174.84" r="7.57" style="fill:#455a64"></circle><path d="M254.11,52.15a5.71,5.71,0,1,1-5.7-5.71A5.71,5.71,0,0,1,254.11,52.15Z" style="fill:#455a64"></path><circle cx="220.38" cy="80" r="4.68" style="fill:#455a64"></circle></g><g id="freepik--olive-oil--inject-17"><polygon points="90.66 221.31 67.04 221.31 63.56 196.29 93.78 196.29 90.66 221.31" style="fill:#455a64"></polygon><path d="M145.4,236.78c-3.49-7.6-10.26-12.63-20.12-14.93-8.43-2-15.69-.68-21.58,3.81a29.5,29.5,0,0,0-8.06,9.91A89.6,89.6,0,0,1,98,212.62c0-1-46.54,0-46.54,0s19.16,15,18.81,26.85c-.21,7.06-1,13.8-18.81,36.37C33.06,299,20.84,322.73,25,340.8s25,54.53,30.22,57.66h56.62s26.74-47.59,27.79-66c.44-7.91-3.09-17.88-8.48-28.3,1.56-9.31,5.67-19.58,9.58-27.05C142,274.7,152.86,253.08,145.4,236.78Zm-11.88,36.55a117.63,117.63,0,0,0-8.28,20.33c-6.34-10.48-13.81-20.88-20.34-29.63a43.8,43.8,0,0,1-6.24-11.89c1.24-6.64,4.12-15.53,10-20,3.92-3,8.76-3.76,14.79-2.35,7.38,1.72,12.14,5.12,14.55,10.39C142.74,250.57,137.14,266.41,133.52,273.33Z" style="fill:#ebebeb"></path><path d="M145.4,236.78c-3.49-7.6-10.26-12.63-20.12-14.93-8.43-2-15.69-.68-21.58,3.81a29.5,29.5,0,0,0-8.06,9.91A89.6,89.6,0,0,1,98,212.62c0-1-46.54,0-46.54,0s19.16,15,18.81,26.85c-.21,7.06-1,13.8-18.81,36.37C33.06,299,20.84,322.73,25,340.8s25,54.53,30.22,57.66h56.62s26.74-47.59,27.79-66c.44-7.91-3.09-17.88-8.48-28.3,1.56-9.31,5.67-19.58,9.58-27.05C142,274.7,152.86,253.08,145.4,236.78Zm-11.88,36.55a117.63,117.63,0,0,0-8.28,20.33c-6.34-10.48-13.81-20.88-20.34-29.63a43.8,43.8,0,0,1-6.24-11.89c1.24-6.64,4.12-15.53,10-20,3.92-3,8.76-3.76,14.79-2.35,7.38,1.72,12.14,5.12,14.55,10.39C142.74,250.57,137.14,266.41,133.52,273.33Z" style="fill:none"></path><path d="M133.52,273.33a2.3,2.3,0,0,1,.16-.39l.53-1.11c.44-1,1.1-2.45,1.8-4.38a64.23,64.23,0,0,0,2.22-7.15,44.46,44.46,0,0,0,1.38-9.78A22.47,22.47,0,0,0,137.13,239a15.76,15.76,0,0,0-4.36-4.91,22.57,22.57,0,0,0-6.25-3.17,29.33,29.33,0,0,0-7.23-1.51,16,16,0,0,0-7.51,1.18,16.12,16.12,0,0,0-6.14,4.92,29.71,29.71,0,0,0-4,7.17,51,51,0,0,0-2.72,9.51v-.14a44.11,44.11,0,0,0,6.62,12.4c2.72,3.66,5.31,7.22,7.71,10.63,4.82,6.82,8.92,13.09,12.16,18.48l-.32.05a112.65,112.65,0,0,1,5.79-15.07c.8-1.71,1.47-3,1.93-3.89l.53-1a1.5,1.5,0,0,1,.2-.33,3.45,3.45,0,0,1-.15.35c-.13.25-.29.58-.49,1-.43.89-1.07,2.21-1.84,3.94a117.64,117.64,0,0,0-5.63,15.08l-.11.38-.21-.34c-3.27-5.37-7.4-11.61-12.23-18.4-2.42-3.4-5-7-7.74-10.61a44.35,44.35,0,0,1-6.71-12.52l0-.06v-.07a52.69,52.69,0,0,1,2.74-9.6,30.32,30.32,0,0,1,4.09-7.3,15.53,15.53,0,0,1,14.09-6.28,29.57,29.57,0,0,1,7.35,1.56,22.3,22.3,0,0,1,6.37,3.26,16.15,16.15,0,0,1,4.47,5.06A22.87,22.87,0,0,1,140,250.53a45.1,45.1,0,0,1-1.46,9.84,61.13,61.13,0,0,1-2.32,7.15c-.73,1.93-1.43,3.37-1.9,4.35l-.57,1.09A2.42,2.42,0,0,1,133.52,273.33Z" style="fill:#263238"></path><path d="M145.4,236.78s.16.38.46,1.14a20.57,20.57,0,0,1,1.14,3.42,36.53,36.53,0,0,1,.72,13.87,67.67,67.67,0,0,1-6.47,21.2,115.18,115.18,0,0,0-5.71,12.71,83.73,83.73,0,0,0-4.21,15.07v-.1c3.12,6.14,6.27,12.89,7.85,20.54a33.62,33.62,0,0,1,.69,5.88,28.83,28.83,0,0,1-.57,6.05,84.07,84.07,0,0,1-3.5,12c-2.92,8-6.55,16.19-10.55,24.52s-8.41,16.83-13.18,25.45l-.07.13H55.15l0,0a12.64,12.64,0,0,1-2.54-2.52c-.75-.91-1.45-1.85-2.14-2.81-1.36-1.92-2.65-3.9-3.91-5.91-2.51-4-4.89-8.17-7.18-12.41a206.7,206.7,0,0,1-12.27-26.57c-.59-1.7-1.18-3.39-1.66-5.12-.25-.86-.46-1.74-.67-2.61l-.45-2.65a21.72,21.72,0,0,1-.25-2.67,19.84,19.84,0,0,1-.06-2.67l.09-2.67.33-2.64c.06-.44.1-.88.18-1.32l.26-1.29.54-2.59.7-2.54.35-1.27.43-1.24.85-2.48c.28-.82.64-1.62,1-2.42s.64-1.62,1-2.41l1.09-2.35c5.92-12.51,13.88-23.52,22-33.76a171.94,171.94,0,0,0,11.11-15.71,54.31,54.31,0,0,0,4.24-8.32,27.3,27.3,0,0,0,1.87-8.91,14.76,14.76,0,0,0-.27-4.46,19.79,19.79,0,0,0-1.51-4.17,39.53,39.53,0,0,0-4.78-7.38,82.75,82.75,0,0,0-12.1-12l-.46-.38h.59c13.4-.26,26-.48,37.67-.42l4.33.06a37.9,37.9,0,0,1,4.26.26,1.62,1.62,0,0,1,.3.09s.05,0,.12.09.06.17,0,.17l0,.15c0,.19-.07.35-.1.53l-.22,1-.42,2c-.27,1.34-.5,2.68-.69,4a81.37,81.37,0,0,0-.88,15.21l-.3-.07A28.93,28.93,0,0,1,104.38,225a22.89,22.89,0,0,1,11.44-4.07A31.66,31.66,0,0,1,126.3,222a35.06,35.06,0,0,1,8.19,3.18,24.65,24.65,0,0,1,8.91,8,17.38,17.38,0,0,1,.94,1.54,11.24,11.24,0,0,1,.61,1.14l.45.95s-.17-.31-.49-.93c-.15-.31-.36-.69-.63-1.13s-.57-.95-1-1.52a24.65,24.65,0,0,0-8.91-7.87,34.72,34.72,0,0,0-8.17-3.12,31.56,31.56,0,0,0-10.4-1,22.54,22.54,0,0,0-11.3,4.05,28.73,28.73,0,0,0-8.76,10.43l-.27.53,0-.6a81.25,81.25,0,0,1,.85-15.28c.19-1.32.42-2.66.68-4l.42-2,.22-1,.1-.5,0-.11h0c-.14,0,.19,0,.13,0a.07.07,0,0,0-.06,0c0,.08,0,.07,0,.06a1,1,0,0,0-.2-.06,38.25,38.25,0,0,0-4.2-.24l-4.33-.06c-11.66,0-24.26.2-37.65.48l.13-.39a83.26,83.26,0,0,1,12.19,12.08A39.69,39.69,0,0,1,68.57,232a20.4,20.4,0,0,1,1.54,4.28,15.32,15.32,0,0,1,.3,4.58,28.21,28.21,0,0,1-1.9,9.06,54,54,0,0,1-4.28,8.4A171.6,171.6,0,0,1,53.1,274.07c-8.07,10.23-16,21.21-21.89,33.66l-1.08,2.35c-.35.78-.66,1.59-1,2.39s-.67,1.59-1,2.41l-.84,2.46-.42,1.23-.35,1.26-.7,2.52-.53,2.56-.26,1.29c-.08.43-.12.87-.17,1.3l-.33,2.61-.09,2.63a19.4,19.4,0,0,0,.06,2.64,23.36,23.36,0,0,0,.24,2.63l.45,2.61c.21.86.41,1.72.67,2.57.47,1.72,1.05,3.41,1.64,5.1a206.72,206.72,0,0,0,12.23,26.5c2.29,4.22,4.67,8.36,7.17,12.38,1.25,2,2.54,4,3.89,5.88.68.95,1.38,1.89,2.11,2.79a12.17,12.17,0,0,0,2.41,2.4l-.13,0,56.62,0-.21.12c4.78-8.61,9.17-17.11,13.19-25.42s7.64-16.45,10.56-24.46a83.7,83.7,0,0,0,3.5-12,27.42,27.42,0,0,0,.57-6,33,33,0,0,0-.66-5.82c-1.56-7.58-4.68-14.33-7.79-20.46l0-.05v-.05A82.32,82.32,0,0,1,135.26,289,114.48,114.48,0,0,1,141,276.29a67.85,67.85,0,0,0,6.53-21.1,36.84,36.84,0,0,0-.63-13.82,20.47,20.47,0,0,0-1.1-3.43C145.53,237.18,145.4,236.78,145.4,236.78Z" style="fill:#263238"></path><path d="M119.59,297.66c7.25,11.4,11.35,18.67,12.72,23.83,3.34,12.51-2.78,25.3-5.56,31.14s-17,40-22.25,42.3-13.62-4.76-22.58-5.31-16.62,5.84-20.24,5.28-25-32.26-29.75-56.17c-2.36-12,2.36-25.3,8.31-36.46,0,0,19.22-3.36,35.76-.2S119.59,297.66,119.59,297.66Z" style="fill:#8BAA36"></path><path d="M95.24,260.32s.22.28.63.84l1.77,2.5c1.56,2.21,3.83,5.48,6.72,9.71s6.4,9.44,10.38,15.54,8.44,13.09,13,21.08c.58,1,1.12,2,1.66,3.06s1.14,2.07,1.62,3.17a30.24,30.24,0,0,1,2.57,6.91,35.37,35.37,0,0,1-.39,15.56,74.17,74.17,0,0,1-5.89,15.64c-2.35,5.23-4.69,10.66-7.22,16.17s-5.17,11.13-8.21,16.72q-1.14,2.08-2.41,4.14a27.83,27.83,0,0,1-2.85,3.95,4.54,4.54,0,0,1-2.06,1.45l-.61.19c-.21.05-.42.06-.63.09l-.63.06-.63,0A17.85,17.85,0,0,1,97.17,396c-3.12-1.11-6.14-2.53-9.33-3.5a21.49,21.49,0,0,0-9.88-1,37.15,37.15,0,0,0-9.7,3.09,37.65,37.65,0,0,1-4.88,1.89,7.49,7.49,0,0,1-1.34.22l-.7,0a2.4,2.4,0,0,1-.69-.3,11,11,0,0,1-2-1.79,75.29,75.29,0,0,1-6.35-8.32q-2.89-4.31-5.48-8.72a174.46,174.46,0,0,1-9.2-17.92,103.8,103.8,0,0,1-6.31-18.38,40.33,40.33,0,0,1,.16-18.55,76.43,76.43,0,0,1,6-16.67,125.06,125.06,0,0,1,8.34-14.5c3-4.5,6.08-8.69,9.19-12.61s6.45-7.4,9.17-11.08A57.44,57.44,0,0,0,71,256.68a37.64,37.64,0,0,0,3.15-11.13,30.51,30.51,0,0,0-.56-10,34.43,34.43,0,0,0-1.27-4.27,37.67,37.67,0,0,0-5.41-9.34,41.59,41.59,0,0,0-3.31-3.72c-1-1-1.73-1.63-2.26-2.07l-.8-.67s.29.19.83.63a29.29,29.29,0,0,1,2.3,2A39.18,39.18,0,0,1,67,221.8a35.38,35.38,0,0,1,3.77,5.68,39.39,39.39,0,0,1,1.73,3.68,32.34,32.34,0,0,1,1.3,4.3,30.38,30.38,0,0,1,.61,10.12,37.52,37.52,0,0,1-3.14,11.23A56.94,56.94,0,0,1,64.51,268c-2.73,3.7-6,7.21-9.15,11.1s-6.2,8.11-9.15,12.61a126.56,126.56,0,0,0-8.29,14.46,76.57,76.57,0,0,0-6,16.57,40.12,40.12,0,0,0-.14,18.34,104.24,104.24,0,0,0,6.3,18.29,171.3,171.3,0,0,0,9.18,17.85q2.58,4.41,5.46,8.7a74.93,74.93,0,0,0,6.3,8.25,10.33,10.33,0,0,0,1.88,1.7,1.75,1.75,0,0,0,.5.24l.6,0a6.6,6.6,0,0,0,1.23-.21,37.39,37.39,0,0,0,4.8-1.85,37.77,37.77,0,0,1,9.84-3.14A22,22,0,0,1,88,392c3.24,1,6.26,2.41,9.35,3.51a17,17,0,0,0,4.7,1.1l.6,0,.58-.06a5.73,5.73,0,0,0,.58-.07l.56-.18a4,4,0,0,0,1.85-1.31,28.24,28.24,0,0,0,2.8-3.87q1.26-2,2.39-4.12c3-5.56,5.68-11.18,8.21-16.68s4.88-10.92,7.24-16.17a73.12,73.12,0,0,0,5.89-15.54,35,35,0,0,0,.42-15.37,29.84,29.84,0,0,0-2.52-6.83c-.48-1.1-1.08-2.12-1.61-3.17s-1.08-2.06-1.65-3.05c-4.49-8-8.95-15-12.89-21.1s-7.43-11.34-10.3-15.59l-6.63-9.76-1.74-2.53C95.43,260.62,95.24,260.32,95.24,260.32Z" style="fill:#263238"></path><g style="opacity:0.5"><path d="M69.74,270.69a88.56,88.56,0,0,0-29.57,54.37,122.21,122.21,0,0,0,18.69,2c2.22.06,4.73,0,6.25-1.66s1.43-4.49,1.19-6.88c-1.6-15.46-.71-32.86,3.44-47.84" style="fill:#fff"></path></g><g style="opacity:0.5"><path d="M63.44,385.53a310.24,310.24,0,0,1-18.79-39.28c-1.14-2.88-2.17-6.35-.38-8.88s5.16-2.7,8.14-2.74,6.19,0,8.33,2.05,2.42,5.49,2.47,8.54q.33,18.82.65,37.67" style="fill:#fff"></path></g><path d="M92.94,214.11c0,.14-7.69.26-17.18.26s-17.18-.12-17.18-.26,7.69-.26,17.18-.26S92.94,214,92.94,214.11Z" style="fill:#fff"></path><path d="M124.12,224.49c0,.1-1.71-.35-4.49-.42a23.7,23.7,0,0,0-19,8.72c-1.77,2.16-2.53,3.73-2.62,3.68a4.82,4.82,0,0,1,.51-1.11,19.18,19.18,0,0,1,1.82-2.8,22.85,22.85,0,0,1,19.35-8.86,19.72,19.72,0,0,1,3.31.45A4.57,4.57,0,0,1,124.12,224.49Z" style="fill:#fff"></path><path d="M144.6,252a25.62,25.62,0,0,1-.16-2.76,28.84,28.84,0,0,0-3.85-12.57c-.85-1.47-1.48-2.32-1.41-2.38a10.23,10.23,0,0,1,1.72,2.19,24.46,24.46,0,0,1,3.91,12.74A10.16,10.16,0,0,1,144.6,252Z" style="fill:#fff"></path><path d="M76.59,248.18a7.56,7.56,0,0,1-.1,2.26,30.65,30.65,0,0,1-3.27,10.4A8,8,0,0,1,72,262.76c-.14-.08,1.56-3.09,2.82-7.13S76.43,248.16,76.59,248.18Z" style="fill:#fff"></path><g style="opacity:0.2"><path d="M119.61,319c-3.91.95-5.83,5.26-7,9.09-2.53,7.87-4.49,16-8.38,23.3S94,365.2,86,367.17c-2.24.55-4.59.74-6.69,1.69s-4,2.93-3.85,5.23a5.53,5.53,0,0,0,3.83,4.54,16.44,16.44,0,0,0,6.22.58c6.17-.22,12.72-.57,17.81-4.08,4.58-3.16,7.21-8.38,9.65-13.38,3.16-6.45,6.33-12.95,8.34-19.86S129,320.24,119.61,319" style="fill:#fff"></path></g></g><g id="freepik--Book--inject-17"><path d="M586.82,140.21V421.15A14.67,14.67,0,0,1,571.2,435.8L360.69,425.38l1.91-285.62,206.86-15.65A16.14,16.14,0,0,1,586.82,140.21Z" style="fill:#8BAA36"></path><path d="M572.17,436.33l-1,0-211-10.45v-.48L362.1,139.3l207.32-15.69a16.65,16.65,0,0,1,17.9,16.6V421.15a15.17,15.17,0,0,1-15.15,15.18Zm-211-11.43,210,10.4a14.18,14.18,0,0,0,15.1-14.15V140.21a15.65,15.65,0,0,0-16.83-15.61l-206.4,15.63Z" style="fill:#263238"></path><polygon points="562.27 123.29 581.66 130.12 581.66 418.41 581.66 424.37 560.71 424.34 562.27 123.29" style="fill:#e0e0e0"></polygon><path d="M361.75,139.16s74.95-28.92,200.34-17l-1.51,302.55-201-4.36Z" style="fill:#fff"></path><path d="M361.75,139.16v1.34c0,.88,0,2.2,0,3.93,0,3.46-.05,8.6-.09,15.27-.09,13.36-.22,32.89-.38,57.64-.36,49.46-.86,119.75-1.46,203l-.23-.23,201,4.33-.27.26c0-3.58,0-7.45.06-11.32.56-109.35,1.08-210.38,1.5-291.23l.19.21A619.47,619.47,0,0,0,478.61,120a518.06,518.06,0,0,0-63.44,6.32,377.2,377.2,0,0,0-39.77,8.63l-5.93,1.72L365.2,138l-3.45,1.18.85-.34,2.58-.9,4.26-1.39,5.93-1.76A371.61,371.61,0,0,1,415.13,126a514,514,0,0,1,63.47-6.43A619.25,619.25,0,0,1,562.11,122l.19,0v.19c-.39,80.85-.88,181.88-1.4,291.23,0,3.88,0,7.74-.06,11.32V425h-.26l-201-4.38h-.24v-.23C360,337,360.61,266.71,361,217.22c.22-24.73.4-44.25.51-57.6.07-6.66.12-11.78.15-15.24,0-1.72,0-3,.05-3.91S361.75,139.16,361.75,139.16Z" style="fill:#263238"></path><path d="M436.65,214.7a7,7,0,1,1,2.83-9.52A7,7,0,0,1,436.65,214.7Z" style="fill:#ff9a6c"></path><g style="opacity:0.30000000000000004"><path d="M436.65,214.7a7,7,0,1,1,2.83-9.52A7,7,0,0,1,436.65,214.7Z" style="fill:#8BAA36"></path></g><path d="M436,213.5a7,7,0,1,1,2.83-9.52A7,7,0,0,1,436,213.5Z" style="fill:#ff9a6c"></path><g style="opacity:0.30000000000000004"><path d="M434.63,211a4.08,4.08,0,1,1,1.64-5.53A4.08,4.08,0,0,1,434.63,211Z" style="fill:#fff"></path></g><path d="M433.93,209.67a2.6,2.6,0,1,1,1.05-3.52A2.59,2.59,0,0,1,433.93,209.67Z" style="fill:#ff9a6c"></path><circle cx="498.9" cy="240.5" r="7.02" transform="translate(-54.92 245.53) rotate(-26.26)" style="fill:#ff9a6c"></circle><g style="opacity:0.30000000000000004"><circle cx="498.9" cy="240.5" r="7.02" transform="translate(-54.92 245.53) rotate(-26.26)" style="fill:#8BAA36"></circle></g><path d="M501.59,245.48a7,7,0,1,1,2.83-9.52A7,7,0,0,1,501.59,245.48Z" style="fill:#ff9a6c"></path><g style="opacity:0.30000000000000004"><circle cx="498.28" cy="239.36" r="4.07" transform="translate(125.98 647.98) rotate(-73.32)" style="fill:#fff"></circle></g><path d="M499.52,241.65a2.6,2.6,0,1,1,1.05-3.53A2.6,2.6,0,0,1,499.52,241.65Z" style="fill:#ff9a6c"></path><polygon points="359.57 319.11 561.09 322.98 560.58 424.74 359.57 420.38 359.57 319.11" style="fill:#455a64"></polygon><ellipse cx="461.3" cy="348.09" rx="29.7" ry="9.19" style="fill:#ebebeb"></ellipse><path d="M491,348.09a4.23,4.23,0,0,0-.34-1.26A6.79,6.79,0,0,0,488,344.2c-2.79-1.75-7.43-3.22-13.25-4.11a91.9,91.9,0,0,0-20.69-.67A68.43,68.43,0,0,0,442,341.37a31.27,31.27,0,0,0-6,2.2,12.08,12.08,0,0,0-2.69,1.81,3.88,3.88,0,0,0-1.44,2.71,3.92,3.92,0,0,0,1.43,2.71,12.16,12.16,0,0,0,2.69,1.8,31.55,31.55,0,0,0,6,2.21,68.68,68.68,0,0,0,12.07,1.95,91.9,91.9,0,0,0,20.69-.67c5.83-.89,10.46-2.36,13.25-4.11a6.79,6.79,0,0,0,2.64-2.63,4.23,4.23,0,0,0,.34-1.26,1.44,1.44,0,0,1,0,.34,2.8,2.8,0,0,1-.25,1,6.72,6.72,0,0,1-2.62,2.75c-2.8,1.83-7.45,3.36-13.31,4.3a90.29,90.29,0,0,1-20.78.79,68.19,68.19,0,0,1-12.16-1.94,31.07,31.07,0,0,1-6.14-2.24,12.33,12.33,0,0,1-2.81-1.88,3.78,3.78,0,0,1,0-6.18,12.71,12.71,0,0,1,2.81-1.89,31.26,31.26,0,0,1,6.14-2.23A68.19,68.19,0,0,1,454,338.94a90.29,90.29,0,0,1,20.78.79c5.86.94,10.51,2.47,13.31,4.3a6.72,6.72,0,0,1,2.62,2.75,2.8,2.8,0,0,1,.25,1A1.44,1.44,0,0,1,491,348.09Z" style="fill:#263238"></path><ellipse cx="459.18" cy="277.13" rx="82.2" ry="27.88" style="fill:#ebebeb"></ellipse><path d="M377,278c0,39.28,37.37,73.22,82.93,73.22s81.47-34.75,81.47-74Z" style="fill:#ebebeb"></path><path d="M535.14,278c0,9.35-33.11,21.93-77.76,21.93-41.65,0-71.23-11.34-73.53-19.86-3.53-13.13,35.23-26,76.88-26.15C502.71,253.78,535.14,269.12,535.14,278Z" style="fill:#e0e0e0"></path><path d="M386.77,284.18c12,9.41,40.09,15.59,72.25,15.59,35.16,0,64.88-7.87,74.69-18.71-7.07-12-36.9-21-72.62-21C422.71,260,390.64,270.85,386.77,284.18Z" style="fill:#8BAA36"></path><path d="M475.31,327.7a9.22,9.22,0,0,1-1.76-.18c-2.62-.5-5.2-2.27-7.69-4-3.09-2.12-6.27-4.31-9.36-3.93-2,.25-3.77,1.51-5.5,2.72-2.05,1.44-4.19,2.91-6.74,2.87-2.83-.07-5-2-7.08-3.81-1.91-1.68-3.71-3.27-6-3.6-2.67-.39-5.13,1.08-7.73,2.64-2.76,1.64-5.61,3.34-8.75,2.61s-5-3.6-6.74-6.37c-1.64-2.6-3.19-5.05-5.78-5.93-2-.68-4.24-.3-6.38.07-2.82.48-5.73,1-8.1-1a9.35,9.35,0,0,1-1.52-1.88c-1-1.53-1.79-2.5-2.72-2.06l-.43-.9c1.77-.84,3,1,4,2.4a8.46,8.46,0,0,0,1.33,1.67c2,1.67,4.57,1.24,7.29.77,2.27-.39,4.61-.79,6.87,0,2.93,1,4.64,3.71,6.3,6.34s3.33,5.28,6.13,5.93,5.3-.89,8-2.5,5.36-3.21,8.38-2.77c2.57.37,4.57,2.13,6.51,3.84s4,3.5,6.43,3.56c2.24.06,4.14-1.28,6.14-2.69,1.83-1.28,3.72-2.61,6-2.89,3.45-.43,6.8,1.87,10,4.09,2.41,1.66,4.91,3.38,7.32,3.84,4.14.8,6.81-1.61,9.65-4.15s5.65-5.09,10.07-4.81c2.12.13,4.39,1.38,6.58,2.59s4.31,2.37,6,2.29c3.11-.16,5.13-2.85,7.27-5.7,1.87-2.47,3.8-5,6.58-6,3.18-1.16,8,.59,11.16,1.75l-.34.94c-2.86-1-7.64-2.78-10.47-1.75-2.51.91-4.35,3.35-6.13,5.71-2.19,2.9-4.45,5.9-8,6.09-2,.12-4.23-1.12-6.58-2.42-2.09-1.15-4.25-2.34-6.15-2.46-4-.24-6.6,2.08-9.35,4.55C481.55,325.38,479,327.7,475.31,327.7Z" style="fill:#fff"></path><path d="M505.17,315.92a1.25,1.25,0,0,0,0-2.5,1.25,1.25,0,0,0,0,2.5Z" style="fill:#fff"></path><path d="M475,320h.2a.89.89,0,0,0,.48-.11,1.15,1.15,0,0,0,.66-.66.89.89,0,0,0,.11-.48l0-.33a1.2,1.2,0,0,0-.33-.55l-.25-.2a1.24,1.24,0,0,0-.63-.17H475a.91.91,0,0,0-.49.11.87.87,0,0,0-.4.26.9.9,0,0,0-.26.4.89.89,0,0,0-.1.48l0,.33a1.27,1.27,0,0,0,.32.55l.25.2a1.3,1.3,0,0,0,.64.17Z" style="fill:#fff"></path><path d="M492.82,326.75a1.25,1.25,0,0,0,0-2.5,1.25,1.25,0,0,0,0,2.5Z" style="fill:#fff"></path><path d="M531.35,307.41a1.25,1.25,0,0,0,0-2.5,1.25,1.25,0,0,0,0,2.5Z" style="fill:#fff"></path><path d="M521.31,320a1.25,1.25,0,0,0,0-2.5,1.25,1.25,0,0,0,0,2.5Z" style="fill:#fff"></path><path d="M457.38,327.26a1.25,1.25,0,0,0,0-2.5,1.25,1.25,0,0,0,0,2.5Z" style="fill:#fff"></path><path d="M442.88,317.56a1.25,1.25,0,0,0,0-2.5,1.25,1.25,0,0,0,0,2.5Z" style="fill:#fff"></path><path d="M429.2,325.83a1.25,1.25,0,0,0,0-2.5,1.25,1.25,0,0,0,0,2.5Z" style="fill:#fff"></path><path d="M416.53,314.19a1.25,1.25,0,0,0,0-2.5,1.25,1.25,0,0,0,0,2.5Z" style="fill:#fff"></path><path d="M399.17,318.27a1.25,1.25,0,0,0,0-2.5,1.25,1.25,0,0,0,0,2.5Z" style="fill:#fff"></path><path d="M392.23,306.53a1.25,1.25,0,0,0,0-2.5,1.25,1.25,0,0,0,0,2.5Z" style="fill:#fff"></path><path d="M541.38,277.13a12,12,0,0,0-.77-3.62,13.2,13.2,0,0,0-2.32-3.83,23.39,23.39,0,0,0-4.52-4.14,59,59,0,0,0-15.09-7.48A133.5,133.5,0,0,0,497,252.57a207.74,207.74,0,0,0-27-2.85,240.17,240.17,0,0,0-31.13.63c-5.47.47-11.05,1.17-16.71,2.14a145.72,145.72,0,0,0-17.11,3.93,78.52,78.52,0,0,0-16.76,6.89A32.36,32.36,0,0,0,381,268.9a15.74,15.74,0,0,0-2.65,3.77,9.67,9.67,0,0,0,0,8.9,16,16,0,0,0,2.65,3.78,32.36,32.36,0,0,0,7.33,5.59,78.43,78.43,0,0,0,16.77,6.9,146.82,146.82,0,0,0,17.11,3.93c5.66,1,11.24,1.67,16.71,2.14a240.17,240.17,0,0,0,31.13.63,209.51,209.51,0,0,0,27-2.85,134,134,0,0,0,21.68-5.49,59.15,59.15,0,0,0,15.09-7.48,23.39,23.39,0,0,0,4.52-4.14,13.49,13.49,0,0,0,2.33-3.83,12.08,12.08,0,0,0,.76-3.62s0,.32,0,.95c0,.15,0,.33,0,.52s-.08.41-.13.63-.11.48-.16.74l-.3.82a13.2,13.2,0,0,1-2.3,3.89,23.53,23.53,0,0,1-4.52,4.2,58.92,58.92,0,0,1-15.11,7.59,132.45,132.45,0,0,1-21.71,5.58A208,208,0,0,1,470,305a239,239,0,0,1-31.19-.58c-5.48-.47-11.08-1.16-16.75-2.13a146.35,146.35,0,0,1-17.18-3.93A79.25,79.25,0,0,1,388,291.39a33.2,33.2,0,0,1-7.45-5.68,16.47,16.47,0,0,1-2.74-3.91,10.22,10.22,0,0,1,0-9.36,16.42,16.42,0,0,1,2.74-3.9,33.2,33.2,0,0,1,7.45-5.68,79,79,0,0,1,16.88-6.93A146.2,146.2,0,0,1,422.1,252c5.67-1,11.27-1.66,16.75-2.13a240.8,240.8,0,0,1,31.19-.59,209.41,209.41,0,0,1,27,2.92,133.29,133.29,0,0,1,21.72,5.59,59.1,59.1,0,0,1,15.11,7.58,23.56,23.56,0,0,1,4.52,4.21,13.07,13.07,0,0,1,2.3,3.89c.11.29.21.56.3.82s.11.51.16.73.09.44.13.63,0,.37,0,.53C541.38,276.81,541.38,277.13,541.38,277.13Z" style="fill:#263238"></path><path d="M460.73,253.89l.85,0h2.5c2.2,0,5.45.1,9.62.39s9.26.8,15.12,1.75a144.86,144.86,0,0,1,19.63,4.59,99.88,99.88,0,0,1,11,4.1,53.23,53.23,0,0,1,11,6.31,14.63,14.63,0,0,1,4.44,5.07c.11.27.19.56.28.84a4.55,4.55,0,0,1,.13.89,4.84,4.84,0,0,1-.29,1.77,9,9,0,0,1-2,3,25.56,25.56,0,0,1-5.76,4.25,59.22,59.22,0,0,1-6.62,3.16,108,108,0,0,1-14.46,4.63c-5,1.27-10.21,2.3-15.52,3.11a220.87,220.87,0,0,1-33.18,2.47,209.33,209.33,0,0,1-33.17-2.55,151.13,151.13,0,0,1-15.49-3.32,90,90,0,0,1-14.3-5.1,40.36,40.36,0,0,1-6.37-3.66,16.3,16.3,0,0,1-2.73-2.38,7.54,7.54,0,0,1-1.87-3.09,7.15,7.15,0,0,1,.06-3.56,4.35,4.35,0,0,1,.3-.83,4.44,4.44,0,0,1,.36-.8,9.58,9.58,0,0,1,.94-1.46,21,21,0,0,1,5-4.53,56.56,56.56,0,0,1,11.39-5.68,112.85,112.85,0,0,1,11.18-3.55,167.23,167.23,0,0,1,19.78-3.9c5.88-.81,11-1.25,15.15-1.51,8.34-.51,13-.35,13-.35s-.29,0-.85,0l-2.5.06c-2.2.06-5.44.16-9.6.45s-9.25.76-15.12,1.6a167.35,167.35,0,0,0-19.72,4,109.91,109.91,0,0,0-11.14,3.57,56.74,56.74,0,0,0-11.29,5.65,20.75,20.75,0,0,0-4.87,4.44,10.29,10.29,0,0,0-.91,1.41,5.18,5.18,0,0,0-.34.76,4.36,4.36,0,0,0-.28.79,6.66,6.66,0,0,0,0,3.32,7.08,7.08,0,0,0,1.76,2.89,16.4,16.4,0,0,0,2.66,2.31,39.71,39.71,0,0,0,6.3,3.6A89.67,89.67,0,0,0,409,293.81a147.54,147.54,0,0,0,15.44,3.29,208.24,208.24,0,0,0,33.09,2.54,221.15,221.15,0,0,0,33.1-2.45c5.3-.81,10.48-1.83,15.48-3.09a109.55,109.55,0,0,0,14.4-4.59,56.54,56.54,0,0,0,6.56-3.13,25.48,25.48,0,0,0,5.67-4.15,8.57,8.57,0,0,0,1.86-2.8,4.06,4.06,0,0,0-.1-3.17,14,14,0,0,0-4.3-4.91,53,53,0,0,0-10.94-6.29A103.53,103.53,0,0,0,508.34,261a144.72,144.72,0,0,0-19.57-4.65c-5.85-1-10.93-1.52-15.09-1.84s-7.4-.43-9.6-.48l-2.5,0Z" style="fill:#263238"></path><circle cx="411.37" cy="283.68" r="3.89" style="fill:#455a64"></circle><path d="M409.5,285.22s-.27-.17-.52-.59a2.84,2.84,0,0,1-.33-1.87,2.78,2.78,0,0,1,1-1.64,1.48,1.48,0,0,1,.69-.38s-.25.16-.59.49a2.94,2.94,0,0,0-.85,1.56,3,3,0,0,0,.26,1.77C409.31,285,409.52,285.2,409.5,285.22Z" style="fill:#fff"></path><path d="M405.07,282.59a10.59,10.59,0,0,0,10.43,1c.58-.27,1.33-.59,1.81-.16a1,1,0,0,1,.26,1.05,2.54,2.54,0,0,1-.61.95,8.34,8.34,0,0,1-9.51,1.76,4.83,4.83,0,0,1-1.92-1.57,2.66,2.66,0,0,1-.35-2.39" style="fill:#8BAA36"></path><path d="M494.08,288.23a3.89,3.89,0,1,1-3.89-3.89A3.89,3.89,0,0,1,494.08,288.23Z" style="fill:#455a64"></path><path d="M488.32,289.77s-.27-.16-.52-.59a2.75,2.75,0,0,1,.63-3.51,1.39,1.39,0,0,1,.69-.38s-.26.16-.59.49a2.88,2.88,0,0,0-.85,1.57,2.93,2.93,0,0,0,.25,1.76C488.14,289.53,488.35,289.75,488.32,289.77Z" style="fill:#fff"></path><path d="M483.89,287.14a10.57,10.57,0,0,0,10.43,1c.59-.27,1.33-.58,1.82-.16a1.05,1.05,0,0,1,.25,1.05,2.46,2.46,0,0,1-.61.95,8.31,8.31,0,0,1-9.51,1.76,4.75,4.75,0,0,1-1.92-1.57,2.66,2.66,0,0,1-.34-2.39" style="fill:#8BAA36"></path><path d="M433.25,289.12a3,3,0,1,1-3-3A3,3,0,0,1,433.25,289.12Z" style="fill:#455a64"></path><path d="M428.86,290.3s-.21-.12-.41-.45a2.09,2.09,0,0,1,.48-2.69c.3-.24.53-.3.54-.28a2.33,2.33,0,0,0-.61,3.42Z" style="fill:#fff"></path><path d="M425.49,288.29a8.06,8.06,0,0,0,7.95.74c.44-.21,1-.45,1.38-.13a.78.78,0,0,1,.19.8,2,2,0,0,1-.46.73,6.36,6.36,0,0,1-7.25,1.34,3.72,3.72,0,0,1-1.46-1.2,2,2,0,0,1-.26-1.82" style="fill:#8BAA36"></path><circle cx="502.47" cy="276.56" r="2.96" style="fill:#455a64"></circle><path d="M501.05,277.74s-.22-.12-.41-.45a2.06,2.06,0,0,1,.48-2.69c.29-.24.52-.3.53-.28a2.32,2.32,0,0,0-.6,3.42Z" style="fill:#fff"></path><path d="M497.67,275.73a8.06,8.06,0,0,0,7.95.74c.44-.21,1-.45,1.38-.13a.78.78,0,0,1,.19.8,1.88,1.88,0,0,1-.46.73,6.34,6.34,0,0,1-7.24,1.34A3.6,3.6,0,0,1,498,278a2,2,0,0,1-.26-1.82" style="fill:#8BAA36"></path><path d="M452.92,289.73a6.05,6.05,0,1,1-6.05-6.05A6.05,6.05,0,0,1,452.92,289.73Z" style="fill:#ff9a6c"></path><g style="opacity:0.30000000000000004"><path d="M452.92,289.73a6.05,6.05,0,1,1-6.05-6.05A6.05,6.05,0,0,1,452.92,289.73Z" style="fill:#8BAA36"></path></g><path d="M451.74,289.73a6.05,6.05,0,1,1-6.05-6.05A6.05,6.05,0,0,1,451.74,289.73Z" style="fill:#ff9a6c"></path><g style="opacity:0.30000000000000004"><path d="M449.26,289.73a3.51,3.51,0,1,1-3.51-3.51A3.51,3.51,0,0,1,449.26,289.73Z" style="fill:#fff"></path></g><path d="M448,289.73a2.24,2.24,0,1,1-2.24-2.25A2.24,2.24,0,0,1,448,289.73Z" style="fill:#ff9a6c"></path><path d="M457.27,291.23a2.26,2.26,0,0,0-2.33-1.19c-2.75.13-5.06,2.46-7.81,2.46-1.61,0-3.09-.8-4.65-1.18a9.18,9.18,0,0,0-7.94,1.85l.3.39a16.54,16.54,0,0,0,21.13.29C456.78,293.2,457.6,292.22,457.27,291.23Z" style="fill:#8BAA36"></path><circle cx="487.46" cy="272.27" r="7.54" transform="translate(110.17 683.85) rotate(-76.67)" style="fill:#ff9a6c"></circle><g style="opacity:0.30000000000000004"><circle cx="487.46" cy="272.27" r="7.54" transform="translate(110.17 683.85) rotate(-76.67)" style="fill:#8BAA36"></circle></g><circle cx="486" cy="272.27" r="7.54" transform="translate(109.04 682.42) rotate(-76.67)" style="fill:#ff9a6c"></circle><g style="opacity:0.30000000000000004"><circle cx="486.07" cy="272.27" r="4.37" style="fill:#fff"></circle></g><path d="M488.87,272.27a2.8,2.8,0,1,1-2.8-2.79A2.8,2.8,0,0,1,488.87,272.27Z" style="fill:#ff9a6c"></path><path d="M500.41,274.15c-.37-1.11-1.72-1.54-2.89-1.49-3.42.16-6.3,3.06-9.73,3.06-2,0-3.85-1-5.79-1.46a11.45,11.45,0,0,0-9.9,2.3l.38.48a20.62,20.62,0,0,0,26.32.37C499.81,276.6,500.83,275.37,500.41,274.15Z" style="fill:#8BAA36"></path><path d="M478.45,285.24c0,2-2.67,3.54-6,3.54s-6.09-1.63-6.09-3.63c0-.71-.06-1.8-.06-1.8a11.12,11.12,0,0,1,6.15-2.46c2.62,0,5.59.38,6,2.45Z" style="fill:#ff9a6c"></path><g style="opacity:0.30000000000000004"><path d="M478.45,285.24c0,2-2.67,3.54-6,3.54s-6.09-1.63-6.09-3.63c0-.71-.06-1.8-.06-1.8a11.12,11.12,0,0,1,6.15-2.46c2.62,0,5.59.38,6,2.45Z" style="fill:#8BAA36"></path></g><path d="M478.45,283.53c0,2-2.73,3.63-6.09,3.63s-6.09-1.63-6.09-3.63,2.73-3.62,6.09-3.62S478.45,281.53,478.45,283.53Z" style="fill:#ff9a6c"></path><g style="opacity:0.30000000000000004"><path d="M476,283.53c0,1.16-1.58,2.1-3.53,2.1s-3.53-.94-3.53-2.1,1.58-2.1,3.53-2.1S476,282.37,476,283.53Z" style="fill:#fff"></path></g><path d="M474.68,283.53c0,.74-1,1.35-2.26,1.35s-2.26-.61-2.26-1.35,1-1.34,2.26-1.34S474.68,282.79,474.68,283.53Z" style="fill:#ff9a6c"></path><path d="M514.26,285.82c0,2-2.66,3.55-6,3.55s-6.09-1.63-6.09-3.63c0-.71-.06-1.8-.06-1.8a11.1,11.1,0,0,1,6.15-2.47c2.61,0,5.59.38,6,2.45C514.27,283.92,514.26,285.38,514.26,285.82Z" style="fill:#ff9a6c"></path><g style="opacity:0.30000000000000004"><path d="M514.26,285.82c0,2-2.66,3.55-6,3.55s-6.09-1.63-6.09-3.63c0-.71-.06-1.8-.06-1.8a11.1,11.1,0,0,1,6.15-2.47c2.61,0,5.59.38,6,2.45C514.27,283.92,514.26,285.38,514.26,285.82Z" style="fill:#8BAA36"></path></g><path d="M514.26,284.12c0,2-2.72,3.62-6.09,3.62s-6.08-1.62-6.08-3.62,2.72-3.62,6.08-3.62S514.26,282.12,514.26,284.12Z" style="fill:#ff9a6c"></path><g style="opacity:0.30000000000000004"><path d="M511.77,284.12c0,1.16-1.58,2.1-3.53,2.1s-3.54-.94-3.54-2.1,1.59-2.1,3.54-2.1S511.77,283,511.77,284.12Z" style="fill:#fff"></path></g><path d="M510.49,284.12c0,.74-1,1.34-2.25,1.34s-2.26-.6-2.26-1.34,1-1.34,2.26-1.34S510.49,283.38,510.49,284.12Z" style="fill:#ff9a6c"></path><path d="M440,278.66c0,3.21-4.27,5.68-9.67,5.68s-9.77-2.6-9.77-5.81c0-1.15-.09-2.89-.09-2.89,1.73-1.63,6.39-4,9.86-4,4.2,0,9,.61,9.68,3.93C440,275.61,440,278,440,278.66Z" style="fill:#ff9a6c"></path><g style="opacity:0.30000000000000004"><path d="M440,278.66c0,3.21-4.27,5.68-9.67,5.68s-9.77-2.6-9.77-5.81c0-1.15-.09-2.89-.09-2.89,1.73-1.63,6.39-4,9.86-4,4.2,0,9,.61,9.68,3.93C440,275.61,440,278,440,278.66Z" style="fill:#8BAA36"></path></g><path d="M440,275.93c0,3.21-4.37,5.81-9.77,5.81s-9.76-2.6-9.76-5.81,4.37-5.82,9.76-5.82S440,272.72,440,275.93Z" style="fill:#ff9a6c"></path><g style="opacity:0.30000000000000004"><ellipse cx="430.35" cy="275.93" rx="5.67" ry="3.37" style="fill:#fff"></ellipse></g><ellipse cx="430.35" cy="275.93" rx="3.62" ry="2.15" style="fill:#ff9a6c"></ellipse><g style="opacity:0.2"><path d="M470.69,272.55c-2.57.3-4.73,2-6.86,3.41s-4.62,2.81-7.17,2.39c-1.12-.19-2.4-.69-3.29,0l-5.59.34a3.12,3.12,0,0,0-2.42,1.81c1.63,1.14,3.87.74,5.72,1.47a12.33,12.33,0,0,1,2.83,1.88,6,6,0,0,0,3,1.44,2.49,2.49,0,0,0,2.67-1.64,9,9,0,0,1,.24-1.48,1.9,1.9,0,0,1,1.57-1,10.65,10.65,0,0,1,1.95.08,3.26,3.26,0,0,0,2.8-.87c.65-.78.36-2.27-.64-2.42a29.47,29.47,0,0,0,6.14-2.35c.7-.36,1.48-.91,1.46-1.7C473.13,272.85,471.74,272.43,470.69,272.55Z"></path></g><path d="M441.44,266.2a13.5,13.5,0,0,0,4.34,11.21,12.56,12.56,0,0,0,11.13,3.18,13.86,13.86,0,0,0-15.47-14.39Z" style="fill:#455a64"></path><path d="M444.9,269.12a15.1,15.1,0,0,1,1.73,1.89c1,1.18,2.51,2.79,4.24,4.45s3.39,3.07,4.62,4.06a17.11,17.11,0,0,1,1.95,1.66,10.81,10.81,0,0,1-2.18-1.36,45.4,45.4,0,0,1-4.75-4,44.82,44.82,0,0,1-4.16-4.6A10.41,10.41,0,0,1,444.9,269.12Z" style="fill:#263238"></path><path d="M459.19,292.61a.73.73,0,1,0,.94.91.78.78,0,0,0-.81-.95" style="fill:#455a64"></path><path d="M514.73,277.06a.74.74,0,1,0,.13,0" style="fill:#455a64"></path><path d="M433.93,265.47a.76.76,0,0,0-.27,1.21.77.77,0,0,0,1.21-.29.78.78,0,0,0-.81-1" style="fill:#455a64"></path><path d="M459.45,271.34a.73.73,0,1,0,.94.92.78.78,0,0,0-.81-1" style="fill:#455a64"></path><path d="M497.13,281.66a.73.73,0,1,0,.94.91.78.78,0,0,0-.81-.95" style="fill:#455a64"></path><path d="M415.87,289a.74.74,0,1,0,.13,0" style="fill:#455a64"></path><g style="opacity:0.2"><path d="M415.07,269.57a7.89,7.89,0,0,0-3.74.06c-3.9.71-10.73,4-13.89,6.35-1.71,1.3-3.36,3-3.62,5.13a6,6,0,0,0,1.71,4.68,11.79,11.79,0,0,0,4.3,2.75,5.51,5.51,0,0,0,2.58.53,2.28,2.28,0,0,0,2-1.47c.62-2.09-2.77-3.68-2.38-5.83s3.87-2,5-3.89c.41-.65.47-1.47.88-2.12.94-1.47,3.06-1.39,4.81-1.3s4-.36,4.3-2.08A2.7,2.7,0,0,0,415.07,269.57Z" style="fill:#fff"></path></g><g style="opacity:0.2"><path d="M423,287.94a1.82,1.82,0,1,1-1.81-1.82A1.81,1.81,0,0,1,423,287.94Z" style="fill:#fff"></path></g><g style="opacity:0.2"><path d="M451.18,295.81a2.32,2.32,0,0,0-1.77.06c-.56.21-1.1.52-1.68.68A5.89,5.89,0,0,1,444,296a13.32,13.32,0,0,0-3.63-1.19,3.19,3.19,0,0,0-3.24,1.54c-.21.95,3.12.91,5.06,1l7.88.44c.62,0,1.37,0,1.69-.53A1.12,1.12,0,0,0,451.18,295.81Z"></path></g><g style="opacity:0.2"><path d="M479.41,288a4.4,4.4,0,0,0-1.18,1.25,11.59,11.59,0,0,1-9.77,4.55h-.35c-.25-.41-1,0-.93.49s.53.79,1,1a5.5,5.5,0,0,0,4,0c.64-.25,1.22-.62,1.86-.85a9.9,9.9,0,0,1,2.71-.37,8.29,8.29,0,0,0,3.9-1,3.46,3.46,0,0,0,1.78-3.38A2.23,2.23,0,0,0,479.41,288Z"></path></g><path d="M472.61,258.18a13.47,13.47,0,0,0-9.43,7.45,12.57,12.57,0,0,0,.23,11.57,13.86,13.86,0,0,0,9.2-19Z" style="fill:#455a64"></path><path d="M470.84,262.35a16.85,16.85,0,0,1-1.29,2.2c-.83,1.35-1.93,3.22-3,5.37s-1.94,4.14-2.52,5.61a16.17,16.17,0,0,1-1,2.35,10.83,10.83,0,0,1,.66-2.48,44,44,0,0,1,2.4-5.72,46,46,0,0,1,3.17-5.33A10.42,10.42,0,0,1,470.84,262.35Z" style="fill:#263238"></path><path d="M468.17,292.34a9.17,9.17,0,0,0-1.32-8.08,8.53,8.53,0,0,0-7-3.69,9.44,9.44,0,0,0,8.29,11.77Z" style="fill:#455a64"></path><path d="M466.27,289.91c-.14.07-1.31-2.33-3.15-5s-3.63-4.68-3.51-4.79a24.19,24.19,0,0,1,6.66,9.81Z" style="fill:#263238"></path><g style="opacity:0.2"><path d="M492.66,278.08a4.39,4.39,0,0,0-1.71.28c-3.56,1.06-6.64,2.06-10.31,1.55-.29-.15-.61.26-.51.57a1.24,1.24,0,0,0,.68.65,5.76,5.76,0,0,0,3.62,1,16.69,16.69,0,0,0,2.42-1c1.88-.62,4,.12,5.86-.6.64-.25,1.28-.81,1.19-1.49A1.34,1.34,0,0,0,492.66,278.08Z"></path></g><g style="opacity:0.2"><path d="M455.73,262.3l1.32.18a103.29,103.29,0,0,0-17.28,1.65c-.45.09-1,.22-1.15.62a1,1,0,0,0,.56,1.24,2.93,2.93,0,0,0,1.47.16l13.89-.91c2.37-.16,5.16-.56,6.29-2.66A14.58,14.58,0,0,0,455.73,262.3Z"></path></g><g style="opacity:0.2"><path d="M525.23,275.91c-2.67-2.52-6.21-3.86-9.65-5.14l-11.27-4.18c-1.51-.56-3.38-1.06-4.58,0l.08,1c2.42.38,5,.85,6.71,2.61.64.66,1.16,1.51,2,1.87,1.62.69,3.71-.68,5.17.3.73.49,1,1.44,1.75,2,1.08.82,2.65.38,4,.76a3.33,3.33,0,0,1,1.42,5.19c-.8.85-2.19,1.58-1.91,2.72s1.83,1.16,3,.95c2.13-.4,4.62-1.12,5.27-3.18C527.71,279,526.57,277.17,525.23,275.91Z"></path></g><path d="M454.56,188.49a1.51,1.51,0,0,1,.54.27,3.42,3.42,0,0,1,1.12,1.32,6,6,0,0,1,.61,2.68,8.2,8.2,0,0,1-.87,3.52,30.28,30.28,0,0,1-2.28,3.74,13.09,13.09,0,0,0-2.07,4.41,8.73,8.73,0,0,0,.67,5.25,27.64,27.64,0,0,0,3,5,21.39,21.39,0,0,1,2.82,5.28,8.41,8.41,0,0,1,0,5.58,12.16,12.16,0,0,1-2.94,4.11,30.41,30.41,0,0,0-3,3.13,6.68,6.68,0,0,0-1.42,5.78,4.21,4.21,0,0,0,1.12,1.95,1.87,1.87,0,0,1-.47-.38,3.86,3.86,0,0,1-.85-1.51,6.33,6.33,0,0,1-.15-2.74,7.72,7.72,0,0,1,1.48-3.32,28.82,28.82,0,0,1,3-3.21,11.82,11.82,0,0,0,2.8-4,7.83,7.83,0,0,0-.07-5.25,21.05,21.05,0,0,0-2.76-5.14,27.77,27.77,0,0,1-3-5.14,9.22,9.22,0,0,1-.66-5.54,13.54,13.54,0,0,1,2.18-4.55,30.67,30.67,0,0,0,2.31-3.66,7.93,7.93,0,0,0,.91-3.36,6,6,0,0,0-.5-2.59A3.8,3.8,0,0,0,454.56,188.49Z" style="fill:#263238"></path><path d="M471.62,186.31a1.58,1.58,0,0,1,.55.27,3.5,3.5,0,0,1,1.11,1.32,6.16,6.16,0,0,1,.62,2.68,8.22,8.22,0,0,1-.88,3.52,30.15,30.15,0,0,1-2.27,3.74,12.92,12.92,0,0,0-2.08,4.41,8.8,8.8,0,0,0,.67,5.25,28.22,28.22,0,0,0,3,5,21.39,21.39,0,0,1,2.82,5.28,8.35,8.35,0,0,1,0,5.58,12,12,0,0,1-2.94,4.11,29.22,29.22,0,0,0-3,3.13,6.69,6.69,0,0,0-1.43,5.78,4.43,4.43,0,0,0,1.12,2,1.87,1.87,0,0,1-.47-.38,3.82,3.82,0,0,1-.84-1.51,6.17,6.17,0,0,1-.16-2.74,7.72,7.72,0,0,1,1.48-3.32,29.93,29.93,0,0,1,3-3.22,11.66,11.66,0,0,0,2.79-4,7.83,7.83,0,0,0-.07-5.25,20.72,20.72,0,0,0-2.76-5.14,27.72,27.72,0,0,1-3-5.14,9.23,9.23,0,0,1-.67-5.54,13.37,13.37,0,0,1,2.19-4.55,31.33,31.33,0,0,0,2.3-3.66,7.94,7.94,0,0,0,.91-3.37,5.87,5.87,0,0,0-.5-2.58A3.8,3.8,0,0,0,471.62,186.31Z" style="fill:#263238"></path><path d="M541.38,277.13s0,.21,0,.63,0,1.05,0,1.85-.06,1.82-.15,3c0,.59-.08,1.23-.16,1.91s-.18,1.41-.29,2.17a68.45,68.45,0,0,1-8.68,24.57A81.91,81.91,0,0,1,505.34,339a87.81,87.81,0,0,1-9.88,5.36,85.55,85.55,0,0,1-11,4.07,83.64,83.64,0,0,1-11.9,2.46,84.89,84.89,0,0,1-12.5.54,97.43,97.43,0,0,1-45.35-13q-1.2-.68-2.34-1.41l-2.27-1.45c-1.45-1-2.93-2-4.28-3.08a81.55,81.55,0,0,1-7.66-6.57,76.58,76.58,0,0,1-11.38-14,64,64,0,0,1-9.13-24.38c-.11-.77-.22-1.49-.31-2.17s-.12-1.32-.17-1.92c-.11-1.18-.18-2.19-.17-3s0-1.42,0-1.85a6,6,0,0,1,0-.63s0,.21,0,.63l.08,1.84c0,.82.1,1.82.22,3,.06.59.13,1.23.19,1.91s.22,1.39.34,2.15a64.46,64.46,0,0,0,9.24,24.22,76.9,76.9,0,0,0,11.37,13.93,83.56,83.56,0,0,0,7.63,6.52c1.36,1.07,2.82,2,4.27,3.05l2.27,1.43c.75.5,1.52,1,2.32,1.4a97.25,97.25,0,0,0,45.13,12.88,83.81,83.81,0,0,0,12.42-.54,82.5,82.5,0,0,0,11.82-2.43,85.93,85.93,0,0,0,10.93-4,86.86,86.86,0,0,0,9.83-5.32,81.75,81.75,0,0,0,26.71-27.5,69.27,69.27,0,0,0,8.8-24.42c.11-.76.22-1.48.32-2.16s.12-1.31.17-1.9c.11-1.19.2-2.19.2-3s.05-1.42.06-1.85S541.38,277.13,541.38,277.13Z" style="fill:#263238"></path><path d="M417.49,362.38a10.08,10.08,0,0,0-4.38-6.85c-2.55-1.54-6.88-.34-6.88-.34a15.2,15.2,0,0,0-3-2.39c-3.34-1.77-9.72-.56-11.46,2.65-2.51-2.65-9-2.19-11.76.38a15.08,15.08,0,0,0-2.3,3.09s-4.49-.06-6.56,2.09a10,10,0,0,0-2.48,7.74c.06,1.18.17,2.38.33,3.58A63.84,63.84,0,0,0,377,395.4a7.86,7.86,0,0,0,.57.85c2.67,3.5,6.33,2.43,8.4,1.24.9,1.71,2.26,3.36,4.17,3.64,3.29.47,5.61-.82,7.4-1v0c1.77-.32,4.35.34,7.41-1,1.77-.76,2.66-2.71,3.09-4.59,2.3.62,6.12.71,7.8-3.35a7.85,7.85,0,0,0,.34-1,63.75,63.75,0,0,0,1.86-24.36C417.93,364.72,417.74,363.54,417.49,362.38Z" style="fill:#8BAA36"></path><g style="opacity:0.30000000000000004"><path d="M413.12,355.58c-2.56-1.54-6.88-.34-6.88-.34a15.4,15.4,0,0,0-3-2.39c-3.33-1.77-9.72-.55-11.46,2.65-2.5-2.65-9-2.19-11.75.38A15.36,15.36,0,0,0,377.7,359s-4.48,0-6.56,2.09c-.12.13-.23.28-.34.41,2.29-.66,6,0,10.25,2.87,0,0,2.07-4.08,8.71-2.83a10.12,10.12,0,0,0,5.45-.43c5.2-2,8.18-.28,10.23,2.71,1.77,2.57,3.8,18.49,2.65,30.83,2.47.67,6.69.72,8.14-4.32,2.22-7.71,3.22-18.67,1.27-27.87A10.07,10.07,0,0,0,413.12,355.58Z"></path></g><path d="M389.49,354.32a10.91,10.91,0,0,1-1.64,7,12.5,12.5,0,0,1,1.91.21,10.12,10.12,0,0,0,5.45-.43,16.26,16.26,0,0,1,1.82-.57,37.84,37.84,0,0,1-2.57-5.07,13.22,13.22,0,0,1-.59-1.74,8.73,8.73,0,0,1,1.93-8.42c-2.78-5.32-7.07-2.39-7.07-2.39s-.71,2.73.48,9.09A19.39,19.39,0,0,1,389.49,354.32Z" style="fill:#455a64"></path><g style="opacity:0.2"><path d="M389.49,354.32a10.91,10.91,0,0,1-1.64,7,12.5,12.5,0,0,1,1.91.21,10.12,10.12,0,0,0,5.45-.43,16.26,16.26,0,0,1,1.82-.57,37.84,37.84,0,0,1-2.57-5.07,13.22,13.22,0,0,1-.59-1.74,8.73,8.73,0,0,1,1.93-8.42c-2.78-5.32-7.07-2.39-7.07-2.39s-.71,2.73.48,9.09A19.39,19.39,0,0,1,389.49,354.32Z"></path></g><path d="M381.05,364.33c.13,0-.5,1.87-.73,4.94a43,43,0,0,0,1.18,12,113.68,113.68,0,0,0,3.14,11.67,48.19,48.19,0,0,1,1.48,4.81,5.68,5.68,0,0,1-.61-1.22c-.35-.79-.82-2-1.35-3.42a81.81,81.81,0,0,1-3.36-11.7,38.09,38.09,0,0,1-1-12.13,21.31,21.31,0,0,1,.74-3.64A4.52,4.52,0,0,1,381.05,364.33Z" style="fill:#263238"></path><path d="M397.22,399.19c-.19,0-1.37-7.74-2.62-17.33s-2.1-17.39-1.91-17.42,1.37,7.73,2.62,17.33S397.42,399.16,397.22,399.19Z" style="fill:#263238"></path><path d="M400.83,360.38a2.74,2.74,0,0,1,1.49.27,6.34,6.34,0,0,1,3.07,2.78,15.92,15.92,0,0,1,2,5.78c.43,2.25.81,4.74,1.08,7.36a84.17,84.17,0,0,1,.32,13.51c-.1,1.72-.25,3.11-.37,4.07a6.09,6.09,0,0,1-.27,1.48c-.12,0,.06-2.14.13-5.57a106.31,106.31,0,0,0-.53-13.41c-.27-2.61-.62-5.08-1-7.32a16.28,16.28,0,0,0-1.77-5.65,6.39,6.39,0,0,0-2.74-2.77C401.36,360.5,400.82,360.44,400.83,360.38Z" style="fill:#263238"></path><path d="M400.06,360.37a9.64,9.64,0,0,0-2.59.32c-.79.21-1.69.56-2.75.9a10,10,0,0,1-3.64.4c-1.28-.06-2.5-.31-3.53-.38a10.17,10.17,0,0,0-2.81.21,8.08,8.08,0,0,0-2.38,1c-.09,0,.57-1,2.25-1.52a9.38,9.38,0,0,1,3-.38c1.15,0,2.31.26,3.55.32a10.09,10.09,0,0,0,3.41-.31c1-.3,2-.61,2.82-.77C399,359.82,400.12,360.28,400.06,360.37Z" style="fill:#263238"></path><path d="M405.49,356.2c0,.22-1.56.28-3.14,1.24s-2.4,2.27-2.58,2.17.41-1.73,2.21-2.79S405.54,356,405.49,356.2Z" style="fill:#263238"></path><path d="M379.05,358.61c-.05-.18,1.95-.68,4.38-.16s4.07,1.76,3.95,1.9-1.81-.73-4.1-1.2S379.07,358.82,379.05,358.61Z" style="fill:#263238"></path><path d="M447.86,177a3.35,3.35,0,1,1-3.35-3.36A3.35,3.35,0,0,1,447.86,177Z" style="fill:#455a64"></path><g style="opacity:0.2"><path d="M381.29,335.1a3.55,3.55,0,1,1-3.55-3.55A3.55,3.55,0,0,1,381.29,335.1Z"></path></g><g style="opacity:0.2"><ellipse cx="382.47" cy="342.43" rx="3.27" ry="3"></ellipse></g><g style="opacity:0.2"><circle cx="388.63" cy="335.3" r="2.97"></circle></g><g style="opacity:0.2"><path d="M385.63,329.37a2.18,2.18,0,1,1-2.17-2.17A2.18,2.18,0,0,1,385.63,329.37Z"></path></g><path d="M486.06,283.58s-3.74,2.6-2.2,5.54,5.51,6.82,12.83,3.57,2.85-12.07,2.85-12.07S494.84,277.48,486.06,283.58Z" style="fill:#e0e0e0"></path><g style="opacity:0.21"><path d="M494.62,288.69a10.28,10.28,0,0,0,5.36-7.05c-.24-.63-.44-1-.44-1s-4.7-3.14-13.48,3c0,0-3.74,2.6-2.2,5.54.1.2.22.4.34.6A13.81,13.81,0,0,0,494.62,288.69Z" style="fill:#263238"></path></g><path d="M485.65,281.29l2,5.52a7.51,7.51,0,0,0,6.05-.89c2.7-1.93,2-3,2-3l-2-5.66a12.51,12.51,0,0,0-6.39,1.4C484.55,280.34,485.65,281.29,485.65,281.29Z" style="fill:#e0e0e0"></path><g style="opacity:0.15"><path d="M488.09,286c-.26.12-.95-.78-1.43-2.07s-.49-2.47-.19-2.52.73.92,1.19,2.15S488.37,285.87,488.09,286Z" style="fill:#fff"></path></g><g style="opacity:0.15"><path d="M492.82,278c0,.14-.36.37-1,.57s-1.58.37-2.54.6c-.48.12-.92.25-1.31.39a5.88,5.88,0,0,0-1,.46c-.52.31-.82.61-1,.53s0-.55.48-1.12a3.86,3.86,0,0,1,1.05-.77,7,7,0,0,1,1.46-.53,12.26,12.26,0,0,1,2.67-.31C492.36,277.79,492.79,277.83,492.82,278Z" style="fill:#fff"></path></g><g style="opacity:0.14"><path d="M500.22,288.82c.06,0,.06.33-.16.77a5.22,5.22,0,0,1-1.23,1.43,11.07,11.07,0,0,1-2.18,1.52c-.43.24-.89.46-1.38.68l-.73.31a6.32,6.32,0,0,1-.84.27,8.86,8.86,0,0,1-3.23.09,7.45,7.45,0,0,1-2.59-.87,10.14,10.14,0,0,1-1.56-1c-.34-.29-.51-.49-.48-.56s.26,0,.65.15.94.42,1.62.68a8.49,8.49,0,0,0,2.39.55,9.52,9.52,0,0,0,2.94-.16,5.48,5.48,0,0,0,.72-.22l.73-.3c.47-.19.93-.39,1.35-.58a14.86,14.86,0,0,0,2.18-1.23,7.94,7.94,0,0,0,1.33-1C500,289,500.15,288.79,500.22,288.82Z" style="fill:#263238"></path></g><path d="M407.38,271.66s-4.55.2-4.83,3.5,1,8.71,8.92,9.89,8.88-8.67,8.88-8.67S418.06,271.22,407.38,271.66Z" style="fill:#e0e0e0"></path><g style="opacity:0.21"><path d="M411.87,280.56a10.28,10.28,0,0,0,8.3-3.08c.13-.66.18-1.1.18-1.1s-2.29-5.16-13-4.72c0,0-4.55.2-4.83,3.5q0,.33,0,.69A13.75,13.75,0,0,0,411.87,280.56Z" style="fill:#263238"></path></g><path d="M408.26,269.5,407,275.21a7.48,7.48,0,0,0,5.59,2.5c3.31-.18,3.3-1.43,3.3-1.43l1.36-5.84a12.56,12.56,0,0,0-6.15-2.24C407.84,268.11,408.26,269.5,408.26,269.5Z" style="fill:#e0e0e0"></path><g style="opacity:0.15"><path d="M407.8,274.79c-.29,0-.39-1.16-.1-2.51s.91-2.35,1.18-2.23.13,1.16-.13,2.45S408.1,274.83,407.8,274.79Z" style="fill:#fff"></path></g><g style="opacity:0.15"><path d="M416.09,270.55c0,.14-.5.12-1.16-.07s-1.54-.53-2.47-.85a13,13,0,0,0-1.31-.38,6.72,6.72,0,0,0-1.07-.13c-.61,0-1,.08-1.09-.07s.25-.48,1-.68a3.82,3.82,0,0,1,1.3-.09,7.2,7.2,0,0,1,1.51.33,13.2,13.2,0,0,1,2.43,1.17C415.8,270.14,416.14,270.41,416.09,270.55Z" style="fill:#fff"></path></g><g style="opacity:0.14"><path d="M416.52,283.67c0,.06-.12.32-.54.57a5.25,5.25,0,0,1-1.81.55,11.17,11.17,0,0,1-2.65.11c-.49,0-1-.09-1.52-.17l-.79-.12a5.2,5.2,0,0,1-.86-.23,8.78,8.78,0,0,1-2.77-1.65,7.43,7.43,0,0,1-1.72-2.12,9.39,9.39,0,0,1-.76-1.72c-.13-.43-.17-.69-.11-.73s.23.13.47.48.57.86,1,1.44a8.38,8.38,0,0,0,1.73,1.75,10,10,0,0,0,2.57,1.44,4.79,4.79,0,0,0,.72.19l.77.14c.51.09,1,.17,1.46.23a15,15,0,0,0,2.49.14,7.65,7.65,0,0,0,1.68-.16C416.27,283.72,416.48,283.61,416.52,283.67Z" style="fill:#263238"></path></g><path d="M517.83,343.88s-6.68.29-7.08,5.13,1.47,12.77,13.07,14.5,13-12.71,13-12.71S533.47,343.23,517.83,343.88Z" style="fill:#e0e0e0"></path><g style="opacity:0.21"><path d="M524.41,356.93c6.42.3,10.24-2.47,12.15-4.51.2-1,.27-1.62.27-1.62s-3.36-7.57-19-6.92c0,0-6.68.29-7.08,5.13,0,.33,0,.67-.05,1C513.14,352.68,517.81,356.61,524.41,356.93Z" style="fill:#263238"></path></g><path d="M519.11,340.72l-1.91,8.37s3.33,3.93,8.18,3.66,4.84-2.09,4.84-2.09l2-8.57s-4.29-3.14-9-3.27S519.11,340.72,519.11,340.72Z" style="fill:#e0e0e0"></path><g style="opacity:0.15"><path d="M518.44,348.47c-.42-.06-.57-1.71-.15-3.68s1.34-3.45,1.74-3.27.18,1.71-.21,3.6S518.87,348.54,518.44,348.47Z" style="fill:#e0e0e0"></path></g><g style="opacity:0.15"><path d="M530.59,342.25c-.07.21-.73.18-1.71-.1s-2.24-.77-3.61-1.25c-.69-.22-1.34-.41-1.92-.54a9.1,9.1,0,0,0-1.57-.2c-.89,0-1.49.12-1.6-.09s.38-.72,1.46-1a5.55,5.55,0,0,1,1.91-.13,10.33,10.33,0,0,1,2.22.49,17.85,17.85,0,0,1,3.55,1.72C530.17,341.66,530.66,342.05,530.59,342.25Z" style="fill:#e0e0e0"></path></g><path d="M545.61,367.69s4,2.82,6.39.2,4.86-8.06-1.1-14.26-13.22,1.56-13.22,1.56S536.25,361.08,545.61,367.69Z" style="fill:#e0e0e0"></path><g style="opacity:0.21"><path d="M547.62,357.19a11,11,0,0,0-9.06-2.82c-.55.47-.88.82-.88.82s-1.43,5.89,7.93,12.5c0,0,4,2.82,6.39.2.16-.18.32-.37.48-.58A14.77,14.77,0,0,0,547.62,357.19Z" style="fill:#263238"></path></g><path d="M543.45,369l4.85-4a8,8,0,0,0-3.11-5.78c-2.94-2-3.74-.95-3.74-.95l-5,4.08a13.51,13.51,0,0,0,3.75,5.93C542.9,370.41,543.45,369,543.45,369Z" style="fill:#e0e0e0"></path><path d="M519.09,369.27s-3.09,2.15-1.82,4.57,4.56,5.63,10.6,2.94,2.34-10,2.34-10S526.32,364.23,519.09,369.27Z" style="fill:#e0e0e0"></path><g style="opacity:0.21"><path d="M526.15,373.48a8.5,8.5,0,0,0,4.42-5.82c-.2-.52-.36-.85-.36-.85s-3.89-2.58-11.12,2.46c0,0-3.09,2.15-1.82,4.57.09.17.18.33.29.5A11.37,11.37,0,0,0,526.15,373.48Z" style="fill:#263238"></path></g><path d="M518.74,367.38l1.62,4.55a6.22,6.22,0,0,0,5-.73c2.22-1.6,1.66-2.46,1.66-2.46l-1.64-4.67a10.36,10.36,0,0,0-5.27,1.16C517.83,366.6,518.74,367.38,518.74,367.38Z" style="fill:#e0e0e0"></path><path d="M435.32,381.38s-11.44-2.22-13.51,6.33,8.19,10.7,8.19,10.7-1.89,5.91,8,9,11.82-7.65,11.82-7.65,9.3,3.05,10-2.94c1.05-8.88-6.18-9.6-6.18-9.6s7.13-8.69-4.52-12.14S435.32,381.38,435.32,381.38Zm12.36-2.53c6.73,1.42,2.3,9.81,2.3,9.81s7.61,1.73,6.11,6.22-9,1.56-9,1.56,2.75,7.67-6.47,7.76-5.41-7.85-5.41-7.85-7.48.7-9.07-6.42,11.34-5,11.34-5C437.87,378.9,440.94,377.42,447.68,378.85Z" style="fill:#8BAA36"></path><g style="opacity:0.30000000000000004"><path d="M435.32,381.38s-11.44-2.22-13.51,6.33,8.19,10.7,8.19,10.7-1.89,5.91,8,9,11.82-7.65,11.82-7.65,9.3,3.05,10-2.94c1.05-8.88-6.18-9.6-6.18-9.6s7.13-8.69-4.52-12.14S435.32,381.38,435.32,381.38Zm12.36-2.53c6.73,1.42,2.3,9.81,2.3,9.81s7.61,1.73,6.11,6.22-9,1.56-9,1.56,2.75,7.67-6.47,7.76-5.41-7.85-5.41-7.85-7.48.7-9.07-6.42,11.34-5,11.34-5C437.87,378.9,440.94,377.42,447.68,378.85Z"></path></g><path d="M435.49,379.17s-11.44-2.23-13.51,6.32,8.19,10.7,8.19,10.7-1.89,5.91,8,9S450,397.55,450,397.55s9.3,3.05,10-2.94c1.05-8.89-6.18-9.6-6.18-9.6s7.13-8.69-4.52-12.14S435.49,379.17,435.49,379.17Zm12.36-2.54c6.74,1.43,2.3,9.82,2.3,9.82s7.61,1.73,6.11,6.21-9,1.56-9,1.56,2.75,7.67-6.47,7.77-5.41-7.86-5.41-7.86-7.48.7-9.07-6.41,11.34-5,11.34-5C438,376.69,441.11,375.21,447.85,376.63Z" style="fill:#8BAA36"></path><path d="M516.5,394.13s38.1-8,37.1-10.7-34.59,7.05-34,6.72,15.3-8.53,12.92-10.91-17.4,11.27-17.4,11.27Z" style="fill:#263238"></path><path d="M505.55,386.52a48.64,48.64,0,0,0-8.85,4A93.66,93.66,0,0,0,486.35,397c-3.56,2.57-6.91,5.21-10.06,7.59-1.58,1.19-3.1,2.31-4.55,3.33a38.49,38.49,0,0,1-4.42,2.7c-1.42.7-2.67,1.32-3.77,1.84,4.73.52,14.63-.79,24.75-2.81l3.13-.64a185.49,185.49,0,0,0,19.28-5.07c1.46-.5,2.73-1,3.83-1.45.64-.27,1.22-.54,1.71-.8a11.5,11.5,0,0,0,1.25-.74c.72-.54,1-1,.79-1.43,0,0,1-11.57-4.22-15.83a7.41,7.41,0,0,1-1.8.92C510.62,385.26,508.12,385.74,505.55,386.52Z" style="fill:#8BAA36"></path><path d="M464.3,406.2c1-.84,2-1.73,3-2.69a40.27,40.27,0,0,0-4.85,4.26l-.34.39C462.79,407.53,463.51,406.88,464.3,406.2Z" style="fill:#8BAA36"></path><g style="opacity:0.30000000000000004"><path d="M462.1,408.16a7.51,7.51,0,0,0-1.35,2.06,7.51,7.51,0,0,1,1.35-2.06Z"></path></g><g style="opacity:0.30000000000000004"><path d="M470.54,401.13q1.75-1.23,3.69-2.5Q472.29,399.91,470.54,401.13Z"></path></g><g style="opacity:0.30000000000000004"><path d="M478.24,396.1c1.38-.84,2.79-1.68,4.22-2.5C481,394.42,479.62,395.26,478.24,396.1Z"></path></g><g style="opacity:0.30000000000000004"><path d="M463.55,412.46h0a8.21,8.21,0,0,1-1.69-.32A8.21,8.21,0,0,0,463.55,412.46Z"></path></g><g style="opacity:0.30000000000000004"><path d="M486.77,391.19c1.44-.78,2.88-1.53,4.3-2.25C489.65,389.66,488.21,390.41,486.77,391.19Z"></path></g><path d="M462.1,408.16a7.51,7.51,0,0,0-1.35,2.06,1.43,1.43,0,0,0,0,1.17,1.76,1.76,0,0,0,1.11.75,8.21,8.21,0,0,0,1.69.32c1.1-.52,2.35-1.14,3.77-1.84a38.49,38.49,0,0,0,4.42-2.7c1.45-1,3-2.14,4.55-3.33,3.15-2.38,6.5-5,10.06-7.59a93.66,93.66,0,0,1,10.35-6.53,48.64,48.64,0,0,1,8.85-4c2.57-.78,5.07-1.26,6.72-1.91a7.41,7.41,0,0,0,1.8-.92,7,7,0,0,0-4.51-1.55c-3.52,0-10.69,2.85-18.49,6.8-1.42.72-2.86,1.47-4.3,2.25s-2.88,1.59-4.31,2.41-2.84,1.66-4.22,2.5-2.72,1.69-4,2.53-2.52,1.68-3.69,2.5-2.25,1.61-3.25,2.38c-1,1-2,1.85-3,2.69C463.51,406.88,462.79,407.53,462.1,408.16Z" style="fill:#8BAA36"></path><g style="opacity:0.30000000000000004"><path d="M462.1,408.16a7.51,7.51,0,0,0-1.35,2.06,1.43,1.43,0,0,0,0,1.17,1.76,1.76,0,0,0,1.11.75,8.21,8.21,0,0,0,1.69.32c1.1-.52,2.35-1.14,3.77-1.84a38.49,38.49,0,0,0,4.42-2.7c1.45-1,3-2.14,4.55-3.33,3.15-2.38,6.5-5,10.06-7.59a93.66,93.66,0,0,1,10.35-6.53,48.64,48.64,0,0,1,8.85-4c2.57-.78,5.07-1.26,6.72-1.91a7.41,7.41,0,0,0,1.8-.92,7,7,0,0,0-4.51-1.55c-3.52,0-10.69,2.85-18.49,6.8-1.42.72-2.86,1.47-4.3,2.25s-2.88,1.59-4.31,2.41-2.84,1.66-4.22,2.5-2.72,1.69-4,2.53-2.52,1.68-3.69,2.5-2.25,1.61-3.25,2.38c-1,1-2,1.85-3,2.69C463.51,406.88,462.79,407.53,462.1,408.16Z"></path></g><g style="opacity:0.24"><path d="M504.35,403.77c-.33.29-2.76-2.71-3.79-7.13s-1.28-7.89-.92-8,1.39,3.4,2.39,7.6S504.68,403.52,504.35,403.77Z" style="fill:#fff"></path></g><g style="opacity:0.24"><path d="M509.23,396c-.39.05-1.18-1.94-1.94-4.58s-.6-5-.17-5,.87,2.06,1.63,4.64S509.67,395.94,509.23,396Z" style="fill:#fff"></path></g><g style="opacity:0.24"><path d="M510.48,400.27c-.4.09-.84-.31-1-.89s.1-1.13.51-1.22.84.31,1,.89S510.89,400.18,510.48,400.27Z" style="fill:#fff"></path></g><g style="opacity:0.24"><path d="M495.69,399.83c.42-.1,1.06,1.42,1.42,3.29s.59,3.35.22,3.53-1.33-1.27-1.7-3.22S495.3,399.93,495.69,399.83Z" style="fill:#fff"></path></g><g style="opacity:0.24"><path d="M494.33,398.7c-.41.09-.94-1.05-1.2-2.55s-.11-2.74.31-2.78.95,1.11,1.19,2.55S494.73,398.6,494.33,398.7Z" style="fill:#fff"></path></g><g style="opacity:0.24"><path d="M488.42,396.26c.32.06.41,2.42,1.37,5.29s1.59,5.32,1.22,5.44-1.47-2.09-2.43-5.08S488,396.16,488.42,396.26Z" style="fill:#fff"></path></g><g style="opacity:0.24"><path d="M484.37,406.3c-.3.31-1-.09-1.25-.8s0-1.18.36-1.36.91.32,1.08.88A1.25,1.25,0,0,1,484.37,406.3Z" style="fill:#fff"></path></g><g style="opacity:0.24"><path d="M478.77,409.5c-.36.26-1.58-.86-1.59-2.5s.44-2.85.83-2.88.61,1.24.67,2.69S479.08,409.28,478.77,409.5Z" style="fill:#fff"></path></g><path d="M390.86,173.31a6.27,6.27,0,0,0,2.11-.18A5.12,5.12,0,0,0,390.86,173.31Z" style="fill:#e0e0e0"></path><polygon points="392.99 173.13 393 173.12 392.97 173.13 392.99 173.13" style="fill:#e0e0e0"></polygon><path d="M546,157.43l-.66-.09A5,5,0,0,0,546,157.43Z" style="fill:#e0e0e0"></path><path d="M430.44,166.85l.06-.41c1.85-.24.6.38,2.29.07.6-.64,2.84-.3,3.4-.67,0,0,.82,0,.79.14.22-.34.85-.18,1.37-.32.18-.11-.15-.08-.3-.15l1.2-.24c.48,0,.62.22.11.31,1.59-.08,6.18-.53,10.81-.81l11-.7c-.45-.21-1.5,0-1.92-.35.89-.24,1.34,0,1.72-.22.38.52,2,0,2.71.54l.24-.32.46.17c4-.5.9-.24,4.43-.26,2-.1,3-.54,4.14-.41-.16,0-.62-.18-.09-.27.09.27,1.4-.23,1.67,0,.52-.05,2.2-.05,1.62-.41.29.17,1.79.24.9.4a6.74,6.74,0,0,0,1.36,0l-.65-.11c1.71-.05,2.64.24,3.75-.09l-.63-.15a3.79,3.79,0,0,1,2.28.32l-1,.11a27.91,27.91,0,0,0,4.13-.22h-.5a64.8,64.8,0,0,1,6.5-.37c1.4,0,2.79-.1,3.94-.17a18.42,18.42,0,0,0,2.47-.19l-.75-.32,1.44-.16c-.17,0-.73.88-.87.78,3.06.06,19,.92,21.76,1.58,1.12.28.16.47.14.51,1.39,0,.63-.23,1.8-.08.31.08-.09.21-.28.23.52,0,1,.17,1,0-.63-.17-.32-.49-.57-.74l1.51.19-.09.21a4.81,4.81,0,0,1,2.39-.23c2.49.43,5.21.71,7.72,1.09-.06.13-.6.14-1.14.14a5.21,5.21,0,0,1,1.15.22c-.57-.31,1.08,0,.62-.17,1.91-.29,4.21.6,5.89.49.19-.47,4.83-7.72,5-8.29a9.33,9.33,0,0,1,1.17.26,3.86,3.86,0,0,0-1.66-.39l-.14.29c-1.26-.08-.26-.22-1.47-.39,0-.27,1.09-.14,2.08,0-.88-.17-1.73-.49-2.13-.28-.81-.23.14-.29-.84-.55a9,9,0,0,1-2.49-.22l0,0c-1.95-.57-3.09-.12-4.88-.6l.21-.06c-.63-.23-1.92-.2-3.06-.51.32.09.59.31-.12.25-1.31-.33-2.24-.29-3.19-.62l-1,.12c-1.16-.18-3.19-.35-5.65-.59s-5.34-.53-8.24-.68-5.79-.4-8.26-.5l-5.68-.23.19,0c-1.79-.08-4.05-.17-6.56-.2s-5.24-.13-8-.12l-8,.09c-2.53.07-4.84.21-6.69.33a29.88,29.88,0,0,0-3.92-.16c.67.09.44.27-.07.27-3.64.14-.24.18-3.91.46l-24.15,1.61c-2,.54-4.5.63-6.44,1.09l.19-.11c-.52.1-1.66.25-3.12.42l-2.37.28-2.62.36c-3.54.5-7.14,1-8.34,1.27h.33c-2.08.6-1.86.16-3.55.34.29.36-1.49.91-2.17,1.06v-.09c-1,.26-3.34,1-5,1.43l0-.23a44.07,44.07,0,0,1-5.11,1.22,57.72,57.72,0,0,0-9.12,1.86l-2.17-.14-.28.13a17.33,17.33,0,0,0-.15,4.16c.22,2.12,1,4.31,3.2,4.63V173l.79-.21c1-.12,1.36-.47,1.35-.24l-1.32.28c1-.16.33.11,0,.31a8.47,8.47,0,0,1,1.13-.14c.17-.13-.16-.06-.32-.07a6.19,6.19,0,0,1,1.82-.61c1-.21.15.33,1.3.09,3-.66,6.06-1.12,9.07-1.67l9.12-1.62c.16.06,0,.09-.18.16,1.85-.41,3.5-.72,5.18-1.06a1.62,1.62,0,0,1,.8.21C420.61,168.29,430.27,166.74,430.44,166.85Z" style="fill:#e0e0e0"></path><path d="M370.57,138.36c.7,21.55,1.1,99.75,1.1,99.75l11.2-16.58,11.45,14-2.13-108.82-16.53,4.72A7,7,0,0,0,370.57,138.36Z" style="fill:#8BAA36"></path><path d="M392.19,126.68s3.17-.27,3.8,1.77l.62,2.05-4.42,1Z" style="fill:#8BAA36"></path><g style="opacity:0.30000000000000004"><path d="M392.19,126.68s3.17-.27,3.8,1.77l.62,2.05-4.42,1Z"></path></g><path d="M566.86,424.37s0-.26,0-.77,0-1.28,0-2.27c0-2,0-4.93,0-8.71,0-7.57,0-18.51,0-32,.08-27,.39-64.4.83-105.66s.74-78.63,1-105.69c.09-13.51.15-24.45.2-32,0-3.77,0-6.71.06-8.71,0-1,0-1.74,0-2.27s0-.77,0-.77,0,.26,0,.77,0,1.28,0,2.27c0,2,0,4.94,0,8.71,0,7.57,0,18.51,0,32-.08,27-.39,64.42-.83,105.69s-.74,78.61-1,105.67c-.09,13.51-.15,24.45-.2,32,0,3.78,0,6.71-.06,8.71,0,1,0,1.74,0,2.27S566.86,424.37,566.86,424.37Z" style="fill:#263238"></path><polygon points="572.33 230.11 597.18 258.88 572.22 311.53 572.33 230.11" style="fill:#f5f5f5"></polygon><polygon points="572.66 316.31 590.92 316.23 599.96 327.19 590.92 338.9 572.56 338.9 572.66 316.31" style="fill:#8BAA36"></polygon><path d="M572.37,424.37c-.14,0,0-66.51.22-148.54s.59-148.55.74-148.55,0,66.5-.22,148.55S572.51,424.37,572.37,424.37Z" style="fill:#263238"></path><path d="M131.38,132.49V423.3c0,5.27,4.77,9.45,10.44,9.17l218.87-7.09c5.25-.27,1.91-9.87,1.91-14.75l-58.84-270.5c0-4.88-4.12-8.91-9.37-9.17l-152.57-7.65C136.14,123,131.38,127.22,131.38,132.49Z" style="fill:#8BAA36"></path><g style="opacity:0.2"><path d="M131.38,132.49V423.3c0,5.27,4.77,9.45,10.44,9.17l218.87-7.09c5.25-.27,1.91-9.87,1.91-14.75l-58.84-270.5c0-4.88-4.12-8.91-9.37-9.17l-152.57-7.65C136.14,123,131.38,127.22,131.38,132.49Z"></path></g><polygon points="164.06 123.09 166.5 428.45 360.72 420.99 362.6 139.76 164.06 123.09" style="fill:#ebebeb"></polygon><polygon points="245.87 113.05 244.77 101.8 252.52 95.04 260.81 101.83 261.9 113.05 245.87 113.05" style="fill:#8BAA36"></polygon><path d="M181.9,116.15S299.38,94.4,362.29,139.86l-1.87,281.23L181.9,425.48Z" style="fill:#fff"></path><path d="M182.2,116.05c0,2.23.1,128.36.25,309.33l-.25-.25L350.4,421l10.32-.25-.26.25c.73-106.41,1.4-204.14,1.93-281.22l.09.17c-3-2-5.8-4-8.85-5.7l-2.24-1.3c-.74-.44-1.48-.87-2.25-1.24l-4.56-2.3a149.41,149.41,0,0,0-18.37-7.32c-6.09-2.06-12.17-3.56-18.07-4.95-3-.6-5.89-1.23-8.79-1.75l-4.31-.72c-1.42-.25-2.84-.47-4.25-.65a304.17,304.17,0,0,0-31.65-2.77c-9.78-.35-18.75-.27-26.82,0-16.14.57-28.68,1.9-37.17,3-4.25.53-7.48,1-9.66,1.34l-3.29.52s1.11-.23,3.28-.58,5.41-.85,9.65-1.4c8.49-1.1,21-2.46,37.18-3.07,8.07-.29,17.05-.39,26.84,0a301.23,301.23,0,0,1,31.68,2.72c1.42.18,2.84.4,4.26.65l4.33.72c2.89.51,5.82,1.13,8.8,1.74,5.91,1.38,12,2.87,18.1,4.93A150.18,150.18,0,0,1,344.75,129l4.57,2.31c.78.37,1.53.8,2.27,1.24l2.25,1.31c3.06,1.66,5.9,3.75,8.88,5.71l.08.05v.11c-.5,77.08-1.13,174.81-1.82,281.23v.25h-.25l-10.31.25-168.21,4.12H182v-.25C182.1,244.41,182.2,118.27,182.2,116.05Z" style="fill:#263238"></path><polygon points="204.97 157.82 204.98 157.81 204.96 157.81 204.97 157.82" style="fill:#e0e0e0"></polygon><path d="M344.55,162.84l-.57-.2A4.3,4.3,0,0,0,344.55,162.84Z" style="fill:#e0e0e0"></path><path d="M239.3,155.71l.1-.4c1.69,0,.5.45,2.06.34.6-.57,2.58,0,3.12-.26,0,.05.75.06.7.24.24-.31.79-.08,1.27-.16.17-.08-.13-.1-.26-.19l1.11-.08c.43.11.53.29.06.31l3.87.21c1.75.1,3.84.15,5.93.34l10,.72c-.38-.27-1.35-.2-1.68-.6.83-.13,1.2.18,1.58,0,.26.57,1.78.3,2.35.9l.26-.28.39.22c3.62,0,.84-.13,4,.33,1.84.18,2.76-.14,3.77.15-.16,0-.54-.26,0-.28,0,.28,1.29,0,1.49.26.47,0,2,.25,1.52-.18.23.2,1.56.48.74.52a5.38,5.38,0,0,0,1.22.17l-.57-.19c1.54.19,2.33.6,3.38.43l-.54-.24c.92.13,1.69.22,2,.64l-1,0a23.75,23.75,0,0,0,3.73.36l-.45-.09a55.83,55.83,0,0,1,5.89.56c1.26.15,2.51.3,3.55.4a17.85,17.85,0,0,0,2.25.17l-.62-.43,1.32.05c-.15,0-.81.76-.91.65l3.82.81,2.84.6,3.08.76,5.84,1.5c1.69.51,3,.92,3.61,1.15.95.44.05.48,0,.52,1.23.26.6-.13,1.62.19.27.14-.12.2-.29.19.46.1.85.32.92.2-.53-.26-.19-.53-.36-.82l1.31.42-.12.2a4.07,4.07,0,0,1,2.18.15c2.15.81,4.53,1.52,6.69,2.29-.07.12-.56,0-1,0a4.28,4.28,0,0,1,1,.4c-.45-.4,1,.16.59-.07,1.78,0,3.64,1.28,5.17,1.44.26-.43,6-6.73,6.2-7.26a6.8,6.8,0,0,1,1,.44,3.24,3.24,0,0,0-1.42-.65l-.19.26c-1.11-.3-.19-.27-1.24-.64,0-.26,1,0,1.88.34-.76-.31-1.46-.76-1.87-.62-.68-.37.19-.26-.64-.68a7.76,7.76,0,0,1-2.21-.63l0,0c-1.65-.88-2.77-.63-4.29-1.39l.2,0c-.52-.32-1.69-.5-2.66-1,.27.14.47.4-.16.23-1.12-.54-2-.66-2.76-1.13l-.9,0c-1-.38-2.82-.86-5-1.48s-4.73-1.37-7.32-2-5.17-1.28-7.38-1.75l-5.1-1.07h.17l-2.7-.56-3.19-.59c-2.26-.4-4.73-.9-7.22-1.27l-7.29-1c-2.3-.29-4.41-.45-6.1-.59a24,24,0,0,0-3.53-.69c.59.17.36.32-.11.25-3.31-.33-.24.15-3.6-.05-1,0-2.62-.16-4.6-.34s-4.31-.28-6.61-.46l-3.41-.26-3.12-.15c-1.94-.1-3.51-.2-4.37-.27-1.85.28-4.16.07-6,.3l.18-.09c-.48,0-1.54.05-2.88.05h-2.19l-2.42.06c-3.27.09-6.6.12-7.72.3l.31,0c-2,.36-1.71-.05-3.27-.06.23.39-1.44.74-2.08.82l0-.09c-1,.14-3.13.62-4.71.87l0-.22a38.47,38.47,0,0,1-4.76.66,46.87,46.87,0,0,0-8.47.91l-2-.36-.27.1a18,18,0,0,0-.41,4.11c0,2.13.62,4.38,2.6,4.93l0,.23.73-.14c.9,0,1.27-.32,1.24-.09l-1.21.14c.9-.06.29.14,0,.31a7.55,7.55,0,0,1,1,0c.16-.11-.14-.07-.28-.1a5.44,5.44,0,0,1,1.69-.42c.91-.11.11.35,1.17.22,2.79-.34,5.56-.47,8.32-.7s5.54-.37,8.37-.6c.14.08,0,.09-.18.14,1.7-.2,3.22-.33,4.77-.47a1.44,1.44,0,0,1,.7.3A79.31,79.31,0,0,1,239.3,155.71Z" style="fill:#e0e0e0"></path><polygon points="139.55 132.19 164.06 123.09 166.5 428.45 139.55 422.39 139.55 132.19" style="fill:#e0e0e0"></polygon><path d="M205.22,186.81h0Z" style="fill:#e0e0e0"></path><path d="M262.4,183.85h-.25A1,1,0,0,0,262.4,183.85Z" style="fill:#e0e0e0"></path><path d="M219.67,186.58l.05-.19c.7,0,.19.23.84.21.26-.27,1.07.08,1.3-.06,0,0,.31,0,.28.13.11-.15.33,0,.53,0s0-.05-.1-.1l.45,0c.18,0,.22.14,0,.15,1.19.11,6.9.5,8.19.48-.16-.12-.56-.06-.71-.25.35-.09.5.06.66-.05.11.28.74.1,1,.39l.11-.15.16.1a4.82,4.82,0,0,1,1.67,0,11.21,11.21,0,0,1,1.56-.09c-.07,0-.23-.11,0-.14,0,.14.53-.07.62.07.19,0,.82,0,.62-.16.1.1.66.16.32.22a1.81,1.81,0,0,0,.51,0l-.24-.07c.64,0,1,.16,1.41,0l-.24-.08c.39,0,.71,0,.85.19l-.4,0a7.79,7.79,0,0,0,1.55,0l-.19,0c.69-.15,4.21-.15,4.84-.35l-.28-.16.54-.09c-.06,0-.28.45-.33.4,1.15,0,7.09.18,8.14.32.43.1.07.23.07.25.52,0,.23-.14.67-.11.11,0,0,.11-.1.13.19,0,.37,0,.39,0-.24-.06-.13-.23-.23-.35l.56,0,0,.11c.13,0,.34-.29.89-.21.94.09,2,.09,2.9.16,0,.07-.21.1-.41.13a1.54,1.54,0,0,1,.43.05c-.22-.13.4-.06.22-.12.71-.24,1.59.05,2.21-.11.06-.24,1.49-4.13,1.5-4.42a3.64,3.64,0,0,1,.43.05,1,1,0,0,0-.61-.08l0,.15c-.46,0-.11-.1-.55-.1,0-.13.39-.14.75-.14-.32,0-.64-.13-.78,0-.3-.07,0-.15-.32-.22a2.52,2.52,0,0,1-.91,0v0c-.72-.16-1.12.15-1.79,0l.08,0c-.24-.09-.7,0-1.13-.1.12,0,.22.12,0,.13-.49-.1-.83,0-1.18-.15l-.35.11c-1.7-.1-8.44-.21-10.15-.26l.06,0c-2.61,0-8-.29-10.66-.23a7.57,7.57,0,0,0-1.43-.19c.24.06.16.14,0,.13-1.33-.07-.09.08-1.44.07-1.55.05-7.45-.33-8.81-.49-.75.15-1.66,0-2.39.05l.08,0c-.78,0-5.15-.32-6.06-.29l.12,0c-.79.08-.67-.11-1.29-.2.08.2-.6.29-.86.29v0c-.39,0-1.27.16-1.91.16l0-.11a13.62,13.62,0,0,1-1.92,0A18.24,18.24,0,0,0,206,181l-.75-.35-.11,0s-1.38,3.76.13,4.63l0,.11h.31c.36.07.54,0,.51.06l-.5,0c.36,0,.1.09,0,.15a2.45,2.45,0,0,1,.42.07c.08,0,0,0-.1-.07a1.89,1.89,0,0,1,.72-.06c.37,0,0,.18.45.21,2.32.18,4.57.41,6.91.48.06.05,0,.05-.08.07.71,0,1.34,0,2,0a.58.58,0,0,1,.27.18C216,186.41,219.61,186.56,219.67,186.58Z" style="fill:#e0e0e0"></path><path d="M204.17,255.07a1.68,1.68,0,0,0,.77.18A1.54,1.54,0,0,0,204.17,255.07Z" style="fill:#e3e3e3"></path><path d="M205,255.26Z" style="fill:#e3e3e3"></path><path d="M262.13,252.3h0Z" style="fill:#e3e3e3"></path><path d="M219.15,256.21l0-.2c.7,0,.2.24.84.22.27-.27,1.07.07,1.3-.07,0,0,.31,0,.28.14.11-.15.33,0,.53-.06s-.05,0-.1-.09l.46,0c.17.06.21.15,0,.16,1.19.11,6.89.5,8.18.48-.16-.13-.56-.07-.7-.25.34-.09.49.05.65-.05.12.28.74.1,1,.38l.1-.15.16.11a4.59,4.59,0,0,1,1.67,0,11.65,11.65,0,0,1,1.56-.1c-.06,0-.23-.1,0-.13,0,.13.53-.08.62.06s.83,0,.62-.15c.1.09.66.15.33.22a1.7,1.7,0,0,0,.5,0l-.24-.06c.64,0,1,.16,1.41,0l-.23-.08c.38,0,.7,0,.84.19l-.39,0a7.8,7.8,0,0,0,1.55-.05h-.19c.68-.15,4.2-.15,4.83-.36l-.28-.15.54-.09c-.06,0-.27.44-.32.39,1.14,0,7.09.19,8.14.33.42.09.06.22.06.25.52,0,.23-.14.67-.11.12,0,0,.11-.1.12.19,0,.37.05.39,0-.24-.07-.13-.24-.23-.35l.57,0,0,.11c.12,0,.33-.28.88-.2.94.09,2,.09,2.91.16,0,.06-.22.09-.42.12a1.21,1.21,0,0,1,.43.06c-.22-.13.4-.06.23-.12.7-.24,1.58,0,2.2-.11.07-.24,1.49-4.13,1.5-4.42a2.54,2.54,0,0,1,.44.05,1.08,1.08,0,0,0-.62-.09l0,.16c-.46,0-.1-.1-.55-.11,0-.13.39-.14.75-.13-.32,0-.64-.14-.78,0-.3-.07,0-.16-.32-.23a2.3,2.3,0,0,1-.91.05v0c-.72-.16-1.12.14-1.78,0l.07,0c-.23-.08-.7,0-1.12-.1.12,0,.22.13,0,.13-.48-.1-.82,0-1.18-.14l-.34.1c-1.71-.09-8.45-.2-10.16-.26h.07c-2.61,0-8-.29-10.67-.24a8.36,8.36,0,0,0-1.42-.19c.24.07.15.15,0,.14-1.32-.08-.09.08-1.43.07-1.55.05-7.45-.33-8.82-.5-.74.15-1.66,0-2.38.06l.07,0c-.77,0-5.15-.32-6-.29l.12,0c-.79.08-.68-.12-1.29-.21.07.21-.61.3-.87.3l0,0c-.39,0-1.28.15-1.92.15l0-.11a11.16,11.16,0,0,1-1.92,0,20.06,20.06,0,0,0-3.39-.24l-.74-.34-.12,0s-1.38,3.76.14,4.64l0,.11h.3c.37.07.54-.05.51.06l-.5,0c.37.05.11.1,0,.16a1.76,1.76,0,0,1,.43.07c.07,0,0-.05-.11-.07a1.71,1.71,0,0,1,.72-.06c.38,0,0,.18.46.21,2.31.18,4.56.41,6.91.48,0,.05,0,.05-.08.06.71,0,1.33,0,2,0a.53.53,0,0,1,.27.17C215.43,256,219.09,256.19,219.15,256.21Z" style="fill:#e3e3e3"></path><path d="M260.3,201.43c0,.14-12.16.26-27.16.26s-27.16-.12-27.16-.26,12.16-.26,27.16-.26S260.3,201.29,260.3,201.43Z" style="fill:#263238"></path><path d="M248.49,209.48c0,.14-9.58.26-21.38.26s-21.39-.12-21.39-.26,9.57-.26,21.39-.26S248.49,209.33,248.49,209.48Z" style="fill:#263238"></path><path d="M248.49,228.65c0,.15-9.58.26-21.38.26s-21.39-.11-21.39-.26,9.57-.26,21.39-.26S248.49,228.51,248.49,228.65Z" style="fill:#263238"></path><path d="M249,219.8c0,.14-9.81.26-21.9.26s-21.91-.12-21.91-.26,9.81-.26,21.91-.26S249,219.65,249,219.8Z" style="fill:#263238"></path><path d="M215,274.53a3.83,3.83,0,1,1-3.83-3.83A3.83,3.83,0,0,1,215,274.53Z" style="fill:#8BAA36"></path><path d="M339.23,274.73c0,.14-26.31.26-58.76.26s-58.77-.12-58.77-.26,26.31-.26,58.77-.26S339.23,274.58,339.23,274.73Z" style="fill:#263238"></path><path d="M339.81,282.9c0,.14-26.11.26-58.32.26s-58.33-.12-58.33-.26,26.11-.26,58.33-.26S339.81,282.75,339.81,282.9Z" style="fill:#263238"></path><path d="M254.1,291.07c0,.15-6.79.26-15.17.26s-15.18-.11-15.18-.26,6.79-.26,15.18-.26S254.1,290.93,254.1,291.07Z" style="fill:#263238"></path><path d="M215,319.15a3.83,3.83,0,1,1-3.83-3.83A3.83,3.83,0,0,1,215,319.15Z" style="fill:#8BAA36"></path><path d="M341.75,319.34c0,.14-26.88.26-60,.26s-60-.12-60-.26,26.87-.26,60-.26S341.75,319.19,341.75,319.34Z" style="fill:#263238"></path><path d="M342.33,327.51c0,.14-26.68.26-59.58.26s-59.59-.12-59.59-.26,26.68-.26,59.59-.26S342.33,327.37,342.33,327.51Z" style="fill:#263238"></path><path d="M254.1,335.68c0,.15-6.79.26-15.17.26s-15.18-.11-15.18-.26,6.79-.26,15.18-.26S254.1,335.54,254.1,335.68Z" style="fill:#263238"></path><path d="M215,362.28a3.83,3.83,0,1,1-3.83-3.83A3.84,3.84,0,0,1,215,362.28Z" style="fill:#8BAA36"></path><path d="M339.52,362.47c0,.14-26.38.26-58.91.26s-58.91-.12-58.91-.26,26.37-.26,58.91-.26S339.52,362.32,339.52,362.47Z" style="fill:#263238"></path><path d="M340.1,370.64c0,.14-26.18.26-58.46.26s-58.48-.12-58.48-.26,26.18-.26,58.48-.26S340.1,370.5,340.1,370.64Z" style="fill:#263238"></path><path d="M254.1,378.81c0,.15-6.79.26-15.17.26s-15.18-.11-15.18-.26,6.79-.26,15.18-.26S254.1,378.67,254.1,378.81Z" style="fill:#263238"></path><path d="M239.57,153.71l-.42-8.56a7.29,7.29,0,0,1,0-1.06,1.26,1.26,0,0,1,.32-.76,1.35,1.35,0,0,1,.93-.33l3-.14a5.21,5.21,0,0,1,2,.37,4.39,4.39,0,0,1,.76.42,2.83,2.83,0,0,1,.67.63,3.3,3.3,0,0,1,.5.91,4.16,4.16,0,0,1,.23,1.25,3.5,3.5,0,0,1-.05.69,4.45,4.45,0,0,1-.26.84,2.49,2.49,0,0,1-.39.61,3.12,3.12,0,0,1-.59.55,3.28,3.28,0,0,1-.86.42,3.36,3.36,0,0,1,1.34.86,2.51,2.51,0,0,1,.63,1.72l.07,1.29a.28.28,0,0,0,.06.18l.11.12a.93.93,0,0,1,.28.36,1.66,1.66,0,0,1,.05.26,1,1,0,0,1-.41.91,2,2,0,0,1-1,.31,2.09,2.09,0,0,1-1.22-.33,1.25,1.25,0,0,1-.61-1l-.09-1.93a2.85,2.85,0,0,0-.34-1.33,1.17,1.17,0,0,0-1.15-.44l-1,0,.15,3.05a7.54,7.54,0,0,1,0,1.08,1.33,1.33,0,0,1-.33.77,1.3,1.3,0,0,1-.94.33,1.37,1.37,0,0,1-.95-.23,1.3,1.3,0,0,1-.39-.74A5.75,5.75,0,0,1,239.57,153.71Zm2.33-8.62.17,3.4,1.24-.06a1.83,1.83,0,0,0,.81-.25,1.44,1.44,0,0,0,.56-.61,1.89,1.89,0,0,0,.18-1,1.59,1.59,0,0,0-.26-.89,1.31,1.31,0,0,0-.59-.49,1.92,1.92,0,0,0-.79-.17Z" style="fill:#263238"></path><path d="M251.16,142.6l3.58,0a5.6,5.6,0,0,1,1,.06,1.47,1.47,0,0,1,.78.34,1.42,1.42,0,0,1,0,1.73,1.5,1.5,0,0,1-.77.37,8.06,8.06,0,0,1-1,.09l-2.17,0,0,2.49,1.15,0a6.46,6.46,0,0,1,1,.06,1.35,1.35,0,0,1,.75.31,1.4,1.4,0,0,1,0,1.69,1.37,1.37,0,0,1-.75.34,6.33,6.33,0,0,1-1,.08l-1.15,0,0,2.62,2.17,0a8.28,8.28,0,0,1,1,.06,1.47,1.47,0,0,1,.78.34,1.11,1.11,0,0,1,.31.85,1.16,1.16,0,0,1-.29.89,1.42,1.42,0,0,1-.78.36,5.42,5.42,0,0,1-1,.09l-3.58.05a1.28,1.28,0,0,1-.94-.27,1.33,1.33,0,0,1-.37-.75,6.73,6.73,0,0,1-.08-1.06l-.12-8.57a7,7,0,0,1,.06-1.06,1.26,1.26,0,0,1,.35-.76A1.28,1.28,0,0,1,251.16,142.6Z" style="fill:#263238"></path><path d="M262.9,142.53a5.91,5.91,0,0,1,1.72.27,3.72,3.72,0,0,1,1.21.62,3.19,3.19,0,0,1,.78.83,5.42,5.42,0,0,1,.45.95,5.52,5.52,0,0,1,.18.92,7.32,7.32,0,0,1,0,.76,1.24,1.24,0,0,1-.29.79c-.18.23-.58.34-1.2.32a4.61,4.61,0,0,1-.68-.07,1.49,1.49,0,0,1-.64-.28.65.65,0,0,1-.26-.59,3.73,3.73,0,0,0-.24-1.55,1.13,1.13,0,0,0-1.12-.6,1.12,1.12,0,0,0-.7.18,1.23,1.23,0,0,0-.36.4,1.47,1.47,0,0,0-.15.59l-.12,5.78a1.82,1.82,0,0,0,.13.7,1.32,1.32,0,0,0,.34.49,1,1,0,0,0,.68.24,1.12,1.12,0,0,0,1.14-.62,3.89,3.89,0,0,0,.31-1.53.69.69,0,0,1,.37-.6,2.41,2.41,0,0,1,1.25-.2,1.71,1.71,0,0,1,1.14.31.79.79,0,0,1,.3.63,4.4,4.4,0,0,1-.37,1.79,3.56,3.56,0,0,1-1,1.31,4.87,4.87,0,0,1-3.37,1.06l-.53,0a5.23,5.23,0,0,1-.82-.17,4.74,4.74,0,0,1-.93-.37,3.08,3.08,0,0,1-.87-.69,3.69,3.69,0,0,1-.63-1.07,4,4,0,0,1-.22-1.54l.1-5.09a4.47,4.47,0,0,1,.21-1.33,3.36,3.36,0,0,1,.51-1,2.71,2.71,0,0,1,.69-.7,4.91,4.91,0,0,1,.79-.46A5.86,5.86,0,0,1,262.9,142.53Z" style="fill:#263238"></path><path d="M269.21,153.49l.43-8.57a5.41,5.41,0,0,1,.15-1,1.33,1.33,0,0,1,.47-.73,1.45,1.45,0,0,1,1-.24,1.49,1.49,0,0,1,1,.34,1.27,1.27,0,0,1,.39.77,5.93,5.93,0,0,1,.05,1.06l-.43,8.57a5.41,5.41,0,0,1-.15,1.06,1.24,1.24,0,0,1-.46.73,1.48,1.48,0,0,1-1,.23,1.41,1.41,0,0,1-1-.33,1.27,1.27,0,0,1-.39-.77A4.57,4.57,0,0,1,269.21,153.49Z" style="fill:#263238"></path><path d="M279.19,151.17l-1.17-.1-.23,3a6.11,6.11,0,0,1-.16,1,1.24,1.24,0,0,1-.42.72,1.4,1.4,0,0,1-1,.19,1.33,1.33,0,0,1-.92-.35,1.22,1.22,0,0,1-.3-.77,7.69,7.69,0,0,1,0-1.06l.67-8.58a7,7,0,0,1,.15-1,1.24,1.24,0,0,1,.42-.72,1.35,1.35,0,0,1,1-.21l3,.24a5.36,5.36,0,0,1,2,.63,4.68,4.68,0,0,1,.71.51,3,3,0,0,1,.59.72,3,3,0,0,1,.39,1,4.68,4.68,0,0,1,.07,1.27,4.41,4.41,0,0,1-.44,1.68,3.21,3.21,0,0,1-1,1.15A4.91,4.91,0,0,1,279.19,151.17Zm-.73-5.66-.27,3.4,1.24.1a2,2,0,0,0,.83-.16,1.4,1.4,0,0,0,.64-.52,1.88,1.88,0,0,0,.3-1,1.63,1.63,0,0,0-.15-.92,1.57,1.57,0,0,0-.51-.57,2.35,2.35,0,0,0-.75-.27Z" style="fill:#263238"></path><path d="M287.37,144.15l3.55.4a7.25,7.25,0,0,1,1,.19,1.48,1.48,0,0,1,.73.44,1.08,1.08,0,0,1,.2.89,1.09,1.09,0,0,1-.39.83,1.42,1.42,0,0,1-.81.26,6,6,0,0,1-1,0l-2.15-.25-.28,2.47,1.14.13a6.74,6.74,0,0,1,1,.18,1.36,1.36,0,0,1,.71.41,1.1,1.1,0,0,1,.19.87,1.05,1.05,0,0,1-.38.8,1.32,1.32,0,0,1-.78.25,7.11,7.11,0,0,1-1-.05l-1.14-.13-.29,2.61,2.15.25a7.44,7.44,0,0,1,1,.18,1.51,1.51,0,0,1,.73.43,1.41,1.41,0,0,1-.2,1.73,1.51,1.51,0,0,1-.82.27,7.18,7.18,0,0,1-1,0l-3.55-.4a1.35,1.35,0,0,1-.9-.38,1.3,1.3,0,0,1-.27-.8,6.62,6.62,0,0,1,.05-1.06l.95-8.52a7.12,7.12,0,0,1,.2-1,1.12,1.12,0,0,1,1.4-.89Z" style="fill:#263238"></path><path d="M321.61,151.58s-5.11-24.53-6.83-23.89,4.48,22.27,4.27,21.92-5.46-9.86-7-8.33,7.23,11.2,7.23,11.2Z" style="fill:#455a64"></path><path d="M316.7,158.61a30.4,30.4,0,0,0,2.53,5.7,59.65,59.65,0,0,0,4.18,6.67c1.65,2.29,3.34,4.45,4.86,6.49.77,1,1.49,2,2.14,2.93a23.89,23.89,0,0,1,1.73,2.85c.45.91.85,1.71,1.18,2.42.34-3-.49-9.41-1.77-15.92-.13-.68-.27-1.35-.41-2a116.46,116.46,0,0,0-3.23-12.41c-.32-.94-.62-1.76-.92-2.47-.18-.41-.35-.78-.52-1.1a6.06,6.06,0,0,0-.47-.8c-.35-.47-.66-.66-.92-.51,0,0-7.44-.66-10.19,2.68a5.13,5.13,0,0,1,.59,1.16C315.9,155.35,316.2,157,316.7,158.61Z" style="fill:#8BAA36"></path><path d="M329.3,185.18c-.54-.63-1.12-1.28-1.73-1.93a26.23,26.23,0,0,0,2.73,3.13l.25.22C330.15,186.16,329.73,185.69,329.3,185.18Z" style="fill:#8BAA36"></path><g style="opacity:0.30000000000000004"><path d="M330.55,186.6a4.51,4.51,0,0,0,1.33.87,4.51,4.51,0,0,1-1.33-.87Z"></path></g><g style="opacity:0.30000000000000004"><path d="M326,181.16c-.52-.75-1.06-1.55-1.6-2.38C325,179.61,325.52,180.41,326,181.16Z"></path></g><g style="opacity:0.30000000000000004"><path d="M322.82,176.19c-.54-.88-1.08-1.79-1.6-2.71C321.74,174.4,322.28,175.31,322.82,176.19Z"></path></g><g style="opacity:0.30000000000000004"><path d="M333.32,185.67h0a6.12,6.12,0,0,1-.2,1.09A6.12,6.12,0,0,0,333.32,185.67Z"></path></g><g style="opacity:0.30000000000000004"><path d="M319.67,170.7c-.5-.93-1-1.86-1.44-2.77C318.69,168.84,319.17,169.77,319.67,170.7Z"></path></g><path d="M330.55,186.6a4.51,4.51,0,0,0,1.33.87.93.93,0,0,0,.75,0,1.22,1.22,0,0,0,.49-.71,6.12,6.12,0,0,0,.2-1.09c-.33-.71-.73-1.51-1.18-2.42a23.89,23.89,0,0,0-1.73-2.85c-.65-.94-1.37-1.92-2.14-2.93-1.52-2-3.21-4.2-4.86-6.49a59.65,59.65,0,0,1-4.18-6.67,30.4,30.4,0,0,1-2.53-5.7c-.5-1.65-.8-3.26-1.22-4.33a5.13,5.13,0,0,0-.59-1.16,4.47,4.47,0,0,0-1,2.91c0,2.26,1.81,6.88,4.34,11.9.46.91.94,1.84,1.44,2.77s1,1.86,1.55,2.78,1.06,1.83,1.6,2.71,1.08,1.76,1.62,2.59,1.08,1.63,1.6,2.38,1,1.45,1.53,2.09,1.19,1.3,1.73,1.93S330.15,186.16,330.55,186.6Z" style="fill:#8BAA36"></path><g style="opacity:0.30000000000000004"><path d="M330.55,186.6a4.51,4.51,0,0,0,1.33.87.93.93,0,0,0,.75,0,1.22,1.22,0,0,0,.49-.71,6.12,6.12,0,0,0,.2-1.09c-.33-.71-.73-1.51-1.18-2.42a23.89,23.89,0,0,0-1.73-2.85c-.65-.94-1.37-1.92-2.14-2.93-1.52-2-3.21-4.2-4.86-6.49a59.65,59.65,0,0,1-4.18-6.67,30.4,30.4,0,0,1-2.53-5.7c-.5-1.65-.8-3.26-1.22-4.33a5.13,5.13,0,0,0-.59-1.16,4.47,4.47,0,0,0-1,2.91c0,2.26,1.81,6.88,4.34,11.9.46.91.94,1.84,1.44,2.77s1,1.86,1.55,2.78,1.06,1.83,1.6,2.71,1.08,1.76,1.62,2.59,1.08,1.63,1.6,2.38,1,1.45,1.53,2.09,1.19,1.3,1.73,1.93S330.15,186.16,330.55,186.6Z"></path></g><g style="opacity:0.24"><path d="M327.79,159.41c.19.21-1.74,1.77-4.59,2.42s-5.08.82-5.14.59,2.19-.89,4.9-1.53S327.63,159.2,327.79,159.41Z" style="fill:#fff"></path></g><g style="opacity:0.24"><path d="M322.8,156.26c0,.25-1.25.75-2.95,1.24s-3.24.38-3.24.1,1.33-.56,3-1S322.76,156,322.8,156.26Z" style="fill:#fff"></path></g><g style="opacity:0.24"><path d="M325.55,155.46c.06.26-.2.54-.58.62s-.72-.07-.78-.33.2-.54.58-.62S325.49,155.19,325.55,155.46Z" style="fill:#fff"></path></g><g style="opacity:0.24"><path d="M325.24,165c-.06-.27.92-.67,2.12-.91s2.16-.37,2.27-.13-.81.85-2.07,1.09S325.31,165.23,325.24,165Z" style="fill:#fff"></path></g><g style="opacity:0.24"><path d="M324.51,165.85c.06.26-.67.6-1.64.76s-1.76.07-1.78-.19.71-.61,1.64-.77S324.45,165.59,324.51,165.85Z" style="fill:#fff"></path></g><g style="opacity:0.24"><path d="M322.93,169.64c.05-.2,1.56-.25,3.41-.87s3.43-1,3.5-.77-1.34.94-3.27,1.55S322.87,169.89,322.93,169.64Z" style="fill:#fff"></path></g><g style="opacity:0.24"><path d="M329.39,172.27c.2.19-.06.66-.52.8s-.76,0-.87-.23.2-.59.57-.7A.8.8,0,0,1,329.39,172.27Z" style="fill:#fff"></path></g><g style="opacity:0.24"><path d="M331.44,175.88c.16.23-.55,1-1.61,1s-1.83-.29-1.85-.53.79-.4,1.73-.43S331.3,175.67,331.44,175.88Z" style="fill:#fff"></path></g><path d="M328.28,204.68a71.1,71.1,0,0,1-12.15,0,71.1,71.1,0,0,1,12.15,0Z" style="fill:#263238"></path><path d="M330.88,215.38a64.1,64.1,0,0,1-8.24.26,64.1,64.1,0,0,1-8.24-.26,66.35,66.35,0,0,1,8.24-.26A66.35,66.35,0,0,1,330.88,215.38Z" style="fill:#263238"></path><path d="M331.46,225.22a47.16,47.16,0,0,1-6.94.26,47.16,47.16,0,0,1-6.94-.26,45.56,45.56,0,0,1,6.94-.26A45.56,45.56,0,0,1,331.46,225.22Z" style="fill:#263238"></path><path d="M330.88,233.32a61.3,61.3,0,0,1-11.28,0,61.3,61.3,0,0,1,11.28,0Z" style="fill:#263238"></path><path d="M307.23,169.75c0,.14-19.11.26-42.68.26s-42.68-.12-42.68-.26,19.11-.26,42.68-.26S307.23,169.61,307.23,169.75Z" style="fill:#263238"></path><path d="M146.37,416.36c-.14,0-.26-64-.26-143s.12-143,.26-143,.26,64,.26,143S146.52,416.36,146.37,416.36Z" style="fill:#263238"></path><polygon points="153.03 173.96 131.38 222.71 153.03 256.81 153.03 173.96" style="fill:#f5f5f5"></polygon><path d="M153,414.69c-.15,0-.26-61.05-.26-136.33S152.88,142,153,142s.26,61,.26,136.35S153.17,414.69,153,414.69Z" style="fill:#263238"></path><path d="M159.47,425.38c-.14,0-.26-64.47-.26-144s.12-144,.26-144,.26,64.45.26,144S159.62,425.38,159.47,425.38Z" style="fill:#263238"></path><polygon points="245.87 110.85 244.77 99.6 252.52 92.84 260.81 99.62 261.9 110.85 245.87 110.85" style="fill:#8BAA36"></polygon><path d="M545.55,175.18a4.27,4.27,0,1,1-4.41.52l-7.47.87a4.28,4.28,0,1,1-4.4.52l-7.48.88a4.27,4.27,0,1,1-4.4.51l-7.48.88a4.28,4.28,0,1,1-4.4.52l-7.48.88a4.27,4.27,0,1,1-4.4.51l-3.17.38,6.84,58.25,59.29-7-6.84-58.25Z" style="fill:#ebebeb"></path><path d="M551.59,194.5a4.3,4.3,0,0,1-.6.08l-1.71.13-6.28.41c-5.31.36-12.63.9-20.71,1.66s-15.38,1.58-20.66,2.22l-6.26.75-1.7.19a2.28,2.28,0,0,1-.6,0,2.66,2.66,0,0,1,.59-.13l1.69-.29c1.47-.24,3.6-.55,6.23-.92,5.27-.73,12.57-1.61,20.66-2.37s15.42-1.24,20.74-1.5c2.65-.13,4.81-.22,6.29-.26l1.72,0A2.34,2.34,0,0,1,551.59,194.5Z" style="fill:#e0e0e0"></path><path d="M552.78,207.92a2.13,2.13,0,0,1-.59.08l-1.71.13-6.29.42c-5.3.36-12.63.9-20.71,1.65s-15.38,1.59-20.66,2.22l-6.25.76-1.7.19a2.27,2.27,0,0,1-.6,0,3,3,0,0,1,.58-.14l1.69-.28c1.47-.24,3.6-.56,6.24-.92,5.27-.73,12.57-1.62,20.66-2.38s15.42-1.23,20.73-1.5c2.66-.13,4.81-.21,6.3-.25l1.71,0A3.88,3.88,0,0,1,552.78,207.92Z" style="fill:#e0e0e0"></path><path d="M554.29,222.06a2.27,2.27,0,0,1-.6.08l-1.71.13-6.28.42c-5.31.35-12.63.9-20.71,1.65s-15.38,1.59-20.66,2.22l-6.25.76-1.71.19a4.44,4.44,0,0,1-.6,0,2.28,2.28,0,0,1,.59-.14l1.69-.28c1.47-.24,3.6-.56,6.23-.92,5.27-.73,12.57-1.62,20.66-2.38s15.42-1.24,20.74-1.5c2.66-.13,4.81-.21,6.29-.25l1.72,0A2.15,2.15,0,0,1,554.29,222.06Z" style="fill:#e0e0e0"></path><path d="M510.13,238.5c-.14,0-2.16-12.79-4.52-28.6s-4.15-28.66-4-28.68,2.17,12.78,4.53,28.6S510.28,238.48,510.13,238.5Z" style="fill:#e0e0e0"></path><path d="M521.61,237.28c-.15,0-1.93-12.62-4-28.23s-3.61-28.29-3.47-28.31,1.93,12.62,4,28.24S521.75,237.26,521.61,237.28Z" style="fill:#e0e0e0"></path><path d="M532.06,233.79a1.9,1.9,0,0,1-.08-.55c0-.42-.09-1-.14-1.59-.11-1.46-.27-3.44-.46-5.85-.38-4.94-1-11.75-1.85-19.26s-1.83-14.29-2.57-19.18c-.36-2.4-.66-4.36-.88-5.8-.09-.64-.17-1.16-.23-1.58a1.83,1.83,0,0,1,0-.56,3.49,3.49,0,0,1,.14.54q.13.61.33,1.56c.27,1.36.63,3.33,1.05,5.78.83,4.88,1.85,11.66,2.72,19.18s1.41,14.34,1.7,19.29c.15,2.48.25,4.48.29,5.87,0,.64,0,1.17,0,1.59A2.39,2.39,0,0,1,532.06,233.79Z" style="fill:#e0e0e0"></path><path d="M544.08,232.77c-.14,0-1.63-12.41-3.33-27.75s-3-27.8-2.81-27.81,1.64,12.41,3.33,27.75S544.22,232.75,544.08,232.77Z" style="fill:#e0e0e0"></path><path d="M543.77,201.67c0,.14-9.32,1-20.83,1.82s-20.87,1.44-20.88,1.29,9.32-.95,20.84-1.81S543.76,201.52,543.77,201.67Z" style="fill:#263238"></path><path d="M543.79,213.42c0,.15-8.78,1.14-19.64,2.22s-19.68,1.85-19.69,1.7,8.77-1.13,19.64-2.22S543.78,213.28,543.79,213.42Z" style="fill:#263238"></path><path d="M534,224.42a10.86,10.86,0,0,1-2.55.69,52.69,52.69,0,0,1-6.32.91,54.65,54.65,0,0,1-6.38.18,11.21,11.21,0,0,1-2.63-.25,14.92,14.92,0,0,1,2.64-.12c1.62,0,3.86-.12,6.33-.33s4.69-.51,6.29-.75A16.88,16.88,0,0,1,534,224.42Z" style="fill:#263238"></path><path d="M404.35,226.15a12,12,0,0,0,3.86,10,11.17,11.17,0,0,0,9.9,2.84,12.32,12.32,0,0,0-13.76-12.8Z" style="fill:#455a64"></path><path d="M407.43,228.74c.12-.09,2.24,2.67,5.33,5.62s5.91,5,5.82,5.11a8.39,8.39,0,0,1-1.95-1.19,38.82,38.82,0,0,1-7.93-7.64A7.72,7.72,0,0,1,407.43,228.74Z" style="fill:#263238"></path><path d="M497.79,193.06a12,12,0,0,0-10.24,3.06,11.2,11.2,0,0,0-3.6,9.65,12.34,12.34,0,0,0,13.84-12.71Z" style="fill:#455a64"></path><path d="M495,195.92c.09.13-2.83,2-6,4.87s-5.43,5.51-5.55,5.41a8.26,8.26,0,0,1,1.35-1.85,38,38,0,0,1,3.85-3.95A38.43,38.43,0,0,1,493,197,8.16,8.16,0,0,1,495,195.92Z" style="fill:#263238"></path><path d="M479,138.33a14.68,14.68,0,0,0-9.64,8.9,13.66,13.66,0,0,0,1.23,12.57A15.13,15.13,0,0,0,479,138.33Z" style="fill:#455a64"></path><path d="M477.46,143a18.2,18.2,0,0,1-1.24,2.5c-.79,1.53-1.83,3.67-2.83,6.09s-1.75,4.68-2.27,6.33a17.85,17.85,0,0,1-.88,2.65,12.37,12.37,0,0,1,.53-2.75,49.81,49.81,0,0,1,5.13-12.49A12.33,12.33,0,0,1,477.46,143Z" style="fill:#263238"></path><g style="opacity:0.2"><path d="M496.93,356.31a16,16,0,0,0-10.85,9.26,14.93,14.93,0,0,0,.8,13.71,16.45,16.45,0,0,0,10.05-23Z"></path></g><path d="M495,361.33a22.77,22.77,0,0,1-1.47,2.66c-.92,1.63-2.15,3.9-3.34,6.49s-2.1,5-2.72,6.78a24.47,24.47,0,0,1-1.05,2.85,13.38,13.38,0,0,1,.7-3,54.87,54.87,0,0,1,6.1-13.34A13.85,13.85,0,0,1,495,361.33Z" style="fill:#263238"></path><g style="opacity:0.2"><path d="M467.3,369.14a16,16,0,0,0,6.79,12.54,14.9,14.9,0,0,0,13.57,2.08,16.43,16.43,0,0,0-20.36-14.62Z"></path></g><path d="M471.81,372.05a24.7,24.7,0,0,1,2.3,2c1.39,1.25,3.36,2.92,5.65,4.62s4.46,3.11,6.05,4.08a23.33,23.33,0,0,1,2.57,1.63,13.63,13.63,0,0,1-2.75-1.31,53.74,53.74,0,0,1-6.18-4,55.08,55.08,0,0,1-5.6-4.77A13.5,13.5,0,0,1,471.81,372.05Z" style="fill:#263238"></path><path d="M535.79,406.67c0,2.84-3.78,5-8.54,5s-8.62-2.3-8.62-5.13c0-1-.09-2.55-.09-2.55a15.69,15.69,0,0,1,8.71-3.5c3.71,0,7.92.54,8.55,3.47C535.8,404,535.79,406.05,535.79,406.67Z" style="fill:#ff9a6c"></path><g style="opacity:0.30000000000000004"><path d="M535.79,406.67c0,2.84-3.78,5-8.54,5s-8.62-2.3-8.62-5.13c0-1-.09-2.55-.09-2.55a15.69,15.69,0,0,1,8.71-3.5c3.71,0,7.92.54,8.55,3.47C535.8,404,535.79,406.05,535.79,406.67Z" style="fill:#8BAA36"></path></g><ellipse cx="527.17" cy="404.26" rx="8.62" ry="5.13" style="fill:#ff9a6c"></ellipse><g style="opacity:0.30000000000000004"><path d="M532.25,404.26c0,1.64-2.24,3-5,3s-5-1.34-5-3,2.24-3,5-3S532.25,402.62,532.25,404.26Z" style="fill:#fff"></path></g><path d="M530.45,404.26c0,1.05-1.43,1.9-3.2,1.9s-3.19-.85-3.19-1.9,1.43-1.9,3.19-1.9S530.45,403.21,530.45,404.26Z" style="fill:#ff9a6c"></path><path d="M542.76,403.17c-.71,2.75-4.9,3.92-9.52,2.74s-7.77-4.37-7.07-7.11c.25-1,.55-2.49.55-2.49a15.61,15.61,0,0,1,9.3-1.22c3.59.92,7.54,2.49,7.41,5.48C543.43,400.57,542.91,402.57,542.76,403.17Z" style="fill:#ff9a6c"></path><g style="opacity:0.30000000000000004"><path d="M542.76,403.17c-.71,2.75-4.9,3.92-9.52,2.74s-7.77-4.37-7.07-7.11c.25-1,.55-2.49.55-2.49a15.61,15.61,0,0,1,9.3-1.22c3.59.92,7.54,2.49,7.41,5.48C543.43,400.57,542.91,402.57,542.76,403.17Z" style="fill:#8BAA36"></path></g><path d="M543.36,400.83c-.71,2.75-5,4-9.63,2.83s-7.78-4.36-7.07-7.11,5-4,9.62-2.83S544.06,398.09,543.36,400.83Z" style="fill:#ff9a6c"></path><g style="opacity:0.30000000000000004"><path d="M539.94,400c-.41,1.59-2.91,2.32-5.59,1.64s-4.51-2.54-4.1-4.13,2.9-2.33,5.58-1.64S540.34,398.36,539.94,400Z" style="fill:#fff"></path></g><path d="M538.19,399.51c-.26,1-1.86,1.49-3.57,1.05s-2.89-1.62-2.62-2.64,1.85-1.49,3.56-1.05S538.45,398.49,538.19,399.51Z" style="fill:#ff9a6c"></path></g></svg>
