<svg width="91" height="92" viewBox="0 0 91 92" fill="none" xmlns="http://www.w3.org/2000/svg">
<path d="M6.17595 0.257935H84.2735C85.755 0.257935 87.1759 0.775658 88.2234 1.69721C89.271 2.61877 89.8595 3.86866 89.8595 5.17193V73.8743C89.8595 75.1776 89.271 76.4275 88.2234 77.3491C87.1759 78.2706 85.755 78.7883 84.2735 78.7883H26.1047C20.7847 82.757 10.6235 90.7504 10.6235 90.7504L9.86803 78.7883H6.17595C4.6963 78.7859 3.2782 78.267 2.23292 77.3457C1.18764 76.4245 0.600583 75.176 0.600586 73.8743V5.17193C0.600583 3.87028 1.18764 2.6218 2.23292 1.70052C3.2782 0.779233 4.6963 0.260414 6.17595 0.257935Z" fill="#FAFAFA"/>
<path d="M6.17575 0.257935C5.56869 0.296246 4.96878 0.396766 4.38822 0.557454C3.55585 0.822741 2.80618 1.2567 2.19989 1.82421C1.59359 2.39172 1.14769 3.07683 0.898297 3.82409C0.668376 4.94463 0.600448 6.08625 0.696135 7.22178C0.696135 8.49474 0.696135 9.87066 0.696135 11.3589C0.696135 14.3447 0.696135 17.7705 0.696135 21.5987C0.696135 29.2646 0.696148 38.5591 0.759988 49.192C0.759988 54.5085 0.759988 60.1619 0.759988 66.1149V70.6358C0.759988 71.3939 0.759988 72.1615 0.759988 72.929C0.705965 73.686 0.777648 74.4459 0.972785 75.1847C1.21225 75.9151 1.65032 76.5831 2.24911 77.131C2.84791 77.679 3.5894 78.0904 4.4095 78.3297C5.2581 78.5493 6.14492 78.6317 7.02695 78.5731H10.0274V78.7696C10.2721 82.5136 10.5275 86.5852 10.7935 90.7411L10.3679 90.5819L25.9342 78.6479L26.0087 78.5918H75.2719C78.4639 78.5918 81.5814 78.5918 84.6564 78.5918C85.7657 78.5189 86.8211 78.142 87.6742 77.5141C88.5273 76.8862 89.1352 76.0388 89.4125 75.0911C89.5665 74.4484 89.6237 73.7907 89.5827 73.1349V57.1199C89.5827 46.6555 89.5827 36.5279 89.5827 26.9433C89.5827 22.1322 89.5827 17.4523 89.5827 12.9033C89.5827 10.6288 89.5827 8.38241 89.5827 6.17345C89.5975 5.63325 89.5798 5.09273 89.5295 4.55417C89.4497 4.03509 89.2698 3.53179 88.9975 3.06593C88.4616 2.1379 87.5892 1.39353 86.5184 0.950573C85.9917 0.728446 85.4276 0.583035 84.8479 0.520013C84.284 0.520013 83.6775 0.520013 83.0817 0.520013H72.6332H59.6524L20.4972 0.445132L59.6524 0.370257H72.6332H83.0817C83.6775 0.370257 84.2733 0.370257 84.9011 0.370257C85.851 0.471003 86.7585 0.774362 87.5448 1.25396C88.331 1.73355 88.9722 2.37485 89.4125 3.12209C89.7086 3.62869 89.903 4.17652 89.987 4.74138C90.0554 5.2977 90.0768 5.85772 90.0509 6.41682C90.0509 8.62578 90.0509 10.8722 90.0509 13.1467C90.0509 17.7019 90.0509 22.3819 90.0509 27.1867C90.0509 36.7994 90.0509 46.8988 90.0509 57.3633C90.0509 62.5924 90.0509 67.8964 90.0509 73.2753C90.0918 73.9723 90.0274 74.6711 89.8593 75.3532C89.6582 76.0361 89.2957 76.674 88.7953 77.2252C88.2951 77.7935 87.664 78.2624 86.9434 78.6011C86.2228 78.9399 85.4289 79.1408 84.6138 79.1908C81.4218 79.1908 78.3469 79.1908 75.1868 79.1908H26.1045L26.2853 79.1347C20.9653 83.2624 15.6453 87.2966 10.7935 91.0874L10.3998 91.3963V90.9283C10.1445 86.7724 9.88911 82.7102 9.65503 78.9662L9.89974 79.1721H7.13334C6.19673 79.2256 5.25672 79.1337 4.3563 78.9007C3.46668 78.6329 2.66316 78.1811 2.01328 77.5833C1.36339 76.9856 0.886144 76.2593 0.621663 75.4655C0.416716 74.6899 0.341437 73.8922 0.398216 73.0975V66.2834C0.398216 60.3304 0.398216 54.677 0.398216 49.3605C0.398216 38.7275 0.398219 29.4331 0.451419 21.7672C0.451419 17.939 0.451419 14.5132 0.451419 11.5274C0.451419 10.0391 0.451419 8.66322 0.451419 7.39026C0.364601 6.24072 0.446849 5.08614 0.696135 3.95513C0.951294 3.18953 1.41375 2.48981 2.04383 1.91597C2.67391 1.34212 3.45282 0.911287 4.31375 0.660415C4.75232 0.538214 5.206 0.462796 5.66503 0.435777L6.17575 0.257935Z" fill="#263238"/>
<path d="M64.2384 38.3438L61.4082 50.5586L70.6224 50.3713L64.2384 38.3438Z" fill="#BFE25D"/>
<g opacity="0.3">
<path d="M64.2384 38.3438L61.4082 50.5586L70.6224 50.3713L64.2384 38.3438Z" fill="black"/>
</g>
<path d="M24.7208 38.7369L27.5511 50.9517L18.3262 50.7645L24.7208 38.7369Z" fill="#BFE25D"/>
<g opacity="0.3">
<path d="M24.7208 38.7369L27.5511 50.9517L18.3262 50.7645L24.7208 38.7369Z" fill="black"/>
</g>
<path d="M48.3318 41.002C48.0314 41.0022 47.7427 40.8998 47.5264 40.7165C47.3101 40.5332 47.1831 40.2832 47.172 40.0192L45.8207 11.4057C45.8165 11.2677 45.8436 11.1303 45.9003 11.0016C45.9571 10.8729 46.0425 10.7555 46.1515 10.6561C46.2604 10.5568 46.3908 10.4775 46.535 10.423C46.6791 10.3685 46.8342 10.3398 46.9912 10.3386H48.6191C48.7723 10.3386 48.924 10.3653 49.0654 10.4172C49.2068 10.469 49.3351 10.545 49.4429 10.6407C49.5508 10.7365 49.636 10.8501 49.6936 10.9749C49.7513 11.0998 49.7802 11.2335 49.7788 11.3682L49.5022 39.9818C49.4994 40.2532 49.3748 40.5127 49.1556 40.7037C48.9365 40.8948 48.6404 41.002 48.3318 41.002Z" fill="#AFE814"/>
<path d="M49.7893 13.989H45.9482V16.4694H49.7893V13.989Z" fill="#BFE25D"/>
<path d="M50.9273 41.1144C50.6431 41.0231 50.4101 40.8386 50.2772 40.5995C50.1443 40.3605 50.1218 40.0854 50.2144 39.832L60.1202 12.557C60.1668 12.4245 60.2436 12.3018 60.3459 12.1963C60.4483 12.0908 60.574 12.0047 60.7154 11.9434C60.8568 11.8821 61.0109 11.8468 61.1684 11.8396C61.3258 11.8325 61.4833 11.8536 61.6311 11.9018L63.1526 12.3885C63.4437 12.4853 63.6796 12.6791 63.8091 12.928C63.9386 13.1769 63.9512 13.4606 63.8442 13.7176L52.4169 40.506C52.3068 40.7576 52.0899 40.9617 51.8119 41.0752C51.534 41.1887 51.2168 41.2028 50.9273 41.1144Z" fill="#AFE814"/>
<path d="M59.2483 15.0139L58.2803 17.3435L61.8878 18.5036L62.8559 16.174L59.2483 15.0139Z" fill="#BFE25D"/>
<path d="M62.0362 33.8417C61.4383 33.0426 60.6554 32.3636 59.7386 31.8491C58.8218 31.3345 57.7919 30.9961 56.7162 30.8559C54.5993 30.6282 52.453 30.9537 50.545 31.7919C49.0448 32.419 47.4913 33.2894 45.8847 32.9993C44.7655 32.6666 43.729 32.1487 42.831 31.4736C41.6328 30.7507 40.2815 30.2472 38.8576 29.9931C37.4336 29.7391 35.9661 29.7396 34.5424 29.9947C31.6032 30.5887 29.0336 32.1492 27.3604 34.3565C26.6661 35.1673 26.1808 36.1014 25.9383 37.0939C25.6957 38.0863 25.7018 39.1133 25.9559 40.1035L62.6852 39.9912C63.1204 38.991 63.2881 37.9162 63.1756 36.8499C63.063 35.7836 62.6732 34.7543 62.0362 33.8417Z" fill="#E0E0E0"/>
<path d="M61.0572 39.3359C61.0987 38.8061 61.0987 38.2745 61.0572 37.7447C60.8932 36.3095 60.136 34.9773 58.9292 34.0007C58.0916 33.3577 57.046 32.9616 55.9394 32.8682C54.6598 32.7722 53.3721 32.9322 52.1728 33.3362C50.896 33.7293 49.6831 34.4594 48.236 34.9742C47.4875 35.2449 46.683 35.3756 45.8739 35.3579C45.0434 35.3064 44.233 35.1091 43.4906 34.7776C42.001 34.1505 40.7561 33.2987 39.4367 32.6997C38.186 32.1132 36.777 31.8381 35.3616 31.9041C34.0853 31.9602 32.842 32.2809 31.7334 32.8401C30.769 33.3465 29.9268 34.0143 29.2543 34.8057C28.2698 35.9619 27.5967 37.2997 27.2859 38.7182C27.0731 39.729 27.0837 40.3094 27.0305 40.3C27.0055 40.1636 27.0055 40.0246 27.0305 39.8882C27.0242 39.4875 27.0527 39.087 27.1156 38.6901C27.353 37.2147 27.9918 35.8115 28.9776 34.5998C29.6669 33.7565 30.5382 33.0408 31.5419 32.4938C32.7067 31.8729 34.024 31.5069 35.3829 31.4267C36.8883 31.3469 38.3898 31.6318 39.724 32.2504C41.1072 32.8682 42.3627 33.7199 43.7672 34.3096C44.4314 34.6051 45.1537 34.7862 45.8952 34.8431C46.6244 34.861 47.3496 34.743 48.0232 34.4968C49.3851 34.0288 50.63 33.2894 51.9813 32.8869C53.255 32.4714 54.6198 32.3177 55.9713 32.4376C57.1627 32.5574 58.2802 33.0064 59.1633 33.7199C60.3975 34.7779 61.1247 36.2113 61.1955 37.726C61.2144 38.1269 61.1859 38.5284 61.1104 38.9241C61.1211 39.1674 61.0785 39.3359 61.0572 39.3359Z" fill="#263238"/>
<path d="M59.3123 39.6822C59.3401 39.2208 59.3401 38.7584 59.3123 38.297C59.2502 37.6775 59.0376 37.0769 58.6888 36.5359C58.34 35.995 57.8632 35.5262 57.2907 35.1614C56.5007 34.6767 55.5302 34.4758 54.5775 34.5998C53.4781 34.8024 52.4361 35.1971 51.5132 35.7604C50.4489 36.4192 49.2802 36.9364 48.0445 37.2955C46.6446 37.5784 45.1783 37.4569 43.863 36.9491C41.1924 36.0131 39.075 34.4594 36.7236 34.0475C35.7037 33.8606 34.6466 33.9041 33.6511 34.1742C32.6556 34.4443 31.7542 34.9321 31.0312 35.5919C30.0452 36.5067 29.3578 37.6384 29.0415 38.8679C28.8074 39.7384 28.8181 40.2532 28.7649 40.2439C28.7117 40.2345 28.7649 40.1222 28.7649 39.8788C28.7683 39.5274 28.8039 39.1769 28.8713 38.8305C29.1197 37.5331 29.7842 36.3251 30.7865 35.3486C31.4946 34.6779 32.3682 34.1591 33.3401 33.8322C34.4641 33.4466 35.691 33.3556 36.8725 33.5702C39.3942 34.0007 41.5541 35.5826 44.1077 36.4624C45.3161 36.9268 46.66 37.0447 47.9488 36.7994C49.1351 36.4537 50.26 35.9621 51.2897 35.3392C52.2729 34.7496 53.3857 34.3478 54.5562 34.1599C55.6191 34.0391 56.6939 34.2839 57.5567 34.8431C58.2602 35.2892 58.8091 35.8984 59.1421 36.6028C59.3967 37.1213 59.5409 37.6765 59.5676 38.2408C59.5765 38.6091 59.5336 38.9769 59.44 39.3359C59.4199 39.4569 59.3767 39.574 59.3123 39.6822Z" fill="#263238"/>
<path d="M57.0345 39.6916C57.0409 39.3286 56.9612 38.9684 56.8004 38.634C56.5808 38.193 56.1918 37.8341 55.7015 37.6202C55.2113 37.4063 54.6511 37.351 54.1191 37.464C53.3605 37.6173 52.6395 37.89 51.9911 38.2689C51.2093 38.7257 50.3747 39.1085 49.5014 39.4108C47.3669 39.8647 45.1168 39.601 43.1919 38.6714C41.357 37.7931 39.4336 37.0661 37.4463 36.4999C36.6518 36.2822 35.8136 36.2164 34.9879 36.3068C34.1621 36.3972 33.3679 36.6417 32.6583 37.024C31.7236 37.5847 31.0362 38.4108 30.7111 39.364C30.4877 40.0473 30.5409 40.4592 30.4771 40.4592C30.4445 40.365 30.4266 40.2674 30.4239 40.169C30.4074 39.8834 30.4324 39.5972 30.4983 39.3172C30.7656 38.2803 31.4543 37.3649 32.4348 36.7432C33.1821 36.3088 34.0279 36.0226 34.9135 35.9046C35.7991 35.7866 36.7033 35.8396 37.5633 36.06C39.5909 36.6115 41.5512 37.3389 43.4153 38.2315C45.2225 39.1042 47.3284 39.3703 49.3418 38.9803C50.1851 38.6998 50.9943 38.3454 51.7571 37.9226C52.4556 37.5326 53.2318 37.2626 54.0446 37.127C54.7448 37.0042 55.4718 37.1214 56.0769 37.4546C56.5113 37.7194 56.8479 38.0903 57.0451 38.5216C57.1662 38.7921 57.21 39.0846 57.1728 39.3734C57.1691 39.4902 57.1203 39.6024 57.0345 39.6916Z" fill="#263238"/>
<path d="M24.6572 38.6339C24.6572 39.4669 31.403 69.9525 31.403 69.9525L57.8647 69.5687L64.2487 38.3438L24.6572 38.6339Z" fill="#BFE25D"/>
<path d="M24.6572 38.634C24.9017 38.6202 25.1469 38.6202 25.3914 38.634L27.5939 38.5872L35.8718 38.4655L64.238 38.1379H64.6849L64.4828 38.4936L60.3864 45.654C59.216 47.6945 58.0668 49.7069 56.9496 51.6444L56.8751 51.7848H56.7049L32.0414 51.7193H31.9137V51.6257C29.6793 47.6383 27.8599 44.3904 26.5937 42.0972L25.1786 39.5419L24.8168 38.8774C24.7757 38.8123 24.7436 38.7432 24.7211 38.6715L24.87 38.9055L25.285 39.5887L26.8171 42.1534C28.1259 44.3998 30.0091 47.5635 32.2861 51.4572L32.1052 51.3543L56.7688 51.2981L56.524 51.4291L59.9608 45.4294L64.0572 38.2783L64.3019 38.6247L36.1697 38.6995H25.5297L24.6572 38.634Z" fill="#263238"/>
<g opacity="0.3">
<path d="M32.7441 51.5039L33.4144 52.7675H57.4077L63.6108 39.4482L56.7054 51.5039H32.7441Z" fill="black"/>
</g>
<path d="M49.864 64.3365C48.3158 64.5762 46.7413 64.6578 45.1717 64.5798C43.6022 64.6584 42.0276 64.5767 40.4795 64.3365C42.0276 64.0962 43.6022 64.0146 45.1717 64.0931C46.7413 64.0152 48.3158 64.0968 49.864 64.3365Z" fill="#FAFAFA"/>
<path d="M48.182 59.4786C48.182 59.4786 48.1182 59.2446 47.9799 58.8422C47.7807 58.2918 47.3852 57.8126 46.852 57.4756C46.4676 57.2321 46.0208 57.0757 45.5513 57.0202C45.0818 56.9647 44.604 57.0118 44.1601 57.1573C43.7809 57.283 43.4368 57.4789 43.151 57.7316C42.8653 57.9844 42.6445 58.2881 42.5038 58.6224C42.363 58.9567 42.3055 59.3137 42.3351 59.6692C42.3647 60.0247 42.4808 60.3705 42.6754 60.6832C42.87 60.9958 43.1387 61.2681 43.4633 61.4815C43.7878 61.6949 44.1607 61.8446 44.5567 61.9203C44.9527 61.996 45.3625 61.996 45.7585 61.9203C46.1545 61.8446 46.5274 61.6951 46.852 61.4817C47.3874 61.1466 47.7835 60.6667 47.9799 60.1151C48.1182 59.722 48.1288 59.4786 48.182 59.4786C48.2512 59.7023 48.2512 59.9382 48.182 60.1619C48.0563 60.7902 47.6788 61.358 47.118 61.7625C46.687 62.0647 46.1757 62.2654 45.6321 62.3457C45.0885 62.4259 44.5307 62.3831 44.0111 62.2211C43.3675 62.0196 42.8106 61.6479 42.4168 61.1568C42.0229 60.6658 41.8115 60.0796 41.8115 59.4786C41.8115 58.8777 42.0229 58.2915 42.4168 57.8004C42.8106 57.3094 43.3675 56.9376 44.0111 56.7362C44.5308 56.5709 45.0902 56.5272 45.6348 56.6093C46.1794 56.6913 46.6905 56.8963 47.118 57.2042C47.6803 57.6035 48.0585 58.169 48.182 58.7953C48.2512 59.019 48.2512 59.2549 48.182 59.4786Z" fill="#FAFAFA"/>
<path d="M32.8396 27.8326C32.9904 27.7771 33.1262 27.6943 33.238 27.5894C33.3499 27.4846 33.4353 27.3601 33.4886 27.2242C33.6121 26.9216 33.6121 26.5907 33.4886 26.2882C33.2519 25.876 32.9511 25.4949 32.5949 25.1556C31.839 24.3364 31.479 23.2889 31.5925 22.2385C31.7059 21.1881 32.2837 20.219 33.2013 19.5396C33.8291 19.0248 34.5526 18.5194 34.6378 17.8267C34.62 17.4664 34.516 17.1135 34.3327 16.7909C34.1494 16.4683 33.8908 16.1834 33.5738 15.9547C32.9566 15.4332 32.4361 14.83 32.031 14.167C31.7143 13.5856 31.5377 12.9529 31.512 12.3087C31.4864 11.6644 31.6124 11.0224 31.882 10.423C32.2487 9.62129 32.8784 8.93377 33.6908 8.44801C33.9617 8.24418 34.2879 8.10552 34.6378 8.04553C34.6378 8.04553 34.3292 8.22338 33.8185 8.59778C33.1109 9.11594 32.5683 9.78676 32.2438 10.5447C32.0182 11.102 31.9235 11.6938 31.9656 12.2843C32.0077 12.8748 32.1855 13.4516 32.4885 13.9798C32.8927 14.5945 33.3943 15.1554 33.9781 15.6459C34.292 15.9308 34.5703 16.2446 34.808 16.5819C35.078 16.965 35.1976 17.4155 35.1485 17.8642C35.0716 18.3084 34.8455 18.7224 34.4994 19.0529C34.1893 19.339 33.8626 19.6108 33.5206 19.8672C32.7158 20.4806 32.2016 21.337 32.0795 22.2675C31.9574 23.198 32.2362 24.135 32.8609 24.8935C33.2204 25.2681 33.5145 25.6876 33.7333 26.1384C33.8964 26.5023 33.8964 26.9071 33.7333 27.271C33.6254 27.4997 33.4188 27.6814 33.1588 27.7764C32.9247 27.8606 32.8396 27.8419 32.8396 27.8326Z" fill="#263238"/>
<path d="M36.9149 27.8326C37.0658 27.7771 37.2015 27.6943 37.3134 27.5894C37.4253 27.4846 37.5107 27.3601 37.564 27.2242C37.6874 26.9216 37.6874 26.5907 37.564 26.2882C37.3272 25.876 37.0264 25.4949 36.6702 25.1556C35.9144 24.3364 35.5544 23.2889 35.6678 22.2385C35.7813 21.1881 36.359 20.219 37.2767 19.5396C37.9045 19.0248 38.628 18.5194 38.7131 17.8267C38.6953 17.4664 38.5914 17.1135 38.4081 16.7909C38.2247 16.4683 37.9661 16.1834 37.6491 15.9547C37.0321 15.4354 36.5147 14.8317 36.1169 14.167C35.7929 13.5878 35.6112 12.955 35.5837 12.3099C35.5562 11.6648 35.6835 11.0219 35.9573 10.423C36.3311 9.62495 36.9593 8.93907 37.7662 8.44801C38.04 8.24273 38.3701 8.10398 38.7237 8.04553C38.7237 8.04553 38.4045 8.22338 37.8938 8.59778C37.188 9.11531 36.6487 9.78658 36.3297 10.5447C36.1017 11.1016 36.0057 11.6937 36.0478 12.2845C36.0899 12.8753 36.2691 13.4523 36.5745 13.9798C36.9709 14.5965 37.4693 15.158 38.0534 15.6459C38.3674 15.9308 38.6456 16.2446 38.8833 16.5819C39.1533 16.965 39.2729 17.4155 39.2238 17.8642C39.1521 18.3098 38.9254 18.7251 38.5748 19.0529C38.2556 19.3618 37.9151 19.6145 37.6065 19.8672C36.9971 20.3099 36.5463 20.8983 36.3085 21.5614C36.1035 22.1211 36.0546 22.7161 36.1657 23.296C36.2768 23.8759 36.5447 24.4238 36.9469 24.8935C37.3033 25.2683 37.5938 25.6879 37.8087 26.1384C37.9772 26.5014 37.9772 26.908 37.8087 27.271C37.7007 27.4997 37.4941 27.6814 37.2342 27.7764C37.0107 27.8606 36.9149 27.8419 36.9149 27.8326Z" fill="#263238"/>
</svg>
