<svg width="14" height="14" viewBox="0 0 14 14" fill="none" xmlns="http://www.w3.org/2000/svg">
    <path
        d="M9.33333 3.49984V3.03317C9.33333 2.37978 9.33333 2.05308 9.20617 1.80351C9.09432 1.58399 8.91584 1.40552 8.69632 1.29366C8.44676 1.1665 8.12006 1.1665 7.46667 1.1665H6.53333C5.87994 1.1665 5.55324 1.1665 5.30368 1.29366C5.08416 1.40552 4.90568 1.58399 4.79383 1.80351C4.66667 2.05308 4.66667 2.37978 4.66667 3.03317V3.49984M5.83333 6.70817V9.62484M8.16667 6.70817V9.62484M1.75 3.49984H12.25M11.0833 3.49984V10.0332C11.0833 11.0133 11.0833 11.5033 10.8926 11.8777C10.7248 12.2069 10.4571 12.4747 10.1278 12.6424C9.75347 12.8332 9.26342 12.8332 8.28333 12.8332H5.71667C4.73657 12.8332 4.24653 12.8332 3.87218 12.6424C3.5429 12.4747 3.27518 12.2069 3.10741 11.8777C2.91667 11.5033 2.91667 11.0133 2.91667 10.0332V3.49984"
        stroke-width="1.2" stroke-linecap="round" stroke-linejoin="round" />
</svg>